<svg width="90" height="90" viewBox="0 0 90 90" fill="none" xmlns="http://www.w3.org/2000/svg">
<g filter="url(#filter0_d)">
<path fill-rule="evenodd" clip-rule="evenodd" d="M52.262 40.7739C51.972 41.0559 51.9654 41.5196 52.2475 41.8095C54.0918 43.7064 55.1075 46.2085 55.1075 48.8549C55.1075 54.4281 50.5733 58.9623 45.0001 58.9623C39.4269 58.9623 34.8927 54.4281 34.8927 48.8549C34.8927 43.2816 39.4269 38.7474 45.0001 38.7474C46.7327 38.7474 48.4418 39.193 49.9425 40.036C50.2952 40.234 50.7417 40.1088 50.9397 39.7561C51.1378 39.4035 51.0126 38.9569 50.6599 38.7589C48.9405 37.793 46.9834 37.2826 45 37.2826C38.619 37.2826 33.4277 42.4739 33.4277 48.8549C33.4277 55.2358 38.619 60.4271 45 60.4271C51.381 60.4271 56.5723 55.2358 56.5723 48.8549C56.5723 45.8251 55.4093 42.9603 53.2977 40.7885C53.0157 40.4984 52.5521 40.492 52.262 40.7739Z" fill="#F03C53"/>
<path fill-rule="evenodd" clip-rule="evenodd" d="M52.262 40.7739C51.972 41.0559 51.9654 41.5196 52.2475 41.8095C54.0918 43.7064 55.1075 46.2085 55.1075 48.8549C55.1075 54.4281 50.5733 58.9623 45.0001 58.9623C39.4269 58.9623 34.8927 54.4281 34.8927 48.8549C34.8927 43.2816 39.4269 38.7474 45.0001 38.7474C46.7327 38.7474 48.4418 39.193 49.9425 40.036C50.2952 40.234 50.7417 40.1088 50.9397 39.7561C51.1378 39.4035 51.0126 38.9569 50.6599 38.7589C48.9405 37.793 46.9834 37.2826 45 37.2826C38.619 37.2826 33.4277 42.4739 33.4277 48.8549C33.4277 55.2358 38.619 60.4271 45 60.4271C51.381 60.4271 56.5723 55.2358 56.5723 48.8549C56.5723 45.8251 55.4093 42.9603 53.2977 40.7885C53.0157 40.4984 52.5521 40.492 52.262 40.7739Z" fill="url(#paint0_linear)"/>
</g>
<g filter="url(#filter1_d)">
<path fill-rule="evenodd" clip-rule="evenodd" d="M55.9685 34.0126C58.2402 35.6937 60.1235 37.907 61.4149 40.4131C62.7679 43.039 63.454 45.8791 63.454 48.8546C63.454 49.2995 63.4379 49.7477 63.4061 50.1865C63.3769 50.5899 63.6802 50.9407 64.0836 50.9699C64.1017 50.9711 64.1196 50.9718 64.1373 50.9718C64.5178 50.9718 64.8392 50.6777 64.8671 50.2923C64.9015 49.8185 64.9189 49.3348 64.9189 48.8546C64.9189 45.6886 64.1575 42.5375 62.717 39.7421C61.3234 37.0374 59.2911 34.649 56.8399 32.8351C56.5148 32.5946 56.0562 32.663 55.8155 32.9881C55.5748 33.3133 55.6434 33.772 55.9685 34.0126Z" fill="#F03C53"/>
<path fill-rule="evenodd" clip-rule="evenodd" d="M55.9685 34.0126C58.2402 35.6937 60.1235 37.907 61.4149 40.4131C62.7679 43.039 63.454 45.8791 63.454 48.8546C63.454 49.2995 63.4379 49.7477 63.4061 50.1865C63.3769 50.5899 63.6802 50.9407 64.0836 50.9699C64.1017 50.9711 64.1196 50.9718 64.1373 50.9718C64.5178 50.9718 64.8392 50.6777 64.8671 50.2923C64.9015 49.8185 64.9189 49.3348 64.9189 48.8546C64.9189 45.6886 64.1575 42.5375 62.717 39.7421C61.3234 37.0374 59.2911 34.649 56.8399 32.8351C56.5148 32.5946 56.0562 32.663 55.8155 32.9881C55.5748 33.3133 55.6434 33.772 55.9685 34.0126Z" fill="url(#paint1_linear)"/>
</g>
<g filter="url(#filter2_d)">
<path fill-rule="evenodd" clip-rule="evenodd" d="M25.8625 50.9708C25.8804 50.9708 25.8982 50.9701 25.9163 50.9689C26.3197 50.9396 26.623 50.5887 26.5938 50.1854C26.562 49.7476 26.5459 49.2998 26.5459 48.8546C26.5459 45.8802 27.2315 43.0411 28.5836 40.416C29.8739 37.9111 31.7558 35.6981 34.0259 34.0163C34.3509 33.7755 34.4191 33.3168 34.1784 32.9918C33.9377 32.6668 33.4789 32.5986 33.1539 32.8393C30.7045 34.6538 28.6739 37.0419 27.2813 39.7452C25.8213 42.5797 25.0811 45.6446 25.0811 48.8545C25.0811 49.335 25.0984 49.8184 25.1328 50.2913C25.1607 50.6768 25.4821 50.9708 25.8625 50.9708Z" fill="#F03C53"/>
<path fill-rule="evenodd" clip-rule="evenodd" d="M25.8625 50.9708C25.8804 50.9708 25.8982 50.9701 25.9163 50.9689C26.3197 50.9396 26.623 50.5887 26.5938 50.1854C26.562 49.7476 26.5459 49.2998 26.5459 48.8546C26.5459 45.8802 27.2315 43.0411 28.5836 40.416C29.8739 37.9111 31.7558 35.6981 34.0259 34.0163C34.3509 33.7755 34.4191 33.3168 34.1784 32.9918C33.9377 32.6668 33.4789 32.5986 33.1539 32.8393C30.7045 34.6538 28.6739 37.0419 27.2813 39.7452C25.8213 42.5797 25.0811 45.6446 25.0811 48.8545C25.0811 49.335 25.0984 49.8184 25.1328 50.2913C25.1607 50.6768 25.4821 50.9708 25.8625 50.9708Z" fill="url(#paint2_linear)"/>
</g>
<g filter="url(#filter3_d)">
<path fill-rule="evenodd" clip-rule="evenodd" d="M52.3722 65.7779C50.043 66.7942 47.5626 67.3096 45 67.3096C42.4351 67.3096 39.9532 66.7933 37.6233 65.7751C37.2527 65.6131 36.8209 65.7823 36.6589 66.1529C36.4969 66.5235 36.6661 66.9554 37.0367 67.1174C39.5527 68.2169 42.2319 68.7744 45 68.7744C47.7654 68.7744 50.4429 68.218 52.958 67.1205C53.3287 66.9587 53.4981 66.5271 53.3364 66.1563C53.1747 65.7855 52.743 65.616 52.3722 65.7779Z" fill="#F03C53"/>
<path fill-rule="evenodd" clip-rule="evenodd" d="M52.3722 65.7779C50.043 66.7942 47.5626 67.3096 45 67.3096C42.4351 67.3096 39.9532 66.7933 37.6233 65.7751C37.2527 65.6131 36.8209 65.7823 36.6589 66.1529C36.4969 66.5235 36.6661 66.9554 37.0367 67.1174C39.5527 68.2169 42.2319 68.7744 45 68.7744C47.7654 68.7744 50.4429 68.218 52.958 67.1205C53.3287 66.9587 53.4981 66.5271 53.3364 66.1563C53.1747 65.7855 52.743 65.616 52.3722 65.7779Z" fill="url(#paint3_linear)"/>
</g>
<g filter="url(#filter4_d)">
<path fill-rule="evenodd" clip-rule="evenodd" d="M50.1598 52.3177C50.5643 52.3177 50.8922 51.9898 50.8922 51.5853V45.6246C50.8922 45.2201 50.5643 44.8922 50.1598 44.8922C49.7553 44.8922 49.4273 45.2201 49.4273 45.6246V47.8726H46.9185V45.6246C46.9185 45.2201 46.5905 44.8922 46.186 44.8922C45.7815 44.8922 45.4536 45.2201 45.4536 45.6246V48.1082C45.4536 48.786 46.005 49.3373 46.6827 49.3373H49.4273V51.5853C49.4273 51.9898 49.7553 52.3177 50.1598 52.3177Z" fill="#F03C53"/>
<path fill-rule="evenodd" clip-rule="evenodd" d="M50.1598 52.3177C50.5643 52.3177 50.8922 51.9898 50.8922 51.5853V45.6246C50.8922 45.2201 50.5643 44.8922 50.1598 44.8922C49.7553 44.8922 49.4273 45.2201 49.4273 45.6246V47.8726H46.9185V45.6246C46.9185 45.2201 46.5905 44.8922 46.186 44.8922C45.7815 44.8922 45.4536 45.2201 45.4536 45.6246V48.1082C45.4536 48.786 46.005 49.3373 46.6827 49.3373H49.4273V51.5853C49.4273 51.9898 49.7553 52.3177 50.1598 52.3177Z" fill="url(#paint4_linear)"/>
</g>
<g filter="url(#filter5_d)">
<path fill-rule="evenodd" clip-rule="evenodd" d="M43.3173 49.3125C43.995 49.3125 44.5464 48.7611 44.5464 48.0834V46.0965C44.5464 45.4187 43.995 44.8674 43.3173 44.8674H40.3369C39.6592 44.8674 39.1078 45.4187 39.1078 46.0965C39.1078 46.501 39.4357 46.8289 39.8402 46.8289C40.1623 46.8289 40.4357 46.6211 40.5339 46.3322H43.0815V47.8477H40.3369C39.6592 47.8477 39.1078 48.3991 39.1078 49.0768V51.0638C39.1078 51.7415 39.6592 52.2929 40.3369 52.2929H43.8139C44.2184 52.2929 44.5464 51.9649 44.5464 51.5604C44.5464 51.1559 44.2184 50.828 43.8139 50.828H40.5726V49.3125H43.3173Z" fill="#F03C53"/>
<path fill-rule="evenodd" clip-rule="evenodd" d="M43.3173 49.3125C43.995 49.3125 44.5464 48.7611 44.5464 48.0834V46.0965C44.5464 45.4187 43.995 44.8674 43.3173 44.8674H40.3369C39.6592 44.8674 39.1078 45.4187 39.1078 46.0965C39.1078 46.501 39.4357 46.8289 39.8402 46.8289C40.1623 46.8289 40.4357 46.6211 40.5339 46.3322H43.0815V47.8477H40.3369C39.6592 47.8477 39.1078 48.3991 39.1078 49.0768V51.0638C39.1078 51.7415 39.6592 52.2929 40.3369 52.2929H43.8139C44.2184 52.2929 44.5464 51.9649 44.5464 51.5604C44.5464 51.1559 44.2184 50.828 43.8139 50.828H40.5726V49.3125H43.3173Z" fill="url(#paint5_linear)"/>
</g>
<g filter="url(#filter6_d)">
<path fill-rule="evenodd" clip-rule="evenodd" d="M39.1406 34.7874H50.8594C51.2639 34.7874 51.5918 34.4595 51.5918 34.055V31.9065C51.5918 29.6896 50.0917 27.8166 48.0533 27.2489C48.8049 26.4791 49.2687 25.4271 49.2687 24.2687C49.2687 21.9149 47.3538 20 45 20C42.6462 20 40.7313 21.9149 40.7313 24.2687C40.7313 25.427 41.1951 26.479 41.9467 27.2489C39.9083 27.8166 38.4082 29.6896 38.4082 31.9065V34.055C38.4082 34.4595 38.7361 34.7874 39.1406 34.7874ZM45 21.4648C46.5461 21.4648 47.8038 22.7227 47.8038 24.2687C47.8038 25.8146 46.5461 27.0726 45 27.0726C43.4539 27.0726 42.1962 25.8147 42.1962 24.2688C42.1962 22.7228 43.4539 21.4648 45 21.4648ZM39.873 31.9065C39.873 30.0488 41.3845 28.5374 43.2422 28.5374H46.7578C48.6155 28.5374 50.127 30.0488 50.127 31.9065V33.3226H39.873V31.9065Z" fill="#F03C53"/>
<path fill-rule="evenodd" clip-rule="evenodd" d="M39.1406 34.7874H50.8594C51.2639 34.7874 51.5918 34.4595 51.5918 34.055V31.9065C51.5918 29.6896 50.0917 27.8166 48.0533 27.2489C48.8049 26.4791 49.2687 25.4271 49.2687 24.2687C49.2687 21.9149 47.3538 20 45 20C42.6462 20 40.7313 21.9149 40.7313 24.2687C40.7313 25.427 41.1951 26.479 41.9467 27.2489C39.9083 27.8166 38.4082 29.6896 38.4082 31.9065V34.055C38.4082 34.4595 38.7361 34.7874 39.1406 34.7874ZM45 21.4648C46.5461 21.4648 47.8038 22.7227 47.8038 24.2687C47.8038 25.8146 46.5461 27.0726 45 27.0726C43.4539 27.0726 42.1962 25.8147 42.1962 24.2688C42.1962 22.7228 43.4539 21.4648 45 21.4648ZM39.873 31.9065C39.873 30.0488 41.3845 28.5374 43.2422 28.5374H46.7578C48.6155 28.5374 50.127 30.0488 50.127 31.9065V33.3226H39.873V31.9065Z" fill="url(#paint6_linear)"/>
</g>
<g filter="url(#filter7_d)">
<path fill-rule="evenodd" clip-rule="evenodd" d="M29.6451 62.4615C30.3967 61.6917 30.8604 60.6396 30.8604 59.4812C30.8604 57.1274 28.9455 55.2126 26.5918 55.2126C24.2381 55.2126 22.3231 57.1275 22.3231 59.4812C22.3231 60.6395 22.7869 61.6916 23.5385 62.4615C21.5001 63.0292 20 64.9022 20 67.1191V69.2676C20 69.6721 20.3279 70 20.7324 70H23.1213C23.5258 70 23.8537 69.6721 23.8537 69.2676C23.8537 68.8631 23.5258 68.5351 23.1213 68.5351H21.4648V67.1191C21.4648 65.2614 22.9763 63.75 24.834 63.75H28.3496C30.2073 63.75 31.7188 65.2614 31.7188 67.1191V68.5351H26.2417C25.8372 68.5351 25.5093 68.8631 25.5093 69.2676C25.5093 69.6721 25.8372 70 26.2417 70H32.4512C32.8557 70 33.1836 69.6721 33.1836 69.2676V67.1191C33.1836 64.9022 31.6835 63.0292 29.6451 62.4615ZM26.5918 56.6774C28.1379 56.6774 29.3956 57.9352 29.3956 59.4812C29.3956 61.0272 28.1379 62.2851 26.5918 62.2851C25.0457 62.2851 23.788 61.0273 23.788 59.4813C23.788 57.9353 25.0457 56.6774 26.5918 56.6774Z" fill="#F03C53"/>
<path fill-rule="evenodd" clip-rule="evenodd" d="M29.6451 62.4615C30.3967 61.6917 30.8604 60.6396 30.8604 59.4812C30.8604 57.1274 28.9455 55.2126 26.5918 55.2126C24.2381 55.2126 22.3231 57.1275 22.3231 59.4812C22.3231 60.6395 22.7869 61.6916 23.5385 62.4615C21.5001 63.0292 20 64.9022 20 67.1191V69.2676C20 69.6721 20.3279 70 20.7324 70H23.1213C23.5258 70 23.8537 69.6721 23.8537 69.2676C23.8537 68.8631 23.5258 68.5351 23.1213 68.5351H21.4648V67.1191C21.4648 65.2614 22.9763 63.75 24.834 63.75H28.3496C30.2073 63.75 31.7188 65.2614 31.7188 67.1191V68.5351H26.2417C25.8372 68.5351 25.5093 68.8631 25.5093 69.2676C25.5093 69.6721 25.8372 70 26.2417 70H32.4512C32.8557 70 33.1836 69.6721 33.1836 69.2676V67.1191C33.1836 64.9022 31.6835 63.0292 29.6451 62.4615ZM26.5918 56.6774C28.1379 56.6774 29.3956 57.9352 29.3956 59.4812C29.3956 61.0272 28.1379 62.2851 26.5918 62.2851C25.0457 62.2851 23.788 61.0273 23.788 59.4813C23.788 57.9353 25.0457 56.6774 26.5918 56.6774Z" fill="url(#paint7_linear)"/>
</g>
<g filter="url(#filter8_d)">
<path fill-rule="evenodd" clip-rule="evenodd" d="M69.8146 65.7895C69.7036 65.4007 69.2981 65.1755 68.9093 65.2863C68.5203 65.3974 68.295 65.8027 68.4061 66.1917C68.4917 66.4916 68.5352 66.8037 68.5352 67.1191V68.5351H58.2812V67.1191C58.2812 65.2614 59.7927 63.75 61.6504 63.75H65.166C65.7655 63.75 66.3539 63.9092 66.8676 64.2104C67.2165 64.4152 67.6653 64.2981 67.8699 63.9492C68.0746 63.6003 67.9576 63.1516 67.6087 62.9469C67.2481 62.7353 66.8622 62.5726 66.4615 62.4615C67.2131 61.6917 67.6769 60.6396 67.6769 59.4812C67.6769 57.1274 65.7619 55.2126 63.4082 55.2126C61.0545 55.2126 59.1396 57.1275 59.1396 59.4812C59.1396 60.6395 59.6033 61.6916 60.3549 62.4615C58.3165 63.0292 56.8164 64.9022 56.8164 67.1191V69.2676C56.8164 69.6721 57.1443 70 57.5488 70H69.2676C69.6721 70 70 69.6721 70 69.2676V67.1191C70 66.6676 69.9376 66.2202 69.8146 65.7895ZM63.4082 56.6774C64.9543 56.6774 66.212 57.9352 66.212 59.4812C66.212 61.0272 64.9543 62.2851 63.4082 62.2851C61.8621 62.2851 60.6044 61.0273 60.6044 59.4813C60.6044 57.9353 61.8621 56.6774 63.4082 56.6774Z" fill="#F03C53"/>
<path fill-rule="evenodd" clip-rule="evenodd" d="M69.8146 65.7895C69.7036 65.4007 69.2981 65.1755 68.9093 65.2863C68.5203 65.3974 68.295 65.8027 68.4061 66.1917C68.4917 66.4916 68.5352 66.8037 68.5352 67.1191V68.5351H58.2812V67.1191C58.2812 65.2614 59.7927 63.75 61.6504 63.75H65.166C65.7655 63.75 66.3539 63.9092 66.8676 64.2104C67.2165 64.4152 67.6653 64.2981 67.8699 63.9492C68.0746 63.6003 67.9576 63.1516 67.6087 62.9469C67.2481 62.7353 66.8622 62.5726 66.4615 62.4615C67.2131 61.6917 67.6769 60.6396 67.6769 59.4812C67.6769 57.1274 65.7619 55.2126 63.4082 55.2126C61.0545 55.2126 59.1396 57.1275 59.1396 59.4812C59.1396 60.6395 59.6033 61.6916 60.3549 62.4615C58.3165 63.0292 56.8164 64.9022 56.8164 67.1191V69.2676C56.8164 69.6721 57.1443 70 57.5488 70H69.2676C69.6721 70 70 69.6721 70 69.2676V67.1191C70 66.6676 69.9376 66.2202 69.8146 65.7895ZM63.4082 56.6774C64.9543 56.6774 66.212 57.9352 66.212 59.4812C66.212 61.0272 64.9543 62.2851 63.4082 62.2851C61.8621 62.2851 60.6044 61.0273 60.6044 59.4813C60.6044 57.9353 61.8621 56.6774 63.4082 56.6774Z" fill="url(#paint8_linear)"/>
</g>
<defs>
<filter id="filter0_d" x="13.4277" y="17.2826" width="63.1445" height="63.1445" filterUnits="userSpaceOnUse" color-interpolation-filters="sRGB">
<feFlood flood-opacity="0" result="BackgroundImageFix"/>
<feColorMatrix in="SourceAlpha" type="matrix" values="0 0 0 0 0 0 0 0 0 0 0 0 0 0 0 0 0 0 127 0"/>
<feOffset/>
<feGaussianBlur stdDeviation="10"/>
<feColorMatrix type="matrix" values="0 0 0 0 0.290816 0 0 0 0 0.345804 0 0 0 0 0.59075 0 0 0 1 0"/>
<feBlend mode="normal" in2="BackgroundImageFix" result="effect1_dropShadow"/>
<feBlend mode="normal" in="SourceGraphic" in2="effect1_dropShadow" result="shape"/>
</filter>
<filter id="filter1_d" x="35.6718" y="12.6914" width="49.2471" height="58.2804" filterUnits="userSpaceOnUse" color-interpolation-filters="sRGB">
<feFlood flood-opacity="0" result="BackgroundImageFix"/>
<feColorMatrix in="SourceAlpha" type="matrix" values="0 0 0 0 0 0 0 0 0 0 0 0 0 0 0 0 0 0 127 0"/>
<feOffset/>
<feGaussianBlur stdDeviation="10"/>
<feColorMatrix type="matrix" values="0 0 0 0 0.290816 0 0 0 0 0.345804 0 0 0 0 0.59075 0 0 0 1 0"/>
<feBlend mode="normal" in2="BackgroundImageFix" result="effect1_dropShadow"/>
<feBlend mode="normal" in="SourceGraphic" in2="effect1_dropShadow" result="shape"/>
</filter>
<filter id="filter2_d" x="5.08105" y="12.6954" width="49.2413" height="58.2755" filterUnits="userSpaceOnUse" color-interpolation-filters="sRGB">
<feFlood flood-opacity="0" result="BackgroundImageFix"/>
<feColorMatrix in="SourceAlpha" type="matrix" values="0 0 0 0 0 0 0 0 0 0 0 0 0 0 0 0 0 0 127 0"/>
<feOffset/>
<feGaussianBlur stdDeviation="10"/>
<feColorMatrix type="matrix" values="0 0 0 0 0.290816 0 0 0 0 0.345804 0 0 0 0 0.59075 0 0 0 1 0"/>
<feBlend mode="normal" in2="BackgroundImageFix" result="effect1_dropShadow"/>
<feBlend mode="normal" in="SourceGraphic" in2="effect1_dropShadow" result="shape"/>
</filter>
<filter id="filter3_d" x="16.5974" y="45.7136" width="56.8003" height="43.0608" filterUnits="userSpaceOnUse" color-interpolation-filters="sRGB">
<feFlood flood-opacity="0" result="BackgroundImageFix"/>
<feColorMatrix in="SourceAlpha" type="matrix" values="0 0 0 0 0 0 0 0 0 0 0 0 0 0 0 0 0 0 127 0"/>
<feOffset/>
<feGaussianBlur stdDeviation="10"/>
<feColorMatrix type="matrix" values="0 0 0 0 0.290816 0 0 0 0 0.345804 0 0 0 0 0.59075 0 0 0 1 0"/>
<feBlend mode="normal" in2="BackgroundImageFix" result="effect1_dropShadow"/>
<feBlend mode="normal" in="SourceGraphic" in2="effect1_dropShadow" result="shape"/>
</filter>
<filter id="filter4_d" x="25.4536" y="24.8922" width="45.4386" height="47.4255" filterUnits="userSpaceOnUse" color-interpolation-filters="sRGB">
<feFlood flood-opacity="0" result="BackgroundImageFix"/>
<feColorMatrix in="SourceAlpha" type="matrix" values="0 0 0 0 0 0 0 0 0 0 0 0 0 0 0 0 0 0 127 0"/>
<feOffset/>
<feGaussianBlur stdDeviation="10"/>
<feColorMatrix type="matrix" values="0 0 0 0 0.290816 0 0 0 0 0.345804 0 0 0 0 0.59075 0 0 0 1 0"/>
<feBlend mode="normal" in2="BackgroundImageFix" result="effect1_dropShadow"/>
<feBlend mode="normal" in="SourceGraphic" in2="effect1_dropShadow" result="shape"/>
</filter>
<filter id="filter5_d" x="19.1078" y="24.8674" width="45.4386" height="47.4255" filterUnits="userSpaceOnUse" color-interpolation-filters="sRGB">
<feFlood flood-opacity="0" result="BackgroundImageFix"/>
<feColorMatrix in="SourceAlpha" type="matrix" values="0 0 0 0 0 0 0 0 0 0 0 0 0 0 0 0 0 0 127 0"/>
<feOffset/>
<feGaussianBlur stdDeviation="10"/>
<feColorMatrix type="matrix" values="0 0 0 0 0.290816 0 0 0 0 0.345804 0 0 0 0 0.59075 0 0 0 1 0"/>
<feBlend mode="normal" in2="BackgroundImageFix" result="effect1_dropShadow"/>
<feBlend mode="normal" in="SourceGraphic" in2="effect1_dropShadow" result="shape"/>
</filter>
<filter id="filter6_d" x="18.4082" y="0" width="53.1836" height="54.7874" filterUnits="userSpaceOnUse" color-interpolation-filters="sRGB">
<feFlood flood-opacity="0" result="BackgroundImageFix"/>
<feColorMatrix in="SourceAlpha" type="matrix" values="0 0 0 0 0 0 0 0 0 0 0 0 0 0 0 0 0 0 127 0"/>
<feOffset/>
<feGaussianBlur stdDeviation="10"/>
<feColorMatrix type="matrix" values="0 0 0 0 0.290816 0 0 0 0 0.345804 0 0 0 0 0.59075 0 0 0 1 0"/>
<feBlend mode="normal" in2="BackgroundImageFix" result="effect1_dropShadow"/>
<feBlend mode="normal" in="SourceGraphic" in2="effect1_dropShadow" result="shape"/>
</filter>
<filter id="filter7_d" x="0" y="35.2126" width="53.1836" height="54.7874" filterUnits="userSpaceOnUse" color-interpolation-filters="sRGB">
<feFlood flood-opacity="0" result="BackgroundImageFix"/>
<feColorMatrix in="SourceAlpha" type="matrix" values="0 0 0 0 0 0 0 0 0 0 0 0 0 0 0 0 0 0 127 0"/>
<feOffset/>
<feGaussianBlur stdDeviation="10"/>
<feColorMatrix type="matrix" values="0 0 0 0 0.290816 0 0 0 0 0.345804 0 0 0 0 0.59075 0 0 0 1 0"/>
<feBlend mode="normal" in2="BackgroundImageFix" result="effect1_dropShadow"/>
<feBlend mode="normal" in="SourceGraphic" in2="effect1_dropShadow" result="shape"/>
</filter>
<filter id="filter8_d" x="36.8164" y="35.2126" width="53.1836" height="54.7874" filterUnits="userSpaceOnUse" color-interpolation-filters="sRGB">
<feFlood flood-opacity="0" result="BackgroundImageFix"/>
<feColorMatrix in="SourceAlpha" type="matrix" values="0 0 0 0 0 0 0 0 0 0 0 0 0 0 0 0 0 0 127 0"/>
<feOffset/>
<feGaussianBlur stdDeviation="10"/>
<feColorMatrix type="matrix" values="0 0 0 0 0.290816 0 0 0 0 0.345804 0 0 0 0 0.59075 0 0 0 1 0"/>
<feBlend mode="normal" in2="BackgroundImageFix" result="effect1_dropShadow"/>
<feBlend mode="normal" in="SourceGraphic" in2="effect1_dropShadow" result="shape"/>
</filter>
<linearGradient id="paint0_linear" x1="21.7397" y1="49.0863" x2="45.3472" y2="72.4623" gradientUnits="userSpaceOnUse">
<stop stop-color="#F03C53"/>
<stop offset="1" stop-color="#FF2778"/>
</linearGradient>
<linearGradient id="paint1_linear" x1="51.0019" y1="42.0144" x2="65.9354" y2="49.4944" gradientUnits="userSpaceOnUse">
<stop stop-color="#F03C53"/>
<stop offset="1" stop-color="#FF2778"/>
</linearGradient>
<linearGradient id="paint2_linear" x1="20.4142" y1="42.0159" x2="35.3404" y2="49.4895" gradientUnits="userSpaceOnUse">
<stop stop-color="#F03C53"/>
<stop offset="1" stop-color="#FF2778"/>
</linearGradient>
<linearGradient id="paint3_linear" x1="28.1133" y1="67.2746" x2="29.2245" y2="73.3145" gradientUnits="userSpaceOnUse">
<stop stop-color="#F03C53"/>
<stop offset="1" stop-color="#FF2778"/>
</linearGradient>
<linearGradient id="paint4_linear" x1="42.7071" y1="48.6792" x2="49.9068" y2="53.9007" gradientUnits="userSpaceOnUse">
<stop stop-color="#F03C53"/>
<stop offset="1" stop-color="#FF2778"/>
</linearGradient>
<linearGradient id="paint5_linear" x1="36.3613" y1="48.6544" x2="43.561" y2="53.8758" gradientUnits="userSpaceOnUse">
<stop stop-color="#F03C53"/>
<stop offset="1" stop-color="#FF2778"/>
</linearGradient>
<linearGradient id="paint6_linear" x1="31.7505" y1="27.5416" x2="46.7179" y2="40.7549" gradientUnits="userSpaceOnUse">
<stop stop-color="#F03C53"/>
<stop offset="1" stop-color="#FF2778"/>
</linearGradient>
<linearGradient id="paint7_linear" x1="13.3423" y1="62.7542" x2="28.3097" y2="75.9674" gradientUnits="userSpaceOnUse">
<stop stop-color="#F03C53"/>
<stop offset="1" stop-color="#FF2778"/>
</linearGradient>
<linearGradient id="paint8_linear" x1="50.1587" y1="62.7542" x2="65.1261" y2="75.9674" gradientUnits="userSpaceOnUse">
<stop stop-color="#F03C53"/>
<stop offset="1" stop-color="#FF2778"/>
</linearGradient>
</defs>
</svg>
