<svg width="65" height="73" viewBox="0 0 65 73" fill="none" xmlns="http://www.w3.org/2000/svg">
<path fill-rule="evenodd" clip-rule="evenodd" d="M32.5 0C14.6215 0 0.0762939 14.5452 0.0762939 32.4237V48.6745C0.0762939 50.6993 1.72362 52.3466 3.74837 52.3466H5.07663V52.4248C5.07663 54.4495 6.72396 56.0968 8.74871 56.0968H11.2488C13.2736 56.0968 14.9209 54.4495 14.9209 52.4248V37.4239C14.9209 35.3991 13.2736 33.7518 11.2488 33.7518H8.74871C6.72396 33.7518 5.07663 35.3991 5.07663 37.4239V37.502H2.42011V32.4236C2.42011 15.8375 15.9138 2.34367 32.5 2.34367C49.0862 2.34367 62.5799 15.8374 62.5799 32.4236V37.502H59.9235V37.4239C59.9235 35.3991 58.2762 33.7518 56.2514 33.7518H53.7513C51.7266 33.7518 50.0792 35.3991 50.0792 37.4239V52.4248C50.0792 54.4495 51.7266 56.0968 53.7513 56.0968H56.2514C58.2762 56.0968 59.9235 54.4495 59.9235 52.4248V52.3466H60.0372C59.4572 60.4859 52.8855 66.9938 44.7197 67.4742C44.2209 66.0379 42.8546 65.0037 41.2505 65.0037H37.5003C36.1647 65.0037 35.0784 66.0902 35.0784 67.4256V69.9257C35.0784 71.2613 36.1649 72.3477 37.5003 72.3477H41.2505C42.8753 72.3477 44.2561 71.2866 44.7385 69.8214C54.2501 69.3232 61.8992 61.6743 62.3973 52.1626C63.8626 51.6799 64.9237 50.2993 64.9237 48.6745V32.4237C64.9237 14.5452 50.3785 0 32.5 0ZM7.42045 37.424C7.42045 36.6917 8.01633 36.0958 8.74871 36.0958H11.2488C11.9812 36.0958 12.5771 36.6917 12.5771 37.424V52.4249C12.5771 53.1573 11.9812 53.7532 11.2488 53.7532H8.74871C8.01633 53.7532 7.42045 53.1573 7.42045 52.4249V37.424ZM5.07663 39.846V50.0028H3.74837C3.01599 50.0028 2.42011 49.4069 2.42011 48.6745V39.846H5.07663ZM57.5795 52.4248C57.5795 53.1571 56.9837 53.753 56.2513 53.753H53.7512C53.0188 53.753 52.4229 53.1571 52.4229 52.4248V37.4239C52.4229 36.6915 53.0187 36.0956 53.7512 36.0956H56.2513C56.9837 36.0956 57.5795 36.6915 57.5795 37.4239V52.4248ZM41.2505 70.004H37.5003C37.4572 70.004 37.4222 69.969 37.4222 69.9259V67.4258C37.4222 67.3827 37.4572 67.3476 37.5003 67.3476H41.2505C41.9829 67.3476 42.5788 67.9434 42.5788 68.6759C42.5788 69.4084 41.9829 70.004 41.2505 70.004ZM62.5799 48.6745C62.5799 49.4069 61.984 50.0028 61.2516 50.0028H59.9233V39.846H62.5797V48.6745H62.5799Z" fill="#102D63"/>
<path fill-rule="evenodd" clip-rule="evenodd" d="M32.5 0C14.6215 0 0.0762939 14.5452 0.0762939 32.4237V48.6745C0.0762939 50.6993 1.72362 52.3466 3.74837 52.3466H5.07663V52.4248C5.07663 54.4495 6.72396 56.0968 8.74871 56.0968H11.2488C13.2736 56.0968 14.9209 54.4495 14.9209 52.4248V37.4239C14.9209 35.3991 13.2736 33.7518 11.2488 33.7518H8.74871C6.72396 33.7518 5.07663 35.3991 5.07663 37.4239V37.502H2.42011V32.4236C2.42011 15.8375 15.9138 2.34367 32.5 2.34367C49.0862 2.34367 62.5799 15.8374 62.5799 32.4236V37.502H59.9235V37.4239C59.9235 35.3991 58.2762 33.7518 56.2514 33.7518H53.7513C51.7266 33.7518 50.0792 35.3991 50.0792 37.4239V52.4248C50.0792 54.4495 51.7266 56.0968 53.7513 56.0968H56.2514C58.2762 56.0968 59.9235 54.4495 59.9235 52.4248V52.3466H60.0372C59.4572 60.4859 52.8855 66.9938 44.7197 67.4742C44.2209 66.0379 42.8546 65.0037 41.2505 65.0037H37.5003C36.1647 65.0037 35.0784 66.0902 35.0784 67.4256V69.9257C35.0784 71.2613 36.1649 72.3477 37.5003 72.3477H41.2505C42.8753 72.3477 44.2561 71.2866 44.7385 69.8214C54.2501 69.3232 61.8992 61.6743 62.3973 52.1626C63.8626 51.6799 64.9237 50.2993 64.9237 48.6745V32.4237C64.9237 14.5452 50.3785 0 32.5 0ZM7.42045 37.424C7.42045 36.6917 8.01633 36.0958 8.74871 36.0958H11.2488C11.9812 36.0958 12.5771 36.6917 12.5771 37.424V52.4249C12.5771 53.1573 11.9812 53.7532 11.2488 53.7532H8.74871C8.01633 53.7532 7.42045 53.1573 7.42045 52.4249V37.424ZM5.07663 39.846V50.0028H3.74837C3.01599 50.0028 2.42011 49.4069 2.42011 48.6745V39.846H5.07663ZM57.5795 52.4248C57.5795 53.1571 56.9837 53.753 56.2513 53.753H53.7512C53.0188 53.753 52.4229 53.1571 52.4229 52.4248V37.4239C52.4229 36.6915 53.0187 36.0956 53.7512 36.0956H56.2513C56.9837 36.0956 57.5795 36.6915 57.5795 37.4239V52.4248ZM41.2505 70.004H37.5003C37.4572 70.004 37.4222 69.969 37.4222 69.9259V67.4258C37.4222 67.3827 37.4572 67.3476 37.5003 67.3476H41.2505C41.9829 67.3476 42.5788 67.9434 42.5788 68.6759C42.5788 69.4084 41.9829 70.004 41.2505 70.004ZM62.5799 48.6745C62.5799 49.4069 61.984 50.0028 61.2516 50.0028H59.9233V39.846H62.5797V48.6745H62.5799Z" fill="url(#paint0_linear)"/>
<path fill-rule="evenodd" clip-rule="evenodd" d="M40.0004 42.5023C38.6648 42.5023 37.5785 43.5888 37.5785 44.9243C37.5785 46.2597 38.665 47.3462 40.0004 47.3462C41.3359 47.3462 42.4224 46.2596 42.4224 44.9243C42.4224 43.5889 41.3359 42.5023 40.0004 42.5023Z" fill="#102D63"/>
<path fill-rule="evenodd" clip-rule="evenodd" d="M40.0004 42.5023C38.6648 42.5023 37.5785 43.5888 37.5785 44.9243C37.5785 46.2597 38.665 47.3462 40.0004 47.3462C41.3359 47.3462 42.4224 46.2596 42.4224 44.9243C42.4224 43.5889 41.3359 42.5023 40.0004 42.5023Z" fill="url(#paint1_linear)"/>
<path fill-rule="evenodd" clip-rule="evenodd" d="M32.5 42.5023C31.1644 42.5023 30.078 43.5888 30.078 44.9243C30.078 46.2597 31.1645 47.3462 32.5 47.3462C33.8356 47.3462 34.9219 46.2596 34.9219 44.9243C34.9219 43.5889 33.8356 42.5023 32.5 42.5023Z" fill="#102D63"/>
<path fill-rule="evenodd" clip-rule="evenodd" d="M32.5 42.5023C31.1644 42.5023 30.078 43.5888 30.078 44.9243C30.078 46.2597 31.1645 47.3462 32.5 47.3462C33.8356 47.3462 34.9219 46.2596 34.9219 44.9243C34.9219 43.5889 33.8356 42.5023 32.5 42.5023Z" fill="url(#paint2_linear)"/>
<path fill-rule="evenodd" clip-rule="evenodd" d="M42.5005 32.5018H22.4995C19.7854 32.5018 17.5773 34.71 17.5773 37.424V52.4249C17.5773 55.1389 19.7854 57.3471 22.4995 57.3471H33.8283V60.2926C33.8283 61.1259 34.3258 61.8705 35.0956 62.1895C35.3511 62.2953 35.6186 62.3466 35.8832 62.3466C36.4164 62.3466 36.9392 62.138 37.3329 61.7442L41.7301 57.3471H42.5005C45.2146 57.3471 47.4227 55.1389 47.4227 52.4249V37.424C47.4227 34.7099 45.2146 32.5018 42.5005 32.5018ZM45.0788 52.4248C45.0788 53.8464 43.9222 55.003 42.5005 55.003H41.2446C40.9337 55.003 40.6357 55.1265 40.416 55.3464L36.1721 59.5903V56.175C36.1721 55.5278 35.6474 55.003 35.0001 55.003H22.4993C21.0777 55.003 19.9211 53.8464 19.9211 52.4248V37.4239C19.9211 36.0022 21.0777 34.8456 22.4993 34.8456H42.5004C43.9221 34.8456 45.0786 36.0022 45.0786 37.4239V52.4248H45.0788Z" fill="#102D63"/>
<path fill-rule="evenodd" clip-rule="evenodd" d="M42.5005 32.5018H22.4995C19.7854 32.5018 17.5773 34.71 17.5773 37.424V52.4249C17.5773 55.1389 19.7854 57.3471 22.4995 57.3471H33.8283V60.2926C33.8283 61.1259 34.3258 61.8705 35.0956 62.1895C35.3511 62.2953 35.6186 62.3466 35.8832 62.3466C36.4164 62.3466 36.9392 62.138 37.3329 61.7442L41.7301 57.3471H42.5005C45.2146 57.3471 47.4227 55.1389 47.4227 52.4249V37.424C47.4227 34.7099 45.2146 32.5018 42.5005 32.5018ZM45.0788 52.4248C45.0788 53.8464 43.9222 55.003 42.5005 55.003H41.2446C40.9337 55.003 40.6357 55.1265 40.416 55.3464L36.1721 59.5903V56.175C36.1721 55.5278 35.6474 55.003 35.0001 55.003H22.4993C21.0777 55.003 19.9211 53.8464 19.9211 52.4248V37.4239C19.9211 36.0022 21.0777 34.8456 22.4993 34.8456H42.5004C43.9221 34.8456 45.0786 36.0022 45.0786 37.4239V52.4248H45.0788Z" fill="url(#paint3_linear)"/>
<path fill-rule="evenodd" clip-rule="evenodd" d="M24.9996 42.5023C23.664 42.5023 22.5776 43.5888 22.5776 44.9243C22.5776 46.2597 23.6641 47.3462 24.9996 47.3462C26.3351 47.3462 27.4215 46.2597 27.4215 44.9243C27.4215 43.5888 26.3352 42.5023 24.9996 42.5023Z" fill="#102D63"/>
<path fill-rule="evenodd" clip-rule="evenodd" d="M24.9996 42.5023C23.664 42.5023 22.5776 43.5888 22.5776 44.9243C22.5776 46.2597 23.6641 47.3462 24.9996 47.3462C26.3351 47.3462 27.4215 46.2597 27.4215 44.9243C27.4215 43.5888 26.3352 42.5023 24.9996 42.5023Z" fill="url(#paint4_linear)"/>
<g opacity="0.130743">
<path fill-rule="evenodd" clip-rule="evenodd" d="M19.9211 36L22.5776 33.7661H45.0788L46.1011 53.7532L43 55.9883L36.5 60.9287L35 55.9883H21.5527L18.8936 53.753V36H19.9211Z" fill="#102D63"/>
<path fill-rule="evenodd" clip-rule="evenodd" d="M19.9211 36L22.5776 33.7661H45.0788L46.1011 53.7532L43 55.9883L36.5 60.9287L35 55.9883H21.5527L18.8936 53.753V36H19.9211Z" fill="url(#paint5_linear)"/>
</g>
<defs>
<linearGradient id="paint0_linear" x1="-32.6716" y1="36.8973" x2="40.6045" y2="101.933" gradientUnits="userSpaceOnUse">
<stop stop-color="#6C66FE"/>
<stop offset="1" stop-color="#935BF2"/>
</linearGradient>
<linearGradient id="paint1_linear" x1="35.1323" y1="44.9727" x2="40.0731" y2="49.8651" gradientUnits="userSpaceOnUse">
<stop stop-color="#6C66FE"/>
<stop offset="1" stop-color="#935BF2"/>
</linearGradient>
<linearGradient id="paint2_linear" x1="27.6318" y1="44.9727" x2="32.5726" y2="49.8651" gradientUnits="userSpaceOnUse">
<stop stop-color="#6C66FE"/>
<stop offset="1" stop-color="#935BF2"/>
</linearGradient>
<linearGradient id="paint3_linear" x1="2.50531" y1="47.7227" x2="32.947" y2="77.8666" gradientUnits="userSpaceOnUse">
<stop stop-color="#6C66FE"/>
<stop offset="1" stop-color="#935BF2"/>
</linearGradient>
<linearGradient id="paint4_linear" x1="20.1315" y1="44.9727" x2="25.0723" y2="49.8651" gradientUnits="userSpaceOnUse">
<stop stop-color="#6C66FE"/>
<stop offset="1" stop-color="#935BF2"/>
</linearGradient>
<linearGradient id="paint5_linear" x1="5.15376" y1="47.619" x2="32.86" y2="75.099" gradientUnits="userSpaceOnUse">
<stop stop-color="#6C66FE"/>
<stop offset="1" stop-color="#935BF2"/>
</linearGradient>
</defs>
</svg>
