<svg width="70" height="80" viewBox="0 0 70 80" fill="none" xmlns="http://www.w3.org/2000/svg">
<g opacity="0.130743">
<path fill-rule="evenodd" clip-rule="evenodd" d="M22.8381 31.8715L35 23.7993L49.2238 31.8715V47.0895L35.0002 56.2005L22.8381 49.4331V31.8715Z" fill="#102D63"/>
<path fill-rule="evenodd" clip-rule="evenodd" d="M22.8381 31.8715L35 23.7993L49.2238 31.8715V47.0895L35.0002 56.2005L22.8381 49.4331V31.8715Z" fill="url(#paint0_linear)"/>
</g>
<path fill-rule="evenodd" clip-rule="evenodd" d="M40.5883 18.7327L38.5896 17.5788C38.6461 17.3228 38.6769 17.0572 38.6769 16.7845C38.6769 15.1667 37.6263 13.7906 36.1719 13.3002V1.17188C36.1719 0.524688 35.6474 0 35 0C34.3529 0 33.8282 0.524688 33.8282 1.17188V13.2998C32.3738 13.7903 31.3232 15.1664 31.3232 16.7842C31.3232 17.057 31.354 17.3225 31.4105 17.5784L17.3897 25.6734C16.7413 25.1009 15.8907 24.7527 14.9597 24.7527C14.0288 24.7527 13.1782 25.1011 12.5297 25.6734L1.76786 19.46C1.20739 19.1364 0.490675 19.3284 0.167081 19.8889C-0.156513 20.4494 0.0355186 21.1661 0.595987 21.4897L11.3554 27.7016C11.3079 27.9369 11.2827 28.1803 11.2827 28.4294C11.2827 30.0472 12.3333 31.4231 13.7877 31.9136V48.0905C12.3333 48.5811 11.2827 49.957 11.2827 51.5748C11.2827 51.8223 11.3077 52.0642 11.3546 52.2983L0.595987 58.5098C0.0355186 58.8334 -0.156513 59.5502 0.167081 60.1106C0.384112 60.4866 0.778019 60.6967 1.18302 60.6967C1.38177 60.6967 1.58333 60.6461 1.76786 60.5395L12.5263 54.3281C13.1752 54.9022 14.0271 55.2519 14.9596 55.2519C15.8921 55.2519 16.7441 54.9023 17.3929 54.3281L24.779 58.5925C24.9635 58.6991 25.1651 58.7497 25.3638 58.7497C25.7688 58.7497 26.1627 58.5395 26.3797 58.1636C26.7038 57.6034 26.5118 56.8867 25.9511 56.5631L18.5649 52.2988C18.6118 52.0647 18.6368 51.823 18.6368 51.5753C18.6368 49.9575 17.5861 48.5816 16.1316 48.0909V31.9141C17.586 31.4236 18.6368 30.0475 18.6368 28.4297C18.6368 28.1806 18.6116 27.9372 18.5641 27.7019L32.6222 19.5855C33.264 20.1309 34.094 20.4613 35.0002 20.4613C35.9065 20.4613 36.7366 20.1309 37.3782 19.5855L39.4165 20.7623C39.601 20.8691 39.8026 20.9195 40.0013 20.9195C40.4063 20.9195 40.8002 20.7094 41.0172 20.3334C41.3408 19.773 41.1488 19.0562 40.5883 18.7327ZM16.2932 51.5752C16.2932 52.3102 15.695 52.9083 14.9599 52.9083C14.2247 52.9083 13.6268 52.3102 13.6268 51.5752C13.6268 50.8402 14.2249 50.242 14.9599 50.242C15.695 50.242 16.2932 50.8402 16.2932 51.5752ZM14.9597 29.7627C14.2246 29.7627 13.6266 29.1645 13.6266 28.4295C13.6266 27.6945 14.2246 27.0964 14.9597 27.0964C15.6949 27.0964 16.293 27.6945 16.293 28.4295C16.2932 29.1645 15.6951 29.7627 14.9597 29.7627ZM35 18.1173C34.2649 18.1173 33.6669 17.5192 33.6669 16.7842C33.6669 16.0491 34.2649 15.4511 35 15.4511C35.7352 15.4511 36.3332 16.0491 36.3332 16.7842C36.3333 17.5192 35.7354 18.1173 35 18.1173Z" fill="#102D63"/>
<path fill-rule="evenodd" clip-rule="evenodd" d="M40.5883 18.7327L38.5896 17.5788C38.6461 17.3228 38.6769 17.0572 38.6769 16.7845C38.6769 15.1667 37.6263 13.7906 36.1719 13.3002V1.17188C36.1719 0.524688 35.6474 0 35 0C34.3529 0 33.8282 0.524688 33.8282 1.17188V13.2998C32.3738 13.7903 31.3232 15.1664 31.3232 16.7842C31.3232 17.057 31.354 17.3225 31.4105 17.5784L17.3897 25.6734C16.7413 25.1009 15.8907 24.7527 14.9597 24.7527C14.0288 24.7527 13.1782 25.1011 12.5297 25.6734L1.76786 19.46C1.20739 19.1364 0.490675 19.3284 0.167081 19.8889C-0.156513 20.4494 0.0355186 21.1661 0.595987 21.4897L11.3554 27.7016C11.3079 27.9369 11.2827 28.1803 11.2827 28.4294C11.2827 30.0472 12.3333 31.4231 13.7877 31.9136V48.0905C12.3333 48.5811 11.2827 49.957 11.2827 51.5748C11.2827 51.8223 11.3077 52.0642 11.3546 52.2983L0.595987 58.5098C0.0355186 58.8334 -0.156513 59.5502 0.167081 60.1106C0.384112 60.4866 0.778019 60.6967 1.18302 60.6967C1.38177 60.6967 1.58333 60.6461 1.76786 60.5395L12.5263 54.3281C13.1752 54.9022 14.0271 55.2519 14.9596 55.2519C15.8921 55.2519 16.7441 54.9023 17.3929 54.3281L24.779 58.5925C24.9635 58.6991 25.1651 58.7497 25.3638 58.7497C25.7688 58.7497 26.1627 58.5395 26.3797 58.1636C26.7038 57.6034 26.5118 56.8867 25.9511 56.5631L18.5649 52.2988C18.6118 52.0647 18.6368 51.823 18.6368 51.5753C18.6368 49.9575 17.5861 48.5816 16.1316 48.0909V31.9141C17.586 31.4236 18.6368 30.0475 18.6368 28.4297C18.6368 28.1806 18.6116 27.9372 18.5641 27.7019L32.6222 19.5855C33.264 20.1309 34.094 20.4613 35.0002 20.4613C35.9065 20.4613 36.7366 20.1309 37.3782 19.5855L39.4165 20.7623C39.601 20.8691 39.8026 20.9195 40.0013 20.9195C40.4063 20.9195 40.8002 20.7094 41.0172 20.3334C41.3408 19.773 41.1488 19.0562 40.5883 18.7327ZM16.2932 51.5752C16.2932 52.3102 15.695 52.9083 14.9599 52.9083C14.2247 52.9083 13.6268 52.3102 13.6268 51.5752C13.6268 50.8402 14.2249 50.242 14.9599 50.242C15.695 50.242 16.2932 50.8402 16.2932 51.5752ZM14.9597 29.7627C14.2246 29.7627 13.6266 29.1645 13.6266 28.4295C13.6266 27.6945 14.2246 27.0964 14.9597 27.0964C15.6949 27.0964 16.293 27.6945 16.293 28.4295C16.2932 29.1645 15.6951 29.7627 14.9597 29.7627ZM35 18.1173C34.2649 18.1173 33.6669 17.5192 33.6669 16.7842C33.6669 16.0491 34.2649 15.4511 35 15.4511C35.7352 15.4511 36.3332 16.0491 36.3332 16.7842C36.3333 17.5192 35.7354 18.1173 35 18.1173Z" fill="url(#paint1_linear)"/>
<path fill-rule="evenodd" clip-rule="evenodd" d="M69.4042 58.5101L58.6456 52.2985C58.6925 52.0645 58.7175 51.8228 58.7175 51.5751C58.7175 49.9573 57.6668 48.5814 56.2125 48.0907V31.9139C57.6668 31.4234 58.7175 30.0473 58.7175 28.4296C58.7175 28.1806 58.6923 27.9373 58.6448 27.7018L69.4042 21.4898C69.9647 21.1662 70.1567 20.4495 69.8331 19.889C69.5093 19.3285 68.7926 19.1367 68.2323 19.4601L57.4704 25.6735C56.822 25.1012 55.9714 24.7528 55.0404 24.7528C54.1095 24.7528 53.2589 25.1012 52.6104 25.6735L45.0425 21.3042C44.4815 20.9804 43.7651 21.1726 43.4417 21.7331C43.1181 22.2935 43.3101 23.0103 43.8706 23.3339L51.4361 27.7018C51.3886 27.9371 51.3634 28.1806 51.3634 28.4296C51.3634 30.0474 52.414 31.4234 53.8684 31.9139V48.0907C52.414 48.5814 51.3634 49.9573 51.3634 51.5751C51.3634 51.8228 51.3884 52.0645 51.4353 52.2985L37.43 60.3845C36.7815 59.812 35.9309 59.4635 35 59.4635C34.069 59.4635 33.2184 59.812 32.57 60.3845L30.2151 59.0249C29.6547 58.7012 28.9379 58.8932 28.6143 59.4539C28.2908 60.0143 28.4828 60.731 29.0433 61.0546L31.3958 62.4128C31.3483 62.6481 31.3231 62.8914 31.3231 63.1404C31.3231 64.7582 32.3737 66.1343 33.8281 66.6248V78.8281C33.8281 79.4753 34.3528 79.9999 35 79.9999C35.6473 79.9999 36.1718 79.4753 36.1718 78.8281V66.6248C37.6262 66.1343 38.6768 64.7582 38.6768 63.1404C38.6768 62.8914 38.6517 62.6481 38.6042 62.4126L52.6068 54.3282C53.2558 54.9023 54.1076 55.252 55.0401 55.252C55.9726 55.252 56.8245 54.9024 57.4734 54.3282L68.2318 60.5396C68.4165 60.6462 68.6179 60.6968 68.8167 60.6968C69.2217 60.6968 69.6156 60.4867 69.8326 60.1107C70.1567 59.5504 69.9645 58.8337 69.4042 58.5101ZM35 64.4737C34.2648 64.4737 33.6668 63.8757 33.6668 63.1406C33.6668 62.4054 34.265 61.8074 35 61.8074C35.7351 61.8074 36.3331 62.4056 36.3331 63.1406C36.3333 63.8757 35.7353 64.4737 35 64.4737ZM53.7073 28.4295C53.7073 27.6945 54.3053 27.0964 55.0404 27.0964C55.7756 27.0964 56.3736 27.6945 56.3736 28.4295C56.3736 29.1645 55.7756 29.7626 55.0404 29.7626C54.3053 29.7626 53.7073 29.1645 53.7073 28.4295ZM55.0403 52.9082C54.3051 52.9082 53.7072 52.3101 53.7072 51.5751C53.7072 50.8401 54.3051 50.242 55.0403 50.242C55.7754 50.242 56.3734 50.8401 56.3734 51.5751C56.3736 52.3101 55.7756 52.9082 55.0403 52.9082Z" fill="#102D63"/>
<path fill-rule="evenodd" clip-rule="evenodd" d="M69.4042 58.5101L58.6456 52.2985C58.6925 52.0645 58.7175 51.8228 58.7175 51.5751C58.7175 49.9573 57.6668 48.5814 56.2125 48.0907V31.9139C57.6668 31.4234 58.7175 30.0473 58.7175 28.4296C58.7175 28.1806 58.6923 27.9373 58.6448 27.7018L69.4042 21.4898C69.9647 21.1662 70.1567 20.4495 69.8331 19.889C69.5093 19.3285 68.7926 19.1367 68.2323 19.4601L57.4704 25.6735C56.822 25.1012 55.9714 24.7528 55.0404 24.7528C54.1095 24.7528 53.2589 25.1012 52.6104 25.6735L45.0425 21.3042C44.4815 20.9804 43.7651 21.1726 43.4417 21.7331C43.1181 22.2935 43.3101 23.0103 43.8706 23.3339L51.4361 27.7018C51.3886 27.9371 51.3634 28.1806 51.3634 28.4296C51.3634 30.0474 52.414 31.4234 53.8684 31.9139V48.0907C52.414 48.5814 51.3634 49.9573 51.3634 51.5751C51.3634 51.8228 51.3884 52.0645 51.4353 52.2985L37.43 60.3845C36.7815 59.812 35.9309 59.4635 35 59.4635C34.069 59.4635 33.2184 59.812 32.57 60.3845L30.2151 59.0249C29.6547 58.7012 28.9379 58.8932 28.6143 59.4539C28.2908 60.0143 28.4828 60.731 29.0433 61.0546L31.3958 62.4128C31.3483 62.6481 31.3231 62.8914 31.3231 63.1404C31.3231 64.7582 32.3737 66.1343 33.8281 66.6248V78.8281C33.8281 79.4753 34.3528 79.9999 35 79.9999C35.6473 79.9999 36.1718 79.4753 36.1718 78.8281V66.6248C37.6262 66.1343 38.6768 64.7582 38.6768 63.1404C38.6768 62.8914 38.6517 62.6481 38.6042 62.4126L52.6068 54.3282C53.2558 54.9023 54.1076 55.252 55.0401 55.252C55.9726 55.252 56.8245 54.9024 57.4734 54.3282L68.2318 60.5396C68.4165 60.6462 68.6179 60.6968 68.8167 60.6968C69.2217 60.6968 69.6156 60.4867 69.8326 60.1107C70.1567 59.5504 69.9645 58.8337 69.4042 58.5101ZM35 64.4737C34.2648 64.4737 33.6668 63.8757 33.6668 63.1406C33.6668 62.4054 34.265 61.8074 35 61.8074C35.7351 61.8074 36.3331 62.4056 36.3331 63.1406C36.3333 63.8757 35.7353 64.4737 35 64.4737ZM53.7073 28.4295C53.7073 27.6945 54.3053 27.0964 55.0404 27.0964C55.7756 27.0964 56.3736 27.6945 56.3736 28.4295C56.3736 29.1645 55.7756 29.7626 55.0404 29.7626C54.3053 29.7626 53.7073 29.1645 53.7073 28.4295ZM55.0403 52.9082C54.3051 52.9082 53.7072 52.3101 53.7072 51.5751C53.7072 50.8401 54.3051 50.242 55.0403 50.242C55.7754 50.242 56.3734 50.8401 56.3734 51.5751C56.3736 52.3101 55.7756 52.9082 55.0403 52.9082Z" fill="url(#paint2_linear)"/>
<path fill-rule="evenodd" clip-rule="evenodd" d="M47.7356 30.6029L36.7705 24.2722C35.6786 23.6417 34.3217 23.6417 33.2299 24.2722L22.2647 30.6029C21.1728 31.2334 20.4944 32.4084 20.4944 33.6692V46.3306C20.4944 47.5914 21.1727 48.7664 22.2647 49.3969L33.2299 55.7276C33.7758 56.0429 34.388 56.2005 35.0002 56.2005C35.6124 56.2005 36.2245 56.0429 36.7705 55.7276L47.7356 49.3969C48.8275 48.7664 49.5059 47.5914 49.5059 46.3306V33.6692C49.5058 32.4084 48.8274 31.2334 47.7356 30.6029ZM47.1622 46.3306C47.1622 46.7569 46.9328 47.154 46.5638 47.3672L35.5986 53.6979C35.2294 53.9111 34.7708 53.9111 34.4017 53.6979L23.4367 47.3672C23.0675 47.154 22.8381 46.7569 22.8381 46.3306V33.6692C22.8381 33.2429 23.0675 32.8458 23.4366 32.6326L34.4017 26.3019C34.7708 26.0887 35.2294 26.0887 35.5986 26.3019L46.5638 32.6326C46.9328 32.8458 47.1622 33.2429 47.1622 33.6692V46.3306Z" fill="#102D63"/>
<path fill-rule="evenodd" clip-rule="evenodd" d="M47.7356 30.6029L36.7705 24.2722C35.6786 23.6417 34.3217 23.6417 33.2299 24.2722L22.2647 30.6029C21.1728 31.2334 20.4944 32.4084 20.4944 33.6692V46.3306C20.4944 47.5914 21.1727 48.7664 22.2647 49.3969L33.2299 55.7276C33.7758 56.0429 34.388 56.2005 35.0002 56.2005C35.6124 56.2005 36.2245 56.0429 36.7705 55.7276L47.7356 49.3969C48.8275 48.7664 49.5059 47.5914 49.5059 46.3306V33.6692C49.5058 32.4084 48.8274 31.2334 47.7356 30.6029ZM47.1622 46.3306C47.1622 46.7569 46.9328 47.154 46.5638 47.3672L35.5986 53.6979C35.2294 53.9111 34.7708 53.9111 34.4017 53.6979L23.4367 47.3672C23.0675 47.154 22.8381 46.7569 22.8381 46.3306V33.6692C22.8381 33.2429 23.0675 32.8458 23.4366 32.6326L34.4017 26.3019C34.7708 26.0887 35.2294 26.0887 35.5986 26.3019L46.5638 32.6326C46.9328 32.8458 47.1622 33.2429 47.1622 33.6692V46.3306Z" fill="url(#paint3_linear)"/>
<defs>
<linearGradient id="paint0_linear" x1="9.51339" y1="40.3239" x2="41.8132" y2="66.3691" gradientUnits="userSpaceOnUse">
<stop stop-color="#6C66FE"/>
<stop offset="1" stop-color="#935BF2"/>
</linearGradient>
<linearGradient id="paint1_linear" x1="-20.7782" y1="30.9553" x2="36.5323" y2="69.4423" gradientUnits="userSpaceOnUse">
<stop stop-color="#6C66FE"/>
<stop offset="1" stop-color="#935BF2"/>
</linearGradient>
<linearGradient id="paint2_linear" x1="7.48292" y1="50.2584" x2="64.9852" y2="89.2198" gradientUnits="userSpaceOnUse">
<stop stop-color="#6C66FE"/>
<stop offset="1" stop-color="#935BF2"/>
</linearGradient>
<linearGradient id="paint3_linear" x1="5.84355" y1="40.3239" x2="38.6564" y2="69.416" gradientUnits="userSpaceOnUse">
<stop stop-color="#6C66FE"/>
<stop offset="1" stop-color="#935BF2"/>
</linearGradient>
</defs>
</svg>
