<svg width="80" height="90" viewBox="0 0 80 90" fill="none" xmlns="http://www.w3.org/2000/svg">
<g filter="url(#filter0_d)">
<path fill-rule="evenodd" clip-rule="evenodd" d="M59.7461 39.873C59.7461 38.9247 59.4432 38.0252 58.8706 37.2722C58.3778 36.6214 58.2133 35.7955 58.4197 35.007C58.6608 34.0911 58.5963 33.1439 58.2332 32.2681C57.8704 31.3922 57.2463 30.6766 56.4292 30.2001C55.7246 29.7878 55.257 29.0874 55.1456 28.2798C55.0178 27.3414 54.5959 26.4911 53.9252 25.8208C53.255 25.1502 52.4047 24.7283 51.4674 24.6005C50.6587 24.4891 49.9583 24.0211 49.5464 23.3176C49.0691 22.4998 48.3539 21.8753 47.478 21.5129C46.9524 21.2951 46.3988 21.1845 45.8335 21.1845C45.465 21.1845 45.0969 21.2321 44.7402 21.326C44.522 21.3832 44.2966 21.4122 44.0711 21.4122C43.4978 21.4122 42.9305 21.2215 42.4747 20.8759C41.7209 20.3029 40.8214 20 39.873 20C38.9247 20 38.0252 20.3029 37.2722 20.8755C36.8156 21.2215 36.2483 21.4122 35.675 21.4122C35.4491 21.4122 35.2245 21.3832 35.007 21.3264C34.6492 21.2321 34.2807 21.1845 33.9122 21.1845C33.3469 21.1845 32.7937 21.2951 32.2681 21.5129C31.3918 21.8757 30.6766 22.4998 30.2001 23.3169C29.7878 24.0211 29.0874 24.4891 28.2798 24.6005C27.3414 24.7283 26.4911 25.1502 25.8208 25.8208C25.1502 26.4911 24.7283 27.3414 24.6005 28.2787C24.4891 29.0874 24.0211 29.7878 23.3176 30.1994C22.4998 30.6766 21.8757 31.3918 21.5129 32.2681C21.1501 33.1439 21.0857 34.0911 21.326 35.0059C21.5327 35.7955 21.3683 36.6218 20.8759 37.2714C20.3029 38.0252 20 38.9251 20 39.873C20 40.8214 20.3029 41.7209 20.8755 42.4739C21.3683 43.1247 21.5327 43.9506 21.3264 44.7395C21.0853 45.6554 21.1497 46.6022 21.5125 47.4784C21.8757 48.3543 22.4998 49.0695 23.3169 49.5464C24.0211 49.9587 24.4891 50.6587 24.6005 51.4667C24.7283 52.4047 25.1502 53.255 25.8208 53.9256C26.4911 54.5963 27.3418 55.0182 28.2787 55.1456C29.0874 55.257 29.7878 55.725 30.1994 56.4285C30.6766 57.2467 31.3918 57.8708 32.2677 58.2336C32.5961 58.3694 32.9353 58.4636 33.2812 58.5151V69.2676C33.2812 69.5449 33.438 69.7986 33.686 69.9226C33.9343 70.0469 34.2311 70.0198 34.4531 69.8535L39.873 65.7886L45.293 69.8535C45.4219 69.9504 45.5768 70 45.7324 70C45.8442 70 45.9563 69.9744 46.0597 69.9226C46.3081 69.7986 46.4648 69.5449 46.4648 69.2676V58.5151C46.8108 58.4632 47.1496 58.3694 47.478 58.2336C48.3539 57.8704 49.0691 57.2463 49.546 56.4292C49.9583 55.725 50.6587 55.257 51.4663 55.1456C52.4047 55.0178 53.255 54.5959 53.9252 53.9252C54.5959 53.255 55.0178 52.4047 55.1456 51.4674C55.257 50.6587 55.725 49.9583 56.4285 49.5464C57.2463 49.0691 57.8704 48.3539 58.2332 47.478C58.596 46.6018 58.6604 45.655 58.4201 44.7402C58.2133 43.9506 58.3778 43.1243 58.8702 42.4747C59.4432 41.7209 59.7461 40.8214 59.7461 39.873ZM40.3125 64.2871C40.052 64.0918 39.6941 64.0918 39.4336 64.2871L34.7461 67.8027V58.4796C34.8331 58.4624 34.92 58.4426 35.0059 58.4201C35.2241 58.3629 35.4495 58.3339 35.675 58.3339C36.2483 58.3339 36.8156 58.5246 37.2714 58.8702C38.0252 59.4432 38.9247 59.7461 39.873 59.7461C40.8214 59.7461 41.7209 59.4432 42.4739 58.8706C42.9309 58.5246 43.4982 58.3339 44.0711 58.3339C44.297 58.3339 44.522 58.3629 44.7391 58.4197C44.8257 58.4426 44.9126 58.4621 45 58.4796V67.8027L40.3125 64.2871ZM57.7033 41.5889C56.9373 42.6002 56.6817 43.8838 57.0029 45.1118C57.162 45.7156 57.1193 46.3397 56.8801 46.9176C56.6409 47.4952 56.2293 47.9667 55.6895 48.2818C54.5947 48.9227 53.8676 50.011 53.6945 51.2687C53.6102 51.8867 53.3321 52.4474 52.8896 52.8896C52.4478 53.3317 51.8871 53.6098 51.2675 53.6945C50.011 53.8676 48.9227 54.5947 48.2814 55.6903C47.9671 56.2293 47.4956 56.6405 46.9176 56.8801C46.5705 57.0239 46.2058 57.0968 45.8339 57.0968C45.5909 57.0968 45.3479 57.0655 45.111 57.0029C44.7715 56.9141 44.4217 56.869 44.0715 56.869C43.1808 56.869 42.2992 57.1655 41.5885 57.7041C41.0915 58.0817 40.4983 58.2812 39.873 58.2812C39.2478 58.2812 38.6546 58.0817 38.1568 57.7033C37.4469 57.1655 36.5657 56.869 35.675 56.869C35.3244 56.869 34.9746 56.9141 34.6339 57.0029C34.0362 57.1601 33.4022 57.1178 32.8284 56.8797C32.2509 56.6405 31.779 56.2293 31.4643 55.6895C30.8234 54.5947 29.7351 53.8676 28.4774 53.6941C27.859 53.6102 27.2987 53.3317 26.8565 52.8896C26.4144 52.4474 26.1363 51.8871 26.0516 51.2675C25.8784 50.011 25.1514 48.9227 24.0558 48.2814C23.5168 47.9671 23.1055 47.4952 22.866 46.9176C22.6268 46.3401 22.5841 45.7156 22.7431 45.111C23.0643 43.8838 22.8088 42.6002 22.042 41.5881C21.6644 41.0915 21.4648 40.4983 21.4648 39.873C21.4648 39.2478 21.6644 38.6546 22.0428 38.1572C22.8088 37.1459 23.0643 35.8627 22.7431 34.6343C22.5845 34.0308 22.6268 33.4064 22.866 32.8288C23.1055 32.2509 23.5168 31.7794 24.0565 31.4643C25.1514 30.8234 25.8784 29.7355 26.052 28.4778C26.1363 27.8594 26.4144 27.2987 26.8565 26.8565C27.2987 26.4144 27.8594 26.1363 28.4785 26.0516C29.7351 25.8788 30.8234 25.1514 31.4647 24.0558C31.7794 23.5168 32.2509 23.1055 32.8284 22.866C33.4022 22.6283 34.035 22.5852 34.6351 22.7431C34.9746 22.832 35.3244 22.877 35.675 22.877C36.5657 22.877 37.4473 22.5806 38.158 22.042C38.6546 21.6644 39.2478 21.4648 39.873 21.4648C40.4983 21.4648 41.0915 21.6644 41.5893 22.0428C42.2992 22.5806 43.1804 22.877 44.0711 22.877C44.4217 22.877 44.7715 22.832 45.1122 22.7431C45.7095 22.586 46.3439 22.6283 46.9176 22.8664C47.4952 23.1055 47.9671 23.5168 48.2818 24.0565C48.9227 25.1514 50.011 25.8784 51.2683 26.052C51.8871 26.1363 52.4474 26.4144 52.8896 26.8565C53.3317 27.2987 53.6098 27.8594 53.6945 28.4785C53.8676 29.7351 54.5947 30.8234 55.6903 31.4647C56.2293 31.7794 56.6405 32.2509 56.8801 32.8284C57.1193 33.4064 57.1616 34.0305 57.0026 34.6351C56.6817 35.8623 56.937 37.1459 57.7041 38.158C58.0814 38.6546 58.2812 39.2478 58.2812 39.873C58.2812 40.4983 58.0817 41.0915 57.7033 41.5889Z" fill="#F03C53"/>
<path fill-rule="evenodd" clip-rule="evenodd" d="M59.7461 39.873C59.7461 38.9247 59.4432 38.0252 58.8706 37.2722C58.3778 36.6214 58.2133 35.7955 58.4197 35.007C58.6608 34.0911 58.5963 33.1439 58.2332 32.2681C57.8704 31.3922 57.2463 30.6766 56.4292 30.2001C55.7246 29.7878 55.257 29.0874 55.1456 28.2798C55.0178 27.3414 54.5959 26.4911 53.9252 25.8208C53.255 25.1502 52.4047 24.7283 51.4674 24.6005C50.6587 24.4891 49.9583 24.0211 49.5464 23.3176C49.0691 22.4998 48.3539 21.8753 47.478 21.5129C46.9524 21.2951 46.3988 21.1845 45.8335 21.1845C45.465 21.1845 45.0969 21.2321 44.7402 21.326C44.522 21.3832 44.2966 21.4122 44.0711 21.4122C43.4978 21.4122 42.9305 21.2215 42.4747 20.8759C41.7209 20.3029 40.8214 20 39.873 20C38.9247 20 38.0252 20.3029 37.2722 20.8755C36.8156 21.2215 36.2483 21.4122 35.675 21.4122C35.4491 21.4122 35.2245 21.3832 35.007 21.3264C34.6492 21.2321 34.2807 21.1845 33.9122 21.1845C33.3469 21.1845 32.7937 21.2951 32.2681 21.5129C31.3918 21.8757 30.6766 22.4998 30.2001 23.3169C29.7878 24.0211 29.0874 24.4891 28.2798 24.6005C27.3414 24.7283 26.4911 25.1502 25.8208 25.8208C25.1502 26.4911 24.7283 27.3414 24.6005 28.2787C24.4891 29.0874 24.0211 29.7878 23.3176 30.1994C22.4998 30.6766 21.8757 31.3918 21.5129 32.2681C21.1501 33.1439 21.0857 34.0911 21.326 35.0059C21.5327 35.7955 21.3683 36.6218 20.8759 37.2714C20.3029 38.0252 20 38.9251 20 39.873C20 40.8214 20.3029 41.7209 20.8755 42.4739C21.3683 43.1247 21.5327 43.9506 21.3264 44.7395C21.0853 45.6554 21.1497 46.6022 21.5125 47.4784C21.8757 48.3543 22.4998 49.0695 23.3169 49.5464C24.0211 49.9587 24.4891 50.6587 24.6005 51.4667C24.7283 52.4047 25.1502 53.255 25.8208 53.9256C26.4911 54.5963 27.3418 55.0182 28.2787 55.1456C29.0874 55.257 29.7878 55.725 30.1994 56.4285C30.6766 57.2467 31.3918 57.8708 32.2677 58.2336C32.5961 58.3694 32.9353 58.4636 33.2812 58.5151V69.2676C33.2812 69.5449 33.438 69.7986 33.686 69.9226C33.9343 70.0469 34.2311 70.0198 34.4531 69.8535L39.873 65.7886L45.293 69.8535C45.4219 69.9504 45.5768 70 45.7324 70C45.8442 70 45.9563 69.9744 46.0597 69.9226C46.3081 69.7986 46.4648 69.5449 46.4648 69.2676V58.5151C46.8108 58.4632 47.1496 58.3694 47.478 58.2336C48.3539 57.8704 49.0691 57.2463 49.546 56.4292C49.9583 55.725 50.6587 55.257 51.4663 55.1456C52.4047 55.0178 53.255 54.5959 53.9252 53.9252C54.5959 53.255 55.0178 52.4047 55.1456 51.4674C55.257 50.6587 55.725 49.9583 56.4285 49.5464C57.2463 49.0691 57.8704 48.3539 58.2332 47.478C58.596 46.6018 58.6604 45.655 58.4201 44.7402C58.2133 43.9506 58.3778 43.1243 58.8702 42.4747C59.4432 41.7209 59.7461 40.8214 59.7461 39.873ZM40.3125 64.2871C40.052 64.0918 39.6941 64.0918 39.4336 64.2871L34.7461 67.8027V58.4796C34.8331 58.4624 34.92 58.4426 35.0059 58.4201C35.2241 58.3629 35.4495 58.3339 35.675 58.3339C36.2483 58.3339 36.8156 58.5246 37.2714 58.8702C38.0252 59.4432 38.9247 59.7461 39.873 59.7461C40.8214 59.7461 41.7209 59.4432 42.4739 58.8706C42.9309 58.5246 43.4982 58.3339 44.0711 58.3339C44.297 58.3339 44.522 58.3629 44.7391 58.4197C44.8257 58.4426 44.9126 58.4621 45 58.4796V67.8027L40.3125 64.2871ZM57.7033 41.5889C56.9373 42.6002 56.6817 43.8838 57.0029 45.1118C57.162 45.7156 57.1193 46.3397 56.8801 46.9176C56.6409 47.4952 56.2293 47.9667 55.6895 48.2818C54.5947 48.9227 53.8676 50.011 53.6945 51.2687C53.6102 51.8867 53.3321 52.4474 52.8896 52.8896C52.4478 53.3317 51.8871 53.6098 51.2675 53.6945C50.011 53.8676 48.9227 54.5947 48.2814 55.6903C47.9671 56.2293 47.4956 56.6405 46.9176 56.8801C46.5705 57.0239 46.2058 57.0968 45.8339 57.0968C45.5909 57.0968 45.3479 57.0655 45.111 57.0029C44.7715 56.9141 44.4217 56.869 44.0715 56.869C43.1808 56.869 42.2992 57.1655 41.5885 57.7041C41.0915 58.0817 40.4983 58.2812 39.873 58.2812C39.2478 58.2812 38.6546 58.0817 38.1568 57.7033C37.4469 57.1655 36.5657 56.869 35.675 56.869C35.3244 56.869 34.9746 56.9141 34.6339 57.0029C34.0362 57.1601 33.4022 57.1178 32.8284 56.8797C32.2509 56.6405 31.779 56.2293 31.4643 55.6895C30.8234 54.5947 29.7351 53.8676 28.4774 53.6941C27.859 53.6102 27.2987 53.3317 26.8565 52.8896C26.4144 52.4474 26.1363 51.8871 26.0516 51.2675C25.8784 50.011 25.1514 48.9227 24.0558 48.2814C23.5168 47.9671 23.1055 47.4952 22.866 46.9176C22.6268 46.3401 22.5841 45.7156 22.7431 45.111C23.0643 43.8838 22.8088 42.6002 22.042 41.5881C21.6644 41.0915 21.4648 40.4983 21.4648 39.873C21.4648 39.2478 21.6644 38.6546 22.0428 38.1572C22.8088 37.1459 23.0643 35.8627 22.7431 34.6343C22.5845 34.0308 22.6268 33.4064 22.866 32.8288C23.1055 32.2509 23.5168 31.7794 24.0565 31.4643C25.1514 30.8234 25.8784 29.7355 26.052 28.4778C26.1363 27.8594 26.4144 27.2987 26.8565 26.8565C27.2987 26.4144 27.8594 26.1363 28.4785 26.0516C29.7351 25.8788 30.8234 25.1514 31.4647 24.0558C31.7794 23.5168 32.2509 23.1055 32.8284 22.866C33.4022 22.6283 34.035 22.5852 34.6351 22.7431C34.9746 22.832 35.3244 22.877 35.675 22.877C36.5657 22.877 37.4473 22.5806 38.158 22.042C38.6546 21.6644 39.2478 21.4648 39.873 21.4648C40.4983 21.4648 41.0915 21.6644 41.5893 22.0428C42.2992 22.5806 43.1804 22.877 44.0711 22.877C44.4217 22.877 44.7715 22.832 45.1122 22.7431C45.7095 22.586 46.3439 22.6283 46.9176 22.8664C47.4952 23.1055 47.9671 23.5168 48.2818 24.0565C48.9227 25.1514 50.011 25.8784 51.2683 26.052C51.8871 26.1363 52.4474 26.4144 52.8896 26.8565C53.3317 27.2987 53.6098 27.8594 53.6945 28.4785C53.8676 29.7351 54.5947 30.8234 55.6903 31.4647C56.2293 31.7794 56.6405 32.2509 56.8801 32.8284C57.1193 33.4064 57.1616 34.0305 57.0026 34.6351C56.6817 35.8623 56.937 37.1459 57.7041 38.158C58.0814 38.6546 58.2812 39.2478 58.2812 39.873C58.2812 40.4983 58.0817 41.0915 57.7033 41.5889Z" fill="url(#paint0_linear)"/>
</g>
<g filter="url(#filter1_d)">
<path fill-rule="evenodd" clip-rule="evenodd" d="M52.5355 36.769C51.8535 33.9858 50.2341 31.4635 47.9762 29.6672C45.6485 27.8148 42.8466 26.8359 39.873 26.8359C36.8995 26.8359 34.0976 27.8148 31.7698 29.6672C29.5119 31.4635 27.8926 33.9858 27.2105 36.769C27.1567 36.9872 27.2067 37.2184 27.3455 37.3954C27.484 37.5724 27.6965 37.6758 27.9216 37.6758H51.8245C52.0491 37.6758 52.2616 37.5724 52.4005 37.3954C52.5393 37.2184 52.5893 36.9872 52.5355 36.769ZM28.8943 36.2109C30.4568 31.5093 34.8449 28.3008 39.873 28.3008C44.9012 28.3008 49.2892 31.5093 50.8517 36.2109H28.8943Z" fill="#F03C53"/>
<path fill-rule="evenodd" clip-rule="evenodd" d="M52.5355 36.769C51.8535 33.9858 50.2341 31.4635 47.9762 29.6672C45.6485 27.8148 42.8466 26.8359 39.873 26.8359C36.8995 26.8359 34.0976 27.8148 31.7698 29.6672C29.5119 31.4635 27.8926 33.9858 27.2105 36.769C27.1567 36.9872 27.2067 37.2184 27.3455 37.3954C27.484 37.5724 27.6965 37.6758 27.9216 37.6758H51.8245C52.0491 37.6758 52.2616 37.5724 52.4005 37.3954C52.5393 37.2184 52.5893 36.9872 52.5355 36.769ZM28.8943 36.2109C30.4568 31.5093 34.8449 28.3008 39.873 28.3008C44.9012 28.3008 49.2892 31.5093 50.8517 36.2109H28.8943Z" fill="url(#paint1_linear)"/>
</g>
<g filter="url(#filter2_d)">
<path fill-rule="evenodd" clip-rule="evenodd" d="M37.6758 39.873C37.6758 40.2774 37.3477 40.6055 36.9434 40.6055C36.539 40.6055 36.2109 40.2774 36.2109 39.873C36.2109 39.4687 36.539 39.1406 36.9434 39.1406C37.3477 39.1406 37.6758 39.4687 37.6758 39.873Z" fill="#F03C53"/>
<path fill-rule="evenodd" clip-rule="evenodd" d="M37.6758 39.873C37.6758 40.2774 37.3477 40.6055 36.9434 40.6055C36.539 40.6055 36.2109 40.2774 36.2109 39.873C36.2109 39.4687 36.539 39.1406 36.9434 39.1406C37.3477 39.1406 37.6758 39.4687 37.6758 39.873Z" fill="url(#paint2_linear)"/>
</g>
<g filter="url(#filter3_d)">
<path fill-rule="evenodd" clip-rule="evenodd" d="M40.6055 39.873C40.6055 40.2774 40.2774 40.6055 39.873 40.6055C39.4687 40.6055 39.1406 40.2774 39.1406 39.873C39.1406 39.4687 39.4687 39.1406 39.873 39.1406C40.2774 39.1406 40.6055 39.4687 40.6055 39.873Z" fill="#F03C53"/>
<path fill-rule="evenodd" clip-rule="evenodd" d="M40.6055 39.873C40.6055 40.2774 40.2774 40.6055 39.873 40.6055C39.4687 40.6055 39.1406 40.2774 39.1406 39.873C39.1406 39.4687 39.4687 39.1406 39.873 39.1406C40.2774 39.1406 40.6055 39.4687 40.6055 39.873Z" fill="url(#paint3_linear)"/>
</g>
<g filter="url(#filter4_d)">
<path fill-rule="evenodd" clip-rule="evenodd" d="M43.5352 39.873C43.5352 40.2774 43.2071 40.6055 42.8027 40.6055C42.3984 40.6055 42.0703 40.2774 42.0703 39.873C42.0703 39.4687 42.3984 39.1406 42.8027 39.1406C43.2071 39.1406 43.5352 39.4687 43.5352 39.873Z" fill="#F03C53"/>
<path fill-rule="evenodd" clip-rule="evenodd" d="M43.5352 39.873C43.5352 40.2774 43.2071 40.6055 42.8027 40.6055C42.3984 40.6055 42.0703 40.2774 42.0703 39.873C42.0703 39.4687 42.3984 39.1406 42.8027 39.1406C43.2071 39.1406 43.5352 39.4687 43.5352 39.873Z" fill="url(#paint4_linear)"/>
</g>
<g filter="url(#filter5_d)">
<path fill-rule="evenodd" clip-rule="evenodd" d="M27.3455 42.3507C27.2067 42.5277 27.1567 42.7589 27.2105 42.9771C27.8926 45.7603 29.5119 48.2825 31.7698 50.0789C34.0976 51.9313 36.8995 52.9102 39.873 52.9102C42.8466 52.9102 45.6485 51.9313 47.9762 50.0789C50.2341 48.2825 51.8535 45.7603 52.5355 42.9771C52.5893 42.7589 52.5393 42.5277 52.4005 42.3507C52.262 42.1737 52.0495 42.0703 51.8245 42.0703H27.9216C27.6969 42.0703 27.4844 42.1737 27.3455 42.3507ZM50.8517 43.5352C49.2892 48.2368 44.9012 51.4453 39.873 51.4453C34.8452 51.4453 30.4568 48.2368 28.8943 43.5352H50.8517Z" fill="#F03C53"/>
<path fill-rule="evenodd" clip-rule="evenodd" d="M27.3455 42.3507C27.2067 42.5277 27.1567 42.7589 27.2105 42.9771C27.8926 45.7603 29.5119 48.2825 31.7698 50.0789C34.0976 51.9313 36.8995 52.9102 39.873 52.9102C42.8466 52.9102 45.6485 51.9313 47.9762 50.0789C50.2341 48.2825 51.8535 45.7603 52.5355 42.9771C52.5893 42.7589 52.5393 42.5277 52.4005 42.3507C52.262 42.1737 52.0495 42.0703 51.8245 42.0703H27.9216C27.6969 42.0703 27.4844 42.1737 27.3455 42.3507ZM50.8517 43.5352C49.2892 48.2368 44.9012 51.4453 39.873 51.4453C34.8452 51.4453 30.4568 48.2368 28.8943 43.5352H50.8517Z" fill="url(#paint5_linear)"/>
</g>
<g filter="url(#filter6_d)">
<path fill-rule="evenodd" clip-rule="evenodd" d="M39.873 23.9062C36.1781 23.9062 32.5732 25.2029 29.7218 27.5573C29.4097 27.8148 29.3655 28.2764 29.623 28.5884C29.8804 28.9001 30.342 28.9443 30.6541 28.6868C33.2439 26.5487 36.518 25.3711 39.873 25.3711C47.8694 25.3711 54.375 31.8767 54.375 39.873C54.375 47.8694 47.8694 54.375 39.873 54.375C31.8767 54.375 25.3711 47.8694 25.3711 39.873C25.3711 36.5207 26.5468 33.2488 28.6819 30.6602C28.9394 30.3481 28.8951 29.8866 28.5831 29.6291C28.2706 29.3716 27.8091 29.4162 27.552 29.7282C25.201 32.5786 23.9062 36.1816 23.9062 39.873C23.9062 48.677 31.0691 55.8398 39.873 55.8398C48.677 55.8398 55.8398 48.677 55.8398 39.873C55.8398 31.0691 48.677 23.9062 39.873 23.9062Z" fill="#F03C53"/>
<path fill-rule="evenodd" clip-rule="evenodd" d="M39.873 23.9062C36.1781 23.9062 32.5732 25.2029 29.7218 27.5573C29.4097 27.8148 29.3655 28.2764 29.623 28.5884C29.8804 28.9001 30.342 28.9443 30.6541 28.6868C33.2439 26.5487 36.518 25.3711 39.873 25.3711C47.8694 25.3711 54.375 31.8767 54.375 39.873C54.375 47.8694 47.8694 54.375 39.873 54.375C31.8767 54.375 25.3711 47.8694 25.3711 39.873C25.3711 36.5207 26.5468 33.2488 28.6819 30.6602C28.9394 30.3481 28.8951 29.8866 28.5831 29.6291C28.2706 29.3716 27.8091 29.4162 27.552 29.7282C25.201 32.5786 23.9062 36.1816 23.9062 39.873C23.9062 48.677 31.0691 55.8398 39.873 55.8398C48.677 55.8398 55.8398 48.677 55.8398 39.873C55.8398 31.0691 48.677 23.9062 39.873 23.9062Z" fill="url(#paint6_linear)"/>
</g>
<defs>
<filter id="filter0_d" x="0" y="0" width="79.7461" height="90" filterUnits="userSpaceOnUse" color-interpolation-filters="sRGB">
<feFlood flood-opacity="0" result="BackgroundImageFix"/>
<feColorMatrix in="SourceAlpha" type="matrix" values="0 0 0 0 0 0 0 0 0 0 0 0 0 0 0 0 0 0 127 0"/>
<feOffset/>
<feGaussianBlur stdDeviation="10"/>
<feColorMatrix type="matrix" values="0 0 0 0 0.290816 0 0 0 0 0.345804 0 0 0 0 0.59075 0 0 0 1 0"/>
<feBlend mode="normal" in2="BackgroundImageFix" result="effect1_dropShadow"/>
<feBlend mode="normal" in="SourceGraphic" in2="effect1_dropShadow" result="shape"/>
</filter>
<filter id="filter1_d" x="7.18933" y="6.83594" width="65.3674" height="50.8398" filterUnits="userSpaceOnUse" color-interpolation-filters="sRGB">
<feFlood flood-opacity="0" result="BackgroundImageFix"/>
<feColorMatrix in="SourceAlpha" type="matrix" values="0 0 0 0 0 0 0 0 0 0 0 0 0 0 0 0 0 0 127 0"/>
<feOffset/>
<feGaussianBlur stdDeviation="10"/>
<feColorMatrix type="matrix" values="0 0 0 0 0.290816 0 0 0 0 0.345804 0 0 0 0 0.59075 0 0 0 1 0"/>
<feBlend mode="normal" in2="BackgroundImageFix" result="effect1_dropShadow"/>
<feBlend mode="normal" in="SourceGraphic" in2="effect1_dropShadow" result="shape"/>
</filter>
<filter id="filter2_d" x="16.2109" y="19.1406" width="41.4648" height="41.4648" filterUnits="userSpaceOnUse" color-interpolation-filters="sRGB">
<feFlood flood-opacity="0" result="BackgroundImageFix"/>
<feColorMatrix in="SourceAlpha" type="matrix" values="0 0 0 0 0 0 0 0 0 0 0 0 0 0 0 0 0 0 127 0"/>
<feOffset/>
<feGaussianBlur stdDeviation="10"/>
<feColorMatrix type="matrix" values="0 0 0 0 0.290816 0 0 0 0 0.345804 0 0 0 0 0.59075 0 0 0 1 0"/>
<feBlend mode="normal" in2="BackgroundImageFix" result="effect1_dropShadow"/>
<feBlend mode="normal" in="SourceGraphic" in2="effect1_dropShadow" result="shape"/>
</filter>
<filter id="filter3_d" x="19.1406" y="19.1406" width="41.4648" height="41.4648" filterUnits="userSpaceOnUse" color-interpolation-filters="sRGB">
<feFlood flood-opacity="0" result="BackgroundImageFix"/>
<feColorMatrix in="SourceAlpha" type="matrix" values="0 0 0 0 0 0 0 0 0 0 0 0 0 0 0 0 0 0 127 0"/>
<feOffset/>
<feGaussianBlur stdDeviation="10"/>
<feColorMatrix type="matrix" values="0 0 0 0 0.290816 0 0 0 0 0.345804 0 0 0 0 0.59075 0 0 0 1 0"/>
<feBlend mode="normal" in2="BackgroundImageFix" result="effect1_dropShadow"/>
<feBlend mode="normal" in="SourceGraphic" in2="effect1_dropShadow" result="shape"/>
</filter>
<filter id="filter4_d" x="22.0703" y="19.1406" width="41.4648" height="41.4648" filterUnits="userSpaceOnUse" color-interpolation-filters="sRGB">
<feFlood flood-opacity="0" result="BackgroundImageFix"/>
<feColorMatrix in="SourceAlpha" type="matrix" values="0 0 0 0 0 0 0 0 0 0 0 0 0 0 0 0 0 0 127 0"/>
<feOffset/>
<feGaussianBlur stdDeviation="10"/>
<feColorMatrix type="matrix" values="0 0 0 0 0.290816 0 0 0 0 0.345804 0 0 0 0 0.59075 0 0 0 1 0"/>
<feBlend mode="normal" in2="BackgroundImageFix" result="effect1_dropShadow"/>
<feBlend mode="normal" in="SourceGraphic" in2="effect1_dropShadow" result="shape"/>
</filter>
<filter id="filter5_d" x="7.18933" y="22.0703" width="65.3674" height="50.8398" filterUnits="userSpaceOnUse" color-interpolation-filters="sRGB">
<feFlood flood-opacity="0" result="BackgroundImageFix"/>
<feColorMatrix in="SourceAlpha" type="matrix" values="0 0 0 0 0 0 0 0 0 0 0 0 0 0 0 0 0 0 127 0"/>
<feOffset/>
<feGaussianBlur stdDeviation="10"/>
<feColorMatrix type="matrix" values="0 0 0 0 0.290816 0 0 0 0 0.345804 0 0 0 0 0.59075 0 0 0 1 0"/>
<feBlend mode="normal" in2="BackgroundImageFix" result="effect1_dropShadow"/>
<feBlend mode="normal" in="SourceGraphic" in2="effect1_dropShadow" result="shape"/>
</filter>
<filter id="filter6_d" x="3.90625" y="3.90625" width="71.9336" height="71.9336" filterUnits="userSpaceOnUse" color-interpolation-filters="sRGB">
<feFlood flood-opacity="0" result="BackgroundImageFix"/>
<feColorMatrix in="SourceAlpha" type="matrix" values="0 0 0 0 0 0 0 0 0 0 0 0 0 0 0 0 0 0 127 0"/>
<feOffset/>
<feGaussianBlur stdDeviation="10"/>
<feColorMatrix type="matrix" values="0 0 0 0 0.290816 0 0 0 0 0.345804 0 0 0 0 0.59075 0 0 0 1 0"/>
<feBlend mode="normal" in2="BackgroundImageFix" result="effect1_dropShadow"/>
<feBlend mode="normal" in="SourceGraphic" in2="effect1_dropShadow" result="shape"/>
</filter>
<linearGradient id="paint0_linear" x1="-0.0717771" y1="45.5" x2="49.5037" y2="84.5223" gradientUnits="userSpaceOnUse">
<stop stop-color="#F03C53"/>
<stop offset="1" stop-color="#FF2778"/>
</linearGradient>
<linearGradient id="paint1_linear" x1="14.3788" y1="32.3643" x2="22.4239" y2="51.0068" gradientUnits="userSpaceOnUse">
<stop stop-color="#F03C53"/>
<stop offset="1" stop-color="#FF2778"/>
</linearGradient>
<linearGradient id="paint2_linear" x1="35.4712" y1="39.8877" x2="36.9653" y2="41.3672" gradientUnits="userSpaceOnUse">
<stop stop-color="#F03C53"/>
<stop offset="1" stop-color="#FF2778"/>
</linearGradient>
<linearGradient id="paint3_linear" x1="38.4009" y1="39.8877" x2="39.895" y2="41.3672" gradientUnits="userSpaceOnUse">
<stop stop-color="#F03C53"/>
<stop offset="1" stop-color="#FF2778"/>
</linearGradient>
<linearGradient id="paint4_linear" x1="41.3306" y1="39.8877" x2="42.8247" y2="41.3672" gradientUnits="userSpaceOnUse">
<stop stop-color="#F03C53"/>
<stop offset="1" stop-color="#FF2778"/>
</linearGradient>
<linearGradient id="paint5_linear" x1="14.3788" y1="47.5986" x2="22.4239" y2="66.2412" gradientUnits="userSpaceOnUse">
<stop stop-color="#F03C53"/>
<stop offset="1" stop-color="#FF2778"/>
</linearGradient>
<linearGradient id="paint6_linear" x1="7.77979" y1="40.1924" x2="40.3521" y2="72.4453" gradientUnits="userSpaceOnUse">
<stop stop-color="#F03C53"/>
<stop offset="1" stop-color="#FF2778"/>
</linearGradient>
</defs>
</svg>
