<svg width="87" height="77" viewBox="0 0 87 77" fill="none" xmlns="http://www.w3.org/2000/svg">
<path opacity="0.32" d="M0 10.5103L0.601345 14.9893L73.8029 5.12579L81.7017 63.1264L17.6828 71.761L13.8959 43.8845L37.0071 40.7961L37.8035 46.6172L42.4842 45.9704L41.054 35.4763L8.51635 39.9068L13.6522 77L87 67.1042L77.8661 0L0 10.5103Z" fill="white"/>
<path d="M5 5V9.48054H78.3216V67.4075H14.1954V39.5641L37.3454 39.6121V45.4048H42.0399V34.9236L9.4364 34.9716L9.51706 72H83V5H5Z" fill="white"/>
<path fill-rule="evenodd" clip-rule="evenodd" d="M9.19412 31.6765C9.19412 31.5472 9.19412 31.3208 9.1772 30.9973C9.1772 30.6577 9.1772 30.2372 9.16028 29.7682C9.16028 29.283 9.16028 28.7655 9.16028 28.1995C9.16028 27.6496 9.14337 27.0836 9.14337 26.5175C9.14337 25.9515 9.14337 25.4178 9.14337 24.9326C9.14337 24.4313 9.14337 24.0108 9.14337 23.655C9.14337 23.2992 9.14337 23.0404 9.14337 22.8949C9.19412 22.9272 9.36331 23.0728 9.66785 23.283C9.9724 23.5094 10.3615 23.8005 10.8353 24.1725C11.309 24.5283 11.8673 24.9488 12.4764 25.4016C13.0855 25.8544 13.7453 26.3396 14.4221 26.841C15.0988 27.3585 15.7925 27.8598 16.4862 28.3612C17.1799 28.8787 17.8566 29.3639 18.4996 29.8167C19.1425 30.2857 19.7516 30.7062 20.293 31.0782C20.8344 31.4501 21.3081 31.7574 21.6972 32L21.951 31.8706C21.9679 31.4663 22.0018 30.965 22.0187 30.3666C22.0525 29.7682 22.0864 29.0889 22.1202 28.3288C22.1541 27.5849 22.2048 26.7763 22.2386 25.9353C22.2894 25.0943 22.3402 24.221 22.3909 23.3315C22.4417 22.442 22.5093 21.5687 22.5601 20.6954C22.6109 19.8221 22.6616 18.9973 22.7293 18.2049C22.7801 17.4124 22.8308 16.6846 22.8816 16.0216C22.9323 15.3585 22.9662 14.7925 23 14.3073L17.8397 14.1617C17.8397 14.3235 17.8397 14.566 17.8397 14.9057C17.8397 15.2615 17.8397 15.6658 17.8397 16.1348C17.8397 16.6038 17.8397 17.1213 17.8397 17.6712C17.8397 18.2049 17.8566 18.7547 17.8566 19.3046C17.8566 19.8544 17.8566 20.372 17.8736 20.8733C17.8736 21.3747 17.8736 21.8113 17.8736 22.1833C17.8736 22.5553 17.8736 22.8464 17.8736 23.0404C17.7382 22.9434 17.4844 22.7493 17.0784 22.4744C16.6892 22.1833 16.1986 21.8275 15.6064 21.407C15.0142 20.9865 14.3713 20.5175 13.6607 20C12.9501 19.4825 12.2057 18.965 11.4443 18.4151C10.683 17.8652 9.92164 17.3154 9.16028 16.7817C8.41585 16.248 7.70525 15.7305 7.0285 15.2615C6.35174 14.7925 5.75957 14.3558 5.252 14L4.99822 14.1456C4.96438 14.5499 4.93054 15.0836 4.89671 15.7466C4.86287 16.4097 4.81211 17.1536 4.76135 17.9784C4.7106 18.8032 4.65984 19.6927 4.60908 20.6146C4.55833 21.5364 4.50757 22.4582 4.45681 23.3962C4.40606 24.3342 4.3553 25.2399 4.30454 26.1132C4.25378 26.9865 4.21995 27.7951 4.16919 28.5229C4.13535 29.2668 4.10151 29.8814 4.06768 30.3989C4.03384 30.9164 4.01692 31.2884 4 31.4987L9.19412 31.6765Z" fill="#F03C53"/>
<path fill-rule="evenodd" clip-rule="evenodd" d="M9.19412 31.6765C9.19412 31.5472 9.19412 31.3208 9.1772 30.9973C9.1772 30.6577 9.1772 30.2372 9.16028 29.7682C9.16028 29.283 9.16028 28.7655 9.16028 28.1995C9.16028 27.6496 9.14337 27.0836 9.14337 26.5175C9.14337 25.9515 9.14337 25.4178 9.14337 24.9326C9.14337 24.4313 9.14337 24.0108 9.14337 23.655C9.14337 23.2992 9.14337 23.0404 9.14337 22.8949C9.19412 22.9272 9.36331 23.0728 9.66785 23.283C9.9724 23.5094 10.3615 23.8005 10.8353 24.1725C11.309 24.5283 11.8673 24.9488 12.4764 25.4016C13.0855 25.8544 13.7453 26.3396 14.4221 26.841C15.0988 27.3585 15.7925 27.8598 16.4862 28.3612C17.1799 28.8787 17.8566 29.3639 18.4996 29.8167C19.1425 30.2857 19.7516 30.7062 20.293 31.0782C20.8344 31.4501 21.3081 31.7574 21.6972 32L21.951 31.8706C21.9679 31.4663 22.0018 30.965 22.0187 30.3666C22.0525 29.7682 22.0864 29.0889 22.1202 28.3288C22.1541 27.5849 22.2048 26.7763 22.2386 25.9353C22.2894 25.0943 22.3402 24.221 22.3909 23.3315C22.4417 22.442 22.5093 21.5687 22.5601 20.6954C22.6109 19.8221 22.6616 18.9973 22.7293 18.2049C22.7801 17.4124 22.8308 16.6846 22.8816 16.0216C22.9323 15.3585 22.9662 14.7925 23 14.3073L17.8397 14.1617C17.8397 14.3235 17.8397 14.566 17.8397 14.9057C17.8397 15.2615 17.8397 15.6658 17.8397 16.1348C17.8397 16.6038 17.8397 17.1213 17.8397 17.6712C17.8397 18.2049 17.8566 18.7547 17.8566 19.3046C17.8566 19.8544 17.8566 20.372 17.8736 20.8733C17.8736 21.3747 17.8736 21.8113 17.8736 22.1833C17.8736 22.5553 17.8736 22.8464 17.8736 23.0404C17.7382 22.9434 17.4844 22.7493 17.0784 22.4744C16.6892 22.1833 16.1986 21.8275 15.6064 21.407C15.0142 20.9865 14.3713 20.5175 13.6607 20C12.9501 19.4825 12.2057 18.965 11.4443 18.4151C10.683 17.8652 9.92164 17.3154 9.16028 16.7817C8.41585 16.248 7.70525 15.7305 7.0285 15.2615C6.35174 14.7925 5.75957 14.3558 5.252 14L4.99822 14.1456C4.96438 14.5499 4.93054 15.0836 4.89671 15.7466C4.86287 16.4097 4.81211 17.1536 4.76135 17.9784C4.7106 18.8032 4.65984 19.6927 4.60908 20.6146C4.55833 21.5364 4.50757 22.4582 4.45681 23.3962C4.40606 24.3342 4.3553 25.2399 4.30454 26.1132C4.25378 26.9865 4.21995 27.7951 4.16919 28.5229C4.13535 29.2668 4.10151 29.8814 4.06768 30.3989C4.03384 30.9164 4.01692 31.2884 4 31.4987L9.19412 31.6765Z" fill="url(#paint0_linear)"/>
<path fill-rule="evenodd" clip-rule="evenodd" d="M33.0773 31.4041C34.2404 31.4041 35.2905 31.2717 36.1951 31.0234C37.0998 30.7585 37.8914 30.4109 38.5698 29.964C39.2483 29.517 39.8137 29.0039 40.2822 28.4411C40.7507 27.8783 41.1223 27.2658 41.413 26.6368C41.7038 26.0078 41.8977 25.3788 42.0269 24.7663C42.1562 24.1538 42.2208 23.5579 42.2208 23.0117C42.2208 21.8199 42.0269 20.7605 41.6554 19.8335C41.2838 18.89 40.7507 18.112 40.0399 17.4499C39.3291 16.8043 38.4891 16.2911 37.4875 15.9601C36.4859 15.6125 35.3712 15.4469 34.1112 15.4469C33.0773 15.4469 32.1403 15.5628 31.2841 15.7945C30.4279 16.0263 29.6687 16.3408 28.9902 16.7546C28.3117 17.1685 27.7301 17.6485 27.2293 18.1947C26.7285 18.741 26.3085 19.3369 25.9854 19.9825C25.6462 20.628 25.4039 21.2902 25.2423 21.9854C25.0808 22.6806 25 23.3759 25 24.0711C25 24.7663 25.0969 25.4615 25.3069 26.1568C25.5169 26.852 25.8239 27.5141 26.2439 28.1431C26.6639 28.7722 27.197 29.335 27.8271 29.8315C28.4732 30.3281 29.2163 30.7089 30.1048 30.9903C30.961 31.2551 31.9626 31.4041 33.0773 31.4041ZM33.3035 28.0769C32.8673 28.0769 32.4634 27.9942 32.0757 27.8121C31.688 27.63 31.3487 27.3486 31.058 27.001C30.7672 26.6368 30.5249 26.1899 30.3633 25.6436C30.2018 25.0974 30.1048 24.4684 30.1048 23.74C30.1048 23.0779 30.1856 22.4489 30.3472 21.853C30.5087 21.2571 30.751 20.7439 31.0741 20.2804C31.3811 19.8169 31.7849 19.4528 32.2373 19.2045C32.7057 18.9396 33.2227 18.8072 33.8204 18.8072C34.4989 18.8072 35.0805 18.9893 35.5651 19.3204C36.0497 19.668 36.4213 20.1646 36.6798 20.8267C36.9382 21.4722 37.0675 22.2668 37.0675 23.1938C37.0513 24.2697 36.8898 25.1636 36.5828 25.8919C36.2759 26.6203 35.8397 27.1665 35.2743 27.5472C34.7251 27.8948 34.0627 28.0769 33.3035 28.0769ZM55.8391 15.3311C55.7906 15.4304 55.6937 15.6456 55.5483 15.9601C55.4029 16.2746 55.2091 16.6719 54.9829 17.1353C54.7567 17.5988 54.5144 18.112 54.2559 18.6582C53.9975 19.2045 53.7228 19.7673 53.4644 20.3301C53.2059 20.8929 52.9474 21.4391 52.7051 21.9523C52.4628 22.4654 52.2528 22.9289 52.0589 23.3262C51.8812 23.7235 51.7358 24.0214 51.6389 24.2366C51.542 24.0214 51.4127 23.7235 51.235 23.3427C51.0573 22.962 50.8635 22.5151 50.6212 22.0185C50.395 21.5219 50.1527 20.9922 49.8942 20.446C49.6357 19.8832 49.3934 19.3369 49.1349 18.8072C48.8765 18.261 48.6503 17.7644 48.4403 17.2843C48.2303 16.8208 48.0364 16.407 47.8749 16.0759C47.7133 15.7449 47.6164 15.4966 47.5356 15.3476L43.0285 17.8637C43.1254 18.0127 43.2708 18.2775 43.497 18.6582C43.7232 19.0389 43.9816 19.5024 44.3047 20.0652C44.6278 20.628 44.9832 21.2405 45.3709 21.9192C45.7586 22.5979 46.1625 23.3096 46.5825 24.0545C47.0025 24.7994 47.4387 25.5443 47.8749 26.3057C48.3111 27.0506 48.7311 27.779 49.1349 28.4907C49.555 29.186 49.9265 29.8481 50.2981 30.444C50.6535 31.0399 50.9766 31.5531 51.2512 32H51.4612C51.6712 31.6855 51.9297 31.2551 52.2689 30.7254C52.6082 30.1957 52.9797 29.5833 53.3997 28.888C53.8198 28.1928 54.2721 27.4645 54.7406 26.703C55.2091 25.925 55.6775 25.1636 56.1622 24.369C56.6307 23.591 57.0991 22.8296 57.5515 22.1013C57.9876 21.3729 58.4077 20.6943 58.7792 20.0983C59.1508 19.4859 59.4739 18.9727 59.7162 18.5589C59.9747 18.1451 60.1524 17.8637 60.2493 17.6981L55.8391 15.3311ZM62.2525 31.7517L58.2784 29.4674C58.3592 29.3184 58.5046 29.0536 58.7469 28.6563C58.9731 28.259 59.2477 27.779 59.5869 27.1996C59.9262 26.6203 60.2977 25.9747 60.7016 25.2629C61.1055 24.5511 61.5417 23.8062 61.994 23.0448C62.4463 22.2668 62.8986 21.5054 63.351 20.7274C63.8033 19.9494 64.2395 19.2045 64.6595 18.4927C65.0795 17.7809 65.4672 17.1188 65.8226 16.5229C66.178 15.927 66.485 15.4138 66.7434 15H66.9534C67.2765 15.4966 67.6319 16.0428 68.0358 16.6719C68.4397 17.3009 68.8597 17.9796 69.312 18.6913C69.7643 19.4031 70.2167 20.1315 70.7013 20.8929C71.1698 21.6378 71.6383 22.3827 72.1067 23.111C72.5752 23.8393 73.0114 24.5346 73.4314 25.2132C73.8514 25.8754 74.2392 26.4878 74.5784 27.0341C74.9338 27.5803 75.2246 28.0438 75.4669 28.4245C75.7092 28.8053 75.8869 29.0701 76 29.2356L71.8483 31.7517C71.719 31.5365 71.5898 31.3048 71.4444 31.0399C71.299 30.7751 71.1375 30.5102 70.9921 30.2288C70.8305 29.9474 70.6851 29.6991 70.5559 29.4508C70.4105 29.2025 70.2974 28.9873 70.2005 28.8053C70.1036 28.6232 70.0228 28.4908 69.9743 28.4245L63.6741 28.7887C63.6256 28.8715 63.561 29.0204 63.4479 29.2356C63.351 29.4508 63.2217 29.7157 63.0925 30.0136C62.9633 30.3116 62.8179 30.6095 62.6725 30.9241C62.5109 31.222 62.3817 31.5034 62.2525 31.7517ZM64.9826 25.5774L68.5204 25.3788C68.3266 24.9649 68.1166 24.5346 67.8904 24.0876C67.6642 23.6407 67.4542 23.2103 67.2604 22.7965C67.0665 22.3827 66.905 22.0351 66.7757 21.7371C66.598 22.0847 66.4203 22.482 66.2103 22.9289C66.0003 23.3759 65.7903 23.8228 65.5803 24.2697C65.3541 24.7332 65.1603 25.1636 64.9826 25.5774Z" fill="white"/>
<path fill-rule="evenodd" clip-rule="evenodd" d="M23 47C23.0162 47.0834 23.0162 47.2502 23.0162 47.5338C23.0324 47.8007 23.0324 48.1511 23.0324 48.5681C23.0487 48.9685 23.0487 49.4189 23.0487 49.9027C23.0487 50.3865 23.0649 50.8536 23.0649 51.3207C23.0649 51.8044 23.0811 52.2382 23.0811 52.6386C23.0811 53.0389 23.0973 53.3726 23.0973 53.6562C23.0973 53.9231 23.0973 54.0899 23.0973 54.1566V57.4764C23.0973 57.5765 23.0973 57.81 23.0973 58.1437C23.0973 58.4773 23.0973 58.8777 23.0973 59.3448C23.0973 59.8285 23.0973 60.3123 23.0973 60.8462C23.0973 61.38 23.0811 61.8971 23.0811 62.4143C23.0811 62.9314 23.0649 63.3818 23.0649 63.7989C23.0649 64.2159 23.0487 64.5329 23.0324 64.7498C23.2758 64.7498 23.6165 64.7498 24.0383 64.7665C24.4602 64.7665 24.9469 64.7831 25.4823 64.7831C26.0339 64.7998 26.6018 64.7998 27.2021 64.8332C27.8024 64.8499 28.4189 64.8665 29.0354 64.8832C29.6519 64.8999 30.236 64.9166 30.7876 64.9333C31.3555 64.95 31.8584 64.9666 32.3127 64.9666C32.767 64.9666 33.1401 64.9833 33.4322 64.9833C33.7242 64.9833 33.9189 65 34 65L33.9838 60.3457C33.5944 60.3624 33.1726 60.3791 32.7345 60.3957C32.2965 60.4124 31.8584 60.4124 31.4204 60.4291C30.9823 60.4458 30.5767 60.4458 30.1873 60.4458C29.7979 60.4458 29.4735 60.4458 29.1976 60.4458C28.9218 60.4458 28.7109 60.4458 28.5973 60.4458V55.8749C28.5973 55.3411 28.5973 54.7739 28.6136 54.1733C28.6136 53.5561 28.6298 52.9388 28.6298 52.3049C28.646 51.671 28.646 51.0704 28.6622 50.4866C28.6622 49.886 28.6785 49.3522 28.6947 48.8684C28.7109 48.3846 28.7109 47.9676 28.7109 47.6506C28.7271 47.3336 28.7271 47.1168 28.7271 47.0167H23V47Z" fill="#30354C"/>
<path fill-rule="evenodd" clip-rule="evenodd" d="M41.7444 55.8218C41.7444 55.311 41.7444 54.7673 41.7444 54.207C41.7444 53.6468 41.7603 53.103 41.7603 52.5592C41.7603 52.0319 41.7762 51.5376 41.7762 51.0927C41.7762 50.6478 41.7922 50.2688 41.7922 49.9722C41.7922 49.6756 41.8081 49.4943 41.8081 49.4119H37C37 49.4943 37 49.6591 37 49.9063C37 50.1535 37 50.4665 37.0159 50.829C37.0159 51.1916 37.0159 51.587 37.0318 52.0154C37.0318 52.4439 37.0478 52.8558 37.0478 53.2842C37.0478 53.7127 37.0478 54.0917 37.0637 54.4542C37.0637 54.8167 37.0637 55.1133 37.0637 55.344C37.0637 55.5747 37.0637 55.723 37.0637 55.7889V58.0958C37.0637 58.1782 37.0637 58.3429 37.0637 58.5901C37.0637 58.8373 37.0637 59.1174 37.0637 59.4799C37.0637 59.826 37.0637 60.2049 37.0637 60.6004C37.0637 60.9959 37.0637 61.4078 37.0478 61.8198C37.0478 62.2317 37.0478 62.6272 37.0318 63.0062C37.0318 63.3852 37.0159 63.6982 37.0159 63.9784C37.0159 64.2585 37 64.4727 37 64.6045H41.8081C41.8081 64.5221 41.8081 64.3574 41.7922 64.1102C41.7922 63.863 41.7762 63.5499 41.7762 63.1874C41.7762 62.8249 41.7603 62.4295 41.7603 61.9846C41.7603 61.5561 41.7444 61.1112 41.7444 60.6498C41.7444 60.1885 41.7285 59.76 41.7285 59.3151C41.7285 58.8867 41.7285 58.4912 41.7285 58.1287V55.8218H41.7444ZM49.7207 64.7528C49.7207 64.6375 49.7207 64.4398 49.7048 64.1432C49.7048 63.8465 49.7048 63.484 49.7048 63.0556C49.7048 62.6272 49.7048 62.1658 49.7048 61.6715C49.7048 61.1771 49.7048 60.6828 49.7048 60.1885C49.7048 59.6941 49.7048 59.2163 49.7048 58.7878C49.7048 58.3429 49.7048 57.964 49.7048 57.6509C49.7048 57.3378 49.7048 57.1071 49.7048 56.9753C49.7526 57.0082 49.8959 57.1236 50.1347 57.3213C50.3735 57.5191 50.6919 57.7827 51.0899 58.0958C51.488 58.4253 51.9337 58.7878 52.4273 59.1833C52.9367 59.5788 53.4621 60.0072 54.0194 60.4521C54.5766 60.897 55.1338 61.3419 55.707 61.7868C56.2801 62.2317 56.8214 62.6601 57.3627 63.0721C57.8881 63.484 58.3817 63.8465 58.8275 64.1926C59.2732 64.5221 59.6553 64.7858 59.9738 65L60.1807 64.9011C60.1966 64.5551 60.2126 64.1102 60.2444 63.5664C60.2762 63.0391 60.2922 62.4295 60.324 61.7703C60.3559 61.1112 60.3877 60.4027 60.4355 59.6447C60.4832 58.9032 60.5151 58.1287 60.5628 57.3543C60.6106 56.5798 60.6583 55.8054 60.7061 55.0309C60.7539 54.2564 60.8016 53.5314 60.8335 52.8229C60.8812 52.1308 60.9131 51.4717 60.9608 50.895C60.9927 50.3018 61.0404 49.8074 61.0564 49.379L56.8373 49.2472C56.8373 49.379 56.8373 49.6097 56.8373 49.9063C56.8373 50.2194 56.8373 50.5819 56.8373 50.9938C56.8373 51.4222 56.8373 51.8671 56.8373 52.345C56.8373 52.8229 56.8373 53.3007 56.8533 53.7951C56.8533 54.2729 56.8533 54.7343 56.8692 55.1792C56.8692 55.6076 56.8692 56.0031 56.8692 56.3326C56.8692 56.6622 56.8692 56.9258 56.8692 57.0906C56.7577 57.0082 56.5508 56.8435 56.2164 56.5963C55.898 56.3491 55.5 56.036 55.0224 55.6571C54.5448 55.2781 54.0194 54.8661 53.4303 54.4212C52.8571 53.9598 52.2522 53.4985 51.6153 53.0206C50.9944 52.5263 50.3735 52.0484 49.7526 51.5705C49.1317 51.0927 48.5585 50.6478 48.0172 50.2194C47.4759 49.7909 46.9824 49.4284 46.5525 49.0989L46.3455 49.2307C46.3137 49.5932 46.2978 50.0546 46.25 50.6478C46.2182 51.2245 46.1863 51.8836 46.1386 52.6251C46.1067 53.3502 46.059 54.1246 46.0112 54.9485C45.9634 55.7559 45.9316 56.5798 45.8838 57.4037C45.8361 58.2276 45.8042 59.035 45.7565 59.8095C45.7246 60.5839 45.6769 61.2925 45.645 61.9351C45.6132 62.5778 45.5813 63.138 45.5495 63.5994C45.5176 64.0608 45.5017 64.3738 45.4858 64.5716L49.7207 64.7528ZM73.8726 61.1277C73.7134 61.1442 73.4905 61.1607 73.2199 61.1607C72.9651 61.1607 72.6627 61.1771 72.3442 61.1771C72.0258 61.1771 71.7074 61.1771 71.3731 61.1771C71.0387 61.1771 70.7362 61.1771 70.4497 61.1771C70.1631 61.1771 69.9083 61.1771 69.6855 61.1771C69.4785 61.1771 69.3193 61.1771 69.2238 61.1771V58.656C69.3034 58.656 69.4307 58.656 69.6218 58.656C69.8128 58.656 70.0357 58.656 70.2745 58.6725C70.5293 58.6725 70.784 58.689 71.0706 58.689C71.3571 58.689 71.6119 58.7055 71.8666 58.7055C72.1213 58.7055 72.3602 58.7219 72.5512 58.7219C72.7423 58.7219 72.9015 58.7219 72.997 58.7219L72.9333 55.2945C72.7423 55.311 72.5194 55.3275 72.2328 55.344C71.9621 55.3605 71.6596 55.3769 71.3571 55.3934C71.0546 55.4099 70.7522 55.4264 70.4497 55.4428C70.1631 55.4593 69.9083 55.4758 69.6855 55.4758C69.4626 55.4758 69.3193 55.4923 69.2238 55.4923V52.6581C69.2874 52.6581 69.4307 52.6581 69.6218 52.6581C69.8287 52.6581 70.0676 52.6416 70.3541 52.6416C70.6407 52.6416 70.9432 52.6251 71.2616 52.6087C71.58 52.5922 71.8985 52.5922 72.2169 52.5757C72.5194 52.5592 72.8059 52.5592 73.0448 52.5592C73.2836 52.5592 73.4746 52.5592 73.6179 52.5592L73.5383 49C73.4428 49 73.2517 49.0165 72.9811 49.033C72.7104 49.0494 72.3761 49.0659 71.994 49.0824C71.6119 49.0989 71.1661 49.1318 70.7044 49.1483C70.2427 49.1648 69.7491 49.1977 69.2556 49.2142C68.762 49.2307 68.2685 49.2636 67.7909 49.2801C67.3133 49.2966 66.8515 49.3131 66.4376 49.3296C66.0237 49.346 65.6575 49.3625 65.355 49.3625C65.0525 49.379 64.8137 49.379 64.6704 49.379C64.6704 49.4779 64.6704 49.6426 64.6863 49.9063C64.6863 50.1535 64.6863 50.4665 64.7022 50.8126C64.7022 51.1751 64.7182 51.5541 64.7182 51.9495C64.7182 52.345 64.7182 52.757 64.7341 53.1524C64.7341 53.5479 64.7341 53.9269 64.75 54.2564C64.75 54.6025 64.75 54.8826 64.75 55.0968C64.75 55.3275 64.75 55.4593 64.75 55.5088V58.3759C64.75 58.4583 64.75 58.6395 64.75 58.9197C64.75 59.1998 64.75 59.5458 64.75 59.9413C64.75 60.3368 64.75 60.7652 64.75 61.2266C64.75 61.688 64.75 62.1329 64.7341 62.5613C64.7341 62.9897 64.7182 63.3852 64.7182 63.7477C64.7182 64.0937 64.7022 64.3738 64.6863 64.5716C64.8296 64.5716 65.0525 64.5716 65.3709 64.5881C65.6734 64.5881 66.0555 64.6045 66.4854 64.6045C66.9312 64.621 67.3929 64.621 67.9023 64.6375C68.4118 64.654 68.9213 64.6704 69.4626 64.6704C69.988 64.6869 70.4974 64.7034 71.0069 64.7034C71.5004 64.7199 71.9621 64.7364 72.3761 64.7364C72.79 64.7364 73.1403 64.7528 73.4268 64.7528C73.7134 64.7528 73.9045 64.7693 74 64.7693L73.8726 61.1277Z" fill="white"/>
<defs>
<linearGradient id="paint0_linear" x1="-5.595" y1="23.18" x2="12.748" y2="42.3522" gradientUnits="userSpaceOnUse">
<stop stop-color="#F03C53"/>
<stop offset="1" stop-color="#FF2778"/>
</linearGradient>
</defs>
</svg>
