<svg width="30" height="42" viewBox="0 0 30 42" fill="none" xmlns="http://www.w3.org/2000/svg">
<path fill-rule="evenodd" clip-rule="evenodd" d="M12.2945 21.1036C12.5594 20.8941 12.604 20.5097 12.3945 20.2448C8.02225 14.7191 7.10417 11.1382 7.10417 9.10687C7.10417 4.75947 10.6408 1.22283 14.9882 1.22283C19.3353 1.22283 22.8719 4.75947 22.8719 9.10687C22.8719 14.4813 16.6944 21.4358 14.9876 23.2544C14.7691 23.0226 14.4787 22.7079 14.1389 22.3252C13.9147 22.0726 13.5285 22.0497 13.2759 22.2739C13.0234 22.4981 13.0002 22.8844 13.2244 23.1369C14.0122 24.0247 14.5338 24.5476 14.5558 24.5693C14.6704 24.6839 14.8258 24.7485 14.9882 24.7485C15.1503 24.7485 15.3057 24.6839 15.4203 24.5693C15.7748 24.2151 24.0948 15.8178 24.0948 9.10687C24.0948 4.08532 20.0098 0 14.9882 0C9.96667 0 5.88135 4.08532 5.88135 9.10687C5.88135 13.1384 8.90179 17.8017 11.4357 21.0036C11.6452 21.2683 12.0296 21.3132 12.2945 21.1036Z" fill="#102D63"/>
<path fill-rule="evenodd" clip-rule="evenodd" d="M12.2945 21.1036C12.5594 20.8941 12.604 20.5097 12.3945 20.2448C8.02225 14.7191 7.10417 11.1382 7.10417 9.10687C7.10417 4.75947 10.6408 1.22283 14.9882 1.22283C19.3353 1.22283 22.8719 4.75947 22.8719 9.10687C22.8719 14.4813 16.6944 21.4358 14.9876 23.2544C14.7691 23.0226 14.4787 22.7079 14.1389 22.3252C13.9147 22.0726 13.5285 22.0497 13.2759 22.2739C13.0234 22.4981 13.0002 22.8844 13.2244 23.1369C14.0122 24.0247 14.5338 24.5476 14.5558 24.5693C14.6704 24.6839 14.8258 24.7485 14.9882 24.7485C15.1503 24.7485 15.3057 24.6839 15.4203 24.5693C15.7748 24.2151 24.0948 15.8178 24.0948 9.10687C24.0948 4.08532 20.0098 0 14.9882 0C9.96667 0 5.88135 4.08532 5.88135 9.10687C5.88135 13.1384 8.90179 17.8017 11.4357 21.0036C11.6452 21.2683 12.0296 21.3132 12.2945 21.1036Z" fill="url(#paint0_linear)"/>
<path fill-rule="evenodd" clip-rule="evenodd" d="M28.7116 26.1396H27.7613C27.1703 23.1886 25.5704 20.5305 23.2168 18.611C22.9554 18.3976 22.5701 18.4368 22.3567 18.6985C22.143 18.96 22.1822 19.3453 22.444 19.5586C24.5129 21.2461 25.9392 23.5624 26.5118 26.1396H26.0975C25.4001 26.1396 24.8326 26.7071 24.8326 27.4045V28.1003H17.56V27.4045C17.56 26.7071 16.9928 26.1396 16.2951 26.1396H13.6813C12.9839 26.1396 12.4165 26.7071 12.4165 27.4045V28.1003H5.14383V27.4045C5.14383 26.7071 4.57636 26.1396 3.87897 26.1396H3.46499C4.03756 23.5624 5.46355 21.2461 7.5328 19.5586C7.79424 19.3453 7.83341 18.96 7.62005 18.6982C7.4067 18.4368 7.02138 18.3976 6.75994 18.611C4.40631 20.5305 2.80645 23.1886 2.21542 26.1399H1.26486C0.567468 26.1399 0 26.7071 0 27.4048V30.0186C0 30.716 0.567468 31.2834 1.26486 31.2834H2.2151C2.78225 34.1109 4.28658 36.6878 6.48894 38.5854C8.84988 40.6193 11.8681 41.7393 14.9882 41.7393C18.108 41.7393 21.1265 40.6193 23.4872 38.5854C25.6899 36.6878 27.1939 34.1109 27.7613 31.2834H28.7116C29.409 31.2834 29.9764 30.716 29.9764 30.0186V27.4045C29.9764 26.7071 29.409 26.1396 28.7116 26.1396ZM13.6393 27.4045C13.6393 27.3816 13.6581 27.3624 13.6813 27.3624H16.2951C16.3184 27.3624 16.3371 27.3812 16.3371 27.4045V30.0186C16.3371 30.0418 16.3184 30.0606 16.2951 30.0606H13.6813C13.6581 30.0606 13.6393 30.0418 13.6393 30.0186V27.4045ZM1.22283 30.0186V27.4045C1.22283 27.3816 1.24161 27.3624 1.26486 27.3624H3.87865C3.9019 27.3624 3.921 27.3816 3.921 27.4045V30.0186C3.921 30.0418 3.9019 30.0606 3.87865 30.0606H1.26486C1.24161 30.0606 1.22283 30.0418 1.22283 30.0186ZM22.6892 37.659C20.5502 39.5015 17.8154 40.5164 14.9882 40.5164C12.1611 40.5164 9.42627 39.5015 7.28728 37.659C5.35369 35.9932 4.01399 33.7501 3.46499 31.2835H3.87897C4.57636 31.2835 5.14383 30.716 5.14383 30.0186V29.3228H12.4165V30.0186C12.4165 30.716 12.9836 31.2835 13.6813 31.2835H16.2951C16.9925 31.2835 17.56 30.716 17.56 30.0186V29.3228H24.8326V30.0186C24.8326 30.716 25.4001 31.2835 26.0975 31.2835H26.5114C25.9624 33.7501 24.6227 35.9932 22.6892 37.659ZM28.7536 30.0186C28.7536 30.0418 28.7348 30.0606 28.7116 30.0606H26.0975C26.0742 30.0606 26.0554 30.0418 26.0554 30.0186V27.4045C26.0554 27.3816 26.0742 27.3624 26.0975 27.3624H28.7116C28.7348 27.3624 28.7536 27.3816 28.7536 27.4045V30.0186Z" fill="#102D63"/>
<path fill-rule="evenodd" clip-rule="evenodd" d="M28.7116 26.1396H27.7613C27.1703 23.1886 25.5704 20.5305 23.2168 18.611C22.9554 18.3976 22.5701 18.4368 22.3567 18.6985C22.143 18.96 22.1822 19.3453 22.444 19.5586C24.5129 21.2461 25.9392 23.5624 26.5118 26.1396H26.0975C25.4001 26.1396 24.8326 26.7071 24.8326 27.4045V28.1003H17.56V27.4045C17.56 26.7071 16.9928 26.1396 16.2951 26.1396H13.6813C12.9839 26.1396 12.4165 26.7071 12.4165 27.4045V28.1003H5.14383V27.4045C5.14383 26.7071 4.57636 26.1396 3.87897 26.1396H3.46499C4.03756 23.5624 5.46355 21.2461 7.5328 19.5586C7.79424 19.3453 7.83341 18.96 7.62005 18.6982C7.4067 18.4368 7.02138 18.3976 6.75994 18.611C4.40631 20.5305 2.80645 23.1886 2.21542 26.1399H1.26486C0.567468 26.1399 0 26.7071 0 27.4048V30.0186C0 30.716 0.567468 31.2834 1.26486 31.2834H2.2151C2.78225 34.1109 4.28658 36.6878 6.48894 38.5854C8.84988 40.6193 11.8681 41.7393 14.9882 41.7393C18.108 41.7393 21.1265 40.6193 23.4872 38.5854C25.6899 36.6878 27.1939 34.1109 27.7613 31.2834H28.7116C29.409 31.2834 29.9764 30.716 29.9764 30.0186V27.4045C29.9764 26.7071 29.409 26.1396 28.7116 26.1396ZM13.6393 27.4045C13.6393 27.3816 13.6581 27.3624 13.6813 27.3624H16.2951C16.3184 27.3624 16.3371 27.3812 16.3371 27.4045V30.0186C16.3371 30.0418 16.3184 30.0606 16.2951 30.0606H13.6813C13.6581 30.0606 13.6393 30.0418 13.6393 30.0186V27.4045ZM1.22283 30.0186V27.4045C1.22283 27.3816 1.24161 27.3624 1.26486 27.3624H3.87865C3.9019 27.3624 3.921 27.3816 3.921 27.4045V30.0186C3.921 30.0418 3.9019 30.0606 3.87865 30.0606H1.26486C1.24161 30.0606 1.22283 30.0418 1.22283 30.0186ZM22.6892 37.659C20.5502 39.5015 17.8154 40.5164 14.9882 40.5164C12.1611 40.5164 9.42627 39.5015 7.28728 37.659C5.35369 35.9932 4.01399 33.7501 3.46499 31.2835H3.87897C4.57636 31.2835 5.14383 30.716 5.14383 30.0186V29.3228H12.4165V30.0186C12.4165 30.716 12.9836 31.2835 13.6813 31.2835H16.2951C16.9925 31.2835 17.56 30.716 17.56 30.0186V29.3228H24.8326V30.0186C24.8326 30.716 25.4001 31.2835 26.0975 31.2835H26.5114C25.9624 33.7501 24.6227 35.9932 22.6892 37.659ZM28.7536 30.0186C28.7536 30.0418 28.7348 30.0606 28.7116 30.0606H26.0975C26.0742 30.0606 26.0554 30.0418 26.0554 30.0186V27.4045C26.0554 27.3816 26.0742 27.3624 26.0975 27.3624H28.7116C28.7348 27.3624 28.7536 27.3816 28.7536 27.4045V30.0186Z" fill="url(#paint1_linear)"/>
<path fill-rule="evenodd" clip-rule="evenodd" d="M11.7627 6.49276V12.3741C11.7627 12.712 12.0366 12.9855 12.3741 12.9855C12.712 12.9855 12.9855 12.712 12.9855 12.3741V6.49276C12.9855 6.15521 12.712 5.88135 12.3741 5.88135C12.0366 5.88135 11.7627 6.15521 11.7627 6.49276Z" fill="#102D63"/>
<path fill-rule="evenodd" clip-rule="evenodd" d="M11.7627 6.49276V12.3741C11.7627 12.712 12.0366 12.9855 12.3741 12.9855C12.712 12.9855 12.9855 12.712 12.9855 12.3741V6.49276C12.9855 6.15521 12.712 5.88135 12.3741 5.88135C12.0366 5.88135 11.7627 6.15521 11.7627 6.49276Z" fill="url(#paint2_linear)"/>
<path fill-rule="evenodd" clip-rule="evenodd" d="M15.5998 12.3741V10.3717H16.622C17.8601 10.3717 18.8673 9.36449 18.8673 8.1267C18.8673 6.88859 17.8601 5.88135 16.622 5.88135H14.9884C14.6508 5.88135 14.377 6.15521 14.377 6.49276V12.3741C14.377 12.712 14.6508 12.9855 14.9884 12.9855C15.3259 12.9855 15.5998 12.712 15.5998 12.3741ZM15.5998 7.10417H16.622C17.186 7.10417 17.6445 7.56273 17.6445 8.1267C17.6445 8.69034 17.186 9.1489 16.622 9.1489H15.5998V7.10417Z" fill="#102D63"/>
<path fill-rule="evenodd" clip-rule="evenodd" d="M15.5998 12.3741V10.3717H16.622C17.8601 10.3717 18.8673 9.36449 18.8673 8.1267C18.8673 6.88859 17.8601 5.88135 16.622 5.88135H14.9884C14.6508 5.88135 14.377 6.15521 14.377 6.49276V12.3741C14.377 12.712 14.6508 12.9855 14.9884 12.9855C15.3259 12.9855 15.5998 12.712 15.5998 12.3741ZM15.5998 7.10417H16.622C17.186 7.10417 17.6445 7.56273 17.6445 8.1267C17.6445 8.69034 17.186 9.1489 16.622 9.1489H15.5998V7.10417Z" fill="url(#paint3_linear)"/>
<g opacity="0.130743">
<path fill-rule="evenodd" clip-rule="evenodd" d="M7.61017 5.01751L8.81827 3.47836L10.4922 2.14162L12.3743 0.881592H14.377H17.6445L19.7167 2.14162L21.1701 2.94955L22.4813 5.01751L23.3754 7.59217V10.8481L21.8833 15.0482L18.8674 19.7807L15.4928 23.8296L12.3743 21L9.39648 17.2175L8.182 15.0482L7.61017 12.9855L6.5459 10.8481V8.12656L7.23837 5.88137L7.61017 5.01751Z" fill="#102D63"/>
<path fill-rule="evenodd" clip-rule="evenodd" d="M7.61017 5.01751L8.81827 3.47836L10.4922 2.14162L12.3743 0.881592H14.377H17.6445L19.7167 2.14162L21.1701 2.94955L22.4813 5.01751L23.3754 7.59217V10.8481L21.8833 15.0482L18.8674 19.7807L15.4928 23.8296L12.3743 21L9.39648 17.2175L8.182 15.0482L7.61017 12.9855L6.5459 10.8481V8.12656L7.23837 5.88137L7.61017 5.01751Z" fill="url(#paint4_linear)"/>
</g>
<defs>
<linearGradient id="paint0_linear" x1="-3.31643" y1="12.6218" x2="20.7149" y2="30.134" gradientUnits="userSpaceOnUse">
<stop stop-color="#6C66FE"/>
<stop offset="1" stop-color="#935BF2"/>
</linearGradient>
<linearGradient id="paint1_linear" x1="-15.1381" y1="30.339" x2="7.90723" y2="59.7402" gradientUnits="userSpaceOnUse">
<stop stop-color="#6C66FE"/>
<stop offset="1" stop-color="#935BF2"/>
</linearGradient>
<linearGradient id="paint2_linear" x1="11.1452" y1="9.50448" x2="13.5457" y2="9.91362" gradientUnits="userSpaceOnUse">
<stop stop-color="#6C66FE"/>
<stop offset="1" stop-color="#935BF2"/>
</linearGradient>
<linearGradient id="paint3_linear" x1="12.1093" y1="9.50448" x2="18.6271" y2="13.5838" gradientUnits="userSpaceOnUse">
<stop stop-color="#6C66FE"/>
<stop offset="1" stop-color="#935BF2"/>
</linearGradient>
<linearGradient id="paint4_linear" x1="-1.95298" y1="12.5851" x2="20.306" y2="28.7492" gradientUnits="userSpaceOnUse">
<stop stop-color="#6C66FE"/>
<stop offset="1" stop-color="#935BF2"/>
</linearGradient>
</defs>
</svg>
