<svg width="75" height="78" viewBox="0 0 75 78" fill="none" xmlns="http://www.w3.org/2000/svg">
<path fill-rule="evenodd" clip-rule="evenodd" d="M74.9248 52.0602V13.4334C74.9248 9.3093 71.5708 5.95466 67.4473 5.95466H51.1944C47.6438 2.16383 42.6687 0 37.4627 0C32.2562 0 27.281 2.16383 23.7311 5.95466H7.47751C3.35464 5.95466 0.000591856 9.3093 0.000591856 13.4334V52.0602C0.000591856 52.0638 0 52.0674 0 52.0709V56.3163C0 60.4398 3.35464 63.795 7.47869 63.795H28.0629V71.8277H25.6339C23.0924 71.8277 21.0245 73.8956 21.0245 76.437C21.0245 77.0662 21.5341 77.5758 22.1632 77.5758C22.7918 77.5758 23.302 77.0662 23.302 76.437C23.302 75.1509 24.3478 74.1051 25.6339 74.1051H49.2915C50.5771 74.1051 51.6235 75.1515 51.6235 76.437C51.6235 77.0662 52.1336 77.5758 52.7622 77.5758C53.3907 77.5758 53.9009 77.0662 53.9009 76.437C53.9009 73.8956 51.833 71.8277 49.291 71.8277H46.8626V63.795H67.4467C71.5702 63.795 74.9254 60.4398 74.9254 56.3163V52.0709C74.9254 52.0674 74.9248 52.0638 74.9248 52.0602ZM37.4627 2.27273C42.1916 2.27273 46.704 4.30339 49.8432 7.84505C51.0648 9.2223 52.0389 10.7753 52.7391 12.4615V12.4621C52.7397 12.4627 52.7397 12.4627 52.7397 12.4633C53.5784 14.4744 54.0033 16.6104 54.0033 18.8121C54.0033 24.3561 51.6714 30.171 47.0721 36.0949C46.6874 36.5903 46.7773 37.3047 47.2727 37.6894C47.4805 37.8504 47.7255 37.9279 47.9688 37.9279C48.3079 37.9279 48.6435 37.777 48.8678 37.4888C53.7837 31.1565 56.276 24.8728 56.276 18.8121C56.276 16.8993 55.9925 15.0296 55.4332 13.2315C55.4261 13.2085 55.4202 13.186 55.4125 13.1623H67.1916C67.5438 13.1623 67.8308 13.4482 67.8308 13.7997V45.773H40.9535C42.4154 44.5082 44.3099 42.7456 46.2536 40.599C46.675 40.1338 46.6394 39.4152 46.1742 38.9938C45.709 38.5724 44.9905 38.6085 44.5691 39.0732C41.5412 42.4171 38.6452 44.7863 37.4355 45.7256C34.4176 43.5511 20.9215 33.025 20.9215 18.8121C20.9215 16.6104 21.3471 14.4744 22.1857 12.4633C22.1857 12.4627 22.1857 12.4627 22.1857 12.4627C22.1857 12.4621 22.1857 12.4615 22.1863 12.4615C22.8859 10.7753 23.8601 9.2223 25.0823 7.84446C28.2215 4.30339 32.7338 2.27273 37.4627 2.27273ZM7.47751 8.22739H21.9087C21.1884 9.28267 20.5788 10.4066 20.0882 11.5885C20.0876 11.5891 20.0876 11.5897 20.0876 11.5903C20.087 11.5903 20.087 11.5909 20.087 11.5915C19.1329 13.8808 18.6488 16.3098 18.6488 18.8121C18.6488 25.393 21.2269 31.9366 26.3121 38.2605C28.9394 41.5288 31.7223 44.0803 33.7814 45.773H7.09458V13.7997C7.09458 13.4482 7.38104 13.1623 7.73378 13.1623H15.3415C15.9689 13.1623 16.4779 12.6533 16.4779 12.0259C16.4779 11.398 15.9689 10.8896 15.3415 10.8896H7.73378C6.12808 10.8896 4.82185 12.1952 4.82185 13.7997V46.9093C4.82185 47.5367 5.33026 48.0457 5.95821 48.0457H68.9672C69.5946 48.0457 70.1036 47.5367 70.1036 46.9093V13.7997C70.1036 12.1952 68.7973 10.8896 67.1916 10.8896H54.5301C54.0992 9.96153 53.5932 9.07256 53.0167 8.22739H67.4473C70.3172 8.22739 72.6521 10.5629 72.6521 13.4334V50.9339H2.27332V13.4334C2.27332 10.5629 4.60819 8.22739 7.47751 8.22739ZM67.4467 61.5217H43.5736C42.9463 61.5217 42.4373 62.0307 42.4373 62.658C42.4373 63.286 42.9463 63.7944 43.5736 63.7944H44.5898V71.8277H30.3356V63.7944H38.927C39.5549 63.7944 40.0633 63.286 40.0633 62.658C40.0633 62.0307 39.5549 61.5217 38.927 61.5217H7.47869C4.60819 61.5217 2.27273 59.1868 2.27273 56.3163V53.2079H72.6527V56.3163C72.6527 59.1868 70.3172 61.5217 67.4467 61.5217Z" fill="#102D63"/>
<path fill-rule="evenodd" clip-rule="evenodd" d="M74.9248 52.0602V13.4334C74.9248 9.3093 71.5708 5.95466 67.4473 5.95466H51.1944C47.6438 2.16383 42.6687 0 37.4627 0C32.2562 0 27.281 2.16383 23.7311 5.95466H7.47751C3.35464 5.95466 0.000591856 9.3093 0.000591856 13.4334V52.0602C0.000591856 52.0638 0 52.0674 0 52.0709V56.3163C0 60.4398 3.35464 63.795 7.47869 63.795H28.0629V71.8277H25.6339C23.0924 71.8277 21.0245 73.8956 21.0245 76.437C21.0245 77.0662 21.5341 77.5758 22.1632 77.5758C22.7918 77.5758 23.302 77.0662 23.302 76.437C23.302 75.1509 24.3478 74.1051 25.6339 74.1051H49.2915C50.5771 74.1051 51.6235 75.1515 51.6235 76.437C51.6235 77.0662 52.1336 77.5758 52.7622 77.5758C53.3907 77.5758 53.9009 77.0662 53.9009 76.437C53.9009 73.8956 51.833 71.8277 49.291 71.8277H46.8626V63.795H67.4467C71.5702 63.795 74.9254 60.4398 74.9254 56.3163V52.0709C74.9254 52.0674 74.9248 52.0638 74.9248 52.0602ZM37.4627 2.27273C42.1916 2.27273 46.704 4.30339 49.8432 7.84505C51.0648 9.2223 52.0389 10.7753 52.7391 12.4615V12.4621C52.7397 12.4627 52.7397 12.4627 52.7397 12.4633C53.5784 14.4744 54.0033 16.6104 54.0033 18.8121C54.0033 24.3561 51.6714 30.171 47.0721 36.0949C46.6874 36.5903 46.7773 37.3047 47.2727 37.6894C47.4805 37.8504 47.7255 37.9279 47.9688 37.9279C48.3079 37.9279 48.6435 37.777 48.8678 37.4888C53.7837 31.1565 56.276 24.8728 56.276 18.8121C56.276 16.8993 55.9925 15.0296 55.4332 13.2315C55.4261 13.2085 55.4202 13.186 55.4125 13.1623H67.1916C67.5438 13.1623 67.8308 13.4482 67.8308 13.7997V45.773H40.9535C42.4154 44.5082 44.3099 42.7456 46.2536 40.599C46.675 40.1338 46.6394 39.4152 46.1742 38.9938C45.709 38.5724 44.9905 38.6085 44.5691 39.0732C41.5412 42.4171 38.6452 44.7863 37.4355 45.7256C34.4176 43.5511 20.9215 33.025 20.9215 18.8121C20.9215 16.6104 21.3471 14.4744 22.1857 12.4633C22.1857 12.4627 22.1857 12.4627 22.1857 12.4627C22.1857 12.4621 22.1857 12.4615 22.1863 12.4615C22.8859 10.7753 23.8601 9.2223 25.0823 7.84446C28.2215 4.30339 32.7338 2.27273 37.4627 2.27273ZM7.47751 8.22739H21.9087C21.1884 9.28267 20.5788 10.4066 20.0882 11.5885C20.0876 11.5891 20.0876 11.5897 20.0876 11.5903C20.087 11.5903 20.087 11.5909 20.087 11.5915C19.1329 13.8808 18.6488 16.3098 18.6488 18.8121C18.6488 25.393 21.2269 31.9366 26.3121 38.2605C28.9394 41.5288 31.7223 44.0803 33.7814 45.773H7.09458V13.7997C7.09458 13.4482 7.38104 13.1623 7.73378 13.1623H15.3415C15.9689 13.1623 16.4779 12.6533 16.4779 12.0259C16.4779 11.398 15.9689 10.8896 15.3415 10.8896H7.73378C6.12808 10.8896 4.82185 12.1952 4.82185 13.7997V46.9093C4.82185 47.5367 5.33026 48.0457 5.95821 48.0457H68.9672C69.5946 48.0457 70.1036 47.5367 70.1036 46.9093V13.7997C70.1036 12.1952 68.7973 10.8896 67.1916 10.8896H54.5301C54.0992 9.96153 53.5932 9.07256 53.0167 8.22739H67.4473C70.3172 8.22739 72.6521 10.5629 72.6521 13.4334V50.9339H2.27332V13.4334C2.27332 10.5629 4.60819 8.22739 7.47751 8.22739ZM67.4467 61.5217H43.5736C42.9463 61.5217 42.4373 62.0307 42.4373 62.658C42.4373 63.286 42.9463 63.7944 43.5736 63.7944H44.5898V71.8277H30.3356V63.7944H38.927C39.5549 63.7944 40.0633 63.286 40.0633 62.658C40.0633 62.0307 39.5549 61.5217 38.927 61.5217H7.47869C4.60819 61.5217 2.27273 59.1868 2.27273 56.3163V53.2079H72.6527V56.3163C72.6527 59.1868 70.3172 61.5217 67.4467 61.5217Z" fill="url(#paint0_linear)"/>
<path fill-rule="evenodd" clip-rule="evenodd" d="M32.4847 25.7623C32.7025 25.8884 32.9664 25.9517 33.276 25.9517C33.5737 25.9517 33.8347 25.8884 34.0584 25.7623C34.2821 25.6363 34.394 25.4641 34.394 25.2462V14.0679C34.394 13.8388 34.2851 13.6666 34.0673 13.5518C33.8495 13.4375 33.5855 13.3801 33.276 13.3801C32.9664 13.3801 32.7025 13.4375 32.4847 13.5518C32.2669 13.6666 32.158 13.8388 32.158 14.0679V25.2462C32.158 25.4641 32.2669 25.6363 32.4847 25.7623Z" fill="#102D63"/>
<path fill-rule="evenodd" clip-rule="evenodd" d="M32.4847 25.7623C32.7025 25.8884 32.9664 25.9517 33.276 25.9517C33.5737 25.9517 33.8347 25.8884 34.0584 25.7623C34.2821 25.6363 34.394 25.4641 34.394 25.2462V14.0679C34.394 13.8388 34.2851 13.6666 34.0673 13.5518C33.8495 13.4375 33.5855 13.3801 33.276 13.3801C32.9664 13.3801 32.7025 13.4375 32.4847 13.5518C32.2669 13.6666 32.158 13.8388 32.158 14.0679V25.2462C32.158 25.4641 32.2669 25.6363 32.4847 25.7623Z" fill="url(#paint1_linear)"/>
<path fill-rule="evenodd" clip-rule="evenodd" d="M36.7845 25.7623C37.0023 25.8884 37.2662 25.9517 37.5758 25.9517C37.8735 25.9517 38.1345 25.8884 38.3582 25.7623C38.5819 25.6363 38.6938 25.4641 38.6938 25.2462V21.2565H40.6203C41.8354 21.2565 42.8131 20.9417 43.5523 20.3108C44.2922 19.6804 44.6621 18.6938 44.6621 17.3527V17.2497C44.6621 15.9198 44.3064 14.942 43.5955 14.317C42.8847 13.6926 41.9384 13.3801 40.7576 13.3801H37.3006C37.0484 13.3801 36.8448 13.4488 36.6904 13.5861C36.5353 13.724 36.4578 13.8844 36.4578 14.0679V25.2462C36.4578 25.4641 36.5667 25.6363 36.7845 25.7623ZM38.6938 15.3404H40.6197C41.1932 15.3404 41.6371 15.5067 41.9526 15.8393C42.268 16.1719 42.426 16.6643 42.426 17.3183V17.5243C42.426 18.1783 42.268 18.6713 41.9526 19.0039C41.6371 19.3366 41.1932 19.5023 40.6197 19.5023H38.6938V15.3404Z" fill="#102D63"/>
<path fill-rule="evenodd" clip-rule="evenodd" d="M36.7845 25.7623C37.0023 25.8884 37.2662 25.9517 37.5758 25.9517C37.8735 25.9517 38.1345 25.8884 38.3582 25.7623C38.5819 25.6363 38.6938 25.4641 38.6938 25.2462V21.2565H40.6203C41.8354 21.2565 42.8131 20.9417 43.5523 20.3108C44.2922 19.6804 44.6621 18.6938 44.6621 17.3527V17.2497C44.6621 15.9198 44.3064 14.942 43.5955 14.317C42.8847 13.6926 41.9384 13.3801 40.7576 13.3801H37.3006C37.0484 13.3801 36.8448 13.4488 36.6904 13.5861C36.5353 13.724 36.4578 13.8844 36.4578 14.0679V25.2462C36.4578 25.4641 36.5667 25.6363 36.7845 25.7623ZM38.6938 15.3404H40.6197C41.1932 15.3404 41.6371 15.5067 41.9526 15.8393C42.268 16.1719 42.426 16.6643 42.426 17.3183V17.5243C42.426 18.1783 42.268 18.6713 41.9526 19.0039C41.6371 19.3366 41.1932 19.5023 40.6197 19.5023H38.6938V15.3404Z" fill="url(#paint2_linear)"/>
<g opacity="0.130743">
<path fill-rule="evenodd" clip-rule="evenodd" d="M35.3062 45.773L26.0142 36.1289L21.9424 29.5807L19.8945 21.8145L20.9215 12.5449L26.0142 6.02832L30.5581 2.27273L34.3939 1.40137L42.426 2.27273L47.9551 4.77686L52.3906 9.43701L55.2881 17.4213L54.3823 25L44.6621 41.1523L39 45.773H35.3062Z" fill="#102D63"/>
<path fill-rule="evenodd" clip-rule="evenodd" d="M35.3062 45.773L26.0142 36.1289L21.9424 29.5807L19.8945 21.8145L20.9215 12.5449L26.0142 6.02832L30.5581 2.27273L34.3939 1.40137L42.426 2.27273L47.9551 4.77686L52.3906 9.43701L55.2881 17.4213L54.3823 25L44.6621 41.1523L39 45.773H35.3062Z" fill="url(#paint3_linear)"/>
</g>
<defs>
<linearGradient id="paint0_linear" x1="-37.8373" y1="39.5636" x2="41.2151" y2="115.167" gradientUnits="userSpaceOnUse">
<stop stop-color="#6C66FE"/>
<stop offset="1" stop-color="#935BF2"/>
</linearGradient>
<linearGradient id="paint1_linear" x1="31.0288" y1="19.7917" x2="35.4099" y2="20.5633" gradientUnits="userSpaceOnUse">
<stop stop-color="#6C66FE"/>
<stop offset="1" stop-color="#935BF2"/>
</linearGradient>
<linearGradient id="paint2_linear" x1="32.3146" y1="19.7917" x2="44.006" y2="27.3467" gradientUnits="userSpaceOnUse">
<stop stop-color="#6C66FE"/>
<stop offset="1" stop-color="#935BF2"/>
</linearGradient>
<linearGradient id="paint3_linear" x1="2.02079" y1="24.0309" x2="46.051" y2="58.8078" gradientUnits="userSpaceOnUse">
<stop stop-color="#6C66FE"/>
<stop offset="1" stop-color="#935BF2"/>
</linearGradient>
</defs>
</svg>
