<svg width="55" height="77" viewBox="0 0 55 77" fill="none" xmlns="http://www.w3.org/2000/svg">
<path fill-rule="evenodd" clip-rule="evenodd" d="M22.5399 38.69C23.0256 38.3058 23.1074 37.6012 22.7232 37.1154C14.7075 26.9851 13.0243 20.4201 13.0243 16.6959C13.0243 8.72569 19.5082 2.24185 27.4784 2.24185C35.4481 2.24185 41.9319 8.72569 41.9319 16.6959C41.9319 26.549 30.6065 39.2989 27.4772 42.6331C27.0767 42.208 26.5443 41.6312 25.9214 40.9295C25.5104 40.4665 24.8022 40.4245 24.3392 40.8355C23.8763 41.2465 23.8336 41.9547 24.2446 42.4176C25.689 44.0453 26.6453 45.0039 26.6856 45.0436C26.8958 45.2538 27.1807 45.3723 27.4784 45.3723C27.7756 45.3723 28.0605 45.2538 28.2706 45.0436C28.9204 44.3944 44.1737 28.9992 44.1737 16.6959C44.1737 7.48976 36.6846 0 27.4784 0C18.2722 0 10.7825 7.48976 10.7825 16.6959C10.7825 24.087 16.32 32.6364 20.9654 38.5067C21.3495 38.9918 22.0542 39.0741 22.5399 38.69Z" fill="#102D63"/>
<path fill-rule="evenodd" clip-rule="evenodd" d="M22.5399 38.69C23.0256 38.3058 23.1074 37.6012 22.7232 37.1154C14.7075 26.9851 13.0243 20.4201 13.0243 16.6959C13.0243 8.72569 19.5082 2.24185 27.4784 2.24185C35.4481 2.24185 41.9319 8.72569 41.9319 16.6959C41.9319 26.549 30.6065 39.2989 27.4772 42.6331C27.0767 42.208 26.5443 41.6312 25.9214 40.9295C25.5104 40.4665 24.8022 40.4245 24.3392 40.8355C23.8763 41.2465 23.8336 41.9547 24.2446 42.4176C25.689 44.0453 26.6453 45.0039 26.6856 45.0436C26.8958 45.2538 27.1807 45.3723 27.4784 45.3723C27.7756 45.3723 28.0605 45.2538 28.2706 45.0436C28.9204 44.3944 44.1737 28.9992 44.1737 16.6959C44.1737 7.48976 36.6846 0 27.4784 0C18.2722 0 10.7825 7.48976 10.7825 16.6959C10.7825 24.087 16.32 32.6364 20.9654 38.5067C21.3495 38.9918 22.0542 39.0741 22.5399 38.69Z" fill="url(#paint0_linear)"/>
<path fill-rule="evenodd" clip-rule="evenodd" d="M52.6379 47.9224H50.8958C49.8122 42.5122 46.8791 37.6391 42.5642 34.1199C42.0849 33.7287 41.3784 33.8005 40.9873 34.2804C40.5955 34.7597 40.6674 35.4662 41.1472 35.8573C44.9403 38.951 47.5552 43.1976 48.6049 47.9224H47.8454C46.5668 47.9224 45.5264 48.9628 45.5264 50.2413V51.517H32.1933V50.2413C32.1933 48.9628 31.1535 47.9224 29.8744 47.9224H25.0824C23.8039 47.9224 22.7635 48.9628 22.7635 50.2413V51.517H9.43036V50.2413C9.43036 48.9628 8.39 47.9224 7.11144 47.9224H6.35249C7.40218 43.1976 10.0165 38.951 13.8101 35.8573C14.2894 35.4662 14.3613 34.7597 13.9701 34.2799C13.5789 33.8005 12.8725 33.7287 12.3932 34.1199C8.07824 37.6391 5.14516 42.5122 4.0616 47.923H2.31891C1.04036 47.923 0 48.9628 0 50.2419V55.0339C0 56.3124 1.04036 57.3528 2.31891 57.3528H4.06101C5.10079 62.5365 7.85873 67.2607 11.8964 70.7397C16.2248 74.4685 21.7582 76.5218 27.4784 76.5218C33.198 76.5218 38.732 74.4685 43.0598 70.7397C47.0981 67.2607 49.8554 62.5365 50.8958 57.3528H52.6379C53.9164 57.3528 54.9568 56.3124 54.9568 55.0339V50.2413C54.9568 48.9628 53.9164 47.9224 52.6379 47.9224ZM25.0054 50.2413C25.0054 50.1993 25.0398 50.1643 25.0824 50.1643H29.8744C29.917 50.1643 29.9514 50.1987 29.9514 50.2413V55.0339C29.9514 55.0765 29.917 55.1109 29.8744 55.1109H25.0824C25.0398 55.1109 25.0054 55.0765 25.0054 55.0339V50.2413ZM2.24185 55.0339V50.2413C2.24185 50.1993 2.27629 50.1643 2.31891 50.1643H7.11086C7.15348 50.1643 7.18851 50.1993 7.18851 50.2413V55.0339C7.18851 55.0765 7.15348 55.1109 7.11086 55.1109H2.31891C2.27629 55.1109 2.24185 55.0765 2.24185 55.0339ZM41.5968 69.0413C37.6753 72.4193 32.6615 74.2799 27.4784 74.2799C22.2953 74.2799 17.2815 72.4193 13.36 69.0413C9.81509 65.9874 7.35898 61.875 6.35249 57.3528H7.11144C8.39 57.3528 9.43036 56.3124 9.43036 55.0339V53.7582H22.7635V55.0339C22.7635 56.3124 23.8033 57.3528 25.0824 57.3528H29.8744C31.1529 57.3528 32.1933 56.3124 32.1933 55.0339V53.7582H45.5264V55.0339C45.5264 56.3124 46.5668 57.3528 47.8454 57.3528H48.6043C47.5978 61.875 45.1417 65.9874 41.5968 69.0413ZM52.7149 55.0339C52.7149 55.0765 52.6805 55.1109 52.6379 55.1109H47.8454C47.8027 55.1109 47.7683 55.0765 47.7683 55.0339V50.2413C47.7683 50.1993 47.8027 50.1643 47.8454 50.1643H52.6379C52.6805 50.1643 52.7149 50.1993 52.7149 50.2413V55.0339Z" fill="#102D63"/>
<path fill-rule="evenodd" clip-rule="evenodd" d="M52.6379 47.9224H50.8958C49.8122 42.5122 46.8791 37.6391 42.5642 34.1199C42.0849 33.7287 41.3784 33.8005 40.9873 34.2804C40.5955 34.7597 40.6674 35.4662 41.1472 35.8573C44.9403 38.951 47.5552 43.1976 48.6049 47.9224H47.8454C46.5668 47.9224 45.5264 48.9628 45.5264 50.2413V51.517H32.1933V50.2413C32.1933 48.9628 31.1535 47.9224 29.8744 47.9224H25.0824C23.8039 47.9224 22.7635 48.9628 22.7635 50.2413V51.517H9.43036V50.2413C9.43036 48.9628 8.39 47.9224 7.11144 47.9224H6.35249C7.40218 43.1976 10.0165 38.951 13.8101 35.8573C14.2894 35.4662 14.3613 34.7597 13.9701 34.2799C13.5789 33.8005 12.8725 33.7287 12.3932 34.1199C8.07824 37.6391 5.14516 42.5122 4.0616 47.923H2.31891C1.04036 47.923 0 48.9628 0 50.2419V55.0339C0 56.3124 1.04036 57.3528 2.31891 57.3528H4.06101C5.10079 62.5365 7.85873 67.2607 11.8964 70.7397C16.2248 74.4685 21.7582 76.5218 27.4784 76.5218C33.198 76.5218 38.732 74.4685 43.0598 70.7397C47.0981 67.2607 49.8554 62.5365 50.8958 57.3528H52.6379C53.9164 57.3528 54.9568 56.3124 54.9568 55.0339V50.2413C54.9568 48.9628 53.9164 47.9224 52.6379 47.9224ZM25.0054 50.2413C25.0054 50.1993 25.0398 50.1643 25.0824 50.1643H29.8744C29.917 50.1643 29.9514 50.1987 29.9514 50.2413V55.0339C29.9514 55.0765 29.917 55.1109 29.8744 55.1109H25.0824C25.0398 55.1109 25.0054 55.0765 25.0054 55.0339V50.2413ZM2.24185 55.0339V50.2413C2.24185 50.1993 2.27629 50.1643 2.31891 50.1643H7.11086C7.15348 50.1643 7.18851 50.1993 7.18851 50.2413V55.0339C7.18851 55.0765 7.15348 55.1109 7.11086 55.1109H2.31891C2.27629 55.1109 2.24185 55.0765 2.24185 55.0339ZM41.5968 69.0413C37.6753 72.4193 32.6615 74.2799 27.4784 74.2799C22.2953 74.2799 17.2815 72.4193 13.36 69.0413C9.81509 65.9874 7.35898 61.875 6.35249 57.3528H7.11144C8.39 57.3528 9.43036 56.3124 9.43036 55.0339V53.7582H22.7635V55.0339C22.7635 56.3124 23.8033 57.3528 25.0824 57.3528H29.8744C31.1529 57.3528 32.1933 56.3124 32.1933 55.0339V53.7582H45.5264V55.0339C45.5264 56.3124 46.5668 57.3528 47.8454 57.3528H48.6043C47.5978 61.875 45.1417 65.9874 41.5968 69.0413ZM52.7149 55.0339C52.7149 55.0765 52.6805 55.1109 52.6379 55.1109H47.8454C47.8027 55.1109 47.7683 55.0765 47.7683 55.0339V50.2413C47.7683 50.1993 47.8027 50.1643 47.8454 50.1643H52.6379C52.6805 50.1643 52.7149 50.1993 52.7149 50.2413V55.0339Z" fill="url(#paint1_linear)"/>
<path fill-rule="evenodd" clip-rule="evenodd" d="M21.5649 11.9034V22.6859C21.5649 23.3053 22.067 23.8068 22.6859 23.8068C23.3053 23.8068 23.8068 23.3053 23.8068 22.6859V11.9034C23.8068 11.2846 23.3053 10.7825 22.6859 10.7825C22.067 10.7825 21.5649 11.2846 21.5649 11.9034Z" fill="#102D63"/>
<path fill-rule="evenodd" clip-rule="evenodd" d="M21.5649 11.9034V22.6859C21.5649 23.3053 22.067 23.8068 22.6859 23.8068C23.3053 23.8068 23.8068 23.3053 23.8068 22.6859V11.9034C23.8068 11.2846 23.3053 10.7825 22.6859 10.7825C22.067 10.7825 21.5649 11.2846 21.5649 11.9034Z" fill="url(#paint2_linear)"/>
<path fill-rule="evenodd" clip-rule="evenodd" d="M28.5993 22.6859V19.0148H30.4733C32.7432 19.0148 34.5898 17.1682 34.5898 14.8989C34.5898 12.6291 32.7432 10.7825 30.4733 10.7825H27.4783C26.8595 10.7825 26.3574 11.2846 26.3574 11.9034V22.6859C26.3574 23.3053 26.8595 23.8068 27.4783 23.8068C28.0972 23.8068 28.5993 23.3053 28.5993 22.6859ZM28.5993 13.0243H30.4733C31.5072 13.0243 32.3479 13.865 32.3479 14.8989C32.3479 15.9323 31.5072 16.773 30.4733 16.773H28.5993V13.0243Z" fill="#102D63"/>
<path fill-rule="evenodd" clip-rule="evenodd" d="M28.5993 22.6859V19.0148H30.4733C32.7432 19.0148 34.5898 17.1682 34.5898 14.8989C34.5898 12.6291 32.7432 10.7825 30.4733 10.7825H27.4783C26.8595 10.7825 26.3574 11.2846 26.3574 11.9034V22.6859C26.3574 23.3053 26.8595 23.8068 27.4783 23.8068C28.0972 23.8068 28.5993 23.3053 28.5993 22.6859ZM28.5993 13.0243H30.4733C31.5072 13.0243 32.3479 13.865 32.3479 14.8989C32.3479 15.9323 31.5072 16.773 30.4733 16.773H28.5993V13.0243Z" fill="url(#paint3_linear)"/>
<g opacity="0.130743">
<path fill-rule="evenodd" clip-rule="evenodd" d="M13.9517 9.19873L16.1665 6.37695L19.2354 3.92627L22.6859 1.61621H26.3575H32.348L36.147 3.92627L38.8115 5.40747L41.2153 9.19873L42.8545 13.9189V19.8882L40.1191 27.5884L34.5898 36.2646L28.4031 43.6875L22.6859 38.5L17.2266 31.5654L15 27.5884L13.9517 23.8068L12.0005 19.8882V14.8987L13.27 10.7825L13.9517 9.19873Z" fill="#102D63"/>
<path fill-rule="evenodd" clip-rule="evenodd" d="M13.9517 9.19873L16.1665 6.37695L19.2354 3.92627L22.6859 1.61621H26.3575H32.348L36.147 3.92627L38.8115 5.40747L41.2153 9.19873L42.8545 13.9189V19.8882L40.1191 27.5884L34.5898 36.2646L28.4031 43.6875L22.6859 38.5L17.2266 31.5654L15 27.5884L13.9517 23.8068L12.0005 19.8882V14.8987L13.27 10.7825L13.9517 9.19873Z" fill="url(#paint4_linear)"/>
</g>
<defs>
<linearGradient id="paint0_linear" x1="-6.08012" y1="23.1399" x2="37.9773" y2="55.2456" gradientUnits="userSpaceOnUse">
<stop stop-color="#6C66FE"/>
<stop offset="1" stop-color="#935BF2"/>
</linearGradient>
<linearGradient id="paint1_linear" x1="-27.7532" y1="55.6213" x2="14.4966" y2="109.523" gradientUnits="userSpaceOnUse">
<stop stop-color="#6C66FE"/>
<stop offset="1" stop-color="#935BF2"/>
</linearGradient>
<linearGradient id="paint2_linear" x1="20.4328" y1="17.4249" x2="24.8337" y2="18.175" gradientUnits="userSpaceOnUse">
<stop stop-color="#6C66FE"/>
<stop offset="1" stop-color="#935BF2"/>
</linearGradient>
<linearGradient id="paint3_linear" x1="22.2001" y1="17.4249" x2="34.1494" y2="24.9037" gradientUnits="userSpaceOnUse">
<stop stop-color="#6C66FE"/>
<stop offset="1" stop-color="#935BF2"/>
</linearGradient>
<linearGradient id="paint4_linear" x1="-3.58078" y1="23.0726" x2="37.2274" y2="52.7068" gradientUnits="userSpaceOnUse">
<stop stop-color="#6C66FE"/>
<stop offset="1" stop-color="#935BF2"/>
</linearGradient>
</defs>
</svg>
