<svg width="16" height="16" viewBox="0 0 16 16" fill="none" xmlns="http://www.w3.org/2000/svg">
<path d="M15.8274 5.18476C15.4936 4.33473 14.8816 3.10826 13.8613 2.0925C12.8446 1.08025 11.6314 0.485594 10.7927 0.164949C9.87199 -0.187047 8.82571 0.0348223 8.12728 0.730156L5.67298 3.17359C4.94545 3.89787 4.73576 5.01235 5.15117 5.9468C5.27998 6.23663 5.42007 6.52011 5.56976 6.79399L0.183062 12.1821C0.0658435 12.2993 0 12.4583 0 12.6241V15.3748C0 15.7201 0.279811 16 0.624997 16H3.37499C3.72017 16 3.99998 15.7201 3.99998 15.3748V14.2496L5.12498 14.2495C5.47016 14.2495 5.74998 13.9696 5.74998 13.6244V12.4991H6.87497C7.22016 12.4991 7.49997 12.2192 7.49997 11.8739C7.49997 11.5287 7.22016 11.2488 6.87497 11.2488H5.12498C4.77979 11.2488 4.49998 11.5287 4.49998 11.8739V12.9992L3.37499 12.9992C3.0298 12.9992 2.74999 13.2791 2.74999 13.6244V14.7497H1.24999V12.8831L6.79232 7.33935C6.99594 7.13567 7.03409 6.81925 6.88475 6.57299C6.66816 6.2159 6.46919 5.83431 6.29341 5.4388C6.08719 4.9749 6.19226 4.42073 6.55485 4.05973L9.00912 1.61632C9.35952 1.26751 9.88446 1.15627 10.3465 1.33287C11.0722 1.61032 12.1181 2.12101 12.9795 2.97867C13.8463 3.84151 14.3739 4.90313 14.6639 5.64176C14.8449 6.10275 14.7349 6.62648 14.3838 6.97607L11.8998 9.44901C11.5381 9.80907 10.9982 9.91435 10.5243 9.71721C10.1335 9.5546 9.75496 9.36143 9.39933 9.14309C9.10518 8.96248 8.72031 9.05463 8.53975 9.34889C8.35918 9.64316 8.45128 10.0281 8.74546 10.2087C9.15646 10.4611 9.59346 10.6841 10.0443 10.8716C10.9862 11.2636 12.0607 11.0529 12.7816 10.3352L15.2655 7.86229C15.9701 7.16089 16.1906 6.10991 15.8274 5.18476Z" fill="white"/>
</svg>
