<svg width="90" height="83" viewBox="0 0 90 83" fill="none" xmlns="http://www.w3.org/2000/svg">
<g filter="url(#filter0_d)">
<path fill-rule="evenodd" clip-rule="evenodd" d="M47.1941 29.4008C45.796 28.4776 43.9528 28.5282 42.6076 29.5266C42.2834 29.7673 42.2157 30.2252 42.4563 30.5493C42.5998 30.7426 42.8204 30.8447 43.0439 30.8447C43.1953 30.8447 43.3481 30.7978 43.479 30.7006C44.3323 30.0673 45.5015 30.0352 46.3885 30.6208C46.7255 30.8434 47.1789 30.7505 47.4013 30.4136C47.6237 30.0766 47.5309 29.6232 47.1941 29.4008Z" fill="#F03C53"/>
<path fill-rule="evenodd" clip-rule="evenodd" d="M47.1941 29.4008C45.796 28.4776 43.9528 28.5282 42.6076 29.5266C42.2834 29.7673 42.2157 30.2252 42.4563 30.5493C42.5998 30.7426 42.8204 30.8447 43.0439 30.8447C43.1953 30.8447 43.3481 30.7978 43.479 30.7006C44.3323 30.0673 45.5015 30.0352 46.3885 30.6208C46.7255 30.8434 47.1789 30.7505 47.4013 30.4136C47.6237 30.0766 47.5309 29.6232 47.1941 29.4008Z" fill="url(#paint0_linear)"/>
</g>
<g filter="url(#filter1_d)">
<path fill-rule="evenodd" clip-rule="evenodd" d="M49.8107 25.9037C46.8885 23.8397 42.9795 23.8647 40.084 25.9659C39.7572 26.203 39.6846 26.6601 39.9216 26.9869C40.0646 27.1839 40.2877 27.2886 40.5139 27.2886C40.6627 27.2886 40.8129 27.2433 40.9426 27.1492C43.3313 25.4158 46.5563 25.3951 48.9672 27.098C49.2968 27.3308 49.7532 27.2523 49.986 26.9225C50.219 26.5928 50.1404 26.1367 49.8107 25.9037Z" fill="#F03C53"/>
<path fill-rule="evenodd" clip-rule="evenodd" d="M49.8107 25.9037C46.8885 23.8397 42.9795 23.8647 40.084 25.9659C39.7572 26.203 39.6846 26.6601 39.9216 26.9869C40.0646 27.1839 40.2877 27.2886 40.5139 27.2886C40.6627 27.2886 40.8129 27.2433 40.9426 27.1492C43.3313 25.4158 46.5563 25.3951 48.9672 27.098C49.2968 27.3308 49.7532 27.2523 49.986 26.9225C50.219 26.5928 50.1404 26.1367 49.8107 25.9037Z" fill="url(#paint1_linear)"/>
</g>
<g filter="url(#filter2_d)">
<path fill-rule="evenodd" clip-rule="evenodd" d="M52.3077 22.3246C47.8935 19.2174 41.979 19.2412 37.59 22.384C37.2618 22.6191 37.1862 23.0757 37.4213 23.4039C37.564 23.6033 37.7884 23.7095 38.0162 23.7095C38.1635 23.7095 38.3123 23.665 38.4412 23.5727C42.3253 20.7914 47.5595 20.7704 51.4661 23.5201C51.7963 23.7524 52.2524 23.6733 52.4847 23.3431C52.717 23.013 52.6378 22.557 52.3077 22.3246Z" fill="#F03C53"/>
<path fill-rule="evenodd" clip-rule="evenodd" d="M52.3077 22.3246C47.8935 19.2174 41.979 19.2412 37.59 22.384C37.2618 22.6191 37.1862 23.0757 37.4213 23.4039C37.564 23.6033 37.7884 23.7095 38.0162 23.7095C38.1635 23.7095 38.3123 23.665 38.4412 23.5727C42.3253 20.7914 47.5595 20.7704 51.4661 23.5201C51.7963 23.7524 52.2524 23.6733 52.4847 23.3431C52.717 23.013 52.6378 22.557 52.3077 22.3246Z" fill="url(#paint2_linear)"/>
</g>
<g filter="url(#filter3_d)">
<path fill-rule="evenodd" clip-rule="evenodd" d="M69.1715 59.0702H61.1881C60.9597 58.3927 60.4231 57.8563 59.7456 57.6277V55.063H69.1715C69.5752 55.063 69.9025 54.7357 69.9025 54.332C69.9025 53.9283 69.5752 53.601 69.1715 53.601H64.4334V52.7695C64.4334 52.3658 64.1061 52.0385 63.7024 52.0385C63.2987 52.0385 62.9714 52.3658 62.9714 52.7695V53.601H55.0578V35.5809C55.0578 35.1223 55.4309 34.7493 55.8894 34.7493H62.1398C62.5983 34.7493 62.9713 35.1224 62.9713 35.5809V49.6444C62.9713 50.0481 63.2986 50.3754 63.7023 50.3754C64.106 50.3754 64.4333 50.0481 64.4333 49.6444V35.5809C64.4333 34.3162 63.4044 33.2874 62.1398 33.2874H55.8894C54.6247 33.2874 53.5958 34.3163 53.5958 35.5809V53.6011H50.37V35.5809C50.37 34.3162 49.341 33.2874 48.0764 33.2874H41.826C40.5613 33.2874 39.5325 34.3163 39.5325 35.5809V53.6011H36.3066V35.5809C36.3066 34.3162 35.2777 33.2874 34.0131 33.2874H27.7627C26.498 33.2874 25.4691 34.3163 25.4691 35.5809V49.6444C25.4691 50.0481 25.7964 50.3754 26.2001 50.3754C26.6038 50.3754 26.9311 50.0481 26.9311 49.6444V35.5809C26.9311 35.1223 27.3042 34.7493 27.7627 34.7493H34.0131C34.4716 34.7493 34.8446 35.1224 34.8446 35.5809V53.6011H26.9311V52.7696C26.9311 52.3659 26.6038 52.0386 26.2001 52.0386C25.7964 52.0386 25.4691 52.3659 25.4691 52.7696V53.6011H20.731C20.3273 53.6011 20 53.9284 20 54.3321C20 54.7358 20.3273 55.0631 20.731 55.0631H30.1568V57.6278C29.4793 57.8563 28.9429 58.3928 28.7143 59.0703H20.731C20.3273 59.0703 20 59.3976 20 59.8013C20 60.205 20.3273 60.5323 20.731 60.5323H28.7144C29.0204 61.4395 29.8788 62.0949 30.8879 62.0949C31.8971 62.0949 32.7554 61.4395 33.0614 60.5323H42.7778C43.0837 61.4395 43.9421 62.0949 44.9513 62.0949C45.9604 62.0949 46.8187 61.4395 47.1248 60.5323H56.8412C57.1472 61.4395 58.0056 62.0949 59.0147 62.0949C60.0239 62.0949 60.8822 61.4395 61.1882 60.5323H69.1716C69.5753 60.5323 69.9026 60.205 69.9026 59.8013C69.9026 59.3976 69.5752 59.0702 69.1715 59.0702ZM40.9944 35.5809C40.9944 35.1223 41.3675 34.7493 41.826 34.7493H48.0764C48.535 34.7493 48.908 35.1224 48.908 35.5809V53.6011H40.9944V35.5809ZM30.8878 60.6328C30.4292 60.6328 30.0562 60.2597 30.0562 59.8012C30.0562 59.3427 30.4293 58.9696 30.8878 58.9696C31.3463 58.9696 31.7194 59.3427 31.7194 59.8012C31.7194 60.2597 31.3464 60.6328 30.8878 60.6328ZM42.7778 59.0702H33.0613C32.8328 58.3927 32.2963 57.8563 31.6188 57.6277V55.063H44.2203V57.6277C43.5428 57.8562 43.0063 58.3927 42.7778 59.0702ZM44.9513 60.6328C44.4927 60.6328 44.1197 60.2597 44.1197 59.8012C44.1197 59.3427 44.4928 58.9696 44.9513 58.9696C45.4097 58.9696 45.7828 59.3427 45.7828 59.8012C45.7828 60.2597 45.4098 60.6328 44.9513 60.6328ZM56.8412 59.0702H47.1248C46.8963 58.3927 46.3597 57.8563 45.6823 57.6277V55.063H58.2837V57.6277C57.6062 57.8562 57.0698 58.3927 56.8412 59.0702ZM59.0147 60.6328C58.5561 60.6328 58.1831 60.2597 58.1831 59.8012C58.1831 59.3427 58.5562 58.9696 59.0147 58.9696C59.4732 58.9696 59.8463 59.3427 59.8463 59.8012C59.8463 60.2597 59.4732 60.6328 59.0147 60.6328Z" fill="#F03C53"/>
<path fill-rule="evenodd" clip-rule="evenodd" d="M69.1715 59.0702H61.1881C60.9597 58.3927 60.4231 57.8563 59.7456 57.6277V55.063H69.1715C69.5752 55.063 69.9025 54.7357 69.9025 54.332C69.9025 53.9283 69.5752 53.601 69.1715 53.601H64.4334V52.7695C64.4334 52.3658 64.1061 52.0385 63.7024 52.0385C63.2987 52.0385 62.9714 52.3658 62.9714 52.7695V53.601H55.0578V35.5809C55.0578 35.1223 55.4309 34.7493 55.8894 34.7493H62.1398C62.5983 34.7493 62.9713 35.1224 62.9713 35.5809V49.6444C62.9713 50.0481 63.2986 50.3754 63.7023 50.3754C64.106 50.3754 64.4333 50.0481 64.4333 49.6444V35.5809C64.4333 34.3162 63.4044 33.2874 62.1398 33.2874H55.8894C54.6247 33.2874 53.5958 34.3163 53.5958 35.5809V53.6011H50.37V35.5809C50.37 34.3162 49.341 33.2874 48.0764 33.2874H41.826C40.5613 33.2874 39.5325 34.3163 39.5325 35.5809V53.6011H36.3066V35.5809C36.3066 34.3162 35.2777 33.2874 34.0131 33.2874H27.7627C26.498 33.2874 25.4691 34.3163 25.4691 35.5809V49.6444C25.4691 50.0481 25.7964 50.3754 26.2001 50.3754C26.6038 50.3754 26.9311 50.0481 26.9311 49.6444V35.5809C26.9311 35.1223 27.3042 34.7493 27.7627 34.7493H34.0131C34.4716 34.7493 34.8446 35.1224 34.8446 35.5809V53.6011H26.9311V52.7696C26.9311 52.3659 26.6038 52.0386 26.2001 52.0386C25.7964 52.0386 25.4691 52.3659 25.4691 52.7696V53.6011H20.731C20.3273 53.6011 20 53.9284 20 54.3321C20 54.7358 20.3273 55.0631 20.731 55.0631H30.1568V57.6278C29.4793 57.8563 28.9429 58.3928 28.7143 59.0703H20.731C20.3273 59.0703 20 59.3976 20 59.8013C20 60.205 20.3273 60.5323 20.731 60.5323H28.7144C29.0204 61.4395 29.8788 62.0949 30.8879 62.0949C31.8971 62.0949 32.7554 61.4395 33.0614 60.5323H42.7778C43.0837 61.4395 43.9421 62.0949 44.9513 62.0949C45.9604 62.0949 46.8187 61.4395 47.1248 60.5323H56.8412C57.1472 61.4395 58.0056 62.0949 59.0147 62.0949C60.0239 62.0949 60.8822 61.4395 61.1882 60.5323H69.1716C69.5753 60.5323 69.9026 60.205 69.9026 59.8013C69.9026 59.3976 69.5752 59.0702 69.1715 59.0702ZM40.9944 35.5809C40.9944 35.1223 41.3675 34.7493 41.826 34.7493H48.0764C48.535 34.7493 48.908 35.1224 48.908 35.5809V53.6011H40.9944V35.5809ZM30.8878 60.6328C30.4292 60.6328 30.0562 60.2597 30.0562 59.8012C30.0562 59.3427 30.4293 58.9696 30.8878 58.9696C31.3463 58.9696 31.7194 59.3427 31.7194 59.8012C31.7194 60.2597 31.3464 60.6328 30.8878 60.6328ZM42.7778 59.0702H33.0613C32.8328 58.3927 32.2963 57.8563 31.6188 57.6277V55.063H44.2203V57.6277C43.5428 57.8562 43.0063 58.3927 42.7778 59.0702ZM44.9513 60.6328C44.4927 60.6328 44.1197 60.2597 44.1197 59.8012C44.1197 59.3427 44.4928 58.9696 44.9513 58.9696C45.4097 58.9696 45.7828 59.3427 45.7828 59.8012C45.7828 60.2597 45.4098 60.6328 44.9513 60.6328ZM56.8412 59.0702H47.1248C46.8963 58.3927 46.3597 57.8563 45.6823 57.6277V55.063H58.2837V57.6277C57.6062 57.8562 57.0698 58.3927 56.8412 59.0702ZM59.0147 60.6328C58.5561 60.6328 58.1831 60.2597 58.1831 59.8012C58.1831 59.3427 58.5562 58.9696 59.0147 58.9696C59.4732 58.9696 59.8463 59.3427 59.8463 59.8012C59.8463 60.2597 59.4732 60.6328 59.0147 60.6328Z" fill="url(#paint3_linear)"/>
</g>
<g filter="url(#filter4_d)">
<path fill-rule="evenodd" clip-rule="evenodd" d="M46.5139 37.1938H43.3887C42.985 37.1938 42.6577 37.5211 42.6577 37.9248C42.6577 38.3285 42.985 38.6558 43.3887 38.6558H46.5139C46.9176 38.6558 47.2448 38.3285 47.2448 37.9248C47.2448 37.5211 46.9176 37.1938 46.5139 37.1938Z" fill="#F03C53"/>
<path fill-rule="evenodd" clip-rule="evenodd" d="M46.5139 37.1938H43.3887C42.985 37.1938 42.6577 37.5211 42.6577 37.9248C42.6577 38.3285 42.985 38.6558 43.3887 38.6558H46.5139C46.9176 38.6558 47.2448 38.3285 47.2448 37.9248C47.2448 37.5211 46.9176 37.1938 46.5139 37.1938Z" fill="url(#paint4_linear)"/>
</g>
<g filter="url(#filter5_d)">
<path fill-rule="evenodd" clip-rule="evenodd" d="M46.5139 43.4442H43.3887C42.985 43.4442 42.6577 43.7714 42.6577 44.1751C42.6577 44.5789 42.985 44.9061 43.3887 44.9061H46.5139C46.9176 44.9061 47.2448 44.5789 47.2448 44.1751C47.2448 43.7714 46.9176 43.4442 46.5139 43.4442Z" fill="#F03C53"/>
<path fill-rule="evenodd" clip-rule="evenodd" d="M46.5139 43.4442H43.3887C42.985 43.4442 42.6577 43.7714 42.6577 44.1751C42.6577 44.5789 42.985 44.9061 43.3887 44.9061H46.5139C46.9176 44.9061 47.2448 44.5789 47.2448 44.1751C47.2448 43.7714 46.9176 43.4442 46.5139 43.4442Z" fill="url(#paint5_linear)"/>
</g>
<g filter="url(#filter6_d)">
<path fill-rule="evenodd" clip-rule="evenodd" d="M46.5139 40.3189H43.3887C42.985 40.3189 42.6577 40.6462 42.6577 41.0499C42.6577 41.4536 42.985 41.7809 43.3887 41.7809H46.5139C46.9176 41.7809 47.2448 41.4536 47.2448 41.0499C47.2448 40.6462 46.9176 40.3189 46.5139 40.3189Z" fill="#F03C53"/>
<path fill-rule="evenodd" clip-rule="evenodd" d="M46.5139 40.3189H43.3887C42.985 40.3189 42.6577 40.6462 42.6577 41.0499C42.6577 41.4536 42.985 41.7809 43.3887 41.7809H46.5139C46.9176 41.7809 47.2448 41.4536 47.2448 41.0499C47.2448 40.6462 46.9176 40.3189 46.5139 40.3189Z" fill="url(#paint6_linear)"/>
</g>
<g filter="url(#filter7_d)">
<path fill-rule="evenodd" clip-rule="evenodd" d="M60.5773 37.1938H57.4522C57.0485 37.1938 56.7212 37.5211 56.7212 37.9248C56.7212 38.3285 57.0485 38.6558 57.4522 38.6558H60.5773C60.981 38.6558 61.3083 38.3285 61.3083 37.9248C61.3083 37.5211 60.981 37.1938 60.5773 37.1938Z" fill="#F03C53"/>
<path fill-rule="evenodd" clip-rule="evenodd" d="M60.5773 37.1938H57.4522C57.0485 37.1938 56.7212 37.5211 56.7212 37.9248C56.7212 38.3285 57.0485 38.6558 57.4522 38.6558H60.5773C60.981 38.6558 61.3083 38.3285 61.3083 37.9248C61.3083 37.5211 60.981 37.1938 60.5773 37.1938Z" fill="url(#paint7_linear)"/>
</g>
<g filter="url(#filter8_d)">
<path fill-rule="evenodd" clip-rule="evenodd" d="M60.5773 43.4442H57.4522C57.0485 43.4442 56.7212 43.7714 56.7212 44.1751C56.7212 44.5789 57.0485 44.9061 57.4522 44.9061H60.5773C60.981 44.9061 61.3083 44.5789 61.3083 44.1751C61.3083 43.7714 60.981 43.4442 60.5773 43.4442Z" fill="#F03C53"/>
<path fill-rule="evenodd" clip-rule="evenodd" d="M60.5773 43.4442H57.4522C57.0485 43.4442 56.7212 43.7714 56.7212 44.1751C56.7212 44.5789 57.0485 44.9061 57.4522 44.9061H60.5773C60.981 44.9061 61.3083 44.5789 61.3083 44.1751C61.3083 43.7714 60.981 43.4442 60.5773 43.4442Z" fill="url(#paint8_linear)"/>
</g>
<g filter="url(#filter9_d)">
<path fill-rule="evenodd" clip-rule="evenodd" d="M60.5773 40.3189H57.4522C57.0485 40.3189 56.7212 40.6462 56.7212 41.0499C56.7212 41.4536 57.0485 41.7809 57.4522 41.7809H60.5773C60.981 41.7809 61.3083 41.4536 61.3083 41.0499C61.3083 40.6462 60.981 40.3189 60.5773 40.3189Z" fill="#F03C53"/>
<path fill-rule="evenodd" clip-rule="evenodd" d="M60.5773 40.3189H57.4522C57.0485 40.3189 56.7212 40.6462 56.7212 41.0499C56.7212 41.4536 57.0485 41.7809 57.4522 41.7809H60.5773C60.981 41.7809 61.3083 41.4536 61.3083 41.0499C61.3083 40.6462 60.981 40.3189 60.5773 40.3189Z" fill="url(#paint9_linear)"/>
</g>
<g filter="url(#filter10_d)">
<path fill-rule="evenodd" clip-rule="evenodd" d="M32.4504 37.1938H29.3252C28.9215 37.1938 28.5942 37.5211 28.5942 37.9248C28.5942 38.3285 28.9215 38.6558 29.3252 38.6558H32.4504C32.8541 38.6558 33.1814 38.3285 33.1814 37.9248C33.1814 37.5211 32.8541 37.1938 32.4504 37.1938Z" fill="#F03C53"/>
<path fill-rule="evenodd" clip-rule="evenodd" d="M32.4504 37.1938H29.3252C28.9215 37.1938 28.5942 37.5211 28.5942 37.9248C28.5942 38.3285 28.9215 38.6558 29.3252 38.6558H32.4504C32.8541 38.6558 33.1814 38.3285 33.1814 37.9248C33.1814 37.5211 32.8541 37.1938 32.4504 37.1938Z" fill="url(#paint10_linear)"/>
</g>
<g filter="url(#filter11_d)">
<path fill-rule="evenodd" clip-rule="evenodd" d="M32.4504 43.4442H29.3252C28.9215 43.4442 28.5942 43.7714 28.5942 44.1751C28.5942 44.5789 28.9215 44.9061 29.3252 44.9061H32.4504C32.8541 44.9061 33.1814 44.5789 33.1814 44.1751C33.1814 43.7714 32.8541 43.4442 32.4504 43.4442Z" fill="#F03C53"/>
<path fill-rule="evenodd" clip-rule="evenodd" d="M32.4504 43.4442H29.3252C28.9215 43.4442 28.5942 43.7714 28.5942 44.1751C28.5942 44.5789 28.9215 44.9061 29.3252 44.9061H32.4504C32.8541 44.9061 33.1814 44.5789 33.1814 44.1751C33.1814 43.7714 32.8541 43.4442 32.4504 43.4442Z" fill="url(#paint11_linear)"/>
</g>
<g filter="url(#filter12_d)">
<path fill-rule="evenodd" clip-rule="evenodd" d="M32.4504 40.3189H29.3252C28.9215 40.3189 28.5942 40.6462 28.5942 41.0499C28.5942 41.4536 28.9215 41.7809 29.3252 41.7809H32.4504C32.8541 41.7809 33.1814 41.4536 33.1814 41.0499C33.1814 40.6462 32.8541 40.3189 32.4504 40.3189Z" fill="#F03C53"/>
<path fill-rule="evenodd" clip-rule="evenodd" d="M32.4504 40.3189H29.3252C28.9215 40.3189 28.5942 40.6462 28.5942 41.0499C28.5942 41.4536 28.9215 41.7809 29.3252 41.7809H32.4504C32.8541 41.7809 33.1814 41.4536 33.1814 41.0499C33.1814 40.6462 32.8541 40.3189 32.4504 40.3189Z" fill="url(#paint12_linear)"/>
</g>
<defs>
<filter id="filter0_d" x="22.3123" y="8.74158" width="45.2101" height="42.1031" filterUnits="userSpaceOnUse" color-interpolation-filters="sRGB">
<feFlood flood-opacity="0" result="BackgroundImageFix"/>
<feColorMatrix in="SourceAlpha" type="matrix" values="0 0 0 0 0 0 0 0 0 0 0 0 0 0 0 0 0 0 127 0"/>
<feOffset/>
<feGaussianBlur stdDeviation="10"/>
<feColorMatrix type="matrix" values="0 0 0 0 0.290816 0 0 0 0 0.345804 0 0 0 0 0.59075 0 0 0 1 0"/>
<feBlend mode="normal" in2="BackgroundImageFix" result="effect1_dropShadow"/>
<feBlend mode="normal" in="SourceGraphic" in2="effect1_dropShadow" result="shape"/>
</filter>
<filter id="filter1_d" x="19.7822" y="4.37268" width="50.3378" height="42.9159" filterUnits="userSpaceOnUse" color-interpolation-filters="sRGB">
<feFlood flood-opacity="0" result="BackgroundImageFix"/>
<feColorMatrix in="SourceAlpha" type="matrix" values="0 0 0 0 0 0 0 0 0 0 0 0 0 0 0 0 0 0 127 0"/>
<feOffset/>
<feGaussianBlur stdDeviation="10"/>
<feColorMatrix type="matrix" values="0 0 0 0 0.290816 0 0 0 0 0.345804 0 0 0 0 0.59075 0 0 0 1 0"/>
<feBlend mode="normal" in2="BackgroundImageFix" result="effect1_dropShadow"/>
<feBlend mode="normal" in="SourceGraphic" in2="effect1_dropShadow" result="shape"/>
</filter>
<filter id="filter2_d" x="17.2845" y="0.010437" width="55.3334" height="43.699" filterUnits="userSpaceOnUse" color-interpolation-filters="sRGB">
<feFlood flood-opacity="0" result="BackgroundImageFix"/>
<feColorMatrix in="SourceAlpha" type="matrix" values="0 0 0 0 0 0 0 0 0 0 0 0 0 0 0 0 0 0 127 0"/>
<feOffset/>
<feGaussianBlur stdDeviation="10"/>
<feColorMatrix type="matrix" values="0 0 0 0 0.290816 0 0 0 0 0.345804 0 0 0 0 0.59075 0 0 0 1 0"/>
<feBlend mode="normal" in2="BackgroundImageFix" result="effect1_dropShadow"/>
<feBlend mode="normal" in="SourceGraphic" in2="effect1_dropShadow" result="shape"/>
</filter>
<filter id="filter3_d" x="0" y="13.2874" width="89.9026" height="68.8075" filterUnits="userSpaceOnUse" color-interpolation-filters="sRGB">
<feFlood flood-opacity="0" result="BackgroundImageFix"/>
<feColorMatrix in="SourceAlpha" type="matrix" values="0 0 0 0 0 0 0 0 0 0 0 0 0 0 0 0 0 0 127 0"/>
<feOffset/>
<feGaussianBlur stdDeviation="10"/>
<feColorMatrix type="matrix" values="0 0 0 0 0.290816 0 0 0 0 0.345804 0 0 0 0 0.59075 0 0 0 1 0"/>
<feBlend mode="normal" in2="BackgroundImageFix" result="effect1_dropShadow"/>
<feBlend mode="normal" in="SourceGraphic" in2="effect1_dropShadow" result="shape"/>
</filter>
<filter id="filter4_d" x="22.6577" y="17.1938" width="44.5871" height="41.462" filterUnits="userSpaceOnUse" color-interpolation-filters="sRGB">
<feFlood flood-opacity="0" result="BackgroundImageFix"/>
<feColorMatrix in="SourceAlpha" type="matrix" values="0 0 0 0 0 0 0 0 0 0 0 0 0 0 0 0 0 0 127 0"/>
<feOffset/>
<feGaussianBlur stdDeviation="10"/>
<feColorMatrix type="matrix" values="0 0 0 0 0.290816 0 0 0 0 0.345804 0 0 0 0 0.59075 0 0 0 1 0"/>
<feBlend mode="normal" in2="BackgroundImageFix" result="effect1_dropShadow"/>
<feBlend mode="normal" in="SourceGraphic" in2="effect1_dropShadow" result="shape"/>
</filter>
<filter id="filter5_d" x="22.6577" y="23.4442" width="44.5871" height="41.462" filterUnits="userSpaceOnUse" color-interpolation-filters="sRGB">
<feFlood flood-opacity="0" result="BackgroundImageFix"/>
<feColorMatrix in="SourceAlpha" type="matrix" values="0 0 0 0 0 0 0 0 0 0 0 0 0 0 0 0 0 0 127 0"/>
<feOffset/>
<feGaussianBlur stdDeviation="10"/>
<feColorMatrix type="matrix" values="0 0 0 0 0.290816 0 0 0 0 0.345804 0 0 0 0 0.59075 0 0 0 1 0"/>
<feBlend mode="normal" in2="BackgroundImageFix" result="effect1_dropShadow"/>
<feBlend mode="normal" in="SourceGraphic" in2="effect1_dropShadow" result="shape"/>
</filter>
<filter id="filter6_d" x="22.6577" y="20.3189" width="44.5871" height="41.462" filterUnits="userSpaceOnUse" color-interpolation-filters="sRGB">
<feFlood flood-opacity="0" result="BackgroundImageFix"/>
<feColorMatrix in="SourceAlpha" type="matrix" values="0 0 0 0 0 0 0 0 0 0 0 0 0 0 0 0 0 0 127 0"/>
<feOffset/>
<feGaussianBlur stdDeviation="10"/>
<feColorMatrix type="matrix" values="0 0 0 0 0.290816 0 0 0 0 0.345804 0 0 0 0 0.59075 0 0 0 1 0"/>
<feBlend mode="normal" in2="BackgroundImageFix" result="effect1_dropShadow"/>
<feBlend mode="normal" in="SourceGraphic" in2="effect1_dropShadow" result="shape"/>
</filter>
<filter id="filter7_d" x="36.7212" y="17.1938" width="44.5871" height="41.462" filterUnits="userSpaceOnUse" color-interpolation-filters="sRGB">
<feFlood flood-opacity="0" result="BackgroundImageFix"/>
<feColorMatrix in="SourceAlpha" type="matrix" values="0 0 0 0 0 0 0 0 0 0 0 0 0 0 0 0 0 0 127 0"/>
<feOffset/>
<feGaussianBlur stdDeviation="10"/>
<feColorMatrix type="matrix" values="0 0 0 0 0.290816 0 0 0 0 0.345804 0 0 0 0 0.59075 0 0 0 1 0"/>
<feBlend mode="normal" in2="BackgroundImageFix" result="effect1_dropShadow"/>
<feBlend mode="normal" in="SourceGraphic" in2="effect1_dropShadow" result="shape"/>
</filter>
<filter id="filter8_d" x="36.7212" y="23.4442" width="44.5871" height="41.462" filterUnits="userSpaceOnUse" color-interpolation-filters="sRGB">
<feFlood flood-opacity="0" result="BackgroundImageFix"/>
<feColorMatrix in="SourceAlpha" type="matrix" values="0 0 0 0 0 0 0 0 0 0 0 0 0 0 0 0 0 0 127 0"/>
<feOffset/>
<feGaussianBlur stdDeviation="10"/>
<feColorMatrix type="matrix" values="0 0 0 0 0.290816 0 0 0 0 0.345804 0 0 0 0 0.59075 0 0 0 1 0"/>
<feBlend mode="normal" in2="BackgroundImageFix" result="effect1_dropShadow"/>
<feBlend mode="normal" in="SourceGraphic" in2="effect1_dropShadow" result="shape"/>
</filter>
<filter id="filter9_d" x="36.7212" y="20.3189" width="44.5871" height="41.462" filterUnits="userSpaceOnUse" color-interpolation-filters="sRGB">
<feFlood flood-opacity="0" result="BackgroundImageFix"/>
<feColorMatrix in="SourceAlpha" type="matrix" values="0 0 0 0 0 0 0 0 0 0 0 0 0 0 0 0 0 0 127 0"/>
<feOffset/>
<feGaussianBlur stdDeviation="10"/>
<feColorMatrix type="matrix" values="0 0 0 0 0.290816 0 0 0 0 0.345804 0 0 0 0 0.59075 0 0 0 1 0"/>
<feBlend mode="normal" in2="BackgroundImageFix" result="effect1_dropShadow"/>
<feBlend mode="normal" in="SourceGraphic" in2="effect1_dropShadow" result="shape"/>
</filter>
<filter id="filter10_d" x="8.59424" y="17.1938" width="44.5871" height="41.462" filterUnits="userSpaceOnUse" color-interpolation-filters="sRGB">
<feFlood flood-opacity="0" result="BackgroundImageFix"/>
<feColorMatrix in="SourceAlpha" type="matrix" values="0 0 0 0 0 0 0 0 0 0 0 0 0 0 0 0 0 0 127 0"/>
<feOffset/>
<feGaussianBlur stdDeviation="10"/>
<feColorMatrix type="matrix" values="0 0 0 0 0.290816 0 0 0 0 0.345804 0 0 0 0 0.59075 0 0 0 1 0"/>
<feBlend mode="normal" in2="BackgroundImageFix" result="effect1_dropShadow"/>
<feBlend mode="normal" in="SourceGraphic" in2="effect1_dropShadow" result="shape"/>
</filter>
<filter id="filter11_d" x="8.59424" y="23.4442" width="44.5871" height="41.462" filterUnits="userSpaceOnUse" color-interpolation-filters="sRGB">
<feFlood flood-opacity="0" result="BackgroundImageFix"/>
<feColorMatrix in="SourceAlpha" type="matrix" values="0 0 0 0 0 0 0 0 0 0 0 0 0 0 0 0 0 0 127 0"/>
<feOffset/>
<feGaussianBlur stdDeviation="10"/>
<feColorMatrix type="matrix" values="0 0 0 0 0.290816 0 0 0 0 0.345804 0 0 0 0 0.59075 0 0 0 1 0"/>
<feBlend mode="normal" in2="BackgroundImageFix" result="effect1_dropShadow"/>
<feBlend mode="normal" in="SourceGraphic" in2="effect1_dropShadow" result="shape"/>
</filter>
<filter id="filter12_d" x="8.59424" y="20.3189" width="44.5871" height="41.462" filterUnits="userSpaceOnUse" color-interpolation-filters="sRGB">
<feFlood flood-opacity="0" result="BackgroundImageFix"/>
<feColorMatrix in="SourceAlpha" type="matrix" values="0 0 0 0 0 0 0 0 0 0 0 0 0 0 0 0 0 0 127 0"/>
<feOffset/>
<feGaussianBlur stdDeviation="10"/>
<feColorMatrix type="matrix" values="0 0 0 0 0.290816 0 0 0 0 0.345804 0 0 0 0 0.59075 0 0 0 1 0"/>
<feBlend mode="normal" in2="BackgroundImageFix" result="effect1_dropShadow"/>
<feBlend mode="normal" in="SourceGraphic" in2="effect1_dropShadow" result="shape"/>
</filter>
<linearGradient id="paint0_linear" x1="39.6812" y1="29.8141" x2="41.181" y2="33.4932" gradientUnits="userSpaceOnUse">
<stop stop-color="#F03C53"/>
<stop offset="1" stop-color="#FF2778"/>
</linearGradient>
<linearGradient id="paint1_linear" x1="34.5616" y1="25.8598" x2="36.129" y2="31.3621" gradientUnits="userSpaceOnUse">
<stop stop-color="#F03C53"/>
<stop offset="1" stop-color="#FF2778"/>
</linearGradient>
<linearGradient id="paint2_linear" x1="29.5412" y1="21.8969" x2="31.2767" y2="29.0205" gradientUnits="userSpaceOnUse">
<stop stop-color="#F03C53"/>
<stop offset="1" stop-color="#FF2778"/>
</linearGradient>
<linearGradient id="paint3_linear" x1="-5.20083" y1="47.9792" x2="20.3705" y2="91.8415" gradientUnits="userSpaceOnUse">
<stop stop-color="#F03C53"/>
<stop offset="1" stop-color="#FF2778"/>
</linearGradient>
<linearGradient id="paint4_linear" x1="40.3412" y1="37.9394" x2="41.2111" y2="40.642" gradientUnits="userSpaceOnUse">
<stop stop-color="#F03C53"/>
<stop offset="1" stop-color="#FF2778"/>
</linearGradient>
<linearGradient id="paint5_linear" x1="40.3412" y1="44.1898" x2="41.2111" y2="46.8924" gradientUnits="userSpaceOnUse">
<stop stop-color="#F03C53"/>
<stop offset="1" stop-color="#FF2778"/>
</linearGradient>
<linearGradient id="paint6_linear" x1="40.3412" y1="41.0645" x2="41.2111" y2="43.7671" gradientUnits="userSpaceOnUse">
<stop stop-color="#F03C53"/>
<stop offset="1" stop-color="#FF2778"/>
</linearGradient>
<linearGradient id="paint7_linear" x1="54.4047" y1="37.9394" x2="55.2746" y2="40.642" gradientUnits="userSpaceOnUse">
<stop stop-color="#F03C53"/>
<stop offset="1" stop-color="#FF2778"/>
</linearGradient>
<linearGradient id="paint8_linear" x1="54.4047" y1="44.1898" x2="55.2746" y2="46.8924" gradientUnits="userSpaceOnUse">
<stop stop-color="#F03C53"/>
<stop offset="1" stop-color="#FF2778"/>
</linearGradient>
<linearGradient id="paint9_linear" x1="54.4047" y1="41.0645" x2="55.2746" y2="43.7671" gradientUnits="userSpaceOnUse">
<stop stop-color="#F03C53"/>
<stop offset="1" stop-color="#FF2778"/>
</linearGradient>
<linearGradient id="paint10_linear" x1="26.2777" y1="37.9394" x2="27.1476" y2="40.642" gradientUnits="userSpaceOnUse">
<stop stop-color="#F03C53"/>
<stop offset="1" stop-color="#FF2778"/>
</linearGradient>
<linearGradient id="paint11_linear" x1="26.2777" y1="44.1898" x2="27.1476" y2="46.8924" gradientUnits="userSpaceOnUse">
<stop stop-color="#F03C53"/>
<stop offset="1" stop-color="#FF2778"/>
</linearGradient>
<linearGradient id="paint12_linear" x1="26.2777" y1="41.0645" x2="27.1476" y2="43.7671" gradientUnits="userSpaceOnUse">
<stop stop-color="#F03C53"/>
<stop offset="1" stop-color="#FF2778"/>
</linearGradient>
</defs>
</svg>
