<svg width="40" height="45" viewBox="0 0 40 45" fill="none" xmlns="http://www.w3.org/2000/svg">
<path fill-rule="evenodd" clip-rule="evenodd" d="M19.9999 0C8.99774 0 0.046875 8.95087 0.046875 19.953V29.9536C0.046875 31.1996 1.06061 32.2133 2.30661 32.2133H3.12401V32.2614C3.12401 33.5074 4.13774 34.5211 5.38374 34.5211H6.92227C8.16827 34.5211 9.18201 33.5074 9.18201 32.2614V23.0301C9.18201 21.7841 8.16827 20.7703 6.92227 20.7703H5.38374C4.13774 20.7703 3.12401 21.7841 3.12401 23.0301V23.0782H1.48922V19.953C1.48922 9.74617 9.79305 1.44226 19.9999 1.44226C30.2068 1.44226 38.5106 9.74609 38.5106 19.953V23.0782H36.8759V23.0301C36.8759 21.7841 35.8622 20.7703 34.6162 20.7703H33.0777C31.8317 20.7703 30.8179 21.7841 30.8179 23.0301V32.2614C30.8179 33.5074 31.8317 34.5211 33.0777 34.5211H34.6162C35.8622 34.5211 36.8759 33.5074 36.8759 32.2614V32.2133H36.9459C36.589 37.2221 32.5449 41.227 27.5197 41.5226C27.2128 40.6387 26.372 40.0023 25.3849 40.0023H23.077C22.2551 40.0023 21.5866 40.6709 21.5866 41.4927V43.0312C21.5866 43.8531 22.2552 44.5217 23.077 44.5217H25.3849C26.3847 44.5217 27.2344 43.8687 27.5313 42.967C33.3846 42.6604 38.0917 37.9534 38.3983 32.1001C39.3 31.803 39.953 30.9534 39.953 29.9536V19.953C39.953 8.95087 31.0021 0 19.9999 0ZM4.56635 23.0302C4.56635 22.5795 4.93305 22.2128 5.38374 22.2128H6.92227C7.37296 22.2128 7.73966 22.5795 7.73966 23.0302V32.2615C7.73966 32.7122 7.37296 33.0789 6.92227 33.0789H5.38374C4.93305 33.0789 4.56635 32.7122 4.56635 32.2615V23.0302ZM3.12401 24.5206V30.771H2.30661C1.85592 30.771 1.48922 30.4043 1.48922 29.9536V24.5206H3.12401ZM35.4335 32.2614C35.4335 32.7121 35.0668 33.0788 34.6161 33.0788H33.0776C32.6269 33.0788 32.2602 32.7121 32.2602 32.2614V23.0301C32.2602 22.5794 32.6268 22.2127 33.0776 22.2127H34.6161C35.0668 22.2127 35.4335 22.5794 35.4335 23.0301V32.2614ZM25.3849 43.0794H23.077C23.0505 43.0794 23.029 43.0578 23.029 43.0313V41.4928C23.029 41.4663 23.0505 41.4447 23.077 41.4447H25.3849C25.8356 41.4447 26.2023 41.8113 26.2023 42.2621C26.2023 42.7129 25.8356 43.0794 25.3849 43.0794ZM38.5106 29.9536C38.5106 30.4043 38.1439 30.771 37.6932 30.771H36.8758V24.5206H38.5105V29.9536H38.5106Z" fill="#102D63"/>
<path fill-rule="evenodd" clip-rule="evenodd" d="M19.9999 0C8.99774 0 0.046875 8.95087 0.046875 19.953V29.9536C0.046875 31.1996 1.06061 32.2133 2.30661 32.2133H3.12401V32.2614C3.12401 33.5074 4.13774 34.5211 5.38374 34.5211H6.92227C8.16827 34.5211 9.18201 33.5074 9.18201 32.2614V23.0301C9.18201 21.7841 8.16827 20.7703 6.92227 20.7703H5.38374C4.13774 20.7703 3.12401 21.7841 3.12401 23.0301V23.0782H1.48922V19.953C1.48922 9.74617 9.79305 1.44226 19.9999 1.44226C30.2068 1.44226 38.5106 9.74609 38.5106 19.953V23.0782H36.8759V23.0301C36.8759 21.7841 35.8622 20.7703 34.6162 20.7703H33.0777C31.8317 20.7703 30.8179 21.7841 30.8179 23.0301V32.2614C30.8179 33.5074 31.8317 34.5211 33.0777 34.5211H34.6162C35.8622 34.5211 36.8759 33.5074 36.8759 32.2614V32.2133H36.9459C36.589 37.2221 32.5449 41.227 27.5197 41.5226C27.2128 40.6387 26.372 40.0023 25.3849 40.0023H23.077C22.2551 40.0023 21.5866 40.6709 21.5866 41.4927V43.0312C21.5866 43.8531 22.2552 44.5217 23.077 44.5217H25.3849C26.3847 44.5217 27.2344 43.8687 27.5313 42.967C33.3846 42.6604 38.0917 37.9534 38.3983 32.1001C39.3 31.803 39.953 30.9534 39.953 29.9536V19.953C39.953 8.95087 31.0021 0 19.9999 0ZM4.56635 23.0302C4.56635 22.5795 4.93305 22.2128 5.38374 22.2128H6.92227C7.37296 22.2128 7.73966 22.5795 7.73966 23.0302V32.2615C7.73966 32.7122 7.37296 33.0789 6.92227 33.0789H5.38374C4.93305 33.0789 4.56635 32.7122 4.56635 32.2615V23.0302ZM3.12401 24.5206V30.771H2.30661C1.85592 30.771 1.48922 30.4043 1.48922 29.9536V24.5206H3.12401ZM35.4335 32.2614C35.4335 32.7121 35.0668 33.0788 34.6161 33.0788H33.0776C32.6269 33.0788 32.2602 32.7121 32.2602 32.2614V23.0301C32.2602 22.5794 32.6268 22.2127 33.0776 22.2127H34.6161C35.0668 22.2127 35.4335 22.5794 35.4335 23.0301V32.2614ZM25.3849 43.0794H23.077C23.0505 43.0794 23.029 43.0578 23.029 43.0313V41.4928C23.029 41.4663 23.0505 41.4447 23.077 41.4447H25.3849C25.8356 41.4447 26.2023 41.8113 26.2023 42.2621C26.2023 42.7129 25.8356 43.0794 25.3849 43.0794ZM38.5106 29.9536C38.5106 30.4043 38.1439 30.771 37.6932 30.771H36.8758V24.5206H38.5105V29.9536H38.5106Z" fill="url(#paint0_linear)"/>
<path fill-rule="evenodd" clip-rule="evenodd" d="M24.6154 26.1553C23.7935 26.1553 23.125 26.8239 23.125 27.6457C23.125 28.4675 23.7936 29.1361 24.6154 29.1361C25.4373 29.1361 26.1059 28.4674 26.1059 27.6457C26.1059 26.824 25.4373 26.1553 24.6154 26.1553Z" fill="#102D63"/>
<path fill-rule="evenodd" clip-rule="evenodd" d="M24.6154 26.1553C23.7935 26.1553 23.125 26.8239 23.125 27.6457C23.125 28.4675 23.7936 29.1361 24.6154 29.1361C25.4373 29.1361 26.1059 28.4674 26.1059 27.6457C26.1059 26.824 25.4373 26.1553 24.6154 26.1553Z" fill="url(#paint1_linear)"/>
<path fill-rule="evenodd" clip-rule="evenodd" d="M20.0002 26.1553C19.1783 26.1553 18.5098 26.8239 18.5098 27.6457C18.5098 28.4675 19.1784 29.1361 20.0002 29.1361C20.8221 29.1361 21.4906 28.4674 21.4906 27.6457C21.4906 26.824 20.8221 26.1553 20.0002 26.1553Z" fill="#102D63"/>
<path fill-rule="evenodd" clip-rule="evenodd" d="M20.0002 26.1553C19.1783 26.1553 18.5098 26.8239 18.5098 27.6457C18.5098 28.4675 19.1784 29.1361 20.0002 29.1361C20.8221 29.1361 21.4906 28.4674 21.4906 27.6457C21.4906 26.824 20.8221 26.1553 20.0002 26.1553Z" fill="url(#paint2_linear)"/>
<path fill-rule="evenodd" clip-rule="evenodd" d="M26.1543 20.0011H13.8459C12.1758 20.0011 10.8169 21.36 10.8169 23.0301V32.2614C10.8169 33.9316 12.1758 35.2905 13.8459 35.2905H20.8175V37.1031C20.8175 37.6159 21.1237 38.0741 21.5974 38.2704C21.7546 38.3355 21.9192 38.3671 22.0821 38.3671C22.4102 38.3671 22.7319 38.2388 22.9742 37.9964L25.6802 35.2905H26.1543C27.8245 35.2905 29.1833 33.9316 29.1833 32.2614V23.0301C29.1833 21.3599 27.8245 20.0011 26.1543 20.0011ZM27.7409 32.2614C27.7409 33.1362 27.0292 33.848 26.1543 33.848H25.3814C25.1901 33.848 25.0067 33.924 24.8715 34.0593L22.2599 36.6709V34.5692C22.2599 34.1709 21.937 33.848 21.5386 33.848H13.8459C12.971 33.848 12.2592 33.1362 12.2592 32.2614V23.0301C12.2592 22.1552 12.971 21.4434 13.8459 21.4434H26.1542C27.0291 21.4434 27.7408 22.1552 27.7408 23.0301V32.2614H27.7409Z" fill="#102D63"/>
<path fill-rule="evenodd" clip-rule="evenodd" d="M26.1543 20.0011H13.8459C12.1758 20.0011 10.8169 21.36 10.8169 23.0301V32.2614C10.8169 33.9316 12.1758 35.2905 13.8459 35.2905H20.8175V37.1031C20.8175 37.6159 21.1237 38.0741 21.5974 38.2704C21.7546 38.3355 21.9192 38.3671 22.0821 38.3671C22.4102 38.3671 22.7319 38.2388 22.9742 37.9964L25.6802 35.2905H26.1543C27.8245 35.2905 29.1833 33.9316 29.1833 32.2614V23.0301C29.1833 21.3599 27.8245 20.0011 26.1543 20.0011ZM27.7409 32.2614C27.7409 33.1362 27.0292 33.848 26.1543 33.848H25.3814C25.1901 33.848 25.0067 33.924 24.8715 34.0593L22.2599 36.6709V34.5692C22.2599 34.1709 21.937 33.848 21.5386 33.848H13.8459C12.971 33.848 12.2592 33.1362 12.2592 32.2614V23.0301C12.2592 22.1552 12.971 21.4434 13.8459 21.4434H26.1542C27.0291 21.4434 27.7408 22.1552 27.7408 23.0301V32.2614H27.7409Z" fill="url(#paint3_linear)"/>
<path fill-rule="evenodd" clip-rule="evenodd" d="M15.3845 26.1553C14.5626 26.1553 13.894 26.8239 13.894 27.6457C13.894 28.4675 14.5627 29.1361 15.3845 29.1361C16.2063 29.1361 16.8749 28.4675 16.8749 27.6457C16.8749 26.8239 16.2064 26.1553 15.3845 26.1553Z" fill="#102D63"/>
<path fill-rule="evenodd" clip-rule="evenodd" d="M15.3845 26.1553C14.5626 26.1553 13.894 26.8239 13.894 27.6457C13.894 28.4675 14.5627 29.1361 15.3845 29.1361C16.2063 29.1361 16.8749 28.4675 16.8749 27.6457C16.8749 26.8239 16.2064 26.1553 15.3845 26.1553Z" fill="url(#paint4_linear)"/>
<g opacity="0.130743">
<path fill-rule="evenodd" clip-rule="evenodd" d="M12.2593 22.1539L13.8941 20.7792H27.7409L28.37 33.0789L26.4617 34.4544L22.4617 37.4946L21.5386 34.4544H13.2634L11.627 33.0788V22.1539H12.2593Z" fill="#102D63"/>
<path fill-rule="evenodd" clip-rule="evenodd" d="M12.2593 22.1539L13.8941 20.7792H27.7409L28.37 33.0789L26.4617 34.4544L22.4617 37.4946L21.5386 34.4544H13.2634L11.627 33.0788V22.1539H12.2593Z" fill="url(#paint5_linear)"/>
</g>
<defs>
<linearGradient id="paint0_linear" x1="-20.1057" y1="22.706" x2="24.9873" y2="62.728" gradientUnits="userSpaceOnUse">
<stop stop-color="#6C66FE"/>
<stop offset="1" stop-color="#935BF2"/>
</linearGradient>
<linearGradient id="paint1_linear" x1="21.6197" y1="27.6755" x2="24.6601" y2="30.6862" gradientUnits="userSpaceOnUse">
<stop stop-color="#6C66FE"/>
<stop offset="1" stop-color="#935BF2"/>
</linearGradient>
<linearGradient id="paint2_linear" x1="17.0044" y1="27.6755" x2="20.0449" y2="30.6862" gradientUnits="userSpaceOnUse">
<stop stop-color="#6C66FE"/>
<stop offset="1" stop-color="#935BF2"/>
</linearGradient>
<linearGradient id="paint3_linear" x1="1.54185" y1="29.3678" x2="20.2752" y2="47.9179" gradientUnits="userSpaceOnUse">
<stop stop-color="#6C66FE"/>
<stop offset="1" stop-color="#935BF2"/>
</linearGradient>
<linearGradient id="paint4_linear" x1="12.3887" y1="27.6755" x2="15.4292" y2="30.6862" gradientUnits="userSpaceOnUse">
<stop stop-color="#6C66FE"/>
<stop offset="1" stop-color="#935BF2"/>
</linearGradient>
<linearGradient id="paint5_linear" x1="3.17169" y1="29.3041" x2="20.2217" y2="46.2148" gradientUnits="userSpaceOnUse">
<stop stop-color="#6C66FE"/>
<stop offset="1" stop-color="#935BF2"/>
</linearGradient>
</defs>
</svg>
