<svg width="40" height="46" viewBox="0 0 40 46" fill="none" xmlns="http://www.w3.org/2000/svg">
<g opacity="0.130743">
<path fill-rule="evenodd" clip-rule="evenodd" d="M13.0503 18.3262L19.9999 13.6846L28.1278 18.3262V27.0765L20 32.3153L13.0503 28.4241V18.3262Z" fill="#102D63"/>
<path fill-rule="evenodd" clip-rule="evenodd" d="M13.0503 18.3262L19.9999 13.6846L28.1278 18.3262V27.0765L20 32.3153L13.0503 28.4241V18.3262Z" fill="url(#paint0_linear)"/>
</g>
<path fill-rule="evenodd" clip-rule="evenodd" d="M23.1935 10.7713L22.0514 10.1078C22.0837 9.96062 22.1013 9.80788 22.1013 9.65111C22.1013 8.72086 21.501 7.92961 20.6699 7.64759V0.673828C20.6699 0.301695 20.3701 0 20.0002 0C19.6304 0 19.3306 0.301695 19.3306 0.673828V7.64741C18.4995 7.92943 17.8992 8.72068 17.8992 9.65093C17.8992 9.80779 17.9168 9.96044 17.9491 10.1076L9.9372 14.7622C9.56667 14.433 9.0806 14.2328 8.54863 14.2328C8.01667 14.2328 7.53059 14.4331 7.16006 14.7622L1.01042 11.1895C0.690148 11.0034 0.280595 11.1139 0.0956842 11.4361C-0.0892266 11.7584 0.0205056 12.1705 0.340773 12.3566L6.48899 15.9284C6.46184 16.0637 6.44747 16.2037 6.44747 16.3469C6.44747 17.2771 7.04783 18.0683 7.8789 18.3503V27.652C7.04783 27.9341 6.44747 28.7253 6.44747 29.6555C6.44747 29.7978 6.46176 29.9369 6.48854 30.0715L0.340773 33.6432C0.0205056 33.8292 -0.0892266 34.2413 0.0956842 34.5636C0.219702 34.7798 0.444791 34.9006 0.67622 34.9006C0.789791 34.9006 0.90497 34.8715 1.01042 34.8102L7.15809 31.2387C7.5289 31.5688 8.01568 31.7698 8.54854 31.7698C9.0814 31.7698 9.56827 31.5688 9.93899 31.2387L14.1596 33.6907C14.2651 33.752 14.3802 33.7811 14.4938 33.7811C14.7252 33.7811 14.9503 33.6602 15.0743 33.4441C15.2595 33.122 15.1498 32.7099 14.8294 32.5238L10.6087 30.0718C10.6355 29.9372 10.6498 29.7982 10.6498 29.6558C10.6498 28.7256 10.0494 27.9344 9.21827 27.6523V18.3506C10.0493 18.0686 10.6498 17.2773 10.6498 16.3471C10.6498 16.2039 10.6354 16.0639 10.6083 15.9286L18.6415 11.2616C19.0082 11.5753 19.4825 11.7652 20.0003 11.7652C20.5182 11.7652 20.9926 11.5753 21.3592 11.2616L22.5239 11.9383C22.6293 11.9997 22.7445 12.0287 22.8581 12.0287C23.0895 12.0287 23.3146 11.9079 23.4386 11.6917C23.6235 11.3695 23.5138 10.9573 23.1935 10.7713ZM9.31059 29.6557C9.31059 30.0783 8.96881 30.4223 8.54872 30.4223C8.12863 30.4223 7.78693 30.0783 7.78693 29.6557C7.78693 29.2331 8.12872 28.8892 8.54872 28.8892C8.96881 28.8892 9.31059 29.2331 9.31059 29.6557ZM8.54863 17.1135C8.12854 17.1135 7.78684 16.7696 7.78684 16.347C7.78684 15.9244 8.12854 15.5804 8.54863 15.5804C8.96872 15.5804 9.3105 15.9244 9.3105 16.347C9.31059 16.7696 8.96881 17.1135 8.54863 17.1135ZM20.0002 10.4175C19.5801 10.4175 19.2385 10.0736 19.2385 9.65093C19.2385 9.22821 19.5801 8.88438 20.0002 8.88438C20.4203 8.88438 20.762 9.22821 20.762 9.65093C20.7621 10.0736 20.4204 10.4175 20.0002 10.4175Z" fill="#102D63"/>
<path fill-rule="evenodd" clip-rule="evenodd" d="M23.1935 10.7713L22.0514 10.1078C22.0837 9.96062 22.1013 9.80788 22.1013 9.65111C22.1013 8.72086 21.501 7.92961 20.6699 7.64759V0.673828C20.6699 0.301695 20.3701 0 20.0002 0C19.6304 0 19.3306 0.301695 19.3306 0.673828V7.64741C18.4995 7.92943 17.8992 8.72068 17.8992 9.65093C17.8992 9.80779 17.9168 9.96044 17.9491 10.1076L9.9372 14.7622C9.56667 14.433 9.0806 14.2328 8.54863 14.2328C8.01667 14.2328 7.53059 14.4331 7.16006 14.7622L1.01042 11.1895C0.690148 11.0034 0.280595 11.1139 0.0956842 11.4361C-0.0892266 11.7584 0.0205056 12.1705 0.340773 12.3566L6.48899 15.9284C6.46184 16.0637 6.44747 16.2037 6.44747 16.3469C6.44747 17.2771 7.04783 18.0683 7.8789 18.3503V27.652C7.04783 27.9341 6.44747 28.7253 6.44747 29.6555C6.44747 29.7978 6.46176 29.9369 6.48854 30.0715L0.340773 33.6432C0.0205056 33.8292 -0.0892266 34.2413 0.0956842 34.5636C0.219702 34.7798 0.444791 34.9006 0.67622 34.9006C0.789791 34.9006 0.90497 34.8715 1.01042 34.8102L7.15809 31.2387C7.5289 31.5688 8.01568 31.7698 8.54854 31.7698C9.0814 31.7698 9.56827 31.5688 9.93899 31.2387L14.1596 33.6907C14.2651 33.752 14.3802 33.7811 14.4938 33.7811C14.7252 33.7811 14.9503 33.6602 15.0743 33.4441C15.2595 33.122 15.1498 32.7099 14.8294 32.5238L10.6087 30.0718C10.6355 29.9372 10.6498 29.7982 10.6498 29.6558C10.6498 28.7256 10.0494 27.9344 9.21827 27.6523V18.3506C10.0493 18.0686 10.6498 17.2773 10.6498 16.3471C10.6498 16.2039 10.6354 16.0639 10.6083 15.9286L18.6415 11.2616C19.0082 11.5753 19.4825 11.7652 20.0003 11.7652C20.5182 11.7652 20.9926 11.5753 21.3592 11.2616L22.5239 11.9383C22.6293 11.9997 22.7445 12.0287 22.8581 12.0287C23.0895 12.0287 23.3146 11.9079 23.4386 11.6917C23.6235 11.3695 23.5138 10.9573 23.1935 10.7713ZM9.31059 29.6557C9.31059 30.0783 8.96881 30.4223 8.54872 30.4223C8.12863 30.4223 7.78693 30.0783 7.78693 29.6557C7.78693 29.2331 8.12872 28.8892 8.54872 28.8892C8.96881 28.8892 9.31059 29.2331 9.31059 29.6557ZM8.54863 17.1135C8.12854 17.1135 7.78684 16.7696 7.78684 16.347C7.78684 15.9244 8.12854 15.5804 8.54863 15.5804C8.96872 15.5804 9.3105 15.9244 9.3105 16.347C9.31059 16.7696 8.96881 17.1135 8.54863 17.1135ZM20.0002 10.4175C19.5801 10.4175 19.2385 10.0736 19.2385 9.65093C19.2385 9.22821 19.5801 8.88438 20.0002 8.88438C20.4203 8.88438 20.762 9.22821 20.762 9.65093C20.7621 10.0736 20.4204 10.4175 20.0002 10.4175Z" fill="url(#paint1_linear)"/>
<path fill-rule="evenodd" clip-rule="evenodd" d="M39.6595 33.6433L33.5118 30.0717C33.5386 29.9371 33.5528 29.7981 33.5528 29.6557C33.5528 28.7255 32.9525 27.9343 32.1214 27.6522V18.3505C32.9525 18.0685 33.5528 17.2772 33.5528 16.3471C33.5528 16.2039 33.5385 16.064 33.5113 15.9286L39.6595 12.3567C39.9798 12.1706 40.0895 11.7585 39.9046 11.4362C39.7196 11.1139 39.3101 11.0036 38.9899 11.1896L32.8403 14.7623C32.4697 14.4332 31.9836 14.2329 31.4517 14.2329C30.9197 14.2329 30.4336 14.4332 30.0631 14.7623L25.7386 12.2499C25.418 12.0638 25.0086 12.1743 24.8238 12.4965C24.6389 12.8188 24.7486 13.2309 25.0689 13.417L29.392 15.9286C29.3649 16.0639 29.3505 16.2039 29.3505 16.3471C29.3505 17.2773 29.9509 18.0685 30.7819 18.3505V27.6522C29.9509 27.9343 29.3505 28.7255 29.3505 29.6557C29.3505 29.7981 29.3648 29.9371 29.3916 30.0717L21.3886 34.7211C21.018 34.3919 20.5319 34.1916 20 34.1916C19.468 34.1916 18.9819 34.3919 18.6114 34.7211L17.2658 33.9394C16.9455 33.7532 16.536 33.8636 16.3511 34.186C16.1661 34.5083 16.2759 34.9204 16.5961 35.1064L17.9404 35.8874C17.9133 36.0227 17.8989 36.1626 17.8989 36.3058C17.8989 37.236 18.4993 38.0273 19.3303 38.3093V45.3262C19.3303 45.6983 19.6302 46 20 46C20.3699 46 20.6696 45.6983 20.6696 45.3262V38.3093C21.5007 38.0273 22.1011 37.236 22.1011 36.3058C22.1011 36.1626 22.0867 36.0227 22.0595 35.8873L30.0611 31.2388C30.4319 31.5688 30.9186 31.7699 31.4515 31.7699C31.9844 31.7699 32.4711 31.5689 32.8419 31.2388L38.9896 34.8103C39.0952 34.8716 39.2103 34.9007 39.3238 34.9007C39.5553 34.9007 39.7803 34.7799 39.9044 34.5637C40.0895 34.2415 39.9797 33.8294 39.6595 33.6433ZM20 37.0724C19.5799 37.0724 19.2382 36.7286 19.2382 36.3059C19.2382 35.8831 19.58 35.5393 20 35.5393C20.4201 35.5393 20.7618 35.8832 20.7618 36.3059C20.7619 36.7286 20.4202 37.0724 20 37.0724ZM30.6899 16.347C30.6899 15.9244 31.0316 15.5804 31.4517 15.5804C31.8718 15.5804 32.2135 15.9244 32.2135 16.347C32.2135 16.7696 31.8718 17.1135 31.4517 17.1135C31.0316 17.1135 30.6899 16.7696 30.6899 16.347ZM31.4516 30.4223C31.0315 30.4223 30.6898 30.0783 30.6898 29.6557C30.6898 29.2331 31.0315 28.8892 31.4516 28.8892C31.8717 28.8892 32.2134 29.2331 32.2134 29.6557C32.2135 30.0783 31.8718 30.4223 31.4516 30.4223Z" fill="#102D63"/>
<path fill-rule="evenodd" clip-rule="evenodd" d="M39.6595 33.6433L33.5118 30.0717C33.5386 29.9371 33.5528 29.7981 33.5528 29.6557C33.5528 28.7255 32.9525 27.9343 32.1214 27.6522V18.3505C32.9525 18.0685 33.5528 17.2772 33.5528 16.3471C33.5528 16.2039 33.5385 16.064 33.5113 15.9286L39.6595 12.3567C39.9798 12.1706 40.0895 11.7585 39.9046 11.4362C39.7196 11.1139 39.3101 11.0036 38.9899 11.1896L32.8403 14.7623C32.4697 14.4332 31.9836 14.2329 31.4517 14.2329C30.9197 14.2329 30.4336 14.4332 30.0631 14.7623L25.7386 12.2499C25.418 12.0638 25.0086 12.1743 24.8238 12.4965C24.6389 12.8188 24.7486 13.2309 25.0689 13.417L29.392 15.9286C29.3649 16.0639 29.3505 16.2039 29.3505 16.3471C29.3505 17.2773 29.9509 18.0685 30.7819 18.3505V27.6522C29.9509 27.9343 29.3505 28.7255 29.3505 29.6557C29.3505 29.7981 29.3648 29.9371 29.3916 30.0717L21.3886 34.7211C21.018 34.3919 20.5319 34.1916 20 34.1916C19.468 34.1916 18.9819 34.3919 18.6114 34.7211L17.2658 33.9394C16.9455 33.7532 16.536 33.8636 16.3511 34.186C16.1661 34.5083 16.2759 34.9204 16.5961 35.1064L17.9404 35.8874C17.9133 36.0227 17.8989 36.1626 17.8989 36.3058C17.8989 37.236 18.4993 38.0273 19.3303 38.3093V45.3262C19.3303 45.6983 19.6302 46 20 46C20.3699 46 20.6696 45.6983 20.6696 45.3262V38.3093C21.5007 38.0273 22.1011 37.236 22.1011 36.3058C22.1011 36.1626 22.0867 36.0227 22.0595 35.8873L30.0611 31.2388C30.4319 31.5688 30.9186 31.7699 31.4515 31.7699C31.9844 31.7699 32.4711 31.5689 32.8419 31.2388L38.9896 34.8103C39.0952 34.8716 39.2103 34.9007 39.3238 34.9007C39.5553 34.9007 39.7803 34.7799 39.9044 34.5637C40.0895 34.2415 39.9797 33.8294 39.6595 33.6433ZM20 37.0724C19.5799 37.0724 19.2382 36.7286 19.2382 36.3059C19.2382 35.8831 19.58 35.5393 20 35.5393C20.4201 35.5393 20.7618 35.8832 20.7618 36.3059C20.7619 36.7286 20.4202 37.0724 20 37.0724ZM30.6899 16.347C30.6899 15.9244 31.0316 15.5804 31.4517 15.5804C31.8718 15.5804 32.2135 15.9244 32.2135 16.347C32.2135 16.7696 31.8718 17.1135 31.4517 17.1135C31.0316 17.1135 30.6899 16.7696 30.6899 16.347ZM31.4516 30.4223C31.0315 30.4223 30.6898 30.0783 30.6898 29.6557C30.6898 29.2331 31.0315 28.8892 31.4516 28.8892C31.8717 28.8892 32.2134 29.2331 32.2134 29.6557C32.2135 30.0783 31.8718 30.4223 31.4516 30.4223Z" fill="url(#paint2_linear)"/>
<path fill-rule="evenodd" clip-rule="evenodd" d="M27.2774 17.5967L21.0116 13.9565C20.3876 13.594 19.6123 13.594 18.9883 13.9565L12.7225 17.5967C12.0986 17.9592 11.7109 18.6349 11.7109 19.3598V26.6401C11.7109 27.3651 12.0985 28.0407 12.7225 28.4032L18.9883 32.0434C19.3003 32.2247 19.6501 32.3153 20 32.3153C20.3498 32.3153 20.6996 32.2247 21.0116 32.0434L27.2774 28.4032C27.9013 28.0407 28.289 27.3651 28.289 26.6401V19.3598C28.2889 18.6349 27.9012 17.9592 27.2774 17.5967ZM26.9497 26.6401C26.9497 26.8852 26.8186 27.1136 26.6077 27.2361L20.3419 30.8763C20.1309 30.9989 19.8689 30.9989 19.658 30.8763L13.3923 27.2361C13.1813 27.1136 13.0502 26.8852 13.0502 26.6401V19.3598C13.0502 19.1147 13.1813 18.8863 13.3922 18.7638L19.658 15.1236C19.8689 15.001 20.1309 15.001 20.3419 15.1236L26.6077 18.7638C26.8186 18.8863 26.9497 19.1147 26.9497 19.3598V26.6401Z" fill="#102D63"/>
<path fill-rule="evenodd" clip-rule="evenodd" d="M27.2774 17.5967L21.0116 13.9565C20.3876 13.594 19.6123 13.594 18.9883 13.9565L12.7225 17.5967C12.0986 17.9592 11.7109 18.6349 11.7109 19.3598V26.6401C11.7109 27.3651 12.0985 28.0407 12.7225 28.4032L18.9883 32.0434C19.3003 32.2247 19.6501 32.3153 20 32.3153C20.3498 32.3153 20.6996 32.2247 21.0116 32.0434L27.2774 28.4032C27.9013 28.0407 28.289 27.3651 28.289 26.6401V19.3598C28.2889 18.6349 27.9012 17.9592 27.2774 17.5967ZM26.9497 26.6401C26.9497 26.8852 26.8186 27.1136 26.6077 27.2361L20.3419 30.8763C20.1309 30.9989 19.8689 30.9989 19.658 30.8763L13.3923 27.2361C13.1813 27.1136 13.0502 26.8852 13.0502 26.6401V19.3598C13.0502 19.1147 13.1813 18.8863 13.3922 18.7638L19.658 15.1236C19.8689 15.001 20.1309 15.001 20.3419 15.1236L26.6077 18.7638C26.8186 18.8863 26.9497 19.1147 26.9497 19.3598V26.6401Z" fill="url(#paint3_linear)"/>
<defs>
<linearGradient id="paint0_linear" x1="5.43616" y1="23.1863" x2="23.9837" y2="38.0493" gradientUnits="userSpaceOnUse">
<stop stop-color="#6C66FE"/>
<stop offset="1" stop-color="#935BF2"/>
</linearGradient>
<linearGradient id="paint1_linear" x1="-11.8731" y1="17.7993" x2="21.0023" y2="39.7397" gradientUnits="userSpaceOnUse">
<stop stop-color="#6C66FE"/>
<stop offset="1" stop-color="#935BF2"/>
</linearGradient>
<linearGradient id="paint2_linear" x1="4.27595" y1="28.8986" x2="37.2629" y2="51.1105" gradientUnits="userSpaceOnUse">
<stop stop-color="#6C66FE"/>
<stop offset="1" stop-color="#935BF2"/>
</linearGradient>
<linearGradient id="paint3_linear" x1="3.33903" y1="23.1863" x2="22.192" y2="39.7976" gradientUnits="userSpaceOnUse">
<stop stop-color="#6C66FE"/>
<stop offset="1" stop-color="#935BF2"/>
</linearGradient>
</defs>
</svg>
