<svg width="40" height="40" viewBox="0 0 40 40" fill="none" xmlns="http://www.w3.org/2000/svg">
<path fill-rule="evenodd" clip-rule="evenodd" d="M34.7901 30.6547C34.7259 30.5905 34.6476 30.5422 34.5615 30.5134L32.2114 29.73L25.3381 22.8568C25.1097 22.6285 24.7395 22.6285 24.5111 22.8568C24.2827 23.0853 24.2827 23.4555 24.5111 23.6839L31.4819 30.6547C31.5462 30.7189 31.6244 30.7672 31.7105 30.796L34.0606 31.5794L36.8576 34.3763L34.3765 36.8574L31.5796 34.0605L30.7962 31.7104C30.7675 31.6243 30.7191 31.546 30.6549 31.4818L22.4436 23.2704L25.5918 20.1222C26.3746 20.0765 29.0121 19.9251 29.9788 19.9006C32.6938 19.8319 35.1851 18.798 36.9927 16.9905C38.4249 15.5646 39.3773 13.7685 39.7496 11.7933C40.1134 9.86406 39.9049 7.89073 39.1468 6.08683C39.0713 5.90726 38.9114 5.77705 38.7203 5.73962C38.5293 5.70204 38.332 5.76223 38.1941 5.89993L32.4627 11.6313L28.3277 7.49627L34.0734 1.75061C34.2107 1.61322 34.2708 1.41681 34.234 1.22609C34.1972 1.03545 34.0681 0.875525 33.8895 0.799189C32.0893 0.0303785 30.1163 -0.189115 28.1842 0.164024C26.2049 0.525973 24.4019 1.46999 22.9692 2.89525C22.9605 2.90391 22.9521 2.91287 22.9435 2.92161C22.9405 2.92449 22.9372 2.92691 22.9343 2.92987C22.9294 2.93478 22.9252 2.94009 22.9205 2.94515C21.1521 4.73993 20.1359 7.2094 20.0581 9.90827C20.0423 10.4547 19.9809 11.5318 19.9208 12.5111C19.8177 12.3858 19.7096 12.2661 19.5968 12.1533L8.96404 1.52075C8.96263 1.51935 8.41199 0.968702 8.41199 0.968702C7.78821 0.344842 6.956 0.00137266 6.06875 0.00137266C5.18142 0.00137266 4.34922 0.344842 3.72544 0.968702L0.968947 3.72566C-0.322982 5.01767 -0.322982 7.12005 0.968947 8.41213L12.1537 19.5968C12.5565 19.9995 13.0304 20.3411 13.5364 20.5992L1.20045 32.9353C-0.395575 34.5314 -0.395653 37.1282 1.20037 38.7243C1.97355 39.4975 3.00154 39.9233 4.09503 39.9233C5.18844 39.9233 6.21643 39.4975 6.98961 38.7243L21.6165 24.0974L29.7303 32.2113L30.5137 34.5614C30.5424 34.6475 30.5908 34.7257 30.655 34.79L33.9629 38.0978C33.9633 38.0983 35.6171 39.7521 35.6171 39.7521C35.7268 39.8617 35.8755 39.9233 36.0307 39.9233C36.1859 39.9233 36.3345 39.8617 36.4443 39.7521L39.7524 36.4439C39.9808 36.2155 39.9808 35.8453 39.7524 35.6169L34.7901 30.6547ZM38.372 7.37619C39.2667 10.2876 38.5931 13.439 36.5675 15.7362L33.2898 12.4584L38.372 7.37619ZM32.6015 1.56839L27.5006 6.66913L24.1881 3.35654C26.501 1.31693 29.6771 0.64917 32.6015 1.56839ZM1.796 4.55264L4.55257 1.79568C4.95538 1.39287 5.49386 1.17096 6.06875 1.17096C6.64357 1.17096 7.18205 1.39287 7.58485 1.79576L7.72271 1.93361L1.93355 7.7227L1.796 7.58515C0.960059 6.74913 0.960059 5.38866 1.796 4.55264ZM12.9808 18.7698L2.76068 8.54976L8.54984 2.76059L18.7696 12.9804C19.1671 13.3777 19.4901 13.8855 19.7016 14.434L14.42 19.7156C13.8929 19.5072 13.3908 19.1798 12.9808 18.7698ZM6.16248 37.8974C5.61027 38.4496 4.876 38.7537 4.09495 38.7537C3.31382 38.7537 2.57955 38.4496 2.02735 37.8973C0.88731 36.7573 0.887388 34.9023 2.02743 33.7624L20.7869 15.0028C20.8869 14.9027 20.9473 14.7697 20.9569 14.6285C20.9665 14.4853 21.1935 11.1072 21.2271 9.94204C21.2903 7.74632 22.045 5.72714 23.365 4.18781L35.7383 16.5611C34.1867 17.9093 32.1539 18.6757 29.9492 18.7314C28.7942 18.7606 25.4429 18.9592 25.3009 18.9676C25.158 18.976 25.0231 19.0366 24.922 19.1378L21.2037 22.8561C21.2022 22.8577 6.16248 37.8974 6.16248 37.8974ZM36.0305 38.5116L35.2036 37.6846L37.6847 35.2035L38.5116 36.0305L36.0305 38.5116Z" fill="#102D63"/>
<path fill-rule="evenodd" clip-rule="evenodd" d="M34.7901 30.6547C34.7259 30.5905 34.6476 30.5422 34.5615 30.5134L32.2114 29.73L25.3381 22.8568C25.1097 22.6285 24.7395 22.6285 24.5111 22.8568C24.2827 23.0853 24.2827 23.4555 24.5111 23.6839L31.4819 30.6547C31.5462 30.7189 31.6244 30.7672 31.7105 30.796L34.0606 31.5794L36.8576 34.3763L34.3765 36.8574L31.5796 34.0605L30.7962 31.7104C30.7675 31.6243 30.7191 31.546 30.6549 31.4818L22.4436 23.2704L25.5918 20.1222C26.3746 20.0765 29.0121 19.9251 29.9788 19.9006C32.6938 19.8319 35.1851 18.798 36.9927 16.9905C38.4249 15.5646 39.3773 13.7685 39.7496 11.7933C40.1134 9.86406 39.9049 7.89073 39.1468 6.08683C39.0713 5.90726 38.9114 5.77705 38.7203 5.73962C38.5293 5.70204 38.332 5.76223 38.1941 5.89993L32.4627 11.6313L28.3277 7.49627L34.0734 1.75061C34.2107 1.61322 34.2708 1.41681 34.234 1.22609C34.1972 1.03545 34.0681 0.875525 33.8895 0.799189C32.0893 0.0303785 30.1163 -0.189115 28.1842 0.164024C26.2049 0.525973 24.4019 1.46999 22.9692 2.89525C22.9605 2.90391 22.9521 2.91287 22.9435 2.92161C22.9405 2.92449 22.9372 2.92691 22.9343 2.92987C22.9294 2.93478 22.9252 2.94009 22.9205 2.94515C21.1521 4.73993 20.1359 7.2094 20.0581 9.90827C20.0423 10.4547 19.9809 11.5318 19.9208 12.5111C19.8177 12.3858 19.7096 12.2661 19.5968 12.1533L8.96404 1.52075C8.96263 1.51935 8.41199 0.968702 8.41199 0.968702C7.78821 0.344842 6.956 0.00137266 6.06875 0.00137266C5.18142 0.00137266 4.34922 0.344842 3.72544 0.968702L0.968947 3.72566C-0.322982 5.01767 -0.322982 7.12005 0.968947 8.41213L12.1537 19.5968C12.5565 19.9995 13.0304 20.3411 13.5364 20.5992L1.20045 32.9353C-0.395575 34.5314 -0.395653 37.1282 1.20037 38.7243C1.97355 39.4975 3.00154 39.9233 4.09503 39.9233C5.18844 39.9233 6.21643 39.4975 6.98961 38.7243L21.6165 24.0974L29.7303 32.2113L30.5137 34.5614C30.5424 34.6475 30.5908 34.7257 30.655 34.79L33.9629 38.0978C33.9633 38.0983 35.6171 39.7521 35.6171 39.7521C35.7268 39.8617 35.8755 39.9233 36.0307 39.9233C36.1859 39.9233 36.3345 39.8617 36.4443 39.7521L39.7524 36.4439C39.9808 36.2155 39.9808 35.8453 39.7524 35.6169L34.7901 30.6547ZM38.372 7.37619C39.2667 10.2876 38.5931 13.439 36.5675 15.7362L33.2898 12.4584L38.372 7.37619ZM32.6015 1.56839L27.5006 6.66913L24.1881 3.35654C26.501 1.31693 29.6771 0.64917 32.6015 1.56839ZM1.796 4.55264L4.55257 1.79568C4.95538 1.39287 5.49386 1.17096 6.06875 1.17096C6.64357 1.17096 7.18205 1.39287 7.58485 1.79576L7.72271 1.93361L1.93355 7.7227L1.796 7.58515C0.960059 6.74913 0.960059 5.38866 1.796 4.55264ZM12.9808 18.7698L2.76068 8.54976L8.54984 2.76059L18.7696 12.9804C19.1671 13.3777 19.4901 13.8855 19.7016 14.434L14.42 19.7156C13.8929 19.5072 13.3908 19.1798 12.9808 18.7698ZM6.16248 37.8974C5.61027 38.4496 4.876 38.7537 4.09495 38.7537C3.31382 38.7537 2.57955 38.4496 2.02735 37.8973C0.88731 36.7573 0.887388 34.9023 2.02743 33.7624L20.7869 15.0028C20.8869 14.9027 20.9473 14.7697 20.9569 14.6285C20.9665 14.4853 21.1935 11.1072 21.2271 9.94204C21.2903 7.74632 22.045 5.72714 23.365 4.18781L35.7383 16.5611C34.1867 17.9093 32.1539 18.6757 29.9492 18.7314C28.7942 18.7606 25.4429 18.9592 25.3009 18.9676C25.158 18.976 25.0231 19.0366 24.922 19.1378L21.2037 22.8561C21.2022 22.8577 6.16248 37.8974 6.16248 37.8974ZM36.0305 38.5116L35.2036 37.6846L37.6847 35.2035L38.5116 36.0305L36.0305 38.5116Z" fill="url(#paint0_linear)"/>
<defs>
<linearGradient id="paint0_linear" x1="-20.1615" y1="20.3609" x2="20.5603" y2="60.6839" gradientUnits="userSpaceOnUse">
<stop stop-color="#6C66FE"/>
<stop offset="1" stop-color="#935BF2"/>
</linearGradient>
</defs>
</svg>
