<svg width="40" height="42" viewBox="0 0 40 42" fill="none" xmlns="http://www.w3.org/2000/svg">
<path fill-rule="evenodd" clip-rule="evenodd" d="M39.9599 27.7655V7.16446C39.9599 4.96496 38.1711 3.17582 35.9719 3.17582H27.3037C25.41 1.15404 22.7566 0 19.9801 0C17.2033 0 14.5499 1.15404 12.6566 3.17582H3.988C1.78914 3.17582 0.000315657 4.96496 0.000315657 7.16446V27.7655C0.000315657 27.7674 0 27.7693 0 27.7711V30.0354C0 32.2345 1.78914 34.024 3.98864 34.024H14.9669V38.3081H13.6714C12.316 38.3081 11.2131 39.411 11.2131 40.7664C11.2131 41.102 11.4848 41.3737 11.8204 41.3737C12.1556 41.3737 12.4277 41.102 12.4277 40.7664C12.4277 40.0805 12.9855 39.5227 13.6714 39.5227H26.2888C26.9744 39.5227 27.5325 40.0808 27.5325 40.7664C27.5325 41.102 27.8046 41.3737 28.1398 41.3737C28.4751 41.3737 28.7472 41.102 28.7472 40.7664C28.7472 39.411 27.6443 38.3081 26.2885 38.3081H24.9934V34.024H35.9716C38.1708 34.024 39.9602 32.2345 39.9602 30.0354V27.7711C39.9602 27.7693 39.9599 27.7674 39.9599 27.7655ZM19.9801 1.21212C22.5022 1.21212 24.9088 2.29514 26.583 4.18403C27.2345 4.91856 27.7541 5.74684 28.1275 6.64615V6.64646C28.1278 6.64678 28.1278 6.64678 28.1278 6.6471C28.5751 7.7197 28.8018 8.8589 28.8018 10.0331C28.8018 12.9899 27.5581 16.0912 25.1051 19.2506C24.8999 19.5148 24.9479 19.8958 25.2121 20.101C25.3229 20.1869 25.4536 20.2282 25.5833 20.2282C25.7642 20.2282 25.9432 20.1477 26.0628 19.994C28.6847 16.6168 30.0139 13.2655 30.0139 10.0331C30.0139 9.01294 29.8627 8.01578 29.5644 7.05682C29.5606 7.04451 29.5574 7.03251 29.5533 7.01989H35.8355C36.0234 7.01989 36.1765 7.17235 36.1765 7.35985V24.4122H21.8419C22.6215 23.7377 23.6319 22.7977 24.6686 21.6528C24.8933 21.4047 24.8744 21.0215 24.6263 20.7967C24.3782 20.572 23.9949 20.5912 23.7702 20.839C22.1553 22.6225 20.6108 23.886 19.9656 24.387C18.3561 23.2273 11.1581 17.6133 11.1581 10.0331C11.1581 8.8589 11.3851 7.7197 11.8324 6.6471C11.8324 6.64678 11.8324 6.64678 11.8324 6.64678C11.8324 6.64646 11.8324 6.64615 11.8327 6.64615C12.2058 5.74684 12.7254 4.91856 13.3772 4.18371C15.0515 2.29514 17.458 1.21212 19.9801 1.21212ZM3.98801 4.38794H11.6847C11.3005 4.95076 10.9754 5.55019 10.7137 6.18056C10.7134 6.18087 10.7134 6.18119 10.7134 6.1815C10.7131 6.1815 10.7131 6.18182 10.7131 6.18213C10.2042 7.40309 9.94602 8.69855 9.94602 10.0331C9.94602 13.5429 11.321 17.0328 14.0331 20.4056C15.4343 22.1487 16.9186 23.5095 18.0167 24.4122H3.78378V7.35985C3.78378 7.17235 3.93655 7.01989 4.12468 7.01989H8.18213C8.51673 7.01989 8.78819 6.74842 8.78819 6.41383C8.78819 6.07891 8.51673 5.80777 8.18213 5.80777H4.12468C3.26831 5.80777 2.57165 6.5041 2.57165 7.35985V25.0183C2.57165 25.3529 2.8428 25.6244 3.17771 25.6244H36.7825C37.1171 25.6244 37.3886 25.3529 37.3886 25.0183V7.35985C37.3886 6.5041 36.6919 5.80777 35.8355 5.80777H29.0827C28.8529 5.31282 28.583 4.8387 28.2756 4.38794H35.9719C37.5025 4.38794 38.7478 5.63352 38.7478 7.16446V27.1648H1.21244V7.16446C1.21244 5.63352 2.4577 4.38794 3.98801 4.38794ZM35.9716 32.8116H23.2393C22.9047 32.8116 22.6332 33.083 22.6332 33.4176C22.6332 33.7525 22.9047 34.0237 23.2393 34.0237H23.7812V38.3081H16.179V34.0237H20.761C21.096 34.0237 21.3671 33.7525 21.3671 33.4176C21.3671 33.083 21.096 32.8116 20.761 32.8116H3.98864C2.4577 32.8116 1.21212 31.5663 1.21212 30.0354V28.3775H38.7481V30.0354C38.7481 31.5663 37.5025 32.8116 35.9716 32.8116Z" fill="#102D63"/>
<path fill-rule="evenodd" clip-rule="evenodd" d="M39.9599 27.7655V7.16446C39.9599 4.96496 38.1711 3.17582 35.9719 3.17582H27.3037C25.41 1.15404 22.7566 0 19.9801 0C17.2033 0 14.5499 1.15404 12.6566 3.17582H3.988C1.78914 3.17582 0.000315657 4.96496 0.000315657 7.16446V27.7655C0.000315657 27.7674 0 27.7693 0 27.7711V30.0354C0 32.2345 1.78914 34.024 3.98864 34.024H14.9669V38.3081H13.6714C12.316 38.3081 11.2131 39.411 11.2131 40.7664C11.2131 41.102 11.4848 41.3737 11.8204 41.3737C12.1556 41.3737 12.4277 41.102 12.4277 40.7664C12.4277 40.0805 12.9855 39.5227 13.6714 39.5227H26.2888C26.9744 39.5227 27.5325 40.0808 27.5325 40.7664C27.5325 41.102 27.8046 41.3737 28.1398 41.3737C28.4751 41.3737 28.7472 41.102 28.7472 40.7664C28.7472 39.411 27.6443 38.3081 26.2885 38.3081H24.9934V34.024H35.9716C38.1708 34.024 39.9602 32.2345 39.9602 30.0354V27.7711C39.9602 27.7693 39.9599 27.7674 39.9599 27.7655ZM19.9801 1.21212C22.5022 1.21212 24.9088 2.29514 26.583 4.18403C27.2345 4.91856 27.7541 5.74684 28.1275 6.64615V6.64646C28.1278 6.64678 28.1278 6.64678 28.1278 6.6471C28.5751 7.7197 28.8018 8.8589 28.8018 10.0331C28.8018 12.9899 27.5581 16.0912 25.1051 19.2506C24.8999 19.5148 24.9479 19.8958 25.2121 20.101C25.3229 20.1869 25.4536 20.2282 25.5833 20.2282C25.7642 20.2282 25.9432 20.1477 26.0628 19.994C28.6847 16.6168 30.0139 13.2655 30.0139 10.0331C30.0139 9.01294 29.8627 8.01578 29.5644 7.05682C29.5606 7.04451 29.5574 7.03251 29.5533 7.01989H35.8355C36.0234 7.01989 36.1765 7.17235 36.1765 7.35985V24.4122H21.8419C22.6215 23.7377 23.6319 22.7977 24.6686 21.6528C24.8933 21.4047 24.8744 21.0215 24.6263 20.7967C24.3782 20.572 23.9949 20.5912 23.7702 20.839C22.1553 22.6225 20.6108 23.886 19.9656 24.387C18.3561 23.2273 11.1581 17.6133 11.1581 10.0331C11.1581 8.8589 11.3851 7.7197 11.8324 6.6471C11.8324 6.64678 11.8324 6.64678 11.8324 6.64678C11.8324 6.64646 11.8324 6.64615 11.8327 6.64615C12.2058 5.74684 12.7254 4.91856 13.3772 4.18371C15.0515 2.29514 17.458 1.21212 19.9801 1.21212ZM3.98801 4.38794H11.6847C11.3005 4.95076 10.9754 5.55019 10.7137 6.18056C10.7134 6.18087 10.7134 6.18119 10.7134 6.1815C10.7131 6.1815 10.7131 6.18182 10.7131 6.18213C10.2042 7.40309 9.94602 8.69855 9.94602 10.0331C9.94602 13.5429 11.321 17.0328 14.0331 20.4056C15.4343 22.1487 16.9186 23.5095 18.0167 24.4122H3.78378V7.35985C3.78378 7.17235 3.93655 7.01989 4.12468 7.01989H8.18213C8.51673 7.01989 8.78819 6.74842 8.78819 6.41383C8.78819 6.07891 8.51673 5.80777 8.18213 5.80777H4.12468C3.26831 5.80777 2.57165 6.5041 2.57165 7.35985V25.0183C2.57165 25.3529 2.8428 25.6244 3.17771 25.6244H36.7825C37.1171 25.6244 37.3886 25.3529 37.3886 25.0183V7.35985C37.3886 6.5041 36.6919 5.80777 35.8355 5.80777H29.0827C28.8529 5.31282 28.583 4.8387 28.2756 4.38794H35.9719C37.5025 4.38794 38.7478 5.63352 38.7478 7.16446V27.1648H1.21244V7.16446C1.21244 5.63352 2.4577 4.38794 3.98801 4.38794ZM35.9716 32.8116H23.2393C22.9047 32.8116 22.6332 33.083 22.6332 33.4176C22.6332 33.7525 22.9047 34.0237 23.2393 34.0237H23.7812V38.3081H16.179V34.0237H20.761C21.096 34.0237 21.3671 33.7525 21.3671 33.4176C21.3671 33.083 21.096 32.8116 20.761 32.8116H3.98864C2.4577 32.8116 1.21212 31.5663 1.21212 30.0354V28.3775H38.7481V30.0354C38.7481 31.5663 37.5025 32.8116 35.9716 32.8116Z" fill="url(#paint0_linear)"/>
<defs>
<linearGradient id="paint0_linear" x1="-20.1799" y1="21.1006" x2="21.9814" y2="61.4223" gradientUnits="userSpaceOnUse">
<stop stop-color="#6C66FE"/>
<stop offset="1" stop-color="#935BF2"/>
</linearGradient>
</defs>
</svg>
