<svg width="24" height="24" viewBox="0 0 24 24" fill="none" xmlns="http://www.w3.org/2000/svg">
<path fill-rule="evenodd" clip-rule="evenodd" d="M0 12.0007C0 5.38248 5.38248 0 12 0C18.6168 0 24 5.38248 24 12.0037C24 14.4877 22.7936 17.6595 20.0972 19.1443C18.5352 20.001 15.8837 20.6453 12.4283 18.3376C11.1634 17.4939 10.2733 16.5817 9.54147 15.8318C9.3237 15.6086 9.11995 15.3998 8.92451 15.2114L8.9201 15.2158C8.89879 15.1916 8.87749 15.1688 8.85545 15.146C8.84946 15.1404 8.84348 15.1349 8.83751 15.1293C8.82002 15.113 8.80263 15.0969 8.78565 15.0799L8.79006 15.077C7.96865 14.2247 7.17076 13.3519 6.40593 12.4496C4.3987 10.0912 4.66393 6.9261 6.72038 5.62273C6.75088 5.60256 6.7799 5.58041 6.80885 5.55832C6.8643 5.51601 6.91946 5.47391 6.98414 5.4464C7.35655 5.29253 7.76109 5.2278 8.16486 5.1632C8.3896 5.12725 8.61409 5.09133 8.83267 5.0401C9.61587 4.86083 11.1411 8.46385 10.1669 8.77536C10.051 8.81211 9.85478 8.85459 9.6317 8.90289C9.15895 9.00523 8.56564 9.13368 8.36099 9.28892C8.09208 9.49097 8.21992 9.9891 8.48442 10.3006C8.97069 10.8728 9.61674 11.4894 10.2386 12.083C10.5102 12.3423 10.7772 12.5971 11.0243 12.842V12.8405C11.0341 12.85 11.0438 12.8598 11.0536 12.8697C11.0666 12.8828 11.0796 12.8959 11.0926 12.9081C11.1037 12.9195 11.1155 12.9312 11.1272 12.9426C11.1387 12.954 11.15 12.9651 11.1602 12.9757L11.1588 12.9764C11.3993 13.2196 11.6499 13.4821 11.905 13.7493C12.5024 14.3748 13.1243 15.0262 13.6994 15.5163C14.0109 15.7808 14.509 15.9087 14.7111 15.6397C14.8662 15.4339 14.9964 14.8346 15.0993 14.3605C15.147 14.141 15.1888 13.9482 15.2246 13.8338C15.5376 12.8574 19.1384 14.3849 18.9599 15.1666C18.9073 15.388 18.871 15.6153 18.8346 15.8426C18.7703 16.2444 18.706 16.6464 18.5521 17.0166C18.5268 17.0804 18.484 17.1365 18.4409 17.193C18.419 17.2217 18.3971 17.2504 18.3773 17.2804C18.0775 17.752 17.6742 18.1267 17.2084 18.4037C17.9842 18.3964 18.7116 18.2134 19.3824 17.8446C21.2287 16.8263 22.5188 14.4245 22.5188 12.0007C22.5188 6.20021 17.8013 1.48044 12 1.48044C6.19874 1.48044 1.48044 6.19947 1.48044 12.0007C1.48044 17.7991 6.19874 22.5188 12 22.5188C12.4092 22.5188 12.7399 22.8502 12.7399 23.2609C12.7399 23.6694 12.4092 24 12 24C5.38248 24 0 18.6175 0 12.0007ZM20.7107 12.1256H19.4867C19.4867 8.13102 16.2378 4.88287 12.2454 4.88287L12.2447 3.66032C16.9137 3.65812 20.7107 7.45656 20.7107 12.1256ZM12.2447 5.77187L12.2439 6.99443C15.0748 6.99443 17.3744 9.29627 17.3729 12.1249L18.597 12.1242C18.597 8.62181 15.7492 5.77187 12.2447 5.77187Z" fill="white"/>
</svg>
