<svg width="40" height="31" viewBox="0 0 40 31" fill="none" xmlns="http://www.w3.org/2000/svg">
<path fill-rule="evenodd" clip-rule="evenodd" d="M38.1616 0.00939941H1.83844C0.824766 0.00939941 0 0.834165 0 1.84792V24.3933C0 25.4071 0.824766 26.2317 1.83844 26.2317H7.71758L5.71352 29.7389C5.60984 29.9203 5.61063 30.1431 5.71547 30.3238C5.82031 30.5044 6.01336 30.6156 6.22227 30.6156H8.72727C8.88266 30.6156 9.03164 30.5539 9.14156 30.4439L10.8488 28.7367H29.1512L30.8584 30.4439C30.9683 30.5539 31.1173 30.6156 31.2727 30.6156H33.7777C33.9865 30.6156 34.1796 30.5044 34.2845 30.3238C34.3893 30.1431 34.3901 29.9203 34.2864 29.7389L32.2823 26.2317H38.1615C39.1752 26.2317 39.9999 25.407 39.9999 24.3933V1.84792C40 0.834165 39.1752 0.00939941 38.1616 0.00939941ZM32.768 29.4436H31.5154L29.8082 27.7364C29.6984 27.6265 29.5493 27.5648 29.3939 27.5648H10.6061C10.4507 27.5648 10.3016 27.6265 10.1918 27.7364L8.48461 29.4436H7.23195L9.06734 26.2317H30.9327L32.768 29.4436ZM38.8281 22.5548H36.9086C36.585 22.5548 36.3227 22.8171 36.3227 23.1407C36.3227 23.4643 36.585 23.7267 36.9086 23.7267H38.8281V24.3932C38.8281 24.7608 38.5291 25.0599 38.1616 25.0599H1.83844C1.47086 25.0599 1.17188 24.7608 1.17188 24.3933V23.7267H34.404C34.7276 23.7267 34.9899 23.4644 34.9899 23.1408C34.9899 22.8172 34.7276 22.5549 34.404 22.5549H1.17188V1.84791C1.17188 1.48034 1.47094 1.18135 1.83844 1.18135H38.1616C38.5291 1.18135 38.8281 1.48041 38.8281 1.84791V22.5548Z" fill="#102D63"/>
<path fill-rule="evenodd" clip-rule="evenodd" d="M38.1616 0.00939941H1.83844C0.824766 0.00939941 0 0.834165 0 1.84792V24.3933C0 25.4071 0.824766 26.2317 1.83844 26.2317H7.71758L5.71352 29.7389C5.60984 29.9203 5.61063 30.1431 5.71547 30.3238C5.82031 30.5044 6.01336 30.6156 6.22227 30.6156H8.72727C8.88266 30.6156 9.03164 30.5539 9.14156 30.4439L10.8488 28.7367H29.1512L30.8584 30.4439C30.9683 30.5539 31.1173 30.6156 31.2727 30.6156H33.7777C33.9865 30.6156 34.1796 30.5044 34.2845 30.3238C34.3893 30.1431 34.3901 29.9203 34.2864 29.7389L32.2823 26.2317H38.1615C39.1752 26.2317 39.9999 25.407 39.9999 24.3933V1.84792C40 0.834165 39.1752 0.00939941 38.1616 0.00939941ZM32.768 29.4436H31.5154L29.8082 27.7364C29.6984 27.6265 29.5493 27.5648 29.3939 27.5648H10.6061C10.4507 27.5648 10.3016 27.6265 10.1918 27.7364L8.48461 29.4436H7.23195L9.06734 26.2317H30.9327L32.768 29.4436ZM38.8281 22.5548H36.9086C36.585 22.5548 36.3227 22.8171 36.3227 23.1407C36.3227 23.4643 36.585 23.7267 36.9086 23.7267H38.8281V24.3932C38.8281 24.7608 38.5291 25.0599 38.1616 25.0599H1.83844C1.47086 25.0599 1.17188 24.7608 1.17188 24.3933V23.7267H34.404C34.7276 23.7267 34.9899 23.4644 34.9899 23.1408C34.9899 22.8172 34.7276 22.5549 34.404 22.5549H1.17188V1.84791C1.17188 1.48034 1.47094 1.18135 1.83844 1.18135H38.1616C38.5291 1.18135 38.8281 1.48041 38.8281 1.84791V22.5548Z" fill="url(#paint0_linear)"/>
<g opacity="0.130743">
<path fill-rule="evenodd" clip-rule="evenodd" d="M1.17188 1.18127H38.8281V22.5547L1.17188 22.5548V1.18127Z" fill="#102D63"/>
<path fill-rule="evenodd" clip-rule="evenodd" d="M1.17188 1.18127H38.8281V22.5547L1.17188 22.5548V1.18127Z" fill="url(#paint1_linear)"/>
</g>
<path fill-rule="evenodd" clip-rule="evenodd" d="M20.0132 15.0397C18.9995 15.0397 18.1748 15.8644 18.1748 16.8781C18.1748 17.8918 18.9996 18.7165 20.0132 18.7165C21.0269 18.7165 21.8517 17.8918 21.8517 16.8781C21.8517 15.8644 21.027 15.0397 20.0132 15.0397ZM20.0132 17.5448C19.6457 17.5448 19.3467 17.2457 19.3467 16.8782C19.3467 16.5107 19.6457 16.2116 20.0132 16.2116C20.3807 16.2116 20.6798 16.5107 20.6798 16.8782C20.6798 17.2457 20.3808 17.5448 20.0132 17.5448Z" fill="#102D63"/>
<path fill-rule="evenodd" clip-rule="evenodd" d="M20.0132 15.0397C18.9995 15.0397 18.1748 15.8644 18.1748 16.8781C18.1748 17.8918 18.9996 18.7165 20.0132 18.7165C21.0269 18.7165 21.8517 17.8918 21.8517 16.8781C21.8517 15.8644 21.027 15.0397 20.0132 15.0397ZM20.0132 17.5448C19.6457 17.5448 19.3467 17.2457 19.3467 16.8782C19.3467 16.5107 19.6457 16.2116 20.0132 16.2116C20.3807 16.2116 20.6798 16.5107 20.6798 16.8782C20.6798 17.2457 20.3808 17.5448 20.0132 17.5448Z" fill="url(#paint2_linear)"/>
<path fill-rule="evenodd" clip-rule="evenodd" d="M23.527 13.364C21.5893 11.4263 18.4363 11.4264 16.4988 13.364C16.2699 13.5929 16.2699 13.9639 16.4988 14.1926C16.7276 14.4215 17.0986 14.4215 17.3274 14.1926C18.8081 12.7119 21.2176 12.7119 22.6984 14.1926C22.8128 14.307 22.9628 14.3643 23.1127 14.3643C23.2626 14.3643 23.4126 14.3071 23.527 14.1926C23.7558 13.9638 23.7558 13.5928 23.527 13.364Z" fill="#102D63"/>
<path fill-rule="evenodd" clip-rule="evenodd" d="M23.527 13.364C21.5893 11.4263 18.4363 11.4264 16.4988 13.364C16.2699 13.5929 16.2699 13.9639 16.4988 14.1926C16.7276 14.4215 17.0986 14.4215 17.3274 14.1926C18.8081 12.7119 21.2176 12.7119 22.6984 14.1926C22.8128 14.307 22.9628 14.3643 23.1127 14.3643C23.2626 14.3643 23.4126 14.3071 23.527 14.1926C23.7558 13.9638 23.7558 13.5928 23.527 13.364Z" fill="url(#paint3_linear)"/>
<path fill-rule="evenodd" clip-rule="evenodd" d="M25.7415 11.1498C24.2114 9.61968 22.177 8.7771 20.0132 8.7771C17.8494 8.7771 15.815 9.61976 14.2849 11.1498C14.0561 11.3787 14.0561 11.7497 14.2849 11.9784C14.5137 12.2073 14.8847 12.2073 15.1135 11.9784C16.4222 10.6697 18.1623 9.9489 20.0132 9.9489C21.864 9.9489 23.6041 10.6697 24.9129 11.9784C25.0272 12.0928 25.1772 12.1501 25.3272 12.1501C25.4771 12.1501 25.6271 12.0929 25.7415 11.9784C25.9703 11.7496 25.9703 11.3786 25.7415 11.1498Z" fill="#102D63"/>
<path fill-rule="evenodd" clip-rule="evenodd" d="M25.7415 11.1498C24.2114 9.61968 22.177 8.7771 20.0132 8.7771C17.8494 8.7771 15.815 9.61976 14.2849 11.1498C14.0561 11.3787 14.0561 11.7497 14.2849 11.9784C14.5137 12.2073 14.8847 12.2073 15.1135 11.9784C16.4222 10.6697 18.1623 9.9489 20.0132 9.9489C21.864 9.9489 23.6041 10.6697 24.9129 11.9784C25.0272 12.0928 25.1772 12.1501 25.3272 12.1501C25.4771 12.1501 25.6271 12.0929 25.7415 11.9784C25.9703 11.7496 25.9703 11.3786 25.7415 11.1498Z" fill="url(#paint4_linear)"/>
<path fill-rule="evenodd" clip-rule="evenodd" d="M27.9554 8.93559C23.576 4.55614 16.4501 4.55614 12.0705 8.93559C11.8417 9.16442 11.8417 9.53543 12.0705 9.76418C12.2994 9.99301 12.6704 9.99301 12.8991 9.76418C16.8217 5.84161 23.2042 5.84161 27.1268 9.76418C27.2412 9.87856 27.3912 9.93583 27.5411 9.93583C27.691 9.93583 27.841 9.87864 27.9554 9.76418C28.1842 9.53536 28.1842 9.16442 27.9554 8.93559Z" fill="#102D63"/>
<path fill-rule="evenodd" clip-rule="evenodd" d="M27.9554 8.93559C23.576 4.55614 16.4501 4.55614 12.0705 8.93559C11.8417 9.16442 11.8417 9.53543 12.0705 9.76418C12.2994 9.99301 12.6704 9.99301 12.8991 9.76418C16.8217 5.84161 23.2042 5.84161 27.1268 9.76418C27.2412 9.87856 27.3912 9.93583 27.5411 9.93583C27.691 9.93583 27.841 9.87864 27.9554 9.76418C28.1842 9.53536 28.1842 9.16442 27.9554 8.93559Z" fill="url(#paint5_linear)"/>
<defs>
<linearGradient id="paint0_linear" x1="-20.2" y1="15.6185" x2="10.0102" y2="54.7138" gradientUnits="userSpaceOnUse">
<stop stop-color="#6C66FE"/>
<stop offset="1" stop-color="#935BF2"/>
</linearGradient>
<linearGradient id="paint1_linear" x1="-17.8445" y1="12.0817" x2="0.96839" y2="44.9018" gradientUnits="userSpaceOnUse">
<stop stop-color="#6C66FE"/>
<stop offset="1" stop-color="#935BF2"/>
</linearGradient>
<linearGradient id="paint2_linear" x1="16.318" y1="16.9149" x2="20.0684" y2="20.6285" gradientUnits="userSpaceOnUse">
<stop stop-color="#6C66FE"/>
<stop offset="1" stop-color="#935BF2"/>
</linearGradient>
<linearGradient id="paint3_linear" x1="12.6046" y1="13.1621" x2="14.1163" y2="17.6593" gradientUnits="userSpaceOnUse">
<stop stop-color="#6C66FE"/>
<stop offset="1" stop-color="#935BF2"/>
</linearGradient>
<linearGradient id="paint4_linear" x1="8.15438" y1="10.4973" x2="9.98803" y2="16.8492" gradientUnits="userSpaceOnUse">
<stop stop-color="#6C66FE"/>
<stop offset="1" stop-color="#935BF2"/>
</linearGradient>
<linearGradient id="paint5_linear" x1="3.70374" y1="7.83626" x2="5.87994" y2="15.9974" gradientUnits="userSpaceOnUse">
<stop stop-color="#6C66FE"/>
<stop offset="1" stop-color="#935BF2"/>
</linearGradient>
</defs>
</svg>
