<svg width="80" height="62" viewBox="0 0 80 62" fill="none" xmlns="http://www.w3.org/2000/svg">
<path fill-rule="evenodd" clip-rule="evenodd" d="M76.3231 0.0187988H3.67688C1.64953 0.0187988 0 1.66833 0 3.69583V48.7866C0 50.8141 1.64953 52.4635 3.67688 52.4635H15.4352L11.427 59.4779C11.2197 59.8405 11.2213 60.2861 11.4309 60.6475C11.6406 61.0088 12.0267 61.2311 12.4445 61.2311H17.4545C17.7653 61.2311 18.0633 61.1077 18.2831 60.8879L21.6975 57.4735H58.3023L61.7167 60.8879C61.9366 61.1077 62.2345 61.2311 62.5453 61.2311H67.5553C67.973 61.2311 68.3592 61.0088 68.5689 60.6475C68.7786 60.2861 68.7802 59.8405 68.5728 59.4779L64.5647 52.4635H76.323C78.3505 52.4635 79.9998 50.814 79.9998 48.7866V3.69583C80 1.66833 78.3505 0.0187988 76.3231 0.0187988ZM65.5361 58.8872H63.0308L59.6164 55.4729C59.3967 55.253 59.0986 55.1296 58.7878 55.1296H21.2122C20.9014 55.1296 20.6033 55.253 20.3836 55.4729L16.9692 58.8872H14.4639L18.1347 52.4633H61.8653L65.5361 58.8872ZM77.6562 45.1096H73.8172C73.17 45.1096 72.6453 45.6343 72.6453 46.2815C72.6453 46.9286 73.17 47.4533 73.8172 47.4533H77.6562V48.7865C77.6562 49.5216 77.0581 50.1197 76.3231 50.1197H3.67688C2.94172 50.1197 2.34375 49.5216 2.34375 48.7866V47.4535H68.808C69.4552 47.4535 69.9798 46.9288 69.9798 46.2816C69.9798 45.6344 69.4552 45.1097 68.808 45.1097H2.34375V3.69583C2.34375 2.96067 2.94187 2.3627 3.67688 2.3627H76.3231C77.0583 2.3627 77.6562 2.96083 77.6562 3.69583V45.1096Z" fill="#102D63"/>
<path fill-rule="evenodd" clip-rule="evenodd" d="M76.3231 0.0187988H3.67688C1.64953 0.0187988 0 1.66833 0 3.69583V48.7866C0 50.8141 1.64953 52.4635 3.67688 52.4635H15.4352L11.427 59.4779C11.2197 59.8405 11.2213 60.2861 11.4309 60.6475C11.6406 61.0088 12.0267 61.2311 12.4445 61.2311H17.4545C17.7653 61.2311 18.0633 61.1077 18.2831 60.8879L21.6975 57.4735H58.3023L61.7167 60.8879C61.9366 61.1077 62.2345 61.2311 62.5453 61.2311H67.5553C67.973 61.2311 68.3592 61.0088 68.5689 60.6475C68.7786 60.2861 68.7802 59.8405 68.5728 59.4779L64.5647 52.4635H76.323C78.3505 52.4635 79.9998 50.814 79.9998 48.7866V3.69583C80 1.66833 78.3505 0.0187988 76.3231 0.0187988ZM65.5361 58.8872H63.0308L59.6164 55.4729C59.3967 55.253 59.0986 55.1296 58.7878 55.1296H21.2122C20.9014 55.1296 20.6033 55.253 20.3836 55.4729L16.9692 58.8872H14.4639L18.1347 52.4633H61.8653L65.5361 58.8872ZM77.6562 45.1096H73.8172C73.17 45.1096 72.6453 45.6343 72.6453 46.2815C72.6453 46.9286 73.17 47.4533 73.8172 47.4533H77.6562V48.7865C77.6562 49.5216 77.0581 50.1197 76.3231 50.1197H3.67688C2.94172 50.1197 2.34375 49.5216 2.34375 48.7866V47.4535H68.808C69.4552 47.4535 69.9798 46.9288 69.9798 46.2816C69.9798 45.6344 69.4552 45.1097 68.808 45.1097H2.34375V3.69583C2.34375 2.96067 2.94187 2.3627 3.67688 2.3627H76.3231C77.0583 2.3627 77.6562 2.96083 77.6562 3.69583V45.1096Z" fill="url(#paint0_linear)"/>
<g opacity="0.130743">
<path fill-rule="evenodd" clip-rule="evenodd" d="M2.34375 2.36267H77.6562V45.1095L2.34375 45.1097V2.36267Z" fill="#102D63"/>
<path fill-rule="evenodd" clip-rule="evenodd" d="M2.34375 2.36267H77.6562V45.1095L2.34375 45.1097V2.36267Z" fill="url(#paint1_linear)"/>
</g>
<path fill-rule="evenodd" clip-rule="evenodd" d="M40.0261 30.0793C37.9986 30.0793 36.3492 31.7289 36.3492 33.7562C36.3492 35.7836 37.9988 37.4331 40.0261 37.4331C42.0535 37.4331 43.703 35.7836 43.703 33.7562C43.703 31.7289 42.0536 30.0793 40.0261 30.0793ZM40.0261 35.0895C39.291 35.0895 38.693 34.4914 38.693 33.7564C38.693 33.0214 39.2911 32.4233 40.0261 32.4233C40.7611 32.4233 41.3592 33.0214 41.3592 33.7564C41.3592 34.4914 40.7613 35.0895 40.0261 35.0895Z" fill="#102D63"/>
<path fill-rule="evenodd" clip-rule="evenodd" d="M40.0261 30.0793C37.9986 30.0793 36.3492 31.7289 36.3492 33.7562C36.3492 35.7836 37.9988 37.4331 40.0261 37.4331C42.0535 37.4331 43.703 35.7836 43.703 33.7562C43.703 31.7289 42.0536 30.0793 40.0261 30.0793ZM40.0261 35.0895C39.291 35.0895 38.693 34.4914 38.693 33.7564C38.693 33.0214 39.2911 32.4233 40.0261 32.4233C40.7611 32.4233 41.3592 33.0214 41.3592 33.7564C41.3592 34.4914 40.7613 35.0895 40.0261 35.0895Z" fill="url(#paint2_linear)"/>
<path fill-rule="evenodd" clip-rule="evenodd" d="M47.0542 26.728C43.1789 22.8525 36.8729 22.8526 32.9978 26.728C32.5401 27.1856 32.5401 27.9276 32.9978 28.3851C33.4554 28.8428 34.1975 28.8428 34.655 28.3851C37.6165 25.4236 42.4354 25.4236 45.397 28.3851C45.6258 28.6139 45.9258 28.7284 46.2256 28.7284C46.5254 28.7284 46.8254 28.614 47.0542 28.3851C47.5118 27.9275 47.5118 27.1855 47.0542 26.728Z" fill="#102D63"/>
<path fill-rule="evenodd" clip-rule="evenodd" d="M47.0542 26.728C43.1789 22.8525 36.8729 22.8526 32.9978 26.728C32.5401 27.1856 32.5401 27.9276 32.9978 28.3851C33.4554 28.8428 34.1975 28.8428 34.655 28.3851C37.6165 25.4236 42.4354 25.4236 45.397 28.3851C45.6258 28.6139 45.9258 28.7284 46.2256 28.7284C46.5254 28.7284 46.8254 28.614 47.0542 28.3851C47.5118 27.9275 47.5118 27.1855 47.0542 26.728Z" fill="url(#paint3_linear)"/>
<path fill-rule="evenodd" clip-rule="evenodd" d="M51.4827 22.2997C48.4225 19.2394 44.3538 17.5542 40.0261 17.5542C35.6985 17.5542 31.6297 19.2395 28.5696 22.2997C28.1119 22.7573 28.1119 23.4994 28.5696 23.9569C29.0272 24.4145 29.7692 24.4145 30.2267 23.9569C32.8442 21.3394 36.3244 19.8978 40.0261 19.8978C43.7278 19.8978 47.208 21.3394 49.8255 23.9569C50.0542 24.1856 50.3542 24.3001 50.6541 24.3001C50.9539 24.3001 51.2539 24.1858 51.4827 23.9569C51.9403 23.4992 51.9403 22.7572 51.4827 22.2997Z" fill="#102D63"/>
<path fill-rule="evenodd" clip-rule="evenodd" d="M51.4827 22.2997C48.4225 19.2394 44.3538 17.5542 40.0261 17.5542C35.6985 17.5542 31.6297 19.2395 28.5696 22.2997C28.1119 22.7573 28.1119 23.4994 28.5696 23.9569C29.0272 24.4145 29.7692 24.4145 30.2267 23.9569C32.8442 21.3394 36.3244 19.8978 40.0261 19.8978C43.7278 19.8978 47.208 21.3394 49.8255 23.9569C50.0542 24.1856 50.3542 24.3001 50.6541 24.3001C50.9539 24.3001 51.2539 24.1858 51.4827 23.9569C51.9403 23.4992 51.9403 22.7572 51.4827 22.2997Z" fill="url(#paint4_linear)"/>
<path fill-rule="evenodd" clip-rule="evenodd" d="M55.9108 17.8711C47.152 9.11215 32.9002 9.11215 24.1411 17.8711C23.6834 18.3287 23.6834 19.0707 24.1411 19.5282C24.5987 19.9859 25.3408 19.9859 25.7983 19.5282C33.6434 11.6831 46.4084 11.6831 54.2536 19.5282C54.4823 19.757 54.7823 19.8715 55.0822 19.8715C55.382 19.8715 55.682 19.7572 55.9108 19.5282C56.3684 19.0706 56.3684 18.3287 55.9108 17.8711Z" fill="#102D63"/>
<path fill-rule="evenodd" clip-rule="evenodd" d="M55.9108 17.8711C47.152 9.11215 32.9002 9.11215 24.1411 17.8711C23.6834 18.3287 23.6834 19.0707 24.1411 19.5282C24.5987 19.9859 25.3408 19.9859 25.7983 19.5282C33.6434 11.6831 46.4084 11.6831 54.2536 19.5282C54.4823 19.757 54.7823 19.8715 55.0822 19.8715C55.382 19.8715 55.682 19.7572 55.9108 19.5282C56.3684 19.0706 56.3684 18.3287 55.9108 17.8711Z" fill="url(#paint5_linear)"/>
<defs>
<linearGradient id="paint0_linear" x1="-40.3999" y1="31.2371" x2="20.0204" y2="109.428" gradientUnits="userSpaceOnUse">
<stop stop-color="#6C66FE"/>
<stop offset="1" stop-color="#935BF2"/>
</linearGradient>
<linearGradient id="paint1_linear" x1="-35.6891" y1="24.1636" x2="1.93678" y2="89.8038" gradientUnits="userSpaceOnUse">
<stop stop-color="#6C66FE"/>
<stop offset="1" stop-color="#935BF2"/>
</linearGradient>
<linearGradient id="paint2_linear" x1="32.6356" y1="33.8298" x2="40.1364" y2="41.257" gradientUnits="userSpaceOnUse">
<stop stop-color="#6C66FE"/>
<stop offset="1" stop-color="#935BF2"/>
</linearGradient>
<linearGradient id="paint3_linear" x1="25.2094" y1="26.324" x2="28.2328" y2="35.3185" gradientUnits="userSpaceOnUse">
<stop stop-color="#6C66FE"/>
<stop offset="1" stop-color="#935BF2"/>
</linearGradient>
<linearGradient id="paint4_linear" x1="16.3085" y1="20.9946" x2="19.9758" y2="33.6983" gradientUnits="userSpaceOnUse">
<stop stop-color="#6C66FE"/>
<stop offset="1" stop-color="#935BF2"/>
</linearGradient>
<linearGradient id="paint5_linear" x1="7.40748" y1="15.6724" x2="11.7599" y2="31.9948" gradientUnits="userSpaceOnUse">
<stop stop-color="#6C66FE"/>
<stop offset="1" stop-color="#935BF2"/>
</linearGradient>
</defs>
</svg>
