<svg width="70" height="70" viewBox="0 0 70 70" fill="none" xmlns="http://www.w3.org/2000/svg">
<path fill-rule="evenodd" clip-rule="evenodd" d="M60.8826 53.6457C60.7703 53.5334 60.6333 53.4488 60.4826 53.3985L56.3699 52.0275L44.3418 39.9994C43.942 39.5999 43.2941 39.5999 42.8944 39.9994C42.4947 40.3992 42.4947 41.0471 42.8944 41.4468L55.0934 53.6457C55.2058 53.758 55.3427 53.8426 55.4935 53.893L59.6061 55.2639L64.5008 60.1586L60.1589 64.5005L55.2644 59.6058L53.8933 55.4932C53.8431 55.3425 53.7585 55.2055 53.646 55.0931L39.2762 40.7232L44.7856 35.2138C46.1555 35.1338 50.7711 34.869 52.463 34.8261C57.2141 34.7059 61.5739 32.8965 64.7371 29.7334C67.2435 27.238 68.9103 24.095 69.5618 20.6383C70.1984 17.2621 69.8335 13.8088 68.5069 10.652C68.3748 10.3377 68.095 10.1098 67.7605 10.0443C67.4262 9.97856 67.081 10.0839 66.8397 10.3249L56.8098 20.3548L49.5735 13.1185L59.6284 3.06357C59.8687 2.82314 59.9739 2.47942 59.9095 2.14566C59.8451 1.81203 59.6191 1.53217 59.3066 1.39858C56.1562 0.0531625 52.7036 -0.330951 49.3223 0.287042C45.8586 0.920453 42.7034 2.57248 40.1961 5.06669C40.1809 5.08184 40.1662 5.09753 40.151 5.11281C40.1459 5.11786 40.1401 5.12209 40.1351 5.12728C40.1265 5.13587 40.1191 5.14515 40.1109 5.15402C37.0162 8.29488 35.2378 12.6165 35.1016 17.3395C35.0741 18.2957 34.9665 20.1807 34.8613 21.8944C34.6809 21.6751 34.4918 21.4657 34.2944 21.2682L15.6871 2.66131C15.6846 2.65885 14.721 1.69523 14.721 1.69523C13.6294 0.603474 12.173 0.00240215 10.6203 0.00240215C9.06749 0.00240215 7.61114 0.603474 6.51952 1.69523L1.69566 6.51991C-0.565219 8.78092 -0.565219 12.4601 1.69566 14.7212L21.2689 34.2943C21.9738 34.9991 22.8032 35.5969 23.6886 36.0486L2.10078 57.6367C-0.692256 60.4299 -0.692393 64.9744 2.10065 67.7674C3.45371 69.1206 5.2527 69.8658 7.1663 69.8658C9.07977 69.8658 10.8788 69.1206 12.2318 67.7676L37.8289 42.1705L52.028 56.3697L53.399 60.4824C53.4493 60.633 53.5339 60.77 53.6463 60.8825L59.435 66.6712C59.4358 66.672 62.33 69.5662 62.33 69.5662C62.522 69.758 62.7822 69.8658 63.0537 69.8658C63.3253 69.8658 63.5853 69.758 63.7775 69.5662L69.5667 63.7769C69.9664 63.3771 69.9664 62.7292 69.5667 62.3296L60.8826 53.6457ZM67.151 12.9083C68.7168 18.0033 67.538 23.5182 63.9932 27.5383L58.2572 21.8023L67.151 12.9083ZM57.0526 2.74468L48.1261 11.671L42.3292 5.87394C46.3767 2.30462 51.9349 1.13605 57.0526 2.74468ZM3.14301 7.96712L7.967 3.14244C8.67192 2.43753 9.61425 2.04919 10.6203 2.04919C11.6262 2.04919 12.5686 2.43753 13.2735 3.14258L13.5147 3.38383L3.38371 13.5147L3.14301 13.274C1.6801 11.811 1.6801 9.43016 3.14301 7.96712ZM22.7164 32.8471L4.83119 14.9621L14.9622 4.83104L32.8469 22.7157C33.5424 23.4111 34.1077 24.2996 34.4778 25.2596L25.235 34.5023C24.3126 34.1376 23.4339 33.5646 22.7164 32.8471ZM10.7843 66.3204C9.81798 67.2869 8.53301 67.819 7.16616 67.819C5.79919 67.819 4.51422 67.2869 3.54786 66.3202C1.55279 64.3253 1.55293 61.0791 3.548 59.0842L36.377 26.2549C36.5521 26.0797 36.6579 25.847 36.6745 25.5999C36.6913 25.3492 37.0886 19.4376 37.1475 17.3986C37.2581 13.5561 38.5787 10.0225 40.8887 7.32866L62.542 28.982C59.8268 31.3413 56.2693 32.6824 52.4111 32.7799C50.3899 32.831 44.5252 33.1786 44.2765 33.1933C44.0266 33.2081 43.7905 33.3141 43.6135 33.4912L37.1065 39.9982C37.1039 40.0009 10.7843 66.3204 10.7843 66.3204ZM63.0535 67.3952L61.6062 65.948L65.9482 61.6061L67.3954 63.0533L63.0535 67.3952Z" fill="#102D63"/>
<path fill-rule="evenodd" clip-rule="evenodd" d="M60.8826 53.6457C60.7703 53.5334 60.6333 53.4488 60.4826 53.3985L56.3699 52.0275L44.3418 39.9994C43.942 39.5999 43.2941 39.5999 42.8944 39.9994C42.4947 40.3992 42.4947 41.0471 42.8944 41.4468L55.0934 53.6457C55.2058 53.758 55.3427 53.8426 55.4935 53.893L59.6061 55.2639L64.5008 60.1586L60.1589 64.5005L55.2644 59.6058L53.8933 55.4932C53.8431 55.3425 53.7585 55.2055 53.646 55.0931L39.2762 40.7232L44.7856 35.2138C46.1555 35.1338 50.7711 34.869 52.463 34.8261C57.2141 34.7059 61.5739 32.8965 64.7371 29.7334C67.2435 27.238 68.9103 24.095 69.5618 20.6383C70.1984 17.2621 69.8335 13.8088 68.5069 10.652C68.3748 10.3377 68.095 10.1098 67.7605 10.0443C67.4262 9.97856 67.081 10.0839 66.8397 10.3249L56.8098 20.3548L49.5735 13.1185L59.6284 3.06357C59.8687 2.82314 59.9739 2.47942 59.9095 2.14566C59.8451 1.81203 59.6191 1.53217 59.3066 1.39858C56.1562 0.0531625 52.7036 -0.330951 49.3223 0.287042C45.8586 0.920453 42.7034 2.57248 40.1961 5.06669C40.1809 5.08184 40.1662 5.09753 40.151 5.11281C40.1459 5.11786 40.1401 5.12209 40.1351 5.12728C40.1265 5.13587 40.1191 5.14515 40.1109 5.15402C37.0162 8.29488 35.2378 12.6165 35.1016 17.3395C35.0741 18.2957 34.9665 20.1807 34.8613 21.8944C34.6809 21.6751 34.4918 21.4657 34.2944 21.2682L15.6871 2.66131C15.6846 2.65885 14.721 1.69523 14.721 1.69523C13.6294 0.603474 12.173 0.00240215 10.6203 0.00240215C9.06749 0.00240215 7.61114 0.603474 6.51952 1.69523L1.69566 6.51991C-0.565219 8.78092 -0.565219 12.4601 1.69566 14.7212L21.2689 34.2943C21.9738 34.9991 22.8032 35.5969 23.6886 36.0486L2.10078 57.6367C-0.692256 60.4299 -0.692393 64.9744 2.10065 67.7674C3.45371 69.1206 5.2527 69.8658 7.1663 69.8658C9.07977 69.8658 10.8788 69.1206 12.2318 67.7676L37.8289 42.1705L52.028 56.3697L53.399 60.4824C53.4493 60.633 53.5339 60.77 53.6463 60.8825L59.435 66.6712C59.4358 66.672 62.33 69.5662 62.33 69.5662C62.522 69.758 62.7822 69.8658 63.0537 69.8658C63.3253 69.8658 63.5853 69.758 63.7775 69.5662L69.5667 63.7769C69.9664 63.3771 69.9664 62.7292 69.5667 62.3296L60.8826 53.6457ZM67.151 12.9083C68.7168 18.0033 67.538 23.5182 63.9932 27.5383L58.2572 21.8023L67.151 12.9083ZM57.0526 2.74468L48.1261 11.671L42.3292 5.87394C46.3767 2.30462 51.9349 1.13605 57.0526 2.74468ZM3.14301 7.96712L7.967 3.14244C8.67192 2.43753 9.61425 2.04919 10.6203 2.04919C11.6262 2.04919 12.5686 2.43753 13.2735 3.14258L13.5147 3.38383L3.38371 13.5147L3.14301 13.274C1.6801 11.811 1.6801 9.43016 3.14301 7.96712ZM22.7164 32.8471L4.83119 14.9621L14.9622 4.83104L32.8469 22.7157C33.5424 23.4111 34.1077 24.2996 34.4778 25.2596L25.235 34.5023C24.3126 34.1376 23.4339 33.5646 22.7164 32.8471ZM10.7843 66.3204C9.81798 67.2869 8.53301 67.819 7.16616 67.819C5.79919 67.819 4.51422 67.2869 3.54786 66.3202C1.55279 64.3253 1.55293 61.0791 3.548 59.0842L36.377 26.2549C36.5521 26.0797 36.6579 25.847 36.6745 25.5999C36.6913 25.3492 37.0886 19.4376 37.1475 17.3986C37.2581 13.5561 38.5787 10.0225 40.8887 7.32866L62.542 28.982C59.8268 31.3413 56.2693 32.6824 52.4111 32.7799C50.3899 32.831 44.5252 33.1786 44.2765 33.1933C44.0266 33.2081 43.7905 33.3141 43.6135 33.4912L37.1065 39.9982C37.1039 40.0009 10.7843 66.3204 10.7843 66.3204ZM63.0535 67.3952L61.6062 65.948L65.9482 61.6061L67.3954 63.0533L63.0535 67.3952Z" fill="url(#paint0_linear)"/>
<path fill-rule="evenodd" clip-rule="evenodd" d="M4.99539 60.5312C3.79843 61.7281 3.79843 63.676 4.99526 64.8732C5.57518 65.4531 6.34613 65.7724 7.16635 65.7724C7.98656 65.7724 8.75752 65.453 9.3373 64.8732C10.5343 63.6761 10.5344 61.7283 9.33744 60.5312C8.14048 59.3343 6.19276 59.3343 4.99539 60.5312ZM7.88995 63.426C7.69674 63.6192 7.43966 63.7256 7.16635 63.7256C6.8929 63.7256 6.63582 63.6192 6.44261 63.426C6.04362 63.0269 6.04362 62.3775 6.44261 61.9786C6.64223 61.7792 6.90436 61.6794 7.16648 61.6794C7.42861 61.6794 7.6906 61.7792 7.89009 61.9786C8.08344 62.1719 8.18974 62.4288 8.18974 62.7023C8.18974 62.9757 8.08331 63.2326 7.88995 63.426Z" fill="#102D63"/>
<path fill-rule="evenodd" clip-rule="evenodd" d="M4.99539 60.5312C3.79843 61.7281 3.79843 63.676 4.99526 64.8732C5.57518 65.4531 6.34613 65.7724 7.16635 65.7724C7.98656 65.7724 8.75752 65.453 9.3373 64.8732C10.5343 63.6761 10.5344 61.7283 9.33744 60.5312C8.14048 59.3343 6.19276 59.3343 4.99539 60.5312ZM7.88995 63.426C7.69674 63.6192 7.43966 63.7256 7.16635 63.7256C6.8929 63.7256 6.63582 63.6192 6.44261 63.426C6.04362 63.0269 6.04362 62.3775 6.44261 61.9786C6.64223 61.7792 6.90436 61.6794 7.16648 61.6794C7.42861 61.6794 7.6906 61.7792 7.89009 61.9786C8.08344 62.1719 8.18974 62.4288 8.18974 62.7023C8.18974 62.9757 8.08331 63.2326 7.88995 63.426Z" fill="url(#paint1_linear)"/>
<path fill-rule="evenodd" clip-rule="evenodd" d="M43.0898 23.9413C43.0924 23.9439 45.9844 26.8359 45.9844 26.8359C45.987 26.8385 48.8803 29.7318 48.8803 29.7318C49.0802 29.9316 49.3422 30.0315 49.604 30.0315C49.8659 30.0315 50.1279 29.9316 50.3278 29.7318L54.6695 25.39C55.0692 24.9902 55.0692 24.3424 54.6695 23.9427L51.7762 21.0494C51.7736 21.0468 48.8817 18.1548 48.8817 18.1548C48.8791 18.1522 45.9857 15.2589 45.9857 15.2589C45.5859 14.8593 44.938 14.8593 44.5384 15.2589L40.1966 19.6007C39.7969 20.0005 39.7969 20.6483 40.1966 21.048L43.0898 23.9413ZM49.6039 21.7716L46.7093 24.6662L45.2623 23.2191L48.1568 20.3245L49.6039 21.7716ZM49.604 27.5607L48.1568 26.1135L51.0514 23.219L52.4986 24.6662L49.604 27.5607ZM45.262 17.4297L46.7092 18.8769L43.8148 21.7716L42.3676 20.3244L45.262 17.4297Z" fill="#102D63"/>
<path fill-rule="evenodd" clip-rule="evenodd" d="M43.0898 23.9413C43.0924 23.9439 45.9844 26.8359 45.9844 26.8359C45.987 26.8385 48.8803 29.7318 48.8803 29.7318C49.0802 29.9316 49.3422 30.0315 49.604 30.0315C49.8659 30.0315 50.1279 29.9316 50.3278 29.7318L54.6695 25.39C55.0692 24.9902 55.0692 24.3424 54.6695 23.9427L51.7762 21.0494C51.7736 21.0468 48.8817 18.1548 48.8817 18.1548C48.8791 18.1522 45.9857 15.2589 45.9857 15.2589C45.5859 14.8593 44.938 14.8593 44.5384 15.2589L40.1966 19.6007C39.7969 20.0005 39.7969 20.6483 40.1966 21.048L43.0898 23.9413ZM49.6039 21.7716L46.7093 24.6662L45.2623 23.2191L48.1568 20.3245L49.6039 21.7716ZM49.604 27.5607L48.1568 26.1135L51.0514 23.219L52.4986 24.6662L49.604 27.5607ZM45.262 17.4297L46.7092 18.8769L43.8148 21.7716L42.3676 20.3244L45.262 17.4297Z" fill="url(#paint2_linear)"/>
<path fill-rule="evenodd" clip-rule="evenodd" d="M42.1829 32.0606C42.5826 31.6608 42.5826 31.0129 42.1829 30.6133L39.2884 27.7187C38.8886 27.3192 38.2407 27.3192 37.841 27.7187L14.9004 50.6592C14.5007 51.059 14.5007 51.7069 14.9004 52.1066C15.3002 52.5061 15.9481 52.5061 16.3478 52.1066L38.5645 29.8897L40.0117 31.3369L12.9178 58.4308C12.7097 58.1507 12.4804 57.8856 12.2315 57.6366C11.994 57.3991 11.7414 57.1796 11.475 56.979L13.4529 55.0013C13.8527 54.6016 13.8527 53.9536 13.4531 53.554C13.0534 53.1545 12.4054 53.1542 12.0058 53.5539L9.11115 56.4485C8.87658 56.6829 8.77029 57.0164 8.82569 57.3433C8.88109 57.6701 9.09136 57.9498 9.39005 58.0939C9.90803 58.3439 10.3771 58.677 10.7842 59.0842C11.2021 59.5021 11.5416 59.9837 11.7928 60.5153C11.9352 60.8163 12.215 61.0294 12.5431 61.0865C12.6015 61.0966 12.6599 61.1015 12.7181 61.1015C12.9872 61.1015 13.2482 60.9953 13.4419 60.8018L42.1829 32.0606Z" fill="#102D63"/>
<path fill-rule="evenodd" clip-rule="evenodd" d="M42.1829 32.0606C42.5826 31.6608 42.5826 31.0129 42.1829 30.6133L39.2884 27.7187C38.8886 27.3192 38.2407 27.3192 37.841 27.7187L14.9004 50.6592C14.5007 51.059 14.5007 51.7069 14.9004 52.1066C15.3002 52.5061 15.9481 52.5061 16.3478 52.1066L38.5645 29.8897L40.0117 31.3369L12.9178 58.4308C12.7097 58.1507 12.4804 57.8856 12.2315 57.6366C11.994 57.3991 11.7414 57.1796 11.475 56.979L13.4529 55.0013C13.8527 54.6016 13.8527 53.9536 13.4531 53.554C13.0534 53.1545 12.4054 53.1542 12.0058 53.5539L9.11115 56.4485C8.87658 56.6829 8.77029 57.0164 8.82569 57.3433C8.88109 57.6701 9.09136 57.9498 9.39005 58.0939C9.90803 58.3439 10.3771 58.677 10.7842 59.0842C11.2021 59.5021 11.5416 59.9837 11.7928 60.5153C11.9352 60.8163 12.215 61.0294 12.5431 61.0865C12.6015 61.0966 12.6599 61.1015 12.7181 61.1015C12.9872 61.1015 13.2482 60.9953 13.4419 60.8018L42.1829 32.0606Z" fill="url(#paint3_linear)"/>
<g opacity="0.130743">
<path fill-rule="evenodd" clip-rule="evenodd" d="M4.09766 14.9592L14.9623 4.83105L34.4778 23.219L34.9333 25.3898L25.647 35L4.09766 14.9592Z" fill="#102D63"/>
<path fill-rule="evenodd" clip-rule="evenodd" d="M4.09766 14.9592L14.9623 4.83105L34.4778 23.219L34.9333 25.3898L25.647 35L4.09766 14.9592Z" fill="url(#paint4_linear)"/>
</g>
<defs>
<linearGradient id="paint0_linear" x1="-35.2826" y1="35.6316" x2="35.9805" y2="106.197" gradientUnits="userSpaceOnUse">
<stop stop-color="#6C66FE"/>
<stop offset="1" stop-color="#935BF2"/>
</linearGradient>
<linearGradient id="paint1_linear" x1="0.998252" y1="62.7644" x2="7.2599" y2="68.9632" gradientUnits="userSpaceOnUse">
<stop stop-color="#6C66FE"/>
<stop offset="1" stop-color="#935BF2"/>
</linearGradient>
<linearGradient id="paint2_linear" x1="32.2853" y1="22.6461" x2="47.659" y2="37.8692" gradientUnits="userSpaceOnUse">
<stop stop-color="#6C66FE"/>
<stop offset="1" stop-color="#935BF2"/>
</linearGradient>
<linearGradient id="paint3_linear" x1="-8.19278" y1="44.5971" x2="26.1632" y2="78.6051" gradientUnits="userSpaceOnUse">
<stop stop-color="#6C66FE"/>
<stop offset="1" stop-color="#935BF2"/>
</linearGradient>
<linearGradient id="paint4_linear" x1="-11.4744" y1="20.2172" x2="19.2973" y2="51.3605" gradientUnits="userSpaceOnUse">
<stop stop-color="#6C66FE"/>
<stop offset="1" stop-color="#935BF2"/>
</linearGradient>
</defs>
</svg>
