<svg width="90" height="83" viewBox="0 0 90 83" fill="none" xmlns="http://www.w3.org/2000/svg">
<g filter="url(#filter0_d)">
<path fill-rule="evenodd" clip-rule="evenodd" d="M23.8716 23.1393H23.8638C23.4593 23.1393 23.1353 23.4672 23.1353 23.8717C23.1353 24.2762 23.467 24.6041 23.8716 24.6041C24.2761 24.6041 24.604 24.2762 24.604 23.8717C24.604 23.4671 24.2761 23.1393 23.8716 23.1393Z" fill="#F03C53"/>
<path fill-rule="evenodd" clip-rule="evenodd" d="M23.8716 23.1393H23.8638C23.4593 23.1393 23.1353 23.4672 23.1353 23.8717C23.1353 24.2762 23.467 24.6041 23.8716 24.6041C24.2761 24.6041 24.604 24.2762 24.604 23.8717C24.604 23.4671 24.2761 23.1393 23.8716 23.1393Z" fill="url(#paint0_linear)"/>
</g>
<g filter="url(#filter1_d)">
<path fill-rule="evenodd" clip-rule="evenodd" d="M28.5685 23.1393H28.5607C28.1562 23.1393 27.8322 23.4672 27.8322 23.8717C27.8322 24.2762 28.164 24.6041 28.5685 24.6041C28.973 24.6041 29.3009 24.2762 29.3009 23.8717C29.3009 23.4671 28.973 23.1393 28.5685 23.1393Z" fill="#F03C53"/>
<path fill-rule="evenodd" clip-rule="evenodd" d="M28.5685 23.1393H28.5607C28.1562 23.1393 27.8322 23.4672 27.8322 23.8717C27.8322 24.2762 28.164 24.6041 28.5685 24.6041C28.973 24.6041 29.3009 24.2762 29.3009 23.8717C29.3009 23.4671 28.973 23.1393 28.5685 23.1393Z" fill="url(#paint1_linear)"/>
</g>
<g filter="url(#filter2_d)">
<path fill-rule="evenodd" clip-rule="evenodd" d="M26.22 23.1393H26.2122C25.8077 23.1393 25.4836 23.4672 25.4836 23.8717C25.4836 24.2762 25.8155 24.6041 26.22 24.6041C26.6245 24.6041 26.9524 24.2762 26.9524 23.8717C26.9524 23.4671 26.6245 23.1393 26.22 23.1393Z" fill="#F03C53"/>
<path fill-rule="evenodd" clip-rule="evenodd" d="M26.22 23.1393H26.2122C25.8077 23.1393 25.4836 23.4672 25.4836 23.8717C25.4836 24.2762 25.8155 24.6041 26.22 24.6041C26.6245 24.6041 26.9524 24.2762 26.9524 23.8717C26.9524 23.4671 26.6245 23.1393 26.22 23.1393Z" fill="url(#paint2_linear)"/>
</g>
<g filter="url(#filter3_d)">
<path fill-rule="evenodd" clip-rule="evenodd" d="M58.308 23.1393H55.1766C54.7721 23.1393 54.4442 23.4672 54.4442 23.8717C54.4442 24.2762 54.7721 24.6041 55.1766 24.6041H58.308C58.7125 24.6041 59.0404 24.2762 59.0404 23.8717C59.0404 23.4671 58.7125 23.1393 58.308 23.1393Z" fill="#F03C53"/>
<path fill-rule="evenodd" clip-rule="evenodd" d="M58.308 23.1393H55.1766C54.7721 23.1393 54.4442 23.4672 54.4442 23.8717C54.4442 24.2762 54.7721 24.6041 55.1766 24.6041H58.308C58.7125 24.6041 59.0404 24.2762 59.0404 23.8717C59.0404 23.4671 58.7125 23.1393 58.308 23.1393Z" fill="url(#paint3_linear)"/>
</g>
<g filter="url(#filter4_d)">
<path fill-rule="evenodd" clip-rule="evenodd" d="M52.0454 23.1393H31.692C31.2875 23.1393 30.9596 23.4672 30.9596 23.8717C30.9596 24.2762 31.2874 24.6041 31.692 24.6041H52.0454C52.4499 24.6041 52.7779 24.2762 52.7779 23.8717C52.7779 23.4671 52.4499 23.1393 52.0454 23.1393Z" fill="#F03C53"/>
<path fill-rule="evenodd" clip-rule="evenodd" d="M52.0454 23.1393H31.692C31.2875 23.1393 30.9596 23.4672 30.9596 23.8717C30.9596 24.2762 31.2874 24.6041 31.692 24.6041H52.0454C52.4499 24.6041 52.7779 24.2762 52.7779 23.8717C52.7779 23.4671 52.4499 23.1393 52.0454 23.1393Z" fill="url(#paint4_linear)"/>
</g>
<g filter="url(#filter5_d)">
<path fill-rule="evenodd" clip-rule="evenodd" d="M62.1718 36.8279V23.0888C62.1718 21.3899 60.7897 20.0078 59.0909 20.0078H23.0809C21.382 20.008 20 21.3899 20 23.0888V52.8361C20 54.535 21.382 55.917 23.0809 55.917H45.4854C47.8284 59.6739 51.9979 62.1796 56.7424 62.1796C64.0526 62.1797 70 56.2323 70 48.9221C70 43.5452 66.7824 38.906 62.1718 36.8279ZM21.4648 23.0888C21.4648 22.1977 22.1897 21.4728 23.0809 21.4728H59.0908C59.9819 21.4728 60.7068 22.1978 60.7068 23.0889V26.2706H21.4648V23.0888ZM32.5252 54.4521H23.0809C22.1897 54.4521 21.4648 53.7272 21.4648 52.8361V33.9979H32.5252V54.4521ZM33.99 54.4522V33.9979H52.046C52.4505 33.9979 52.7784 33.67 52.7784 33.2655C52.7784 32.861 52.4505 32.5331 52.046 32.5331H21.4648V27.7354H60.7069V32.5331H55.1771C54.7726 32.5331 54.4446 32.861 54.4446 33.2655C54.4446 33.67 54.7726 33.9979 55.1771 33.9979H60.7069V36.2701C59.4546 35.8769 58.1229 35.6645 56.7424 35.6645C49.4321 35.6645 43.4848 41.6118 43.4848 48.9221C43.4848 50.8948 43.9186 52.7681 44.6947 54.4522H33.99ZM56.7424 60.7148C50.2398 60.7148 44.9496 55.4246 44.9496 48.9221C44.9496 42.4195 50.2398 37.1293 56.7424 37.1293C63.2449 37.1293 68.5352 42.4195 68.5352 48.9221C68.5352 55.4246 63.2449 60.7148 56.7424 60.7148Z" fill="#F03C53"/>
<path fill-rule="evenodd" clip-rule="evenodd" d="M62.1718 36.8279V23.0888C62.1718 21.3899 60.7897 20.0078 59.0909 20.0078H23.0809C21.382 20.008 20 21.3899 20 23.0888V52.8361C20 54.535 21.382 55.917 23.0809 55.917H45.4854C47.8284 59.6739 51.9979 62.1796 56.7424 62.1796C64.0526 62.1797 70 56.2323 70 48.9221C70 43.5452 66.7824 38.906 62.1718 36.8279ZM21.4648 23.0888C21.4648 22.1977 22.1897 21.4728 23.0809 21.4728H59.0908C59.9819 21.4728 60.7068 22.1978 60.7068 23.0889V26.2706H21.4648V23.0888ZM32.5252 54.4521H23.0809C22.1897 54.4521 21.4648 53.7272 21.4648 52.8361V33.9979H32.5252V54.4521ZM33.99 54.4522V33.9979H52.046C52.4505 33.9979 52.7784 33.67 52.7784 33.2655C52.7784 32.861 52.4505 32.5331 52.046 32.5331H21.4648V27.7354H60.7069V32.5331H55.1771C54.7726 32.5331 54.4446 32.861 54.4446 33.2655C54.4446 33.67 54.7726 33.9979 55.1771 33.9979H60.7069V36.2701C59.4546 35.8769 58.1229 35.6645 56.7424 35.6645C49.4321 35.6645 43.4848 41.6118 43.4848 48.9221C43.4848 50.8948 43.9186 52.7681 44.6947 54.4522H33.99ZM56.7424 60.7148C50.2398 60.7148 44.9496 55.4246 44.9496 48.9221C44.9496 42.4195 50.2398 37.1293 56.7424 37.1293C63.2449 37.1293 68.5352 42.4195 68.5352 48.9221C68.5352 55.4246 63.2449 60.7148 56.7424 60.7148Z" fill="url(#paint5_linear)"/>
</g>
<g filter="url(#filter6_d)">
<path fill-rule="evenodd" clip-rule="evenodd" d="M63.5229 42.1416C63.2369 41.8556 62.7731 41.8556 62.4871 42.1416L57.7642 46.8645C57.4562 46.7109 57.1093 46.624 56.7424 46.624C55.4752 46.624 54.4443 47.655 54.4443 48.9221C54.4443 50.1891 55.4753 51.2201 56.7424 51.2201C58.0096 51.2201 59.0405 50.1891 59.0405 48.9221C59.0405 48.5552 58.9536 48.2083 58.8 47.9003L63.5229 43.1773C63.809 42.8913 63.809 42.4275 63.5229 42.1416ZM56.7424 49.7553C56.2829 49.7553 55.9092 49.3814 55.9092 48.9221C55.9092 48.4627 56.283 48.0889 56.7424 48.0889C57.2019 48.0889 57.5757 48.4627 57.5757 48.9221C57.5757 49.3814 57.2019 49.7553 56.7424 49.7553Z" fill="#F03C53"/>
<path fill-rule="evenodd" clip-rule="evenodd" d="M63.5229 42.1416C63.2369 41.8556 62.7731 41.8556 62.4871 42.1416L57.7642 46.8645C57.4562 46.7109 57.1093 46.624 56.7424 46.624C55.4752 46.624 54.4443 47.655 54.4443 48.9221C54.4443 50.1891 55.4753 51.2201 56.7424 51.2201C58.0096 51.2201 59.0405 50.1891 59.0405 48.9221C59.0405 48.5552 58.9536 48.2083 58.8 47.9003L63.5229 43.1773C63.809 42.8913 63.809 42.4275 63.5229 42.1416ZM56.7424 49.7553C56.2829 49.7553 55.9092 49.3814 55.9092 48.9221C55.9092 48.4627 56.283 48.0889 56.7424 48.0889C57.2019 48.0889 57.5757 48.4627 57.5757 48.9221C57.5757 49.3814 57.2019 49.7553 56.7424 49.7553Z" fill="url(#paint6_linear)"/>
</g>
<g filter="url(#filter7_d)">
<path fill-rule="evenodd" clip-rule="evenodd" d="M26.995 29.4017H23.8636C23.4592 29.4017 23.1312 29.7297 23.1312 30.1342C23.1312 30.5386 23.4592 30.8666 23.8636 30.8666H26.9949C27.3994 30.8666 27.7273 30.5386 27.7273 30.1342C27.7273 29.7298 27.3995 29.4017 26.995 29.4017Z" fill="#F03C53"/>
<path fill-rule="evenodd" clip-rule="evenodd" d="M26.995 29.4017H23.8636C23.4592 29.4017 23.1312 29.7297 23.1312 30.1342C23.1312 30.5386 23.4592 30.8666 23.8636 30.8666H26.9949C27.3994 30.8666 27.7273 30.5386 27.7273 30.1342C27.7273 29.7298 27.3995 29.4017 26.995 29.4017Z" fill="url(#paint7_linear)"/>
</g>
<g filter="url(#filter8_d)">
<path fill-rule="evenodd" clip-rule="evenodd" d="M37.9545 29.4017H30.1262C29.7217 29.4017 29.3938 29.7297 29.3938 30.1342C29.3938 30.5386 29.7217 30.8666 30.1262 30.8666H37.9545C38.359 30.8666 38.687 30.5386 38.687 30.1342C38.687 29.7298 38.359 29.4017 37.9545 29.4017Z" fill="#F03C53"/>
<path fill-rule="evenodd" clip-rule="evenodd" d="M37.9545 29.4017H30.1262C29.7217 29.4017 29.3938 29.7297 29.3938 30.1342C29.3938 30.5386 29.7217 30.8666 30.1262 30.8666H37.9545C38.359 30.8666 38.687 30.5386 38.687 30.1342C38.687 29.7298 38.359 29.4017 37.9545 29.4017Z" fill="url(#paint8_linear)"/>
</g>
<g filter="url(#filter9_d)">
<path fill-rule="evenodd" clip-rule="evenodd" d="M30.1262 35.6644H23.8636C23.4592 35.6644 23.1312 35.9924 23.1312 36.3969C23.1312 36.8013 23.4592 37.1293 23.8636 37.1293H30.1262C30.5307 37.1293 30.8587 36.8013 30.8587 36.3969C30.8587 35.9923 30.5307 35.6644 30.1262 35.6644Z" fill="#F03C53"/>
<path fill-rule="evenodd" clip-rule="evenodd" d="M30.1262 35.6644H23.8636C23.4592 35.6644 23.1312 35.9924 23.1312 36.3969C23.1312 36.8013 23.4592 37.1293 23.8636 37.1293H30.1262C30.5307 37.1293 30.8587 36.8013 30.8587 36.3969C30.8587 35.9923 30.5307 35.6644 30.1262 35.6644Z" fill="url(#paint9_linear)"/>
</g>
<g filter="url(#filter10_d)">
<path fill-rule="evenodd" clip-rule="evenodd" d="M30.1262 38.7958H23.8636C23.4592 38.7958 23.1312 39.1237 23.1312 39.5282C23.1312 39.9327 23.4592 40.2606 23.8636 40.2606H30.1262C30.5307 40.2606 30.8587 39.9327 30.8587 39.5282C30.8587 39.1236 30.5307 38.7958 30.1262 38.7958Z" fill="#F03C53"/>
<path fill-rule="evenodd" clip-rule="evenodd" d="M30.1262 38.7958H23.8636C23.4592 38.7958 23.1312 39.1237 23.1312 39.5282C23.1312 39.9327 23.4592 40.2606 23.8636 40.2606H30.1262C30.5307 40.2606 30.8587 39.9327 30.8587 39.5282C30.8587 39.1236 30.5307 38.7958 30.1262 38.7958Z" fill="url(#paint10_linear)"/>
</g>
<g filter="url(#filter11_d)">
<path fill-rule="evenodd" clip-rule="evenodd" d="M30.1262 41.9271H26.2122C25.8077 41.9271 25.4797 42.255 25.4797 42.6595C25.4797 43.064 25.8077 43.3919 26.2122 43.3919H30.1263C30.5308 43.3919 30.8587 43.064 30.8587 42.6595C30.8587 42.255 30.5307 41.9271 30.1262 41.9271Z" fill="#F03C53"/>
<path fill-rule="evenodd" clip-rule="evenodd" d="M30.1262 41.9271H26.2122C25.8077 41.9271 25.4797 42.255 25.4797 42.6595C25.4797 43.064 25.8077 43.3919 26.2122 43.3919H30.1263C30.5308 43.3919 30.8587 43.064 30.8587 42.6595C30.8587 42.255 30.5307 41.9271 30.1262 41.9271Z" fill="url(#paint11_linear)"/>
</g>
<g filter="url(#filter12_d)">
<path fill-rule="evenodd" clip-rule="evenodd" d="M30.1262 45.0584H26.2122C25.8077 45.0584 25.4797 45.3863 25.4797 45.7908C25.4797 46.1953 25.8077 46.5233 26.2122 46.5233H30.1263C30.5308 46.5233 30.8587 46.1953 30.8587 45.7908C30.8587 45.3862 30.5307 45.0584 30.1262 45.0584Z" fill="#F03C53"/>
<path fill-rule="evenodd" clip-rule="evenodd" d="M30.1262 45.0584H26.2122C25.8077 45.0584 25.4797 45.3863 25.4797 45.7908C25.4797 46.1953 25.8077 46.5233 26.2122 46.5233H30.1263C30.5308 46.5233 30.8587 46.1953 30.8587 45.7908C30.8587 45.3862 30.5307 45.0584 30.1262 45.0584Z" fill="url(#paint12_linear)"/>
</g>
<g filter="url(#filter13_d)">
<path fill-rule="evenodd" clip-rule="evenodd" d="M45.7828 35.6644H37.1718C36.7673 35.6644 36.4393 35.9924 36.4393 36.3969C36.4393 36.8013 36.7673 37.1293 37.1718 37.1293H45.7828C46.1873 37.1293 46.5152 36.8013 46.5152 36.3969C46.5152 35.9923 46.1873 35.6644 45.7828 35.6644Z" fill="#F03C53"/>
<path fill-rule="evenodd" clip-rule="evenodd" d="M45.7828 35.6644H37.1718C36.7673 35.6644 36.4393 35.9924 36.4393 36.3969C36.4393 36.8013 36.7673 37.1293 37.1718 37.1293H45.7828C46.1873 37.1293 46.5152 36.8013 46.5152 36.3969C46.5152 35.9923 46.1873 35.6644 45.7828 35.6644Z" fill="url(#paint13_linear)"/>
</g>
<g filter="url(#filter14_d)">
<path fill-rule="evenodd" clip-rule="evenodd" d="M43.4344 38.7958H37.1718C36.7673 38.7958 36.4393 39.1237 36.4393 39.5282C36.4393 39.9327 36.7673 40.2606 37.1718 40.2606H43.4344C43.8388 40.2606 44.1668 39.9327 44.1668 39.5282C44.1668 39.1236 43.8388 38.7958 43.4344 38.7958Z" fill="#F03C53"/>
<path fill-rule="evenodd" clip-rule="evenodd" d="M43.4344 38.7958H37.1718C36.7673 38.7958 36.4393 39.1237 36.4393 39.5282C36.4393 39.9327 36.7673 40.2606 37.1718 40.2606H43.4344C43.8388 40.2606 44.1668 39.9327 44.1668 39.5282C44.1668 39.1236 43.8388 38.7958 43.4344 38.7958Z" fill="url(#paint14_linear)"/>
</g>
<g filter="url(#filter15_d)">
<path fill-rule="evenodd" clip-rule="evenodd" d="M41.8687 41.9271H37.1718C36.7673 41.9271 36.4393 42.255 36.4393 42.6595C36.4393 43.064 36.7673 43.3919 37.1718 43.3919H41.8687C42.2732 43.3919 42.6011 43.064 42.6011 42.6595C42.6011 42.255 42.2732 41.9271 41.8687 41.9271Z" fill="#F03C53"/>
<path fill-rule="evenodd" clip-rule="evenodd" d="M41.8687 41.9271H37.1718C36.7673 41.9271 36.4393 42.255 36.4393 42.6595C36.4393 43.064 36.7673 43.3919 37.1718 43.3919H41.8687C42.2732 43.3919 42.6011 43.064 42.6011 42.6595C42.6011 42.255 42.2732 41.9271 41.8687 41.9271Z" fill="url(#paint15_linear)"/>
</g>
<g filter="url(#filter16_d)">
<path fill-rule="evenodd" clip-rule="evenodd" d="M40.303 45.0584H37.1718C36.7673 45.0584 36.4393 45.3863 36.4393 45.7908C36.4393 46.1953 36.7673 46.5233 37.1718 46.5233H40.303C40.7075 46.5233 41.0354 46.1953 41.0354 45.7908C41.0354 45.3862 40.7075 45.0584 40.303 45.0584Z" fill="#F03C53"/>
<path fill-rule="evenodd" clip-rule="evenodd" d="M40.303 45.0584H37.1718C36.7673 45.0584 36.4393 45.3863 36.4393 45.7908C36.4393 46.1953 36.7673 46.5233 37.1718 46.5233H40.303C40.7075 46.5233 41.0354 46.1953 41.0354 45.7908C41.0354 45.3862 40.7075 45.0584 40.303 45.0584Z" fill="url(#paint16_linear)"/>
</g>
<defs>
<filter id="filter0_d" x="3.13525" y="3.13928" width="41.4688" height="41.4648" filterUnits="userSpaceOnUse" color-interpolation-filters="sRGB">
<feFlood flood-opacity="0" result="BackgroundImageFix"/>
<feColorMatrix in="SourceAlpha" type="matrix" values="0 0 0 0 0 0 0 0 0 0 0 0 0 0 0 0 0 0 127 0"/>
<feOffset/>
<feGaussianBlur stdDeviation="10"/>
<feColorMatrix type="matrix" values="0 0 0 0 0.290816 0 0 0 0 0.345804 0 0 0 0 0.59075 0 0 0 1 0"/>
<feBlend mode="normal" in2="BackgroundImageFix" result="effect1_dropShadow"/>
<feBlend mode="normal" in="SourceGraphic" in2="effect1_dropShadow" result="shape"/>
</filter>
<filter id="filter1_d" x="7.83215" y="3.13928" width="41.4688" height="41.4648" filterUnits="userSpaceOnUse" color-interpolation-filters="sRGB">
<feFlood flood-opacity="0" result="BackgroundImageFix"/>
<feColorMatrix in="SourceAlpha" type="matrix" values="0 0 0 0 0 0 0 0 0 0 0 0 0 0 0 0 0 0 127 0"/>
<feOffset/>
<feGaussianBlur stdDeviation="10"/>
<feColorMatrix type="matrix" values="0 0 0 0 0.290816 0 0 0 0 0.345804 0 0 0 0 0.59075 0 0 0 1 0"/>
<feBlend mode="normal" in2="BackgroundImageFix" result="effect1_dropShadow"/>
<feBlend mode="normal" in="SourceGraphic" in2="effect1_dropShadow" result="shape"/>
</filter>
<filter id="filter2_d" x="5.48364" y="3.13928" width="41.4688" height="41.4648" filterUnits="userSpaceOnUse" color-interpolation-filters="sRGB">
<feFlood flood-opacity="0" result="BackgroundImageFix"/>
<feColorMatrix in="SourceAlpha" type="matrix" values="0 0 0 0 0 0 0 0 0 0 0 0 0 0 0 0 0 0 127 0"/>
<feOffset/>
<feGaussianBlur stdDeviation="10"/>
<feColorMatrix type="matrix" values="0 0 0 0 0.290816 0 0 0 0 0.345804 0 0 0 0 0.59075 0 0 0 1 0"/>
<feBlend mode="normal" in2="BackgroundImageFix" result="effect1_dropShadow"/>
<feBlend mode="normal" in="SourceGraphic" in2="effect1_dropShadow" result="shape"/>
</filter>
<filter id="filter3_d" x="34.4442" y="3.13928" width="44.5962" height="41.4648" filterUnits="userSpaceOnUse" color-interpolation-filters="sRGB">
<feFlood flood-opacity="0" result="BackgroundImageFix"/>
<feColorMatrix in="SourceAlpha" type="matrix" values="0 0 0 0 0 0 0 0 0 0 0 0 0 0 0 0 0 0 127 0"/>
<feOffset/>
<feGaussianBlur stdDeviation="10"/>
<feColorMatrix type="matrix" values="0 0 0 0 0.290816 0 0 0 0 0.345804 0 0 0 0 0.59075 0 0 0 1 0"/>
<feBlend mode="normal" in2="BackgroundImageFix" result="effect1_dropShadow"/>
<feBlend mode="normal" in="SourceGraphic" in2="effect1_dropShadow" result="shape"/>
</filter>
<filter id="filter4_d" x="10.9596" y="3.13928" width="61.8183" height="41.4648" filterUnits="userSpaceOnUse" color-interpolation-filters="sRGB">
<feFlood flood-opacity="0" result="BackgroundImageFix"/>
<feColorMatrix in="SourceAlpha" type="matrix" values="0 0 0 0 0 0 0 0 0 0 0 0 0 0 0 0 0 0 127 0"/>
<feOffset/>
<feGaussianBlur stdDeviation="10"/>
<feColorMatrix type="matrix" values="0 0 0 0 0.290816 0 0 0 0 0.345804 0 0 0 0 0.59075 0 0 0 1 0"/>
<feBlend mode="normal" in2="BackgroundImageFix" result="effect1_dropShadow"/>
<feBlend mode="normal" in="SourceGraphic" in2="effect1_dropShadow" result="shape"/>
</filter>
<filter id="filter5_d" x="0" y="0.0078125" width="90" height="82.1718" filterUnits="userSpaceOnUse" color-interpolation-filters="sRGB">
<feFlood flood-opacity="0" result="BackgroundImageFix"/>
<feColorMatrix in="SourceAlpha" type="matrix" values="0 0 0 0 0 0 0 0 0 0 0 0 0 0 0 0 0 0 127 0"/>
<feOffset/>
<feGaussianBlur stdDeviation="10"/>
<feColorMatrix type="matrix" values="0 0 0 0 0.290816 0 0 0 0 0.345804 0 0 0 0 0.59075 0 0 0 1 0"/>
<feBlend mode="normal" in2="BackgroundImageFix" result="effect1_dropShadow"/>
<feBlend mode="normal" in="SourceGraphic" in2="effect1_dropShadow" result="shape"/>
</filter>
<filter id="filter6_d" x="34.4443" y="21.9271" width="49.2931" height="49.293" filterUnits="userSpaceOnUse" color-interpolation-filters="sRGB">
<feFlood flood-opacity="0" result="BackgroundImageFix"/>
<feColorMatrix in="SourceAlpha" type="matrix" values="0 0 0 0 0 0 0 0 0 0 0 0 0 0 0 0 0 0 127 0"/>
<feOffset/>
<feGaussianBlur stdDeviation="10"/>
<feColorMatrix type="matrix" values="0 0 0 0 0.290816 0 0 0 0 0.345804 0 0 0 0 0.59075 0 0 0 1 0"/>
<feBlend mode="normal" in2="BackgroundImageFix" result="effect1_dropShadow"/>
<feBlend mode="normal" in="SourceGraphic" in2="effect1_dropShadow" result="shape"/>
</filter>
<filter id="filter7_d" x="3.13123" y="9.40173" width="44.5961" height="41.4648" filterUnits="userSpaceOnUse" color-interpolation-filters="sRGB">
<feFlood flood-opacity="0" result="BackgroundImageFix"/>
<feColorMatrix in="SourceAlpha" type="matrix" values="0 0 0 0 0 0 0 0 0 0 0 0 0 0 0 0 0 0 127 0"/>
<feOffset/>
<feGaussianBlur stdDeviation="10"/>
<feColorMatrix type="matrix" values="0 0 0 0 0.290816 0 0 0 0 0.345804 0 0 0 0 0.59075 0 0 0 1 0"/>
<feBlend mode="normal" in2="BackgroundImageFix" result="effect1_dropShadow"/>
<feBlend mode="normal" in="SourceGraphic" in2="effect1_dropShadow" result="shape"/>
</filter>
<filter id="filter8_d" x="9.3938" y="9.40173" width="49.2932" height="41.4648" filterUnits="userSpaceOnUse" color-interpolation-filters="sRGB">
<feFlood flood-opacity="0" result="BackgroundImageFix"/>
<feColorMatrix in="SourceAlpha" type="matrix" values="0 0 0 0 0 0 0 0 0 0 0 0 0 0 0 0 0 0 127 0"/>
<feOffset/>
<feGaussianBlur stdDeviation="10"/>
<feColorMatrix type="matrix" values="0 0 0 0 0.290816 0 0 0 0 0.345804 0 0 0 0 0.59075 0 0 0 1 0"/>
<feBlend mode="normal" in2="BackgroundImageFix" result="effect1_dropShadow"/>
<feBlend mode="normal" in="SourceGraphic" in2="effect1_dropShadow" result="shape"/>
</filter>
<filter id="filter9_d" x="3.13123" y="15.6644" width="47.7274" height="41.4648" filterUnits="userSpaceOnUse" color-interpolation-filters="sRGB">
<feFlood flood-opacity="0" result="BackgroundImageFix"/>
<feColorMatrix in="SourceAlpha" type="matrix" values="0 0 0 0 0 0 0 0 0 0 0 0 0 0 0 0 0 0 127 0"/>
<feOffset/>
<feGaussianBlur stdDeviation="10"/>
<feColorMatrix type="matrix" values="0 0 0 0 0.290816 0 0 0 0 0.345804 0 0 0 0 0.59075 0 0 0 1 0"/>
<feBlend mode="normal" in2="BackgroundImageFix" result="effect1_dropShadow"/>
<feBlend mode="normal" in="SourceGraphic" in2="effect1_dropShadow" result="shape"/>
</filter>
<filter id="filter10_d" x="3.13123" y="18.7958" width="47.7274" height="41.4648" filterUnits="userSpaceOnUse" color-interpolation-filters="sRGB">
<feFlood flood-opacity="0" result="BackgroundImageFix"/>
<feColorMatrix in="SourceAlpha" type="matrix" values="0 0 0 0 0 0 0 0 0 0 0 0 0 0 0 0 0 0 127 0"/>
<feOffset/>
<feGaussianBlur stdDeviation="10"/>
<feColorMatrix type="matrix" values="0 0 0 0 0.290816 0 0 0 0 0.345804 0 0 0 0 0.59075 0 0 0 1 0"/>
<feBlend mode="normal" in2="BackgroundImageFix" result="effect1_dropShadow"/>
<feBlend mode="normal" in="SourceGraphic" in2="effect1_dropShadow" result="shape"/>
</filter>
<filter id="filter11_d" x="5.47974" y="21.9271" width="45.379" height="41.4648" filterUnits="userSpaceOnUse" color-interpolation-filters="sRGB">
<feFlood flood-opacity="0" result="BackgroundImageFix"/>
<feColorMatrix in="SourceAlpha" type="matrix" values="0 0 0 0 0 0 0 0 0 0 0 0 0 0 0 0 0 0 127 0"/>
<feOffset/>
<feGaussianBlur stdDeviation="10"/>
<feColorMatrix type="matrix" values="0 0 0 0 0.290816 0 0 0 0 0.345804 0 0 0 0 0.59075 0 0 0 1 0"/>
<feBlend mode="normal" in2="BackgroundImageFix" result="effect1_dropShadow"/>
<feBlend mode="normal" in="SourceGraphic" in2="effect1_dropShadow" result="shape"/>
</filter>
<filter id="filter12_d" x="5.47974" y="25.0584" width="45.379" height="41.4648" filterUnits="userSpaceOnUse" color-interpolation-filters="sRGB">
<feFlood flood-opacity="0" result="BackgroundImageFix"/>
<feColorMatrix in="SourceAlpha" type="matrix" values="0 0 0 0 0 0 0 0 0 0 0 0 0 0 0 0 0 0 127 0"/>
<feOffset/>
<feGaussianBlur stdDeviation="10"/>
<feColorMatrix type="matrix" values="0 0 0 0 0.290816 0 0 0 0 0.345804 0 0 0 0 0.59075 0 0 0 1 0"/>
<feBlend mode="normal" in2="BackgroundImageFix" result="effect1_dropShadow"/>
<feBlend mode="normal" in="SourceGraphic" in2="effect1_dropShadow" result="shape"/>
</filter>
<filter id="filter13_d" x="16.4393" y="15.6644" width="50.0759" height="41.4648" filterUnits="userSpaceOnUse" color-interpolation-filters="sRGB">
<feFlood flood-opacity="0" result="BackgroundImageFix"/>
<feColorMatrix in="SourceAlpha" type="matrix" values="0 0 0 0 0 0 0 0 0 0 0 0 0 0 0 0 0 0 127 0"/>
<feOffset/>
<feGaussianBlur stdDeviation="10"/>
<feColorMatrix type="matrix" values="0 0 0 0 0.290816 0 0 0 0 0.345804 0 0 0 0 0.59075 0 0 0 1 0"/>
<feBlend mode="normal" in2="BackgroundImageFix" result="effect1_dropShadow"/>
<feBlend mode="normal" in="SourceGraphic" in2="effect1_dropShadow" result="shape"/>
</filter>
<filter id="filter14_d" x="16.4393" y="18.7958" width="47.7274" height="41.4648" filterUnits="userSpaceOnUse" color-interpolation-filters="sRGB">
<feFlood flood-opacity="0" result="BackgroundImageFix"/>
<feColorMatrix in="SourceAlpha" type="matrix" values="0 0 0 0 0 0 0 0 0 0 0 0 0 0 0 0 0 0 127 0"/>
<feOffset/>
<feGaussianBlur stdDeviation="10"/>
<feColorMatrix type="matrix" values="0 0 0 0 0.290816 0 0 0 0 0.345804 0 0 0 0 0.59075 0 0 0 1 0"/>
<feBlend mode="normal" in2="BackgroundImageFix" result="effect1_dropShadow"/>
<feBlend mode="normal" in="SourceGraphic" in2="effect1_dropShadow" result="shape"/>
</filter>
<filter id="filter15_d" x="16.4393" y="21.9271" width="46.1618" height="41.4648" filterUnits="userSpaceOnUse" color-interpolation-filters="sRGB">
<feFlood flood-opacity="0" result="BackgroundImageFix"/>
<feColorMatrix in="SourceAlpha" type="matrix" values="0 0 0 0 0 0 0 0 0 0 0 0 0 0 0 0 0 0 127 0"/>
<feOffset/>
<feGaussianBlur stdDeviation="10"/>
<feColorMatrix type="matrix" values="0 0 0 0 0.290816 0 0 0 0 0.345804 0 0 0 0 0.59075 0 0 0 1 0"/>
<feBlend mode="normal" in2="BackgroundImageFix" result="effect1_dropShadow"/>
<feBlend mode="normal" in="SourceGraphic" in2="effect1_dropShadow" result="shape"/>
</filter>
<filter id="filter16_d" x="16.4393" y="25.0584" width="44.5961" height="41.4648" filterUnits="userSpaceOnUse" color-interpolation-filters="sRGB">
<feFlood flood-opacity="0" result="BackgroundImageFix"/>
<feColorMatrix in="SourceAlpha" type="matrix" values="0 0 0 0 0 0 0 0 0 0 0 0 0 0 0 0 0 0 127 0"/>
<feOffset/>
<feGaussianBlur stdDeviation="10"/>
<feColorMatrix type="matrix" values="0 0 0 0 0.290816 0 0 0 0 0.345804 0 0 0 0 0.59075 0 0 0 1 0"/>
<feBlend mode="normal" in2="BackgroundImageFix" result="effect1_dropShadow"/>
<feBlend mode="normal" in="SourceGraphic" in2="effect1_dropShadow" result="shape"/>
</filter>
<linearGradient id="paint0_linear" x1="22.3935" y1="23.8864" x2="23.8877" y2="25.3698" gradientUnits="userSpaceOnUse">
<stop stop-color="#F03C53"/>
<stop offset="1" stop-color="#FF2778"/>
</linearGradient>
<linearGradient id="paint1_linear" x1="27.0904" y1="23.8864" x2="28.5846" y2="25.3698" gradientUnits="userSpaceOnUse">
<stop stop-color="#F03C53"/>
<stop offset="1" stop-color="#FF2778"/>
</linearGradient>
<linearGradient id="paint2_linear" x1="24.7419" y1="23.8864" x2="26.2361" y2="25.3698" gradientUnits="userSpaceOnUse">
<stop stop-color="#F03C53"/>
<stop offset="1" stop-color="#FF2778"/>
</linearGradient>
<linearGradient id="paint3_linear" x1="52.1231" y1="23.8864" x2="52.9947" y2="26.5943" gradientUnits="userSpaceOnUse">
<stop stop-color="#F03C53"/>
<stop offset="1" stop-color="#FF2778"/>
</linearGradient>
<linearGradient id="paint4_linear" x1="19.9414" y1="23.8864" x2="20.1431" y2="26.8611" gradientUnits="userSpaceOnUse">
<stop stop-color="#F03C53"/>
<stop offset="1" stop-color="#FF2778"/>
</linearGradient>
<linearGradient id="paint5_linear" x1="-5.25" y1="41.5154" x2="37.2197" y2="91.3749" gradientUnits="userSpaceOnUse">
<stop stop-color="#F03C53"/>
<stop offset="1" stop-color="#FF2778"/>
</linearGradient>
<linearGradient id="paint6_linear" x1="49.7513" y1="46.6665" x2="59.2302" y2="56.0526" gradientUnits="userSpaceOnUse">
<stop stop-color="#F03C53"/>
<stop offset="1" stop-color="#FF2778"/>
</linearGradient>
<linearGradient id="paint7_linear" x1="20.8102" y1="30.1488" x2="21.6818" y2="32.8567" gradientUnits="userSpaceOnUse">
<stop stop-color="#F03C53"/>
<stop offset="1" stop-color="#FF2778"/>
</linearGradient>
<linearGradient id="paint8_linear" x1="24.7008" y1="30.1488" x2="25.1647" y2="33.0634" gradientUnits="userSpaceOnUse">
<stop stop-color="#F03C53"/>
<stop offset="1" stop-color="#FF2778"/>
</linearGradient>
<linearGradient id="paint9_linear" x1="19.2289" y1="36.4115" x2="19.7807" y2="39.2943" gradientUnits="userSpaceOnUse">
<stop stop-color="#F03C53"/>
<stop offset="1" stop-color="#FF2778"/>
</linearGradient>
<linearGradient id="paint10_linear" x1="19.2289" y1="39.5428" x2="19.7807" y2="42.4256" gradientUnits="userSpaceOnUse">
<stop stop-color="#F03C53"/>
<stop offset="1" stop-color="#FF2778"/>
</linearGradient>
<linearGradient id="paint11_linear" x1="22.7633" y1="42.6741" x2="23.5274" y2="45.4524" gradientUnits="userSpaceOnUse">
<stop stop-color="#F03C53"/>
<stop offset="1" stop-color="#FF2778"/>
</linearGradient>
<linearGradient id="paint12_linear" x1="22.7633" y1="45.8055" x2="23.5274" y2="48.5838" gradientUnits="userSpaceOnUse">
<stop stop-color="#F03C53"/>
<stop offset="1" stop-color="#FF2778"/>
</linearGradient>
<linearGradient id="paint13_linear" x1="31.351" y1="36.4115" x2="31.7805" y2="39.3369" gradientUnits="userSpaceOnUse">
<stop stop-color="#F03C53"/>
<stop offset="1" stop-color="#FF2778"/>
</linearGradient>
<linearGradient id="paint14_linear" x1="32.537" y1="39.5428" x2="33.0889" y2="42.4256" gradientUnits="userSpaceOnUse">
<stop stop-color="#F03C53"/>
<stop offset="1" stop-color="#FF2778"/>
</linearGradient>
<linearGradient id="paint15_linear" x1="33.3276" y1="42.6741" x2="34.006" y2="45.4997" gradientUnits="userSpaceOnUse">
<stop stop-color="#F03C53"/>
<stop offset="1" stop-color="#FF2778"/>
</linearGradient>
<linearGradient id="paint16_linear" x1="34.1183" y1="45.8055" x2="34.9899" y2="48.5134" gradientUnits="userSpaceOnUse">
<stop stop-color="#F03C53"/>
<stop offset="1" stop-color="#FF2778"/>
</linearGradient>
</defs>
</svg>
