<svg width="90" height="90" fill="none" xmlns="http://www.w3.org/2000/svg"><g filter="url(#filter0_d)" fill-rule="evenodd" clip-rule="evenodd"><path d="M52.262 40.774a.732.732 0 00-.014 1.035 10.054 10.054 0 012.86 7.046c0 5.573-4.535 10.107-10.108 10.107s-10.107-4.534-10.107-10.107c0-5.573 4.534-10.108 10.107-10.108 1.733 0 3.442.446 4.943 1.289a.732.732 0 00.717-1.277A11.578 11.578 0 0045 37.283c-6.381 0-11.572 5.19-11.572 11.572 0 6.38 5.191 11.572 11.572 11.572 6.381 0 11.572-5.191 11.572-11.572a11.51 11.51 0 00-3.274-8.066.732.732 0 00-1.036-.015z" fill="#F03C53"/><path d="M52.262 40.774a.732.732 0 00-.014 1.035 10.054 10.054 0 012.86 7.046c0 5.573-4.535 10.107-10.108 10.107s-10.107-4.534-10.107-10.107c0-5.573 4.534-10.108 10.107-10.108 1.733 0 3.442.446 4.943 1.289a.732.732 0 00.717-1.277A11.578 11.578 0 0045 37.283c-6.381 0-11.572 5.19-11.572 11.572 0 6.38 5.191 11.572 11.572 11.572 6.381 0 11.572-5.191 11.572-11.572a11.51 11.51 0 00-3.274-8.066.732.732 0 00-1.036-.015z" fill="url(#paint0_linear)"/></g><g filter="url(#filter1_d)" fill-rule="evenodd" clip-rule="evenodd"><path d="M55.968 34.013a18.616 18.616 0 015.447 6.4 18.254 18.254 0 012.039 8.442c0 .445-.016.893-.048 1.332a.732.732 0 101.461.105 19.94 19.94 0 00-2.15-10.55 20.086 20.086 0 00-5.877-6.907.733.733 0 00-.872 1.178z" fill="#F03C53"/><path d="M55.968 34.013a18.616 18.616 0 015.447 6.4 18.254 18.254 0 012.039 8.442c0 .445-.016.893-.048 1.332a.732.732 0 101.461.105 19.94 19.94 0 00-2.15-10.55 20.086 20.086 0 00-5.877-6.907.733.733 0 00-.872 1.178z" fill="url(#paint1_linear)"/></g><g filter="url(#filter2_d)" fill-rule="evenodd" clip-rule="evenodd"><path d="M25.863 50.97a.733.733 0 00.731-.785 18.452 18.452 0 01-.048-1.33c0-2.975.686-5.814 2.038-8.439a18.624 18.624 0 015.442-6.4.733.733 0 00-.872-1.177 20.097 20.097 0 00-5.873 6.906c-1.46 2.835-2.2 5.9-2.2 9.11 0 .48.017.963.052 1.436.028.386.35.68.73.68z" fill="#F03C53"/><path d="M25.863 50.97a.733.733 0 00.731-.785 18.452 18.452 0 01-.048-1.33c0-2.975.686-5.814 2.038-8.439a18.624 18.624 0 015.442-6.4.733.733 0 00-.872-1.177 20.097 20.097 0 00-5.873 6.906c-1.46 2.835-2.2 5.9-2.2 9.11 0 .48.017.963.052 1.436.028.386.35.68.73.68z" fill="url(#paint2_linear)"/></g><g filter="url(#filter3_d)" fill-rule="evenodd" clip-rule="evenodd"><path d="M52.372 65.778A18.323 18.323 0 0145 67.31a18.31 18.31 0 01-7.377-1.535.732.732 0 00-.586 1.342A19.766 19.766 0 0045 68.774c2.765 0 5.443-.556 7.958-1.653a.733.733 0 00-.586-1.343z" fill="#F03C53"/><path d="M52.372 65.778A18.323 18.323 0 0145 67.31a18.31 18.31 0 01-7.377-1.535.732.732 0 00-.586 1.342A19.766 19.766 0 0045 68.774c2.765 0 5.443-.556 7.958-1.653a.733.733 0 00-.586-1.343z" fill="url(#paint3_linear)"/></g><g filter="url(#filter4_d)" fill-rule="evenodd" clip-rule="evenodd"><path d="M50.16 52.318a.732.732 0 00.732-.733v-5.96a.732.732 0 10-1.465 0v2.248H46.92v-2.248a.732.732 0 00-1.465 0v2.483c0 .678.551 1.23 1.229 1.23h2.744v2.247c0 .405.328.733.733.733z" fill="#F03C53"/><path d="M50.16 52.318a.732.732 0 00.732-.733v-5.96a.732.732 0 10-1.465 0v2.248H46.92v-2.248a.732.732 0 00-1.465 0v2.483c0 .678.551 1.23 1.229 1.23h2.744v2.247c0 .405.328.733.733.733z" fill="url(#paint4_linear)"/></g><g filter="url(#filter5_d)" fill-rule="evenodd" clip-rule="evenodd"><path d="M43.317 49.313a1.23 1.23 0 001.23-1.23v-1.986a1.23 1.23 0 00-1.23-1.23h-2.98a1.23 1.23 0 00-1.23 1.23.732.732 0 001.427.235h2.547v1.516h-2.744a1.23 1.23 0 00-1.23 1.229v1.987a1.23 1.23 0 001.23 1.229h3.477a.733.733 0 000-1.465h-3.241v-1.516h2.744z" fill="#F03C53"/><path d="M43.317 49.313a1.23 1.23 0 001.23-1.23v-1.986a1.23 1.23 0 00-1.23-1.23h-2.98a1.23 1.23 0 00-1.23 1.23.732.732 0 001.427.235h2.547v1.516h-2.744a1.23 1.23 0 00-1.23 1.229v1.987a1.23 1.23 0 001.23 1.229h3.477a.733.733 0 000-1.465h-3.241v-1.516h2.744z" fill="url(#paint5_linear)"/></g><g filter="url(#filter6_d)" fill-rule="evenodd" clip-rule="evenodd"><path d="M39.14 34.787h11.72a.732.732 0 00.732-.732v-2.148c0-2.217-1.5-4.09-3.539-4.658a4.254 4.254 0 001.216-2.98A4.273 4.273 0 0045 20a4.273 4.273 0 00-4.269 4.269c0 1.158.464 2.21 1.216 2.98a4.843 4.843 0 00-3.539 4.658v2.148c0 .404.328.732.733.732zM45 21.465a2.807 2.807 0 012.804 2.804A2.807 2.807 0 0145 27.073a2.807 2.807 0 01-2.804-2.804A2.807 2.807 0 0145 21.465zm-5.127 10.442a3.373 3.373 0 013.37-3.37h3.515a3.373 3.373 0 013.369 3.37v1.416H39.873v-1.416z" fill="#F03C53"/><path d="M39.14 34.787h11.72a.732.732 0 00.732-.732v-2.148c0-2.217-1.5-4.09-3.539-4.658a4.254 4.254 0 001.216-2.98A4.273 4.273 0 0045 20a4.273 4.273 0 00-4.269 4.269c0 1.158.464 2.21 1.216 2.98a4.843 4.843 0 00-3.539 4.658v2.148c0 .404.328.732.733.732zM45 21.465a2.807 2.807 0 012.804 2.804A2.807 2.807 0 0145 27.073a2.807 2.807 0 01-2.804-2.804A2.807 2.807 0 0145 21.465zm-5.127 10.442a3.373 3.373 0 013.37-3.37h3.515a3.373 3.373 0 013.369 3.37v1.416H39.873v-1.416z" fill="url(#paint6_linear)"/></g><g filter="url(#filter7_d)" fill-rule="evenodd" clip-rule="evenodd"><path d="M29.645 62.462a4.254 4.254 0 001.215-2.98 4.273 4.273 0 00-4.268-4.27 4.274 4.274 0 00-4.269 4.27c0 1.157.464 2.21 1.215 2.98A4.843 4.843 0 0020 67.118v2.149c0 .404.328.732.732.732h2.39a.732.732 0 100-1.465h-1.657V67.12a3.373 3.373 0 013.369-3.369h3.516a3.373 3.373 0 013.369 3.37v1.415h-5.477a.732.732 0 000 1.465h6.21a.732.732 0 00.732-.732V67.12c0-2.217-1.5-4.09-3.539-4.657zm-3.053-5.785a2.807 2.807 0 012.804 2.804 2.807 2.807 0 01-2.804 2.804 2.807 2.807 0 01-2.804-2.804 2.807 2.807 0 012.804-2.804z" fill="#F03C53"/><path d="M29.645 62.462a4.254 4.254 0 001.215-2.98 4.273 4.273 0 00-4.268-4.27 4.274 4.274 0 00-4.269 4.27c0 1.157.464 2.21 1.215 2.98A4.843 4.843 0 0020 67.118v2.149c0 .404.328.732.732.732h2.39a.732.732 0 100-1.465h-1.657V67.12a3.373 3.373 0 013.369-3.369h3.516a3.373 3.373 0 013.369 3.37v1.415h-5.477a.732.732 0 000 1.465h6.21a.732.732 0 00.732-.732V67.12c0-2.217-1.5-4.09-3.539-4.657zm-3.053-5.785a2.807 2.807 0 012.804 2.804 2.807 2.807 0 01-2.804 2.804 2.807 2.807 0 01-2.804-2.804 2.807 2.807 0 012.804-2.804z" fill="url(#paint7_linear)"/></g><g filter="url(#filter8_d)" fill-rule="evenodd" clip-rule="evenodd"><path d="M69.815 65.79a.733.733 0 00-1.409.402c.086.3.13.612.13.927v1.416H58.28V67.12a3.373 3.373 0 013.37-3.369h3.515c.6 0 1.188.16 1.702.46a.732.732 0 10.74-1.263 4.801 4.801 0 00-1.147-.486 4.255 4.255 0 001.216-2.98 4.273 4.273 0 00-4.269-4.268 4.273 4.273 0 00-4.268 4.268c0 1.158.463 2.21 1.215 2.98a4.843 4.843 0 00-3.539 4.658v2.149c0 .404.328.732.733.732h11.719a.732.732 0 00.732-.732V67.12c0-.451-.062-.899-.185-1.33zm-6.407-9.113a2.807 2.807 0 012.804 2.804 2.807 2.807 0 01-2.804 2.804 2.807 2.807 0 01-2.804-2.804 2.807 2.807 0 012.804-2.804z" fill="#F03C53"/><path d="M69.815 65.79a.733.733 0 00-1.409.402c.086.3.13.612.13.927v1.416H58.28V67.12a3.373 3.373 0 013.37-3.369h3.515c.6 0 1.188.16 1.702.46a.732.732 0 10.74-1.263 4.801 4.801 0 00-1.147-.486 4.255 4.255 0 001.216-2.98 4.273 4.273 0 00-4.269-4.268 4.273 4.273 0 00-4.268 4.268c0 1.158.463 2.21 1.215 2.98a4.843 4.843 0 00-3.539 4.658v2.149c0 .404.328.732.733.732h11.719a.732.732 0 00.732-.732V67.12c0-.451-.062-.899-.185-1.33zm-6.407-9.113a2.807 2.807 0 012.804 2.804 2.807 2.807 0 01-2.804 2.804 2.807 2.807 0 01-2.804-2.804 2.807 2.807 0 012.804-2.804z" fill="url(#paint8_linear)"/></g><defs><linearGradient id="paint0_linear" x1="21.74" y1="49.086" x2="45.347" y2="72.462" gradientUnits="userSpaceOnUse"><stop stop-color="#F03C53"/><stop offset="1" stop-color="#FF2778"/></linearGradient><linearGradient id="paint1_linear" x1="51.002" y1="42.014" x2="65.935" y2="49.494" gradientUnits="userSpaceOnUse"><stop stop-color="#F03C53"/><stop offset="1" stop-color="#FF2778"/></linearGradient><linearGradient id="paint2_linear" x1="20.414" y1="42.016" x2="35.34" y2="49.489" gradientUnits="userSpaceOnUse"><stop stop-color="#F03C53"/><stop offset="1" stop-color="#FF2778"/></linearGradient><linearGradient id="paint3_linear" x1="28.113" y1="67.275" x2="29.224" y2="73.314" gradientUnits="userSpaceOnUse"><stop stop-color="#F03C53"/><stop offset="1" stop-color="#FF2778"/></linearGradient><linearGradient id="paint4_linear" x1="42.707" y1="48.679" x2="49.907" y2="53.901" gradientUnits="userSpaceOnUse"><stop stop-color="#F03C53"/><stop offset="1" stop-color="#FF2778"/></linearGradient><linearGradient id="paint5_linear" x1="36.361" y1="48.654" x2="43.561" y2="53.876" gradientUnits="userSpaceOnUse"><stop stop-color="#F03C53"/><stop offset="1" stop-color="#FF2778"/></linearGradient><linearGradient id="paint6_linear" x1="31.75" y1="27.542" x2="46.718" y2="40.755" gradientUnits="userSpaceOnUse"><stop stop-color="#F03C53"/><stop offset="1" stop-color="#FF2778"/></linearGradient><linearGradient id="paint7_linear" x1="13.342" y1="62.754" x2="28.31" y2="75.967" gradientUnits="userSpaceOnUse"><stop stop-color="#F03C53"/><stop offset="1" stop-color="#FF2778"/></linearGradient><linearGradient id="paint8_linear" x1="50.159" y1="62.754" x2="65.126" y2="75.967" gradientUnits="userSpaceOnUse"><stop stop-color="#F03C53"/><stop offset="1" stop-color="#FF2778"/></linearGradient><filter id="filter0_d" x="13.428" y="17.283" width="63.145" height="63.145" filterUnits="userSpaceOnUse" color-interpolation-filters="sRGB"><feFlood flood-opacity="0" result="BackgroundImageFix"/><feColorMatrix in="SourceAlpha" values="0 0 0 0 0 0 0 0 0 0 0 0 0 0 0 0 0 0 127 0"/><feOffset/><feGaussianBlur stdDeviation="10"/><feColorMatrix values="0 0 0 0 0.290816 0 0 0 0 0.345804 0 0 0 0 0.59075 0 0 0 1 0"/><feBlend in2="BackgroundImageFix" result="effect1_dropShadow"/><feBlend in="SourceGraphic" in2="effect1_dropShadow" result="shape"/></filter><filter id="filter1_d" x="35.672" y="12.691" width="49.247" height="58.28" filterUnits="userSpaceOnUse" color-interpolation-filters="sRGB"><feFlood flood-opacity="0" result="BackgroundImageFix"/><feColorMatrix in="SourceAlpha" values="0 0 0 0 0 0 0 0 0 0 0 0 0 0 0 0 0 0 127 0"/><feOffset/><feGaussianBlur stdDeviation="10"/><feColorMatrix values="0 0 0 0 0.290816 0 0 0 0 0.345804 0 0 0 0 0.59075 0 0 0 1 0"/><feBlend in2="BackgroundImageFix" result="effect1_dropShadow"/><feBlend in="SourceGraphic" in2="effect1_dropShadow" result="shape"/></filter><filter id="filter2_d" x="5.081" y="12.695" width="49.241" height="58.276" filterUnits="userSpaceOnUse" color-interpolation-filters="sRGB"><feFlood flood-opacity="0" result="BackgroundImageFix"/><feColorMatrix in="SourceAlpha" values="0 0 0 0 0 0 0 0 0 0 0 0 0 0 0 0 0 0 127 0"/><feOffset/><feGaussianBlur stdDeviation="10"/><feColorMatrix values="0 0 0 0 0.290816 0 0 0 0 0.345804 0 0 0 0 0.59075 0 0 0 1 0"/><feBlend in2="BackgroundImageFix" result="effect1_dropShadow"/><feBlend in="SourceGraphic" in2="effect1_dropShadow" result="shape"/></filter><filter id="filter3_d" x="16.597" y="45.714" width="56.8" height="43.061" filterUnits="userSpaceOnUse" color-interpolation-filters="sRGB"><feFlood flood-opacity="0" result="BackgroundImageFix"/><feColorMatrix in="SourceAlpha" values="0 0 0 0 0 0 0 0 0 0 0 0 0 0 0 0 0 0 127 0"/><feOffset/><feGaussianBlur stdDeviation="10"/><feColorMatrix values="0 0 0 0 0.290816 0 0 0 0 0.345804 0 0 0 0 0.59075 0 0 0 1 0"/><feBlend in2="BackgroundImageFix" result="effect1_dropShadow"/><feBlend in="SourceGraphic" in2="effect1_dropShadow" result="shape"/></filter><filter id="filter4_d" x="25.454" y="24.892" width="45.439" height="47.425" filterUnits="userSpaceOnUse" color-interpolation-filters="sRGB"><feFlood flood-opacity="0" result="BackgroundImageFix"/><feColorMatrix in="SourceAlpha" values="0 0 0 0 0 0 0 0 0 0 0 0 0 0 0 0 0 0 127 0"/><feOffset/><feGaussianBlur stdDeviation="10"/><feColorMatrix values="0 0 0 0 0.290816 0 0 0 0 0.345804 0 0 0 0 0.59075 0 0 0 1 0"/><feBlend in2="BackgroundImageFix" result="effect1_dropShadow"/><feBlend in="SourceGraphic" in2="effect1_dropShadow" result="shape"/></filter><filter id="filter5_d" x="19.108" y="24.867" width="45.439" height="47.425" filterUnits="userSpaceOnUse" color-interpolation-filters="sRGB"><feFlood flood-opacity="0" result="BackgroundImageFix"/><feColorMatrix in="SourceAlpha" values="0 0 0 0 0 0 0 0 0 0 0 0 0 0 0 0 0 0 127 0"/><feOffset/><feGaussianBlur stdDeviation="10"/><feColorMatrix values="0 0 0 0 0.290816 0 0 0 0 0.345804 0 0 0 0 0.59075 0 0 0 1 0"/><feBlend in2="BackgroundImageFix" result="effect1_dropShadow"/><feBlend in="SourceGraphic" in2="effect1_dropShadow" result="shape"/></filter><filter id="filter6_d" x="18.408" y="0" width="53.184" height="54.787" filterUnits="userSpaceOnUse" color-interpolation-filters="sRGB"><feFlood flood-opacity="0" result="BackgroundImageFix"/><feColorMatrix in="SourceAlpha" values="0 0 0 0 0 0 0 0 0 0 0 0 0 0 0 0 0 0 127 0"/><feOffset/><feGaussianBlur stdDeviation="10"/><feColorMatrix values="0 0 0 0 0.290816 0 0 0 0 0.345804 0 0 0 0 0.59075 0 0 0 1 0"/><feBlend in2="BackgroundImageFix" result="effect1_dropShadow"/><feBlend in="SourceGraphic" in2="effect1_dropShadow" result="shape"/></filter><filter id="filter7_d" x="0" y="35.213" width="53.184" height="54.787" filterUnits="userSpaceOnUse" color-interpolation-filters="sRGB"><feFlood flood-opacity="0" result="BackgroundImageFix"/><feColorMatrix in="SourceAlpha" values="0 0 0 0 0 0 0 0 0 0 0 0 0 0 0 0 0 0 127 0"/><feOffset/><feGaussianBlur stdDeviation="10"/><feColorMatrix values="0 0 0 0 0.290816 0 0 0 0 0.345804 0 0 0 0 0.59075 0 0 0 1 0"/><feBlend in2="BackgroundImageFix" result="effect1_dropShadow"/><feBlend in="SourceGraphic" in2="effect1_dropShadow" result="shape"/></filter><filter id="filter8_d" x="36.816" y="35.213" width="53.184" height="54.787" filterUnits="userSpaceOnUse" color-interpolation-filters="sRGB"><feFlood flood-opacity="0" result="BackgroundImageFix"/><feColorMatrix in="SourceAlpha" values="0 0 0 0 0 0 0 0 0 0 0 0 0 0 0 0 0 0 127 0"/><feOffset/><feGaussianBlur stdDeviation="10"/><feColorMatrix values="0 0 0 0 0.290816 0 0 0 0 0.345804 0 0 0 0 0.59075 0 0 0 1 0"/><feBlend in2="BackgroundImageFix" result="effect1_dropShadow"/><feBlend in="SourceGraphic" in2="effect1_dropShadow" result="shape"/></filter></defs></svg>