<svg width="65" height="73" fill="none" xmlns="http://www.w3.org/2000/svg"><path fill-rule="evenodd" clip-rule="evenodd" d="M32.5 0C14.621 0 .076 14.545.076 32.424v16.25a3.676 3.676 0 003.672 3.673h1.329v.078a3.676 3.676 0 003.672 3.672h2.5a3.676 3.676 0 003.672-3.672V37.424a3.676 3.676 0 00-3.672-3.672h-2.5a3.676 3.676 0 00-3.672 3.672v.078H2.42v-5.078c0-16.587 13.494-30.08 30.08-30.08s30.08 13.493 30.08 30.08v5.078h-2.657v-.078a3.676 3.676 0 00-3.672-3.672h-2.5a3.676 3.676 0 00-3.672 3.672v15a3.676 3.676 0 003.672 3.673h2.5a3.676 3.676 0 003.672-3.672v-.078h.114c-.58 8.139-7.151 14.647-15.317 15.127a3.678 3.678 0 00-3.47-2.47H37.5a2.425 2.425 0 00-2.422 2.422v2.5a2.425 2.425 0 002.422 2.422h3.75a3.678 3.678 0 003.489-2.527c9.511-.498 17.16-8.147 17.658-17.658a3.678 3.678 0 002.527-3.488V32.424C64.924 14.545 50.378 0 32.5 0zM7.42 37.424a1.33 1.33 0 011.329-1.328h2.5a1.33 1.33 0 011.328 1.328v15a1.33 1.33 0 01-1.328 1.33h-2.5a1.33 1.33 0 01-1.329-1.33v-15zm-2.343 2.422v10.157H3.748a1.33 1.33 0 01-1.328-1.328v-8.829h2.657zm52.502 12.579a1.33 1.33 0 01-1.328 1.328h-2.5a1.33 1.33 0 01-1.328-1.328V37.424a1.33 1.33 0 011.328-1.328h2.5a1.33 1.33 0 011.329 1.328v15zM41.252 70.004H37.5a.078.078 0 01-.079-.078v-2.5c0-.043.035-.078.078-.078h3.75a1.33 1.33 0 011.329 1.328 1.33 1.33 0 01-1.328 1.328zm21.329-21.33a1.33 1.33 0 01-1.328 1.329h-1.329V39.846h2.657v8.829z" fill="#102D63"/><path fill-rule="evenodd" clip-rule="evenodd" d="M32.5 0C14.621 0 .076 14.545.076 32.424v16.25a3.676 3.676 0 003.672 3.673h1.329v.078a3.676 3.676 0 003.672 3.672h2.5a3.676 3.676 0 003.672-3.672V37.424a3.676 3.676 0 00-3.672-3.672h-2.5a3.676 3.676 0 00-3.672 3.672v.078H2.42v-5.078c0-16.587 13.494-30.08 30.08-30.08s30.08 13.493 30.08 30.08v5.078h-2.657v-.078a3.676 3.676 0 00-3.672-3.672h-2.5a3.676 3.676 0 00-3.672 3.672v15a3.676 3.676 0 003.672 3.673h2.5a3.676 3.676 0 003.672-3.672v-.078h.114c-.58 8.139-7.151 14.647-15.317 15.127a3.678 3.678 0 00-3.47-2.47H37.5a2.425 2.425 0 00-2.422 2.422v2.5a2.425 2.425 0 002.422 2.422h3.75a3.678 3.678 0 003.489-2.527c9.511-.498 17.16-8.147 17.658-17.658a3.678 3.678 0 002.527-3.488V32.424C64.924 14.545 50.378 0 32.5 0zM7.42 37.424a1.33 1.33 0 011.329-1.328h2.5a1.33 1.33 0 011.328 1.328v15a1.33 1.33 0 01-1.328 1.33h-2.5a1.33 1.33 0 01-1.329-1.33v-15zm-2.343 2.422v10.157H3.748a1.33 1.33 0 01-1.328-1.328v-8.829h2.657zm52.502 12.579a1.33 1.33 0 01-1.328 1.328h-2.5a1.33 1.33 0 01-1.328-1.328V37.424a1.33 1.33 0 011.328-1.328h2.5a1.33 1.33 0 011.329 1.328v15zM41.252 70.004H37.5a.078.078 0 01-.079-.078v-2.5c0-.043.035-.078.078-.078h3.75a1.33 1.33 0 011.329 1.328 1.33 1.33 0 01-1.328 1.328zm21.329-21.33a1.33 1.33 0 01-1.328 1.329h-1.329V39.846h2.657v8.829z" fill="url(#paint0_linear)"/><path fill-rule="evenodd" clip-rule="evenodd" d="M40 42.502a2.425 2.425 0 00-2.422 2.422A2.425 2.425 0 0040 47.346a2.425 2.425 0 002.422-2.422A2.425 2.425 0 0040 42.502z" fill="#102D63"/><path fill-rule="evenodd" clip-rule="evenodd" d="M40 42.502a2.425 2.425 0 00-2.422 2.422A2.425 2.425 0 0040 47.346a2.425 2.425 0 002.422-2.422A2.425 2.425 0 0040 42.502z" fill="url(#paint1_linear)"/><path fill-rule="evenodd" clip-rule="evenodd" d="M32.5 42.502a2.425 2.425 0 00-2.422 2.422 2.425 2.425 0 002.422 2.422 2.425 2.425 0 002.422-2.422 2.425 2.425 0 00-2.422-2.422z" fill="#102D63"/><path fill-rule="evenodd" clip-rule="evenodd" d="M32.5 42.502a2.425 2.425 0 00-2.422 2.422 2.425 2.425 0 002.422 2.422 2.425 2.425 0 002.422-2.422 2.425 2.425 0 00-2.422-2.422z" fill="url(#paint2_linear)"/><path fill-rule="evenodd" clip-rule="evenodd" d="M42.5 32.502h-20a4.928 4.928 0 00-4.923 4.922v15a4.928 4.928 0 004.922 4.923h11.33v2.946a2.057 2.057 0 002.055 2.054c.532 0 1.055-.209 1.449-.603l4.397-4.397h.77a4.928 4.928 0 004.923-4.922V37.424a4.928 4.928 0 00-4.922-4.922zm2.579 19.923a2.581 2.581 0 01-2.578 2.578h-1.256c-.311 0-.61.123-.829.343l-4.244 4.244v-3.415c0-.647-.525-1.172-1.172-1.172H22.5a2.581 2.581 0 01-2.579-2.578V37.424a2.581 2.581 0 012.578-2.578H42.5a2.581 2.581 0 012.579 2.578v15z" fill="#102D63"/><path fill-rule="evenodd" clip-rule="evenodd" d="M42.5 32.502h-20a4.928 4.928 0 00-4.923 4.922v15a4.928 4.928 0 004.922 4.923h11.33v2.946a2.057 2.057 0 002.055 2.054c.532 0 1.055-.209 1.449-.603l4.397-4.397h.77a4.928 4.928 0 004.923-4.922V37.424a4.928 4.928 0 00-4.922-4.922zm2.579 19.923a2.581 2.581 0 01-2.578 2.578h-1.256c-.311 0-.61.123-.829.343l-4.244 4.244v-3.415c0-.647-.525-1.172-1.172-1.172H22.5a2.581 2.581 0 01-2.579-2.578V37.424a2.581 2.581 0 012.578-2.578H42.5a2.581 2.581 0 012.579 2.578v15z" fill="url(#paint3_linear)"/><path fill-rule="evenodd" clip-rule="evenodd" d="M25 42.502a2.425 2.425 0 00-2.422 2.422A2.425 2.425 0 0025 47.346a2.425 2.425 0 002.422-2.422A2.425 2.425 0 0025 42.502z" fill="#102D63"/><path fill-rule="evenodd" clip-rule="evenodd" d="M25 42.502a2.425 2.425 0 00-2.422 2.422A2.425 2.425 0 0025 47.346a2.425 2.425 0 002.422-2.422A2.425 2.425 0 0025 42.502z" fill="url(#paint4_linear)"/><g opacity=".131" fill-rule="evenodd" clip-rule="evenodd"><path d="M19.921 36l2.657-2.234h22.5l1.023 19.987L43 55.988l-6.5 4.94-1.5-4.94H21.553l-2.66-2.235V36h1.028z" fill="#102D63"/><path d="M19.921 36l2.657-2.234h22.5l1.023 19.987L43 55.988l-6.5 4.94-1.5-4.94H21.553l-2.66-2.235V36h1.028z" fill="url(#paint5_linear)"/></g><defs><linearGradient id="paint0_linear" x1="-32.672" y1="36.897" x2="40.605" y2="101.933" gradientUnits="userSpaceOnUse"><stop stop-color="#6C66FE"/><stop offset="1" stop-color="#935BF2"/></linearGradient><linearGradient id="paint1_linear" x1="35.132" y1="44.973" x2="40.073" y2="49.865" gradientUnits="userSpaceOnUse"><stop stop-color="#6C66FE"/><stop offset="1" stop-color="#935BF2"/></linearGradient><linearGradient id="paint2_linear" x1="27.632" y1="44.973" x2="32.573" y2="49.865" gradientUnits="userSpaceOnUse"><stop stop-color="#6C66FE"/><stop offset="1" stop-color="#935BF2"/></linearGradient><linearGradient id="paint3_linear" x1="2.505" y1="47.723" x2="32.947" y2="77.867" gradientUnits="userSpaceOnUse"><stop stop-color="#6C66FE"/><stop offset="1" stop-color="#935BF2"/></linearGradient><linearGradient id="paint4_linear" x1="20.131" y1="44.973" x2="25.072" y2="49.865" gradientUnits="userSpaceOnUse"><stop stop-color="#6C66FE"/><stop offset="1" stop-color="#935BF2"/></linearGradient><linearGradient id="paint5_linear" x1="5.154" y1="47.619" x2="32.86" y2="75.099" gradientUnits="userSpaceOnUse"><stop stop-color="#6C66FE"/><stop offset="1" stop-color="#935BF2"/></linearGradient></defs></svg>