<svg width="70" height="80" fill="none" xmlns="http://www.w3.org/2000/svg"><g opacity=".131" fill-rule="evenodd" clip-rule="evenodd"><path d="M22.838 31.872L35 23.799l14.224 8.073V47.09L35 56.2l-12.162-6.767V31.872z" fill="#102D63"/><path d="M22.838 31.872L35 23.799l14.224 8.073V47.09L35 56.2l-12.162-6.767V31.872z" fill="url(#paint0_linear)"/></g><path fill-rule="evenodd" clip-rule="evenodd" d="M40.588 18.733l-1.998-1.154a3.682 3.682 0 00-2.418-4.279V1.172a1.172 1.172 0 10-2.344 0V13.3a3.683 3.683 0 00-2.418 4.278l-14.02 8.095a3.66 3.66 0 00-2.43-.92c-.931 0-1.782.348-2.43.92L1.768 19.46a1.172 1.172 0 10-1.172 2.03l10.76 6.212a3.675 3.675 0 002.432 4.212V48.09a3.683 3.683 0 00-2.433 4.208L.596 58.51a1.172 1.172 0 001.172 2.03l10.758-6.212c.65.574 1.501.924 2.434.924a3.66 3.66 0 002.433-.924l7.386 4.264a1.171 1.171 0 101.172-2.03L18.565 52.3a3.683 3.683 0 00-2.433-4.208V31.914a3.683 3.683 0 002.432-4.212l14.058-8.117a3.661 3.661 0 002.378.876 3.66 3.66 0 002.378-.875l2.038 1.176a1.171 1.171 0 101.172-2.03zM16.293 51.575c0 .735-.598 1.333-1.333 1.333a1.335 1.335 0 01-1.333-1.333c0-.735.598-1.333 1.333-1.333s1.333.598 1.333 1.333zM14.96 29.763a1.335 1.335 0 01-1.333-1.334c0-.734.598-1.333 1.333-1.333s1.333.599 1.333 1.334c0 .735-.598 1.333-1.333 1.333zM35 18.117a1.335 1.335 0 01-1.333-1.333c0-.735.598-1.333 1.333-1.333s1.333.598 1.333 1.333-.598 1.333-1.333 1.333z" fill="#102D63"/><path fill-rule="evenodd" clip-rule="evenodd" d="M40.588 18.733l-1.998-1.154a3.682 3.682 0 00-2.418-4.279V1.172a1.172 1.172 0 10-2.344 0V13.3a3.683 3.683 0 00-2.418 4.278l-14.02 8.095a3.66 3.66 0 00-2.43-.92c-.931 0-1.782.348-2.43.92L1.768 19.46a1.172 1.172 0 10-1.172 2.03l10.76 6.212a3.675 3.675 0 002.432 4.212V48.09a3.683 3.683 0 00-2.433 4.208L.596 58.51a1.172 1.172 0 001.172 2.03l10.758-6.212c.65.574 1.501.924 2.434.924a3.66 3.66 0 002.433-.924l7.386 4.264a1.171 1.171 0 101.172-2.03L18.565 52.3a3.683 3.683 0 00-2.433-4.208V31.914a3.683 3.683 0 002.432-4.212l14.058-8.117a3.661 3.661 0 002.378.876 3.66 3.66 0 002.378-.875l2.038 1.176a1.171 1.171 0 101.172-2.03zM16.293 51.575c0 .735-.598 1.333-1.333 1.333a1.335 1.335 0 01-1.333-1.333c0-.735.598-1.333 1.333-1.333s1.333.598 1.333 1.333zM14.96 29.763a1.335 1.335 0 01-1.333-1.334c0-.734.598-1.333 1.333-1.333s1.333.599 1.333 1.334c0 .735-.598 1.333-1.333 1.333zM35 18.117a1.335 1.335 0 01-1.333-1.333c0-.735.598-1.333 1.333-1.333s1.333.598 1.333 1.333-.598 1.333-1.333 1.333z" fill="url(#paint1_linear)"/><path fill-rule="evenodd" clip-rule="evenodd" d="M69.404 58.51l-10.758-6.212a3.677 3.677 0 00-2.434-4.207V31.914a3.683 3.683 0 002.433-4.212l10.76-6.212a1.172 1.172 0 10-1.173-2.03L57.47 25.673a3.661 3.661 0 00-2.43-.92c-.93 0-1.781.348-2.43.92l-7.568-4.369a1.172 1.172 0 10-1.171 2.03l7.565 4.368a3.676 3.676 0 002.432 4.212V48.09a3.683 3.683 0 00-2.433 4.207L37.43 60.385a3.66 3.66 0 00-2.43-.921 3.66 3.66 0 00-2.43.92l-2.355-1.36a1.172 1.172 0 10-1.172 2.03l2.353 1.359a3.674 3.674 0 002.432 4.212v12.203a1.172 1.172 0 002.344 0V66.625a3.683 3.683 0 002.432-4.212l14.003-8.085a3.66 3.66 0 002.433.924 3.66 3.66 0 002.433-.924l10.759 6.212a1.171 1.171 0 101.172-2.03zM35 64.474a1.335 1.335 0 01-1.333-1.333c0-.736.598-1.334 1.333-1.334s1.333.599 1.333 1.334c0 .735-.598 1.333-1.333 1.333zM53.707 28.43c0-.735.598-1.334 1.333-1.334a1.335 1.335 0 010 2.666 1.335 1.335 0 01-1.333-1.332zm1.333 24.478a1.335 1.335 0 01-1.333-1.333c0-.735.598-1.333 1.333-1.333s1.333.598 1.333 1.333-.597 1.333-1.333 1.333z" fill="#102D63"/><path fill-rule="evenodd" clip-rule="evenodd" d="M69.404 58.51l-10.758-6.212a3.677 3.677 0 00-2.434-4.207V31.914a3.683 3.683 0 002.433-4.212l10.76-6.212a1.172 1.172 0 10-1.173-2.03L57.47 25.673a3.661 3.661 0 00-2.43-.92c-.93 0-1.781.348-2.43.92l-7.568-4.369a1.172 1.172 0 10-1.171 2.03l7.565 4.368a3.676 3.676 0 002.432 4.212V48.09a3.683 3.683 0 00-2.433 4.207L37.43 60.385a3.66 3.66 0 00-2.43-.921 3.66 3.66 0 00-2.43.92l-2.355-1.36a1.172 1.172 0 10-1.172 2.03l2.353 1.359a3.674 3.674 0 002.432 4.212v12.203a1.172 1.172 0 002.344 0V66.625a3.683 3.683 0 002.432-4.212l14.003-8.085a3.66 3.66 0 002.433.924 3.66 3.66 0 002.433-.924l10.759 6.212a1.171 1.171 0 101.172-2.03zM35 64.474a1.335 1.335 0 01-1.333-1.333c0-.736.598-1.334 1.333-1.334s1.333.599 1.333 1.334c0 .735-.598 1.333-1.333 1.333zM53.707 28.43c0-.735.598-1.334 1.333-1.334a1.335 1.335 0 010 2.666 1.335 1.335 0 01-1.333-1.332zm1.333 24.478a1.335 1.335 0 01-1.333-1.333c0-.735.598-1.333 1.333-1.333s1.333.598 1.333 1.333-.597 1.333-1.333 1.333z" fill="url(#paint2_linear)"/><path fill-rule="evenodd" clip-rule="evenodd" d="M47.736 30.603l-10.965-6.33a3.55 3.55 0 00-3.541 0l-10.965 6.33a3.55 3.55 0 00-1.77 3.066v12.662a3.55 3.55 0 001.77 3.066l10.965 6.33a3.539 3.539 0 001.77.474 3.54 3.54 0 001.77-.473l10.966-6.331a3.55 3.55 0 001.77-3.066V33.669c0-1.26-.679-2.436-1.77-3.066zm-.574 15.728a1.2 1.2 0 01-.598 1.036l-10.965 6.33a1.2 1.2 0 01-1.197 0l-10.965-6.33a1.2 1.2 0 01-.599-1.036V33.669c0-.426.23-.823.599-1.036l10.965-6.331a1.2 1.2 0 011.197 0l10.965 6.33a1.2 1.2 0 01.598 1.037v12.662z" fill="#102D63"/><path fill-rule="evenodd" clip-rule="evenodd" d="M47.736 30.603l-10.965-6.33a3.55 3.55 0 00-3.541 0l-10.965 6.33a3.55 3.55 0 00-1.77 3.066v12.662a3.55 3.55 0 001.77 3.066l10.965 6.33a3.539 3.539 0 001.77.474 3.54 3.54 0 001.77-.473l10.966-6.331a3.55 3.55 0 001.77-3.066V33.669c0-1.26-.679-2.436-1.77-3.066zm-.574 15.728a1.2 1.2 0 01-.598 1.036l-10.965 6.33a1.2 1.2 0 01-1.197 0l-10.965-6.33a1.2 1.2 0 01-.599-1.036V33.669c0-.426.23-.823.599-1.036l10.965-6.331a1.2 1.2 0 011.197 0l10.965 6.33a1.2 1.2 0 01.598 1.037v12.662z" fill="url(#paint3_linear)"/><defs><linearGradient id="paint0_linear" x1="9.513" y1="40.324" x2="41.813" y2="66.369" gradientUnits="userSpaceOnUse"><stop stop-color="#6C66FE"/><stop offset="1" stop-color="#935BF2"/></linearGradient><linearGradient id="paint1_linear" x1="-20.778" y1="30.955" x2="36.532" y2="69.442" gradientUnits="userSpaceOnUse"><stop stop-color="#6C66FE"/><stop offset="1" stop-color="#935BF2"/></linearGradient><linearGradient id="paint2_linear" x1="7.483" y1="50.258" x2="64.985" y2="89.22" gradientUnits="userSpaceOnUse"><stop stop-color="#6C66FE"/><stop offset="1" stop-color="#935BF2"/></linearGradient><linearGradient id="paint3_linear" x1="5.844" y1="40.324" x2="38.656" y2="69.416" gradientUnits="userSpaceOnUse"><stop stop-color="#6C66FE"/><stop offset="1" stop-color="#935BF2"/></linearGradient></defs></svg>