<svg width="80" height="90" fill="none" xmlns="http://www.w3.org/2000/svg"><g filter="url(#filter0_d)" fill-rule="evenodd" clip-rule="evenodd"><path d="M59.746 39.873c0-.948-.303-1.848-.875-2.6a2.629 2.629 0 01-.451-2.266 4.262 4.262 0 00-.187-2.739A4.263 4.263 0 0056.43 30.2a2.628 2.628 0 01-1.283-1.92 4.262 4.262 0 00-1.22-2.46 4.262 4.262 0 00-2.459-1.22 2.63 2.63 0 01-1.92-1.282 4.264 4.264 0 00-2.069-1.805 4.276 4.276 0 00-2.738-.187 2.642 2.642 0 01-2.265-.45A4.265 4.265 0 0039.873 20c-.948 0-1.848.303-2.6.875a2.66 2.66 0 01-2.266.451 4.299 4.299 0 00-4.807 1.99 2.63 2.63 0 01-1.92 1.285 4.263 4.263 0 00-2.46 1.22 4.263 4.263 0 00-1.22 2.458 2.628 2.628 0 01-1.282 1.92 4.264 4.264 0 00-1.805 2.07 4.267 4.267 0 00-.187 2.737c.207.79.042 1.616-.45 2.265A4.265 4.265 0 0020 39.873c0 .948.303 1.848.875 2.6a2.63 2.63 0 01.451 2.267 4.264 4.264 0 00.186 2.738 4.268 4.268 0 001.805 2.068 2.629 2.629 0 011.284 1.92c.127.939.55 1.789 1.22 2.46a4.26 4.26 0 002.458 1.22 2.626 2.626 0 011.92 1.282 4.31 4.31 0 003.082 2.087v10.753a.733.733 0 001.172.585l5.42-4.064 5.42 4.064a.731.731 0 001.172-.585V58.515a4.325 4.325 0 001.013-.281 4.268 4.268 0 002.068-1.805 2.63 2.63 0 011.92-1.283 4.262 4.262 0 002.46-1.22 4.262 4.262 0 001.22-2.459 2.63 2.63 0 011.282-1.92 4.266 4.266 0 001.805-2.069 4.267 4.267 0 00.187-2.738 2.628 2.628 0 01.45-2.265 4.265 4.265 0 00.876-2.602zM40.312 64.287a.732.732 0 00-.878 0l-4.688 3.516V58.48c.087-.018.174-.037.26-.06a2.642 2.642 0 012.265.45 4.265 4.265 0 002.602.876c.948 0 1.848-.303 2.6-.875a2.662 2.662 0 012.266-.451c.087.023.174.042.261.06v9.323l-4.688-3.516zM57.703 41.59a4.087 4.087 0 00-.7 3.523 2.81 2.81 0 01-.123 1.806 2.817 2.817 0 01-1.19 1.364 4.086 4.086 0 00-1.995 2.987 2.81 2.81 0 01-.805 1.62 2.813 2.813 0 01-1.623.805 4.086 4.086 0 00-2.986 1.996c-.314.54-.785.95-1.363 1.19a2.818 2.818 0 01-1.807.123 4.11 4.11 0 00-3.522.701 2.813 2.813 0 01-1.716.577c-.625 0-1.218-.2-1.716-.578a4.134 4.134 0 00-2.482-.834c-.35 0-.7.045-1.041.134a2.83 2.83 0 01-1.806-.123 2.81 2.81 0 01-1.364-1.19 4.087 4.087 0 00-2.987-1.996 2.81 2.81 0 01-1.62-.804 2.814 2.814 0 01-.805-1.623 4.086 4.086 0 00-1.996-2.986 2.813 2.813 0 01-1.19-1.363 2.813 2.813 0 01-.123-1.807 4.086 4.086 0 00-.701-3.523 2.811 2.811 0 01-.577-1.715c0-.625.2-1.218.578-1.716a4.087 4.087 0 00.7-3.523 2.813 2.813 0 01.123-1.805c.24-.578.65-1.05 1.19-1.365a4.087 4.087 0 001.996-2.986c.084-.619.362-1.18.805-1.622a2.815 2.815 0 011.622-.804 4.085 4.085 0 002.986-1.996 2.831 2.831 0 013.17-1.313 4.107 4.107 0 003.523-.701 2.811 2.811 0 011.715-.577c.625 0 1.219.2 1.716.578.71.538 1.591.834 2.482.834.35 0 .7-.045 1.041-.134a2.831 2.831 0 011.806.123c.577.24 1.05.65 1.364 1.19a4.087 4.087 0 002.986 1.996c.62.084 1.18.362 1.622.805.442.442.72 1.002.804 1.622a4.086 4.086 0 001.996 2.986c.54.314.95.786 1.19 1.363a2.81 2.81 0 01.123 1.807 4.086 4.086 0 00.701 3.523c.377.497.577 1.09.577 1.715s-.2 1.219-.578 1.716z" fill="#F03C53"/><path d="M59.746 39.873c0-.948-.303-1.848-.875-2.6a2.629 2.629 0 01-.451-2.266 4.262 4.262 0 00-.187-2.739A4.263 4.263 0 0056.43 30.2a2.628 2.628 0 01-1.283-1.92 4.262 4.262 0 00-1.22-2.46 4.262 4.262 0 00-2.459-1.22 2.63 2.63 0 01-1.92-1.282 4.264 4.264 0 00-2.069-1.805 4.276 4.276 0 00-2.738-.187 2.642 2.642 0 01-2.265-.45A4.265 4.265 0 0039.873 20c-.948 0-1.848.303-2.6.875a2.66 2.66 0 01-2.266.451 4.299 4.299 0 00-4.807 1.99 2.63 2.63 0 01-1.92 1.285 4.263 4.263 0 00-2.46 1.22 4.263 4.263 0 00-1.22 2.458 2.628 2.628 0 01-1.282 1.92 4.264 4.264 0 00-1.805 2.07 4.267 4.267 0 00-.187 2.737c.207.79.042 1.616-.45 2.265A4.265 4.265 0 0020 39.873c0 .948.303 1.848.875 2.6a2.63 2.63 0 01.451 2.267 4.264 4.264 0 00.186 2.738 4.268 4.268 0 001.805 2.068 2.629 2.629 0 011.284 1.92c.127.939.55 1.789 1.22 2.46a4.26 4.26 0 002.458 1.22 2.626 2.626 0 011.92 1.282 4.31 4.31 0 003.082 2.087v10.753a.733.733 0 001.172.585l5.42-4.064 5.42 4.064a.731.731 0 001.172-.585V58.515a4.325 4.325 0 001.013-.281 4.268 4.268 0 002.068-1.805 2.63 2.63 0 011.92-1.283 4.262 4.262 0 002.46-1.22 4.262 4.262 0 001.22-2.459 2.63 2.63 0 011.282-1.92 4.266 4.266 0 001.805-2.069 4.267 4.267 0 00.187-2.738 2.628 2.628 0 01.45-2.265 4.265 4.265 0 00.876-2.602zM40.312 64.287a.732.732 0 00-.878 0l-4.688 3.516V58.48c.087-.018.174-.037.26-.06a2.642 2.642 0 012.265.45 4.265 4.265 0 002.602.876c.948 0 1.848-.303 2.6-.875a2.662 2.662 0 012.266-.451c.087.023.174.042.261.06v9.323l-4.688-3.516zM57.703 41.59a4.087 4.087 0 00-.7 3.523 2.81 2.81 0 01-.123 1.806 2.817 2.817 0 01-1.19 1.364 4.086 4.086 0 00-1.995 2.987 2.81 2.81 0 01-.805 1.62 2.813 2.813 0 01-1.623.805 4.086 4.086 0 00-2.986 1.996c-.314.54-.785.95-1.363 1.19a2.818 2.818 0 01-1.807.123 4.11 4.11 0 00-3.522.701 2.813 2.813 0 01-1.716.577c-.625 0-1.218-.2-1.716-.578a4.134 4.134 0 00-2.482-.834c-.35 0-.7.045-1.041.134a2.83 2.83 0 01-1.806-.123 2.81 2.81 0 01-1.364-1.19 4.087 4.087 0 00-2.987-1.996 2.81 2.81 0 01-1.62-.804 2.814 2.814 0 01-.805-1.623 4.086 4.086 0 00-1.996-2.986 2.813 2.813 0 01-1.19-1.363 2.813 2.813 0 01-.123-1.807 4.086 4.086 0 00-.701-3.523 2.811 2.811 0 01-.577-1.715c0-.625.2-1.218.578-1.716a4.087 4.087 0 00.7-3.523 2.813 2.813 0 01.123-1.805c.24-.578.65-1.05 1.19-1.365a4.087 4.087 0 001.996-2.986c.084-.619.362-1.18.805-1.622a2.815 2.815 0 011.622-.804 4.085 4.085 0 002.986-1.996 2.831 2.831 0 013.17-1.313 4.107 4.107 0 003.523-.701 2.811 2.811 0 011.715-.577c.625 0 1.219.2 1.716.578.71.538 1.591.834 2.482.834.35 0 .7-.045 1.041-.134a2.831 2.831 0 011.806.123c.577.24 1.05.65 1.364 1.19a4.087 4.087 0 002.986 1.996c.62.084 1.18.362 1.622.805.442.442.72 1.002.804 1.622a4.086 4.086 0 001.996 2.986c.54.314.95.786 1.19 1.363a2.81 2.81 0 01.123 1.807 4.086 4.086 0 00.701 3.523c.377.497.577 1.09.577 1.715s-.2 1.219-.578 1.716z" fill="url(#paint0_linear)"/></g><g filter="url(#filter1_d)" fill-rule="evenodd" clip-rule="evenodd"><path d="M52.535 36.769a13.117 13.117 0 00-4.559-7.102 12.887 12.887 0 00-8.103-2.831 12.89 12.89 0 00-8.103 2.831 13.118 13.118 0 00-4.56 7.102.732.732 0 00.712.907h23.902a.733.733 0 00.712-.907zm-23.64-.558a11.545 11.545 0 0110.978-7.91c5.028 0 9.416 3.208 10.979 7.91H28.894z" fill="#F03C53"/><path d="M52.535 36.769a13.117 13.117 0 00-4.559-7.102 12.887 12.887 0 00-8.103-2.831 12.89 12.89 0 00-8.103 2.831 13.118 13.118 0 00-4.56 7.102.732.732 0 00.712.907h23.902a.733.733 0 00.712-.907zm-23.64-.558a11.545 11.545 0 0110.978-7.91c5.028 0 9.416 3.208 10.979 7.91H28.894z" fill="url(#paint1_linear)"/></g><g filter="url(#filter2_d)" fill-rule="evenodd" clip-rule="evenodd"><path d="M37.676 39.873a.733.733 0 11-1.466 0 .733.733 0 011.466 0z" fill="#F03C53"/><path d="M37.676 39.873a.733.733 0 11-1.466 0 .733.733 0 011.466 0z" fill="url(#paint2_linear)"/></g><g filter="url(#filter3_d)" fill-rule="evenodd" clip-rule="evenodd"><path d="M40.605 39.873a.733.733 0 11-1.465 0 .733.733 0 011.465 0z" fill="#F03C53"/><path d="M40.605 39.873a.733.733 0 11-1.465 0 .733.733 0 011.465 0z" fill="url(#paint3_linear)"/></g><g filter="url(#filter4_d)" fill-rule="evenodd" clip-rule="evenodd"><path d="M43.535 39.873a.733.733 0 11-1.465 0 .733.733 0 011.465 0z" fill="#F03C53"/><path d="M43.535 39.873a.733.733 0 11-1.465 0 .733.733 0 011.465 0z" fill="url(#paint4_linear)"/></g><g filter="url(#filter5_d)" fill-rule="evenodd" clip-rule="evenodd"><path d="M27.346 42.35a.732.732 0 00-.136.627 13.118 13.118 0 004.56 7.102 12.887 12.887 0 008.103 2.831c2.974 0 5.776-.979 8.103-2.831a13.118 13.118 0 004.56-7.102.732.732 0 00-.712-.907H27.922a.733.733 0 00-.576.28zm23.506 1.185a11.545 11.545 0 01-10.979 7.91 11.545 11.545 0 01-10.979-7.91h21.958z" fill="#F03C53"/><path d="M27.346 42.35a.732.732 0 00-.136.627 13.118 13.118 0 004.56 7.102 12.887 12.887 0 008.103 2.831c2.974 0 5.776-.979 8.103-2.831a13.118 13.118 0 004.56-7.102.732.732 0 00-.712-.907H27.922a.733.733 0 00-.576.28zm23.506 1.185a11.545 11.545 0 01-10.979 7.91 11.545 11.545 0 01-10.979-7.91h21.958z" fill="url(#paint5_linear)"/></g><g filter="url(#filter6_d)" fill-rule="evenodd" clip-rule="evenodd"><path d="M39.873 23.906a15.98 15.98 0 00-10.151 3.651.732.732 0 10.932 1.13 14.514 14.514 0 019.219-3.316c7.996 0 14.502 6.506 14.502 14.502s-6.506 14.502-14.502 14.502-14.502-6.506-14.502-14.502a14.52 14.52 0 013.31-9.213.732.732 0 10-1.129-.932 15.982 15.982 0 00-3.646 10.145c0 8.804 7.163 15.967 15.967 15.967S55.84 48.677 55.84 39.873s-7.163-15.967-15.967-15.967z" fill="#F03C53"/><path d="M39.873 23.906a15.98 15.98 0 00-10.151 3.651.732.732 0 10.932 1.13 14.514 14.514 0 019.219-3.316c7.996 0 14.502 6.506 14.502 14.502s-6.506 14.502-14.502 14.502-14.502-6.506-14.502-14.502a14.52 14.52 0 013.31-9.213.732.732 0 10-1.129-.932 15.982 15.982 0 00-3.646 10.145c0 8.804 7.163 15.967 15.967 15.967S55.84 48.677 55.84 39.873s-7.163-15.967-15.967-15.967z" fill="url(#paint6_linear)"/></g><defs><linearGradient id="paint0_linear" x1="-.072" y1="45.5" x2="49.504" y2="84.522" gradientUnits="userSpaceOnUse"><stop stop-color="#F03C53"/><stop offset="1" stop-color="#FF2778"/></linearGradient><linearGradient id="paint1_linear" x1="14.379" y1="32.364" x2="22.424" y2="51.007" gradientUnits="userSpaceOnUse"><stop stop-color="#F03C53"/><stop offset="1" stop-color="#FF2778"/></linearGradient><linearGradient id="paint2_linear" x1="35.471" y1="39.888" x2="36.965" y2="41.367" gradientUnits="userSpaceOnUse"><stop stop-color="#F03C53"/><stop offset="1" stop-color="#FF2778"/></linearGradient><linearGradient id="paint3_linear" x1="38.401" y1="39.888" x2="39.895" y2="41.367" gradientUnits="userSpaceOnUse"><stop stop-color="#F03C53"/><stop offset="1" stop-color="#FF2778"/></linearGradient><linearGradient id="paint4_linear" x1="41.331" y1="39.888" x2="42.825" y2="41.367" gradientUnits="userSpaceOnUse"><stop stop-color="#F03C53"/><stop offset="1" stop-color="#FF2778"/></linearGradient><linearGradient id="paint5_linear" x1="14.379" y1="47.599" x2="22.424" y2="66.241" gradientUnits="userSpaceOnUse"><stop stop-color="#F03C53"/><stop offset="1" stop-color="#FF2778"/></linearGradient><linearGradient id="paint6_linear" x1="7.78" y1="40.192" x2="40.352" y2="72.445" gradientUnits="userSpaceOnUse"><stop stop-color="#F03C53"/><stop offset="1" stop-color="#FF2778"/></linearGradient><filter id="filter0_d" x="0" y="0" width="79.746" height="90" filterUnits="userSpaceOnUse" color-interpolation-filters="sRGB"><feFlood flood-opacity="0" result="BackgroundImageFix"/><feColorMatrix in="SourceAlpha" values="0 0 0 0 0 0 0 0 0 0 0 0 0 0 0 0 0 0 127 0"/><feOffset/><feGaussianBlur stdDeviation="10"/><feColorMatrix values="0 0 0 0 0.290816 0 0 0 0 0.345804 0 0 0 0 0.59075 0 0 0 1 0"/><feBlend in2="BackgroundImageFix" result="effect1_dropShadow"/><feBlend in="SourceGraphic" in2="effect1_dropShadow" result="shape"/></filter><filter id="filter1_d" x="7.189" y="6.836" width="65.367" height="50.84" filterUnits="userSpaceOnUse" color-interpolation-filters="sRGB"><feFlood flood-opacity="0" result="BackgroundImageFix"/><feColorMatrix in="SourceAlpha" values="0 0 0 0 0 0 0 0 0 0 0 0 0 0 0 0 0 0 127 0"/><feOffset/><feGaussianBlur stdDeviation="10"/><feColorMatrix values="0 0 0 0 0.290816 0 0 0 0 0.345804 0 0 0 0 0.59075 0 0 0 1 0"/><feBlend in2="BackgroundImageFix" result="effect1_dropShadow"/><feBlend in="SourceGraphic" in2="effect1_dropShadow" result="shape"/></filter><filter id="filter2_d" x="16.211" y="19.141" width="41.465" height="41.465" filterUnits="userSpaceOnUse" color-interpolation-filters="sRGB"><feFlood flood-opacity="0" result="BackgroundImageFix"/><feColorMatrix in="SourceAlpha" values="0 0 0 0 0 0 0 0 0 0 0 0 0 0 0 0 0 0 127 0"/><feOffset/><feGaussianBlur stdDeviation="10"/><feColorMatrix values="0 0 0 0 0.290816 0 0 0 0 0.345804 0 0 0 0 0.59075 0 0 0 1 0"/><feBlend in2="BackgroundImageFix" result="effect1_dropShadow"/><feBlend in="SourceGraphic" in2="effect1_dropShadow" result="shape"/></filter><filter id="filter3_d" x="19.141" y="19.141" width="41.465" height="41.465" filterUnits="userSpaceOnUse" color-interpolation-filters="sRGB"><feFlood flood-opacity="0" result="BackgroundImageFix"/><feColorMatrix in="SourceAlpha" values="0 0 0 0 0 0 0 0 0 0 0 0 0 0 0 0 0 0 127 0"/><feOffset/><feGaussianBlur stdDeviation="10"/><feColorMatrix values="0 0 0 0 0.290816 0 0 0 0 0.345804 0 0 0 0 0.59075 0 0 0 1 0"/><feBlend in2="BackgroundImageFix" result="effect1_dropShadow"/><feBlend in="SourceGraphic" in2="effect1_dropShadow" result="shape"/></filter><filter id="filter4_d" x="22.07" y="19.141" width="41.465" height="41.465" filterUnits="userSpaceOnUse" color-interpolation-filters="sRGB"><feFlood flood-opacity="0" result="BackgroundImageFix"/><feColorMatrix in="SourceAlpha" values="0 0 0 0 0 0 0 0 0 0 0 0 0 0 0 0 0 0 127 0"/><feOffset/><feGaussianBlur stdDeviation="10"/><feColorMatrix values="0 0 0 0 0.290816 0 0 0 0 0.345804 0 0 0 0 0.59075 0 0 0 1 0"/><feBlend in2="BackgroundImageFix" result="effect1_dropShadow"/><feBlend in="SourceGraphic" in2="effect1_dropShadow" result="shape"/></filter><filter id="filter5_d" x="7.189" y="22.07" width="65.367" height="50.84" filterUnits="userSpaceOnUse" color-interpolation-filters="sRGB"><feFlood flood-opacity="0" result="BackgroundImageFix"/><feColorMatrix in="SourceAlpha" values="0 0 0 0 0 0 0 0 0 0 0 0 0 0 0 0 0 0 127 0"/><feOffset/><feGaussianBlur stdDeviation="10"/><feColorMatrix values="0 0 0 0 0.290816 0 0 0 0 0.345804 0 0 0 0 0.59075 0 0 0 1 0"/><feBlend in2="BackgroundImageFix" result="effect1_dropShadow"/><feBlend in="SourceGraphic" in2="effect1_dropShadow" result="shape"/></filter><filter id="filter6_d" x="3.906" y="3.906" width="71.934" height="71.934" filterUnits="userSpaceOnUse" color-interpolation-filters="sRGB"><feFlood flood-opacity="0" result="BackgroundImageFix"/><feColorMatrix in="SourceAlpha" values="0 0 0 0 0 0 0 0 0 0 0 0 0 0 0 0 0 0 127 0"/><feOffset/><feGaussianBlur stdDeviation="10"/><feColorMatrix values="0 0 0 0 0.290816 0 0 0 0 0.345804 0 0 0 0 0.59075 0 0 0 1 0"/><feBlend in2="BackgroundImageFix" result="effect1_dropShadow"/><feBlend in="SourceGraphic" in2="effect1_dropShadow" result="shape"/></filter></defs></svg>