<svg width="87" height="77" fill="none" xmlns="http://www.w3.org/2000/svg"><path opacity=".32" d="M0 10.51l.601 4.48 73.202-9.864 7.899 58-64.02 8.635-3.786-27.876 23.111-3.089.797 5.821 4.68-.647-1.43-10.494-32.538 4.43L13.652 77 87 67.104 77.866 0 0 10.51z" fill="#fff"/><path d="M5 5v4.48h73.322v57.928H14.195V39.563l23.15.048v5.793h4.695v-10.48l-32.604.048L9.517 72H83V5H5z" fill="#fff"/><path fill-rule="evenodd" clip-rule="evenodd" d="M9.194 31.677c0-.13 0-.356-.017-.68 0-.34 0-.76-.017-1.229V28.2c0-.55-.017-1.115-.017-1.682v-3.622c.051.032.22.178.525.388.304.226.694.517 1.167.89.474.355 1.032.776 1.641 1.229l1.946 1.439c.677.517 1.37 1.019 2.064 1.52a88 88 0 002.014 1.456c.642.469 1.252.89 1.793 1.261.541.372 1.015.68 1.404.922l.254-.13c.017-.404.05-.905.068-1.503.034-.599.067-1.278.101-2.038.034-.744.085-1.553.119-2.394l.152-2.604c.05-.889.118-1.762.17-2.636.05-.873.1-1.698.168-2.49.051-.793.102-1.52.153-2.183.05-.663.084-1.23.118-1.715l-5.16-.145v3.507c0 .534.017 1.084.017 1.634 0 .55 0 1.067.017 1.568v2.167c-.136-.097-.39-.29-.796-.566-.389-.29-.88-.646-1.472-1.067-.592-.42-1.235-.89-1.945-1.407s-1.455-1.035-2.217-1.585c-.761-.55-1.522-1.1-2.284-1.633-.744-.534-1.455-1.052-2.131-1.52-.677-.47-1.27-.906-1.777-1.262l-.254.146c-.034.404-.067.938-.101 1.6-.034.664-.085 1.408-.136 2.232-.05.825-.101 1.715-.152 2.637l-.152 2.781c-.05.938-.102 1.844-.152 2.717-.051.873-.085 1.682-.136 2.41a95.48 95.48 0 01-.101 1.876c-.034.517-.051.89-.068 1.1l5.194.178z" fill="#F03C53"/><path fill-rule="evenodd" clip-rule="evenodd" d="M9.194 31.677c0-.13 0-.356-.017-.68 0-.34 0-.76-.017-1.229V28.2c0-.55-.017-1.115-.017-1.682v-3.622c.051.032.22.178.525.388.304.226.694.517 1.167.89.474.355 1.032.776 1.641 1.229l1.946 1.439c.677.517 1.37 1.019 2.064 1.52a88 88 0 002.014 1.456c.642.469 1.252.89 1.793 1.261.541.372 1.015.68 1.404.922l.254-.13c.017-.404.05-.905.068-1.503.034-.599.067-1.278.101-2.038.034-.744.085-1.553.119-2.394l.152-2.604c.05-.889.118-1.762.17-2.636.05-.873.1-1.698.168-2.49.051-.793.102-1.52.153-2.183.05-.663.084-1.23.118-1.715l-5.16-.145v3.507c0 .534.017 1.084.017 1.634 0 .55 0 1.067.017 1.568v2.167c-.136-.097-.39-.29-.796-.566-.389-.29-.88-.646-1.472-1.067-.592-.42-1.235-.89-1.945-1.407s-1.455-1.035-2.217-1.585c-.761-.55-1.522-1.1-2.284-1.633-.744-.534-1.455-1.052-2.131-1.52-.677-.47-1.27-.906-1.777-1.262l-.254.146c-.034.404-.067.938-.101 1.6-.034.664-.085 1.408-.136 2.232-.05.825-.101 1.715-.152 2.637l-.152 2.781c-.05.938-.102 1.844-.152 2.717-.051.873-.085 1.682-.136 2.41a95.48 95.48 0 01-.101 1.876c-.034.517-.051.89-.068 1.1l5.194.178z" fill="url(#paint0_linear)"/><path fill-rule="evenodd" clip-rule="evenodd" d="M33.077 31.404c1.163 0 2.214-.132 3.118-.38.905-.265 1.696-.613 2.375-1.06a7.78 7.78 0 002.843-3.327c.29-.63.485-1.258.614-1.87a8.58 8.58 0 00.194-1.755c0-1.192-.194-2.252-.566-3.178a6.382 6.382 0 00-1.615-2.384 7.035 7.035 0 00-2.553-1.49c-1.001-.348-2.116-.513-3.376-.513-1.034 0-1.97.116-2.827.348a8.753 8.753 0 00-2.294.96 8.064 8.064 0 00-3.005 3.228 8.311 8.311 0 00-.743 2.002A9.19 9.19 0 0025 24.071c0 .695.097 1.39.307 2.086a7.41 7.41 0 00.937 1.986c.42.63.953 1.192 1.583 1.688.646.497 1.39.878 2.278 1.16.856.264 1.858.413 2.972.413zm.227-3.327a2.83 2.83 0 01-1.228-.265 3.008 3.008 0 01-1.018-.811 3.942 3.942 0 01-.695-1.357 6.675 6.675 0 01-.258-1.904c0-.662.08-1.291.242-1.887.162-.596.404-1.11.727-1.573.307-.463.71-.827 1.163-1.076a3.13 3.13 0 011.583-.397c.679 0 1.26.182 1.745.513.485.348.856.845 1.115 1.507.258.645.388 1.44.388 2.367-.017 1.076-.178 1.97-.485 2.698s-.743 1.274-1.309 1.655c-.549.348-1.211.53-1.97.53zM55.838 15.33c-.048.1-.145.315-.29.63-.146.314-.34.71-.566 1.174-.226.464-.469.977-.727 1.523-.258.546-.533 1.11-.792 1.672-.258.563-.517 1.11-.759 1.622-.242.513-.452.977-.646 1.374-.178.398-.323.695-.42.91-.097-.215-.226-.512-.404-.893-.178-.381-.371-.828-.614-1.325a111.47 111.47 0 00-.727-1.572c-.258-.563-.5-1.11-.76-1.639a56.17 56.17 0 01-.694-1.523 51.06 51.06 0 00-.565-1.208c-.162-.331-.259-.58-.34-.728l-4.506 2.516c.096.149.242.413.468.794.226.38.485.844.808 1.407.323.563.678 1.175 1.066 1.854s.791 1.39 1.212 2.136c.42.744.856 1.49 1.292 2.25.436.746.856 1.474 1.26 2.186.42.695.791 1.357 1.163 1.953.355.596.679 1.11.953 1.556h.21c.21-.314.469-.745.808-1.275.34-.53.71-1.142 1.13-1.837.42-.695.873-1.424 1.342-2.185.468-.778.937-1.54 1.421-2.334.469-.778.937-1.54 1.39-2.268.436-.728.856-1.407 1.227-2.003.372-.612.695-1.125.937-1.54.259-.413.436-.694.533-.86l-4.41-2.367zm6.413 16.42l-3.974-2.284c.081-.149.227-.413.469-.81.226-.398.5-.878.84-1.457.34-.58.71-1.225 1.115-1.937.404-.712.84-1.457 1.292-2.218.452-.778.905-1.54 1.357-2.318.452-.778.889-1.523 1.308-2.234.42-.712.808-1.374 1.164-1.97.355-.596.662-1.11.92-1.523h.21c.323.497.679 1.043 1.083 1.672.404.629.824 1.308 1.276 2.02.452.711.905 1.44 1.39 2.2.468.746.936 1.49 1.405 2.219.468.728.904 1.424 1.324 2.102.42.662.808 1.275 1.147 1.821.356.546.647 1.01.889 1.39.242.381.42.646.533.812l-4.152 2.516a22.539 22.539 0 01-.404-.712c-.145-.265-.306-.53-.452-.811-.162-.282-.307-.53-.436-.778a16.124 16.124 0 01-.355-.646 3.57 3.57 0 00-.227-.38l-6.3.364c-.048.082-.113.231-.226.447-.097.215-.226.48-.355.778-.13.298-.275.596-.42.91-.162.298-.291.58-.42.828zm2.73-6.174l3.538-.198a47.09 47.09 0 00-.63-1.291 47.088 47.088 0 01-.63-1.291 42.513 42.513 0 01-.484-1.06c-.178.348-.356.745-.566 1.192l-.63 1.34c-.226.464-.42.895-.597 1.308z" fill="#fff"/><path fill-rule="evenodd" clip-rule="evenodd" d="M23 47c.016.083.016.25.016.534.016.267.016.617.016 1.034.017.4.017.85.017 1.335 0 .483.016.95.016 1.418 0 .483.016.917.016 1.318 0 .4.016.734.016 1.017v7.19c0 .534-.016 1.051-.016 1.568 0 .517-.016.968-.016 1.385 0 .417-.016.734-.033.95.244 0 .584 0 1.006.017.422 0 .909.017 1.444.017.552.017 1.12.017 1.72.05l1.833.05 1.753.05c.567.017 1.07.034 1.525.034.454 0 .827.016 1.12.016.291 0 .486.017.567.017l-.016-4.654-1.25.05c-.438.016-.876.016-1.314.033-.438.017-.843.017-1.233.017h-1.59v-4.571c0-.534 0-1.101.017-1.702 0-.617.016-1.234.016-1.868.016-.634.016-1.235.032-1.818 0-.601.017-1.135.033-1.619.016-.483.016-.9.016-1.217.016-.317.016-.534.016-.634H23V47z" fill="#30354C"/><path fill-rule="evenodd" clip-rule="evenodd" d="M41.744 55.822v-1.615c0-.56.016-1.104.016-1.648 0-.527.016-1.021.016-1.466 0-.445.016-.824.016-1.12 0-.297.016-.479.016-.561H37v.494c0 .248 0 .56.016.923 0 .363 0 .758.016 1.186 0 .429.016.84.016 1.27 0 .428 0 .807.016 1.17V60.6c0 .396 0 .808-.016 1.22 0 .412 0 .807-.016 1.186 0 .38-.016.692-.016.972s-.016.495-.016.627h4.808c0-.083 0-.248-.016-.495 0-.247-.016-.56-.016-.923 0-.362-.016-.758-.016-1.202 0-.429-.016-.874-.016-1.335 0-.462-.016-.89-.016-1.335v-3.493h.016zm7.977 8.93c0-.114 0-.312-.016-.609v-7.168c.048.033.19.149.43.346.239.198.557.462.955.775.398.33.844.692 1.337 1.087.51.396 1.035.824 1.592 1.27.558.444 1.115.889 1.688 1.334.573.445 1.114.873 1.656 1.285.525.412 1.019.774 1.465 1.12.445.33.827.594 1.146.808l.207-.099c.016-.346.032-.79.063-1.335.032-.527.048-1.137.08-1.796s.064-1.367.111-2.125c.048-.742.08-1.516.128-2.29l.143-2.324c.048-.775.096-1.5.127-2.208.048-.692.08-1.351.128-1.928.032-.593.08-1.088.095-1.516l-4.219-.132v3.098c0 .478 0 .956.016 1.45 0 .478 0 .94.016 1.384v1.912c-.111-.083-.318-.248-.653-.495-.318-.247-.716-.56-1.194-.939a82.808 82.808 0 00-1.592-1.236 67.744 67.744 0 00-1.815-1.4c-.62-.495-1.242-.973-1.862-1.45-.621-.478-1.194-.923-1.736-1.352-.541-.428-1.035-.79-1.465-1.12l-.206.132c-.032.362-.048.824-.096 1.417-.032.576-.064 1.236-.111 1.977-.032.725-.08 1.5-.128 2.324-.048.807-.08 1.63-.127 2.455-.048.824-.08 1.631-.127 2.405-.032.775-.08 1.483-.112 2.126a88.6 88.6 0 01-.096 1.664c-.031.462-.047.775-.063.973l4.235.18zm24.152-3.624c-.16.016-.383.033-.653.033-.255 0-.557.016-.876.016h-3.12v-2.521h.398c.19 0 .414 0 .653.017.254 0 .509.016.796.016.286 0 .54.017.796.017.254 0 .493.016.684.016h.446l-.064-3.428c-.19.017-.414.034-.7.05-.27.017-.573.033-.876.05l-.907.049c-.287.016-.542.033-.764.033-.223 0-.367.016-.462.016v-2.834h.398c.207 0 .446-.016.732-.016.287 0 .59-.017.908-.033.318-.017.636-.017.955-.033.302-.017.589-.017.828-.017h.573L73.538 49c-.095 0-.286.017-.557.033-.27.016-.605.033-.987.05-.382.016-.828.049-1.29.065-.461.017-.955.05-1.448.066-.494.017-.987.05-1.465.066-.478.017-.94.033-1.353.05-.414.016-.78.032-1.083.032-.303.017-.541.017-.685.017 0 .099 0 .264.016.527 0 .248 0 .56.016.907 0 .362.016.741.016 1.136 0 .396 0 .808.016 1.203 0 .396 0 .775.016 1.104v6.971c0 .461 0 .906-.016 1.334 0 .429-.016.824-.016 1.187 0 .346-.016.626-.032.824.144 0 .366 0 .685.016.302 0 .684.017 1.114.017.446.016.908.016 1.417.032.51.017 1.02.033 1.56.033.526.017 1.035.033 1.545.033.493.017.955.033 1.37.033.413 0 .763.017 1.05.017.286 0 .477.016.573.016l-.127-3.641z" fill="#fff"/><defs><linearGradient id="paint0_linear" x1="-5.595" y1="23.18" x2="12.748" y2="42.352" gradientUnits="userSpaceOnUse"><stop stop-color="#F03C53"/><stop offset="1" stop-color="#FF2778"/></linearGradient></defs></svg>