<svg width="75" height="78" fill="none" xmlns="http://www.w3.org/2000/svg"><path fill-rule="evenodd" clip-rule="evenodd" d="M74.925 52.06V13.433c0-4.124-3.354-7.478-7.478-7.478H51.194A18.828 18.828 0 0037.463 0 18.825 18.825 0 0023.73 5.955H7.478C3.355 5.955 0 9.309 0 13.433v42.883c0 4.124 3.355 7.479 7.479 7.479h20.584v8.033h-2.43a4.615 4.615 0 00-4.608 4.609 1.138 1.138 0 102.277 0 2.334 2.334 0 012.332-2.332H49.29a2.335 2.335 0 012.333 2.332 1.139 1.139 0 102.277 0 4.615 4.615 0 00-4.61-4.61h-2.428v-8.032h20.584c4.123 0 7.478-3.355 7.478-7.479v-4.255zM37.463 2.273A16.555 16.555 0 0152.739 12.46v.002a16.407 16.407 0 011.264 6.35c0 5.543-2.332 11.358-6.93 17.282a1.137 1.137 0 001.795 1.394c4.916-6.332 7.408-12.616 7.408-18.677a18.73 18.73 0 00-.843-5.58l-.02-.07h11.779a.64.64 0 01.639.638v31.973H40.953a61.579 61.579 0 005.3-5.174 1.136 1.136 0 10-1.684-1.526c-3.028 3.344-5.924 5.713-7.134 6.653-3.017-2.175-16.514-12.701-16.514-26.914 0-2.202.426-4.338 1.265-6.349v-.002A16.556 16.556 0 0137.462 2.272zM7.478 8.227h14.43a18.619 18.619 0 00-1.82 3.361v.002l-.001.002a18.67 18.67 0 00-1.438 7.22c0 6.581 2.578 13.125 7.663 19.448 2.627 3.269 5.41 5.82 7.47 7.513H7.094V13.8c0-.352.286-.638.639-.638h7.607a1.137 1.137 0 000-2.272H7.734a2.914 2.914 0 00-2.912 2.91v33.11c0 .627.508 1.136 1.136 1.136h63.01c.627 0 1.136-.51 1.136-1.137V13.8a2.914 2.914 0 00-2.912-2.91H54.53a18.688 18.688 0 00-1.513-2.662h14.43a5.211 5.211 0 015.205 5.206v37.5H2.273v-37.5a5.211 5.211 0 015.205-5.206zm59.969 53.295H43.574a1.137 1.137 0 000 2.272h1.016v8.034H30.336v-8.034h8.591a1.136 1.136 0 100-2.272H7.479a5.211 5.211 0 01-5.206-5.206v-3.108h70.38v3.108a5.212 5.212 0 01-5.206 5.206z" fill="#102D63"/><path fill-rule="evenodd" clip-rule="evenodd" d="M74.925 52.06V13.433c0-4.124-3.354-7.478-7.478-7.478H51.194A18.828 18.828 0 0037.463 0 18.825 18.825 0 0023.73 5.955H7.478C3.355 5.955 0 9.309 0 13.433v42.883c0 4.124 3.355 7.479 7.479 7.479h20.584v8.033h-2.43a4.615 4.615 0 00-4.608 4.609 1.138 1.138 0 102.277 0 2.334 2.334 0 012.332-2.332H49.29a2.335 2.335 0 012.333 2.332 1.139 1.139 0 102.277 0 4.615 4.615 0 00-4.61-4.61h-2.428v-8.032h20.584c4.123 0 7.478-3.355 7.478-7.479v-4.255zM37.463 2.273A16.555 16.555 0 0152.739 12.46v.002a16.407 16.407 0 011.264 6.35c0 5.543-2.332 11.358-6.93 17.282a1.137 1.137 0 001.795 1.394c4.916-6.332 7.408-12.616 7.408-18.677a18.73 18.73 0 00-.843-5.58l-.02-.07h11.779a.64.64 0 01.639.638v31.973H40.953a61.579 61.579 0 005.3-5.174 1.136 1.136 0 10-1.684-1.526c-3.028 3.344-5.924 5.713-7.134 6.653-3.017-2.175-16.514-12.701-16.514-26.914 0-2.202.426-4.338 1.265-6.349v-.002A16.556 16.556 0 0137.462 2.272zM7.478 8.227h14.43a18.619 18.619 0 00-1.82 3.361v.002l-.001.002a18.67 18.67 0 00-1.438 7.22c0 6.581 2.578 13.125 7.663 19.448 2.627 3.269 5.41 5.82 7.47 7.513H7.094V13.8c0-.352.286-.638.639-.638h7.607a1.137 1.137 0 000-2.272H7.734a2.914 2.914 0 00-2.912 2.91v33.11c0 .627.508 1.136 1.136 1.136h63.01c.627 0 1.136-.51 1.136-1.137V13.8a2.914 2.914 0 00-2.912-2.91H54.53a18.688 18.688 0 00-1.513-2.662h14.43a5.211 5.211 0 015.205 5.206v37.5H2.273v-37.5a5.211 5.211 0 015.205-5.206zm59.969 53.295H43.574a1.137 1.137 0 000 2.272h1.016v8.034H30.336v-8.034h8.591a1.136 1.136 0 100-2.272H7.479a5.211 5.211 0 01-5.206-5.206v-3.108h70.38v3.108a5.212 5.212 0 01-5.206 5.206z" fill="url(#paint0_linear)"/><path fill-rule="evenodd" clip-rule="evenodd" d="M32.485 25.762c.218.126.481.19.791.19.298 0 .559-.064.782-.19.224-.126.336-.298.336-.516V14.068c0-.23-.109-.401-.327-.516a1.685 1.685 0 00-.791-.172c-.31 0-.574.057-.791.172-.218.115-.327.287-.327.516v11.178c0 .218.109.39.327.516z" fill="#102D63"/><path fill-rule="evenodd" clip-rule="evenodd" d="M32.485 25.762c.218.126.481.19.791.19.298 0 .559-.064.782-.19.224-.126.336-.298.336-.516V14.068c0-.23-.109-.401-.327-.516a1.685 1.685 0 00-.791-.172c-.31 0-.574.057-.791.172-.218.115-.327.287-.327.516v11.178c0 .218.109.39.327.516z" fill="url(#paint1_linear)"/><path fill-rule="evenodd" clip-rule="evenodd" d="M36.785 25.762c.217.126.481.19.79.19.298 0 .56-.064.783-.19.224-.126.336-.298.336-.516v-3.99h1.926c1.215 0 2.193-.314 2.932-.945.74-.63 1.11-1.617 1.11-2.958v-.103c0-1.33-.356-2.308-1.066-2.933-.711-.624-1.658-.937-2.838-.937H37.3c-.253 0-.456.069-.61.206a.627.627 0 00-.233.482v11.178c0 .218.109.39.327.516zm1.909-10.422h1.926c.573 0 1.017.167 1.333.5.315.332.473.824.473 1.478v.206c0 .654-.158 1.147-.473 1.48-.316.333-.76.498-1.333.498h-1.926V15.34z" fill="#102D63"/><path fill-rule="evenodd" clip-rule="evenodd" d="M36.785 25.762c.217.126.481.19.79.19.298 0 .56-.064.783-.19.224-.126.336-.298.336-.516v-3.99h1.926c1.215 0 2.193-.314 2.932-.945.74-.63 1.11-1.617 1.11-2.958v-.103c0-1.33-.356-2.308-1.066-2.933-.711-.624-1.658-.937-2.838-.937H37.3c-.253 0-.456.069-.61.206a.627.627 0 00-.233.482v11.178c0 .218.109.39.327.516zm1.909-10.422h1.926c.573 0 1.017.167 1.333.5.315.332.473.824.473 1.478v.206c0 .654-.158 1.147-.473 1.48-.316.333-.76.498-1.333.498h-1.926V15.34z" fill="url(#paint2_linear)"/><g opacity=".131" fill-rule="evenodd" clip-rule="evenodd"><path d="M35.306 45.773l-9.292-9.644-4.072-6.548-2.047-7.767 1.027-9.27 5.092-6.516 4.544-3.755 3.836-.872 8.032.872 5.53 2.504 4.435 4.66 2.897 7.984L54.382 25l-9.72 16.152L39 45.773h-3.694z" fill="#102D63"/><path d="M35.306 45.773l-9.292-9.644-4.072-6.548-2.047-7.767 1.027-9.27 5.092-6.516 4.544-3.755 3.836-.872 8.032.872 5.53 2.504 4.435 4.66 2.897 7.984L54.382 25l-9.72 16.152L39 45.773h-3.694z" fill="url(#paint3_linear)"/></g><defs><linearGradient id="paint0_linear" x1="-37.837" y1="39.564" x2="41.215" y2="115.167" gradientUnits="userSpaceOnUse"><stop stop-color="#6C66FE"/><stop offset="1" stop-color="#935BF2"/></linearGradient><linearGradient id="paint1_linear" x1="31.029" y1="19.792" x2="35.41" y2="20.563" gradientUnits="userSpaceOnUse"><stop stop-color="#6C66FE"/><stop offset="1" stop-color="#935BF2"/></linearGradient><linearGradient id="paint2_linear" x1="32.315" y1="19.792" x2="44.006" y2="27.347" gradientUnits="userSpaceOnUse"><stop stop-color="#6C66FE"/><stop offset="1" stop-color="#935BF2"/></linearGradient><linearGradient id="paint3_linear" x1="2.021" y1="24.031" x2="46.051" y2="58.808" gradientUnits="userSpaceOnUse"><stop stop-color="#6C66FE"/><stop offset="1" stop-color="#935BF2"/></linearGradient></defs></svg>