<svg width="55" height="77" fill="none" xmlns="http://www.w3.org/2000/svg"><path fill-rule="evenodd" clip-rule="evenodd" d="M22.54 38.69a1.12 1.12 0 00.183-1.575c-8.015-10.13-9.699-16.695-9.699-20.42 0-7.97 6.484-14.453 14.454-14.453 7.97 0 14.454 6.484 14.454 14.454 0 9.853-11.326 22.603-14.455 25.937-.4-.425-.933-1.002-1.556-1.704a1.12 1.12 0 00-1.676 1.489 65.276 65.276 0 002.44 2.626 1.121 1.121 0 001.586 0c.65-.65 15.903-16.045 15.903-28.348C44.174 7.49 36.684 0 27.478 0c-9.206 0-16.696 7.49-16.696 16.696 0 7.391 5.538 15.94 10.183 21.81a1.121 1.121 0 001.575.184z" fill="#102D63"/><path fill-rule="evenodd" clip-rule="evenodd" d="M22.54 38.69a1.12 1.12 0 00.183-1.575c-8.015-10.13-9.699-16.695-9.699-20.42 0-7.97 6.484-14.453 14.454-14.453 7.97 0 14.454 6.484 14.454 14.454 0 9.853-11.326 22.603-14.455 25.937-.4-.425-.933-1.002-1.556-1.704a1.12 1.12 0 00-1.676 1.489 65.276 65.276 0 002.44 2.626 1.121 1.121 0 001.586 0c.65-.65 15.903-16.045 15.903-28.348C44.174 7.49 36.684 0 27.478 0c-9.206 0-16.696 7.49-16.696 16.696 0 7.391 5.538 15.94 10.183 21.81a1.121 1.121 0 001.575.184z" fill="url(#paint0_linear)"/><path fill-rule="evenodd" clip-rule="evenodd" d="M52.638 47.922h-1.742a23.846 23.846 0 00-8.332-13.802 1.12 1.12 0 00-1.417 1.737 21.613 21.613 0 017.458 12.065h-.76a2.322 2.322 0 00-2.319 2.32v1.275H32.193v-1.276a2.321 2.321 0 00-2.319-2.319h-4.792a2.322 2.322 0 00-2.319 2.32v1.275H9.43v-1.276a2.322 2.322 0 00-2.319-2.319h-.759a21.61 21.61 0 017.458-12.065 1.122 1.122 0 00-1.417-1.737 23.845 23.845 0 00-8.331 13.803H2.319A2.321 2.321 0 000 50.242v4.792a2.322 2.322 0 002.319 2.319H4.06a23.904 23.904 0 007.835 13.387 23.88 23.88 0 0015.582 5.782A23.88 23.88 0 0043.06 70.74a23.905 23.905 0 007.836-13.387h1.742a2.322 2.322 0 002.319-2.32v-4.792a2.322 2.322 0 00-2.32-2.319zm-27.633 2.32c0-.043.035-.078.077-.078h4.792c.043 0 .077.035.077.077v4.793a.077.077 0 01-.077.077h-4.792a.077.077 0 01-.077-.077V50.24zM2.242 55.033V50.24c0-.042.034-.077.077-.077H7.11c.042 0 .078.035.078.077v4.793a.077.077 0 01-.078.077H2.319a.077.077 0 01-.077-.077zM41.597 69.04a21.64 21.64 0 01-28.237 0 21.664 21.664 0 01-7.008-11.688h.76a2.322 2.322 0 002.318-2.32v-1.275h13.334v1.276a2.321 2.321 0 002.318 2.319h4.792a2.322 2.322 0 002.32-2.32v-1.275h13.332v1.276a2.322 2.322 0 002.32 2.319h.758a21.664 21.664 0 01-7.007 11.688zm11.118-14.007a.077.077 0 01-.077.077h-4.793a.077.077 0 01-.077-.077V50.24c0-.042.035-.077.077-.077h4.793c.043 0 .077.035.077.077v4.793z" fill="#102D63"/><path fill-rule="evenodd" clip-rule="evenodd" d="M52.638 47.922h-1.742a23.846 23.846 0 00-8.332-13.802 1.12 1.12 0 00-1.417 1.737 21.613 21.613 0 017.458 12.065h-.76a2.322 2.322 0 00-2.319 2.32v1.275H32.193v-1.276a2.321 2.321 0 00-2.319-2.319h-4.792a2.322 2.322 0 00-2.319 2.32v1.275H9.43v-1.276a2.322 2.322 0 00-2.319-2.319h-.759a21.61 21.61 0 017.458-12.065 1.122 1.122 0 00-1.417-1.737 23.845 23.845 0 00-8.331 13.803H2.319A2.321 2.321 0 000 50.242v4.792a2.322 2.322 0 002.319 2.319H4.06a23.904 23.904 0 007.835 13.387 23.88 23.88 0 0015.582 5.782A23.88 23.88 0 0043.06 70.74a23.905 23.905 0 007.836-13.387h1.742a2.322 2.322 0 002.319-2.32v-4.792a2.322 2.322 0 00-2.32-2.319zm-27.633 2.32c0-.043.035-.078.077-.078h4.792c.043 0 .077.035.077.077v4.793a.077.077 0 01-.077.077h-4.792a.077.077 0 01-.077-.077V50.24zM2.242 55.033V50.24c0-.042.034-.077.077-.077H7.11c.042 0 .078.035.078.077v4.793a.077.077 0 01-.078.077H2.319a.077.077 0 01-.077-.077zM41.597 69.04a21.64 21.64 0 01-28.237 0 21.664 21.664 0 01-7.008-11.688h.76a2.322 2.322 0 002.318-2.32v-1.275h13.334v1.276a2.321 2.321 0 002.318 2.319h4.792a2.322 2.322 0 002.32-2.32v-1.275h13.332v1.276a2.322 2.322 0 002.32 2.319h.758a21.664 21.664 0 01-7.007 11.688zm11.118-14.007a.077.077 0 01-.077.077h-4.793a.077.077 0 01-.077-.077V50.24c0-.042.035-.077.077-.077h4.793c.043 0 .077.035.077.077v4.793z" fill="url(#paint1_linear)"/><path fill-rule="evenodd" clip-rule="evenodd" d="M21.565 11.903v10.783a1.12 1.12 0 102.242 0V11.903a1.12 1.12 0 10-2.242 0z" fill="#102D63"/><path fill-rule="evenodd" clip-rule="evenodd" d="M21.565 11.903v10.783a1.12 1.12 0 102.242 0V11.903a1.12 1.12 0 10-2.242 0z" fill="url(#paint2_linear)"/><path fill-rule="evenodd" clip-rule="evenodd" d="M28.6 22.686v-3.671h1.873a4.121 4.121 0 004.117-4.116 4.121 4.121 0 00-4.117-4.116h-2.995a1.12 1.12 0 00-1.12 1.12v10.783a1.12 1.12 0 102.241 0zm0-9.662h1.873c1.034 0 1.875.841 1.875 1.875 0 1.033-.84 1.874-1.875 1.874H28.6v-3.749z" fill="#102D63"/><path fill-rule="evenodd" clip-rule="evenodd" d="M28.6 22.686v-3.671h1.873a4.121 4.121 0 004.117-4.116 4.121 4.121 0 00-4.117-4.116h-2.995a1.12 1.12 0 00-1.12 1.12v10.783a1.12 1.12 0 102.241 0zm0-9.662h1.873c1.034 0 1.875.841 1.875 1.875 0 1.033-.84 1.874-1.875 1.874H28.6v-3.749z" fill="url(#paint3_linear)"/><g opacity=".131" fill-rule="evenodd" clip-rule="evenodd"><path d="M13.952 9.199l2.214-2.822 3.07-2.45 3.45-2.31h9.662l3.799 2.31 2.665 1.48L41.215 9.2l1.64 4.72v5.97l-2.736 7.7-5.53 8.676-6.186 7.422-5.717-5.187-5.46-6.935L15 27.588l-1.048-3.781L12 19.888v-4.99l1.269-4.115.682-1.584z" fill="#102D63"/><path d="M13.952 9.199l2.214-2.822 3.07-2.45 3.45-2.31h9.662l3.799 2.31 2.665 1.48L41.215 9.2l1.64 4.72v5.97l-2.736 7.7-5.53 8.676-6.186 7.422-5.717-5.187-5.46-6.935L15 27.588l-1.048-3.781L12 19.888v-4.99l1.269-4.115.682-1.584z" fill="url(#paint4_linear)"/></g><defs><linearGradient id="paint0_linear" x1="-6.08" y1="23.14" x2="37.977" y2="55.246" gradientUnits="userSpaceOnUse"><stop stop-color="#6C66FE"/><stop offset="1" stop-color="#935BF2"/></linearGradient><linearGradient id="paint1_linear" x1="-27.753" y1="55.621" x2="14.497" y2="109.523" gradientUnits="userSpaceOnUse"><stop stop-color="#6C66FE"/><stop offset="1" stop-color="#935BF2"/></linearGradient><linearGradient id="paint2_linear" x1="20.433" y1="17.425" x2="24.834" y2="18.175" gradientUnits="userSpaceOnUse"><stop stop-color="#6C66FE"/><stop offset="1" stop-color="#935BF2"/></linearGradient><linearGradient id="paint3_linear" x1="22.2" y1="17.425" x2="34.149" y2="24.904" gradientUnits="userSpaceOnUse"><stop stop-color="#6C66FE"/><stop offset="1" stop-color="#935BF2"/></linearGradient><linearGradient id="paint4_linear" x1="-3.581" y1="23.073" x2="37.227" y2="52.707" gradientUnits="userSpaceOnUse"><stop stop-color="#6C66FE"/><stop offset="1" stop-color="#935BF2"/></linearGradient></defs></svg>