<svg width="16" height="16" fill="none" xmlns="http://www.w3.org/2000/svg"><path d="M15.827 5.185c-.333-.85-.945-2.077-1.966-3.092C12.845 1.08 11.631.485 10.793.164A2.512 2.512 0 008.127.73L5.673 3.174a2.502 2.502 0 00-.522 2.773c.129.29.27.573.419.847L.183 12.182a.625.625 0 00-.183.442v2.75c0 .346.28.626.625.626h2.75c.345 0 .625-.28.625-.625V14.25h1.125c.345 0 .625-.28.625-.626V12.5h1.125a.625.625 0 000-1.25h-1.75a.625.625 0 00-.625.625V13H3.375a.625.625 0 00-.625.625v1.126h-1.5v-1.867L6.792 7.34a.625.625 0 00.093-.766 10.118 10.118 0 01-.592-1.134 1.245 1.245 0 01.262-1.38l2.454-2.443a1.26 1.26 0 011.338-.283c.725.277 1.771.788 2.633 1.646.866.863 1.394 1.924 1.684 2.663.18.46.07.984-.28 1.334L11.9 9.45a1.26 1.26 0 01-1.376.268A8.114 8.114 0 019.4 9.143a.625.625 0 10-.654 1.066 9.35 9.35 0 001.3.663 2.504 2.504 0 002.737-.537l2.483-2.473a2.491 2.491 0 00.562-2.677z" fill="#fff"/></svg>