<svg width="90" height="83" fill="none" xmlns="http://www.w3.org/2000/svg"><g filter="url(#filter0_d)" fill-rule="evenodd" clip-rule="evenodd"><path d="M47.194 29.4a4.01 4.01 0 00-4.586.127.731.731 0 00.871 1.174 2.544 2.544 0 012.91-.08.73.73 0 10.805-1.22z" fill="#F03C53"/><path d="M47.194 29.4a4.01 4.01 0 00-4.586.127.731.731 0 00.871 1.174 2.544 2.544 0 012.91-.08.73.73 0 10.805-1.22z" fill="url(#paint0_linear)"/></g><g filter="url(#filter1_d)" fill-rule="evenodd" clip-rule="evenodd"><path d="M49.81 25.904a8.353 8.353 0 00-9.726.062.731.731 0 00.859 1.183 6.89 6.89 0 018.024-.051.731.731 0 00.844-1.194z" fill="#F03C53"/><path d="M49.81 25.904a8.353 8.353 0 00-9.726.062.731.731 0 00.859 1.183 6.89 6.89 0 018.024-.051.731.731 0 00.844-1.194z" fill="url(#paint1_linear)"/></g><g filter="url(#filter2_d)" fill-rule="evenodd" clip-rule="evenodd"><path d="M52.308 22.325a12.725 12.725 0 00-14.718.059.731.731 0 00.851 1.189 11.261 11.261 0 0113.025-.053.731.731 0 00.842-1.195z" fill="#F03C53"/><path d="M52.308 22.325a12.725 12.725 0 00-14.718.059.731.731 0 00.851 1.189 11.261 11.261 0 0113.025-.053.731.731 0 00.842-1.195z" fill="url(#paint2_linear)"/></g><g filter="url(#filter3_d)" fill-rule="evenodd" clip-rule="evenodd"><path d="M69.171 59.07h-7.983a2.304 2.304 0 00-1.442-1.442v-2.565h9.425a.731.731 0 000-1.462h-4.738v-.831a.731.731 0 00-1.462 0v.831h-7.913v-18.02c0-.459.373-.832.831-.832h6.25c.46 0 .832.373.832.832v14.063a.731.731 0 001.462 0V35.581a2.296 2.296 0 00-2.293-2.294h-6.25a2.296 2.296 0 00-2.294 2.294V53.6H50.37V35.58a2.296 2.296 0 00-2.294-2.294h-6.25a2.296 2.296 0 00-2.294 2.294V53.6h-3.225V35.58a2.296 2.296 0 00-2.294-2.294h-6.25a2.296 2.296 0 00-2.294 2.294v14.063a.731.731 0 001.462 0V35.581c0-.459.373-.832.832-.832h6.25c.459 0 .832.373.832.832V53.6H26.93v-.831a.731.731 0 00-1.462 0v.831H20.73a.731.731 0 000 1.462h9.426v2.565a2.304 2.304 0 00-1.443 1.442H20.73a.731.731 0 000 1.462h7.983a2.297 2.297 0 002.174 1.563c1.01 0 1.867-.655 2.173-1.563h9.717a2.297 2.297 0 002.173 1.563c1.01 0 1.868-.655 2.174-1.563h9.716a2.297 2.297 0 002.174 1.563 2.296 2.296 0 002.173-1.563h7.984a.731.731 0 100-1.462zM40.994 35.58c0-.458.373-.83.832-.83h6.25c.459 0 .832.372.832.83v18.021h-7.914v-18.02zM30.888 60.634a.833.833 0 010-1.663.833.833 0 010 1.663zm11.89-1.563H33.06a2.304 2.304 0 00-1.442-1.442v-2.565H44.22v2.565a2.304 2.304 0 00-1.442 1.442zm2.173 1.563a.833.833 0 010-1.663.833.833 0 010 1.663zm11.89-1.563h-9.716a2.304 2.304 0 00-1.443-1.442v-2.565h12.602v2.565a2.304 2.304 0 00-1.443 1.442zm2.174 1.563a.833.833 0 010-1.663.833.833 0 010 1.663z" fill="#F03C53"/><path d="M69.171 59.07h-7.983a2.304 2.304 0 00-1.442-1.442v-2.565h9.425a.731.731 0 000-1.462h-4.738v-.831a.731.731 0 00-1.462 0v.831h-7.913v-18.02c0-.459.373-.832.831-.832h6.25c.46 0 .832.373.832.832v14.063a.731.731 0 001.462 0V35.581a2.296 2.296 0 00-2.293-2.294h-6.25a2.296 2.296 0 00-2.294 2.294V53.6H50.37V35.58a2.296 2.296 0 00-2.294-2.294h-6.25a2.296 2.296 0 00-2.294 2.294V53.6h-3.225V35.58a2.296 2.296 0 00-2.294-2.294h-6.25a2.296 2.296 0 00-2.294 2.294v14.063a.731.731 0 001.462 0V35.581c0-.459.373-.832.832-.832h6.25c.459 0 .832.373.832.832V53.6H26.93v-.831a.731.731 0 00-1.462 0v.831H20.73a.731.731 0 000 1.462h9.426v2.565a2.304 2.304 0 00-1.443 1.442H20.73a.731.731 0 000 1.462h7.983a2.297 2.297 0 002.174 1.563c1.01 0 1.867-.655 2.173-1.563h9.717a2.297 2.297 0 002.173 1.563c1.01 0 1.868-.655 2.174-1.563h9.716a2.297 2.297 0 002.174 1.563 2.296 2.296 0 002.173-1.563h7.984a.731.731 0 100-1.462zM40.994 35.58c0-.458.373-.83.832-.83h6.25c.459 0 .832.372.832.83v18.021h-7.914v-18.02zM30.888 60.634a.833.833 0 010-1.663.833.833 0 010 1.663zm11.89-1.563H33.06a2.304 2.304 0 00-1.442-1.442v-2.565H44.22v2.565a2.304 2.304 0 00-1.442 1.442zm2.173 1.563a.833.833 0 010-1.663.833.833 0 010 1.663zm11.89-1.563h-9.716a2.304 2.304 0 00-1.443-1.442v-2.565h12.602v2.565a2.304 2.304 0 00-1.443 1.442zm2.174 1.563a.833.833 0 010-1.663.833.833 0 010 1.663z" fill="url(#paint3_linear)"/></g><g filter="url(#filter4_d)" fill-rule="evenodd" clip-rule="evenodd"><path d="M46.514 37.194h-3.125a.731.731 0 000 1.462h3.125a.73.73 0 000-1.462z" fill="#F03C53"/><path d="M46.514 37.194h-3.125a.731.731 0 000 1.462h3.125a.73.73 0 000-1.462z" fill="url(#paint4_linear)"/></g><g filter="url(#filter5_d)" fill-rule="evenodd" clip-rule="evenodd"><path d="M46.514 43.444h-3.125a.73.73 0 100 1.462h3.125a.73.73 0 100-1.462z" fill="#F03C53"/><path d="M46.514 43.444h-3.125a.73.73 0 100 1.462h3.125a.73.73 0 100-1.462z" fill="url(#paint5_linear)"/></g><g filter="url(#filter6_d)" fill-rule="evenodd" clip-rule="evenodd"><path d="M46.514 40.319h-3.125a.731.731 0 000 1.462h3.125a.73.73 0 000-1.462z" fill="#F03C53"/><path d="M46.514 40.319h-3.125a.731.731 0 000 1.462h3.125a.73.73 0 000-1.462z" fill="url(#paint6_linear)"/></g><g filter="url(#filter7_d)" fill-rule="evenodd" clip-rule="evenodd"><path d="M60.577 37.194h-3.125a.731.731 0 000 1.462h3.125a.731.731 0 000-1.462z" fill="#F03C53"/><path d="M60.577 37.194h-3.125a.731.731 0 000 1.462h3.125a.731.731 0 000-1.462z" fill="url(#paint7_linear)"/></g><g filter="url(#filter8_d)" fill-rule="evenodd" clip-rule="evenodd"><path d="M60.577 43.444h-3.125a.73.73 0 100 1.462h3.125a.731.731 0 100-1.462z" fill="#F03C53"/><path d="M60.577 43.444h-3.125a.73.73 0 100 1.462h3.125a.731.731 0 100-1.462z" fill="url(#paint8_linear)"/></g><g filter="url(#filter9_d)" fill-rule="evenodd" clip-rule="evenodd"><path d="M60.577 40.319h-3.125a.731.731 0 000 1.462h3.125a.731.731 0 000-1.462z" fill="#F03C53"/><path d="M60.577 40.319h-3.125a.731.731 0 000 1.462h3.125a.731.731 0 000-1.462z" fill="url(#paint9_linear)"/></g><g filter="url(#filter10_d)" fill-rule="evenodd" clip-rule="evenodd"><path d="M32.45 37.194h-3.125a.731.731 0 000 1.462h3.125a.731.731 0 000-1.462z" fill="#F03C53"/><path d="M32.45 37.194h-3.125a.731.731 0 000 1.462h3.125a.731.731 0 000-1.462z" fill="url(#paint10_linear)"/></g><g filter="url(#filter11_d)" fill-rule="evenodd" clip-rule="evenodd"><path d="M32.45 43.444h-3.125a.73.73 0 100 1.462h3.125a.731.731 0 100-1.462z" fill="#F03C53"/><path d="M32.45 43.444h-3.125a.73.73 0 100 1.462h3.125a.731.731 0 100-1.462z" fill="url(#paint11_linear)"/></g><g filter="url(#filter12_d)" fill-rule="evenodd" clip-rule="evenodd"><path d="M32.45 40.319h-3.125a.731.731 0 000 1.462h3.125a.731.731 0 000-1.462z" fill="#F03C53"/><path d="M32.45 40.319h-3.125a.731.731 0 000 1.462h3.125a.731.731 0 000-1.462z" fill="url(#paint12_linear)"/></g><defs><linearGradient id="paint0_linear" x1="39.681" y1="29.814" x2="41.181" y2="33.493" gradientUnits="userSpaceOnUse"><stop stop-color="#F03C53"/><stop offset="1" stop-color="#FF2778"/></linearGradient><linearGradient id="paint1_linear" x1="34.562" y1="25.86" x2="36.129" y2="31.362" gradientUnits="userSpaceOnUse"><stop stop-color="#F03C53"/><stop offset="1" stop-color="#FF2778"/></linearGradient><linearGradient id="paint2_linear" x1="29.541" y1="21.897" x2="31.277" y2="29.02" gradientUnits="userSpaceOnUse"><stop stop-color="#F03C53"/><stop offset="1" stop-color="#FF2778"/></linearGradient><linearGradient id="paint3_linear" x1="-5.201" y1="47.979" x2="20.37" y2="91.841" gradientUnits="userSpaceOnUse"><stop stop-color="#F03C53"/><stop offset="1" stop-color="#FF2778"/></linearGradient><linearGradient id="paint4_linear" x1="40.341" y1="37.939" x2="41.211" y2="40.642" gradientUnits="userSpaceOnUse"><stop stop-color="#F03C53"/><stop offset="1" stop-color="#FF2778"/></linearGradient><linearGradient id="paint5_linear" x1="40.341" y1="44.19" x2="41.211" y2="46.892" gradientUnits="userSpaceOnUse"><stop stop-color="#F03C53"/><stop offset="1" stop-color="#FF2778"/></linearGradient><linearGradient id="paint6_linear" x1="40.341" y1="41.065" x2="41.211" y2="43.767" gradientUnits="userSpaceOnUse"><stop stop-color="#F03C53"/><stop offset="1" stop-color="#FF2778"/></linearGradient><linearGradient id="paint7_linear" x1="54.405" y1="37.939" x2="55.275" y2="40.642" gradientUnits="userSpaceOnUse"><stop stop-color="#F03C53"/><stop offset="1" stop-color="#FF2778"/></linearGradient><linearGradient id="paint8_linear" x1="54.405" y1="44.19" x2="55.275" y2="46.892" gradientUnits="userSpaceOnUse"><stop stop-color="#F03C53"/><stop offset="1" stop-color="#FF2778"/></linearGradient><linearGradient id="paint9_linear" x1="54.405" y1="41.065" x2="55.275" y2="43.767" gradientUnits="userSpaceOnUse"><stop stop-color="#F03C53"/><stop offset="1" stop-color="#FF2778"/></linearGradient><linearGradient id="paint10_linear" x1="26.278" y1="37.939" x2="27.148" y2="40.642" gradientUnits="userSpaceOnUse"><stop stop-color="#F03C53"/><stop offset="1" stop-color="#FF2778"/></linearGradient><linearGradient id="paint11_linear" x1="26.278" y1="44.19" x2="27.148" y2="46.892" gradientUnits="userSpaceOnUse"><stop stop-color="#F03C53"/><stop offset="1" stop-color="#FF2778"/></linearGradient><linearGradient id="paint12_linear" x1="26.278" y1="41.065" x2="27.148" y2="43.767" gradientUnits="userSpaceOnUse"><stop stop-color="#F03C53"/><stop offset="1" stop-color="#FF2778"/></linearGradient><filter id="filter0_d" x="22.312" y="8.742" width="45.21" height="42.103" filterUnits="userSpaceOnUse" color-interpolation-filters="sRGB"><feFlood flood-opacity="0" result="BackgroundImageFix"/><feColorMatrix in="SourceAlpha" values="0 0 0 0 0 0 0 0 0 0 0 0 0 0 0 0 0 0 127 0"/><feOffset/><feGaussianBlur stdDeviation="10"/><feColorMatrix values="0 0 0 0 0.290816 0 0 0 0 0.345804 0 0 0 0 0.59075 0 0 0 1 0"/><feBlend in2="BackgroundImageFix" result="effect1_dropShadow"/><feBlend in="SourceGraphic" in2="effect1_dropShadow" result="shape"/></filter><filter id="filter1_d" x="19.782" y="4.373" width="50.338" height="42.916" filterUnits="userSpaceOnUse" color-interpolation-filters="sRGB"><feFlood flood-opacity="0" result="BackgroundImageFix"/><feColorMatrix in="SourceAlpha" values="0 0 0 0 0 0 0 0 0 0 0 0 0 0 0 0 0 0 127 0"/><feOffset/><feGaussianBlur stdDeviation="10"/><feColorMatrix values="0 0 0 0 0.290816 0 0 0 0 0.345804 0 0 0 0 0.59075 0 0 0 1 0"/><feBlend in2="BackgroundImageFix" result="effect1_dropShadow"/><feBlend in="SourceGraphic" in2="effect1_dropShadow" result="shape"/></filter><filter id="filter2_d" x="17.285" y=".01" width="55.333" height="43.699" filterUnits="userSpaceOnUse" color-interpolation-filters="sRGB"><feFlood flood-opacity="0" result="BackgroundImageFix"/><feColorMatrix in="SourceAlpha" values="0 0 0 0 0 0 0 0 0 0 0 0 0 0 0 0 0 0 127 0"/><feOffset/><feGaussianBlur stdDeviation="10"/><feColorMatrix values="0 0 0 0 0.290816 0 0 0 0 0.345804 0 0 0 0 0.59075 0 0 0 1 0"/><feBlend in2="BackgroundImageFix" result="effect1_dropShadow"/><feBlend in="SourceGraphic" in2="effect1_dropShadow" result="shape"/></filter><filter id="filter3_d" x="0" y="13.287" width="89.903" height="68.808" filterUnits="userSpaceOnUse" color-interpolation-filters="sRGB"><feFlood flood-opacity="0" result="BackgroundImageFix"/><feColorMatrix in="SourceAlpha" values="0 0 0 0 0 0 0 0 0 0 0 0 0 0 0 0 0 0 127 0"/><feOffset/><feGaussianBlur stdDeviation="10"/><feColorMatrix values="0 0 0 0 0.290816 0 0 0 0 0.345804 0 0 0 0 0.59075 0 0 0 1 0"/><feBlend in2="BackgroundImageFix" result="effect1_dropShadow"/><feBlend in="SourceGraphic" in2="effect1_dropShadow" result="shape"/></filter><filter id="filter4_d" x="22.658" y="17.194" width="44.587" height="41.462" filterUnits="userSpaceOnUse" color-interpolation-filters="sRGB"><feFlood flood-opacity="0" result="BackgroundImageFix"/><feColorMatrix in="SourceAlpha" values="0 0 0 0 0 0 0 0 0 0 0 0 0 0 0 0 0 0 127 0"/><feOffset/><feGaussianBlur stdDeviation="10"/><feColorMatrix values="0 0 0 0 0.290816 0 0 0 0 0.345804 0 0 0 0 0.59075 0 0 0 1 0"/><feBlend in2="BackgroundImageFix" result="effect1_dropShadow"/><feBlend in="SourceGraphic" in2="effect1_dropShadow" result="shape"/></filter><filter id="filter5_d" x="22.658" y="23.444" width="44.587" height="41.462" filterUnits="userSpaceOnUse" color-interpolation-filters="sRGB"><feFlood flood-opacity="0" result="BackgroundImageFix"/><feColorMatrix in="SourceAlpha" values="0 0 0 0 0 0 0 0 0 0 0 0 0 0 0 0 0 0 127 0"/><feOffset/><feGaussianBlur stdDeviation="10"/><feColorMatrix values="0 0 0 0 0.290816 0 0 0 0 0.345804 0 0 0 0 0.59075 0 0 0 1 0"/><feBlend in2="BackgroundImageFix" result="effect1_dropShadow"/><feBlend in="SourceGraphic" in2="effect1_dropShadow" result="shape"/></filter><filter id="filter6_d" x="22.658" y="20.319" width="44.587" height="41.462" filterUnits="userSpaceOnUse" color-interpolation-filters="sRGB"><feFlood flood-opacity="0" result="BackgroundImageFix"/><feColorMatrix in="SourceAlpha" values="0 0 0 0 0 0 0 0 0 0 0 0 0 0 0 0 0 0 127 0"/><feOffset/><feGaussianBlur stdDeviation="10"/><feColorMatrix values="0 0 0 0 0.290816 0 0 0 0 0.345804 0 0 0 0 0.59075 0 0 0 1 0"/><feBlend in2="BackgroundImageFix" result="effect1_dropShadow"/><feBlend in="SourceGraphic" in2="effect1_dropShadow" result="shape"/></filter><filter id="filter7_d" x="36.721" y="17.194" width="44.587" height="41.462" filterUnits="userSpaceOnUse" color-interpolation-filters="sRGB"><feFlood flood-opacity="0" result="BackgroundImageFix"/><feColorMatrix in="SourceAlpha" values="0 0 0 0 0 0 0 0 0 0 0 0 0 0 0 0 0 0 127 0"/><feOffset/><feGaussianBlur stdDeviation="10"/><feColorMatrix values="0 0 0 0 0.290816 0 0 0 0 0.345804 0 0 0 0 0.59075 0 0 0 1 0"/><feBlend in2="BackgroundImageFix" result="effect1_dropShadow"/><feBlend in="SourceGraphic" in2="effect1_dropShadow" result="shape"/></filter><filter id="filter8_d" x="36.721" y="23.444" width="44.587" height="41.462" filterUnits="userSpaceOnUse" color-interpolation-filters="sRGB"><feFlood flood-opacity="0" result="BackgroundImageFix"/><feColorMatrix in="SourceAlpha" values="0 0 0 0 0 0 0 0 0 0 0 0 0 0 0 0 0 0 127 0"/><feOffset/><feGaussianBlur stdDeviation="10"/><feColorMatrix values="0 0 0 0 0.290816 0 0 0 0 0.345804 0 0 0 0 0.59075 0 0 0 1 0"/><feBlend in2="BackgroundImageFix" result="effect1_dropShadow"/><feBlend in="SourceGraphic" in2="effect1_dropShadow" result="shape"/></filter><filter id="filter9_d" x="36.721" y="20.319" width="44.587" height="41.462" filterUnits="userSpaceOnUse" color-interpolation-filters="sRGB"><feFlood flood-opacity="0" result="BackgroundImageFix"/><feColorMatrix in="SourceAlpha" values="0 0 0 0 0 0 0 0 0 0 0 0 0 0 0 0 0 0 127 0"/><feOffset/><feGaussianBlur stdDeviation="10"/><feColorMatrix values="0 0 0 0 0.290816 0 0 0 0 0.345804 0 0 0 0 0.59075 0 0 0 1 0"/><feBlend in2="BackgroundImageFix" result="effect1_dropShadow"/><feBlend in="SourceGraphic" in2="effect1_dropShadow" result="shape"/></filter><filter id="filter10_d" x="8.594" y="17.194" width="44.587" height="41.462" filterUnits="userSpaceOnUse" color-interpolation-filters="sRGB"><feFlood flood-opacity="0" result="BackgroundImageFix"/><feColorMatrix in="SourceAlpha" values="0 0 0 0 0 0 0 0 0 0 0 0 0 0 0 0 0 0 127 0"/><feOffset/><feGaussianBlur stdDeviation="10"/><feColorMatrix values="0 0 0 0 0.290816 0 0 0 0 0.345804 0 0 0 0 0.59075 0 0 0 1 0"/><feBlend in2="BackgroundImageFix" result="effect1_dropShadow"/><feBlend in="SourceGraphic" in2="effect1_dropShadow" result="shape"/></filter><filter id="filter11_d" x="8.594" y="23.444" width="44.587" height="41.462" filterUnits="userSpaceOnUse" color-interpolation-filters="sRGB"><feFlood flood-opacity="0" result="BackgroundImageFix"/><feColorMatrix in="SourceAlpha" values="0 0 0 0 0 0 0 0 0 0 0 0 0 0 0 0 0 0 127 0"/><feOffset/><feGaussianBlur stdDeviation="10"/><feColorMatrix values="0 0 0 0 0.290816 0 0 0 0 0.345804 0 0 0 0 0.59075 0 0 0 1 0"/><feBlend in2="BackgroundImageFix" result="effect1_dropShadow"/><feBlend in="SourceGraphic" in2="effect1_dropShadow" result="shape"/></filter><filter id="filter12_d" x="8.594" y="20.319" width="44.587" height="41.462" filterUnits="userSpaceOnUse" color-interpolation-filters="sRGB"><feFlood flood-opacity="0" result="BackgroundImageFix"/><feColorMatrix in="SourceAlpha" values="0 0 0 0 0 0 0 0 0 0 0 0 0 0 0 0 0 0 127 0"/><feOffset/><feGaussianBlur stdDeviation="10"/><feColorMatrix values="0 0 0 0 0.290816 0 0 0 0 0.345804 0 0 0 0 0.59075 0 0 0 1 0"/><feBlend in2="BackgroundImageFix" result="effect1_dropShadow"/><feBlend in="SourceGraphic" in2="effect1_dropShadow" result="shape"/></filter></defs></svg>