<svg width="24" height="24" fill="none" xmlns="http://www.w3.org/2000/svg"><path fill-rule="evenodd" clip-rule="evenodd" d="M0 12C0 5.383 5.382 0 12 0c6.617 0 12 5.382 12 12.004 0 2.484-1.206 5.656-3.903 7.14-1.562.857-4.213 1.501-7.669-.806-1.265-.844-2.155-1.756-2.887-2.506a29.28 29.28 0 00-.616-.62l-.005.004a2.03 2.03 0 00-.065-.07l-.017-.017a.813.813 0 01-.052-.05l.004-.002a55.587 55.587 0 01-2.384-2.627c-2.007-2.359-1.742-5.524.314-6.827.03-.02.06-.043.089-.065.055-.042.11-.084.175-.112.373-.153.777-.218 1.18-.283.226-.036.45-.072.669-.123.783-.18 2.308 3.424 1.334 3.735-.116.037-.312.08-.535.128-.473.102-1.066.23-1.271.386-.269.202-.141.7.123 1.012.487.572 1.133 1.188 1.755 1.782.271.26.538.514.785.759v-.002l.03.03.039.038.034.035.033.033h-.001c.24.244.49.506.746.773.597.626 1.22 1.277 1.794 1.767.312.265.81.393 1.012.124.155-.206.285-.805.388-1.28.048-.219.09-.412.126-.526.313-.977 3.913.55 3.735 1.333a8.76 8.76 0 00-.125.676c-.065.401-.129.803-.283 1.174a.765.765 0 01-.111.176c-.022.029-.044.057-.064.087-.3.472-.703.847-1.169 1.124a4.534 4.534 0 002.174-.56c1.847-1.018 3.137-3.42 3.137-5.843C22.519 6.2 17.8 1.48 12 1.48S1.48 6.198 1.48 12c0 5.799 4.72 10.519 10.52 10.519A.74.74 0 0112 24C5.382 24 0 18.617 0 12zm20.71.126h-1.223c0-3.995-3.25-7.243-7.242-7.243V3.66c4.669-.002 8.466 3.797 8.466 8.466zm-8.465-6.354l-.001 1.222c2.83 0 5.13 2.302 5.129 5.13h1.224a6.359 6.359 0 00-6.352-6.352z" fill="#fff"/></svg>