<svg width="40" height="31" fill="none" xmlns="http://www.w3.org/2000/svg"><path fill-rule="evenodd" clip-rule="evenodd" d="M38.162.01H1.838A1.84 1.84 0 000 1.847v22.545a1.84 1.84 0 001.838 1.839h5.88l-2.004 3.507a.586.586 0 00.508.877h2.505a.586.586 0 00.415-.172l1.707-1.707H29.15l1.707 1.707c.11.11.26.172.415.172h2.505a.586.586 0 00.508-.877l-2.004-3.507h5.88A1.84 1.84 0 0040 24.393V1.848A1.84 1.84 0 0038.162.009zm-5.394 29.434h-1.253l-1.707-1.708a.586.586 0 00-.414-.171H10.606a.586.586 0 00-.414.171l-1.707 1.708H7.232l1.835-3.212h21.866l1.835 3.212zm6.06-6.89h-1.92a.586.586 0 100 1.173h1.92v.666a.667.667 0 01-.666.667H1.838a.667.667 0 01-.666-.667v-.666h33.232a.586.586 0 100-1.172H1.172V1.848c0-.368.299-.667.666-.667h36.324c.367 0 .666.3.666.667v20.707z" fill="#102D63"/><path fill-rule="evenodd" clip-rule="evenodd" d="M38.162.01H1.838A1.84 1.84 0 000 1.847v22.545a1.84 1.84 0 001.838 1.839h5.88l-2.004 3.507a.586.586 0 00.508.877h2.505a.586.586 0 00.415-.172l1.707-1.707H29.15l1.707 1.707c.11.11.26.172.415.172h2.505a.586.586 0 00.508-.877l-2.004-3.507h5.88A1.84 1.84 0 0040 24.393V1.848A1.84 1.84 0 0038.162.009zm-5.394 29.434h-1.253l-1.707-1.708a.586.586 0 00-.414-.171H10.606a.586.586 0 00-.414.171l-1.707 1.708H7.232l1.835-3.212h21.866l1.835 3.212zm6.06-6.89h-1.92a.586.586 0 100 1.173h1.92v.666a.667.667 0 01-.666.667H1.838a.667.667 0 01-.666-.667v-.666h33.232a.586.586 0 100-1.172H1.172V1.848c0-.368.299-.667.666-.667h36.324c.367 0 .666.3.666.667v20.707z" fill="url(#paint0_linear)"/><g opacity=".131" fill-rule="evenodd" clip-rule="evenodd"><path d="M1.172 1.181h37.656v21.374H1.172V1.18z" fill="#102D63"/><path d="M1.172 1.181h37.656v21.374H1.172V1.18z" fill="url(#paint1_linear)"/></g><path fill-rule="evenodd" clip-rule="evenodd" d="M20.013 15.04a1.84 1.84 0 00-1.838 1.838 1.84 1.84 0 001.838 1.838 1.84 1.84 0 001.839-1.838 1.84 1.84 0 00-1.839-1.838zm0 2.505a.667.667 0 11.002-1.335.667.667 0 01-.002 1.335z" fill="#102D63"/><path fill-rule="evenodd" clip-rule="evenodd" d="M20.013 15.04a1.84 1.84 0 00-1.838 1.838 1.84 1.84 0 001.838 1.838 1.84 1.84 0 001.839-1.838 1.84 1.84 0 00-1.839-1.838zm0 2.505a.667.667 0 11.002-1.335.667.667 0 01-.002 1.335z" fill="url(#paint2_linear)"/><path fill-rule="evenodd" clip-rule="evenodd" d="M23.527 13.364a4.975 4.975 0 00-7.028 0 .586.586 0 10.828.829 3.802 3.802 0 015.371 0 .584.584 0 00.829 0 .586.586 0 000-.829z" fill="#102D63"/><path fill-rule="evenodd" clip-rule="evenodd" d="M23.527 13.364a4.975 4.975 0 00-7.028 0 .586.586 0 10.828.829 3.802 3.802 0 015.371 0 .584.584 0 00.829 0 .586.586 0 000-.829z" fill="url(#paint3_linear)"/><path fill-rule="evenodd" clip-rule="evenodd" d="M25.741 11.15a8.048 8.048 0 00-5.728-2.373 8.048 8.048 0 00-5.728 2.373.586.586 0 00.829.828 6.884 6.884 0 014.9-2.03c1.85 0 3.59.722 4.899 2.03a.584.584 0 00.828 0 .586.586 0 000-.828z" fill="#102D63"/><path fill-rule="evenodd" clip-rule="evenodd" d="M25.741 11.15a8.048 8.048 0 00-5.728-2.373 8.048 8.048 0 00-5.728 2.373.586.586 0 00.829.828 6.884 6.884 0 014.9-2.03c1.85 0 3.59.722 4.899 2.03a.584.584 0 00.828 0 .586.586 0 000-.828z" fill="url(#paint4_linear)"/><path fill-rule="evenodd" clip-rule="evenodd" d="M27.955 8.936c-4.379-4.38-11.505-4.38-15.884 0a.586.586 0 00.828.828c3.923-3.922 10.305-3.922 14.228 0a.584.584 0 00.828 0 .586.586 0 000-.828z" fill="#102D63"/><path fill-rule="evenodd" clip-rule="evenodd" d="M27.955 8.936c-4.379-4.38-11.505-4.38-15.884 0a.586.586 0 00.828.828c3.923-3.922 10.305-3.922 14.228 0a.584.584 0 00.828 0 .586.586 0 000-.828z" fill="url(#paint5_linear)"/><defs><linearGradient id="paint0_linear" x1="-20.2" y1="15.618" x2="10.01" y2="54.714" gradientUnits="userSpaceOnUse"><stop stop-color="#6C66FE"/><stop offset="1" stop-color="#935BF2"/></linearGradient><linearGradient id="paint1_linear" x1="-17.845" y1="12.082" x2=".968" y2="44.902" gradientUnits="userSpaceOnUse"><stop stop-color="#6C66FE"/><stop offset="1" stop-color="#935BF2"/></linearGradient><linearGradient id="paint2_linear" x1="16.318" y1="16.915" x2="20.068" y2="20.628" gradientUnits="userSpaceOnUse"><stop stop-color="#6C66FE"/><stop offset="1" stop-color="#935BF2"/></linearGradient><linearGradient id="paint3_linear" x1="12.605" y1="13.162" x2="14.116" y2="17.659" gradientUnits="userSpaceOnUse"><stop stop-color="#6C66FE"/><stop offset="1" stop-color="#935BF2"/></linearGradient><linearGradient id="paint4_linear" x1="8.154" y1="10.497" x2="9.988" y2="16.849" gradientUnits="userSpaceOnUse"><stop stop-color="#6C66FE"/><stop offset="1" stop-color="#935BF2"/></linearGradient><linearGradient id="paint5_linear" x1="3.704" y1="7.836" x2="5.88" y2="15.997" gradientUnits="userSpaceOnUse"><stop stop-color="#6C66FE"/><stop offset="1" stop-color="#935BF2"/></linearGradient></defs></svg>