<svg width="40" height="46" fill="none" xmlns="http://www.w3.org/2000/svg"><g opacity=".131" fill-rule="evenodd" clip-rule="evenodd"><path d="M13.05 18.326L20 13.685l8.128 4.641v8.75L20 32.316l-6.95-3.892V18.326z" fill="#102D63"/><path d="M13.05 18.326L20 13.685l8.128 4.641v8.75L20 32.316l-6.95-3.892V18.326z" fill="url(#paint0_linear)"/></g><path fill-rule="evenodd" clip-rule="evenodd" d="M23.194 10.771l-1.143-.663a2.116 2.116 0 00-1.382-2.46V.674A.67.67 0 0020 0c-.37 0-.67.302-.67.674v6.973a2.116 2.116 0 00-1.38 2.46l-8.013 4.655a2.084 2.084 0 00-2.777 0L1.01 11.19a.667.667 0 00-.914.246.676.676 0 00.245.92l6.148 3.572a2.116 2.116 0 001.39 2.422v9.302a2.116 2.116 0 00-1.39 2.42L.34 33.642A.676.676 0 00.675 34.9c.114 0 .229-.03.334-.09l6.148-3.572a2.085 2.085 0 002.781 0l4.22 2.452a.669.669 0 00.915-.247.676.676 0 00-.245-.92l-4.22-2.452a2.116 2.116 0 00-1.39-2.42V18.35a2.117 2.117 0 001.39-2.422l8.033-4.667a2.084 2.084 0 002.717 0l1.165.676a.668.668 0 00.915-.247.676.676 0 00-.245-.92zM9.31 29.656a.765.765 0 01-.762.766.765.765 0 01-.762-.766c0-.423.342-.767.762-.767s.762.344.762.767zm-.762-12.543a.765.765 0 01-.762-.766c0-.423.342-.767.762-.767s.761.344.761.767a.765.765 0 01-.761.766zM20 10.418a.765.765 0 01-.762-.767c0-.423.342-.767.762-.767s.762.344.762.767a.765.765 0 01-.762.767z" fill="#102D63"/><path fill-rule="evenodd" clip-rule="evenodd" d="M23.194 10.771l-1.143-.663a2.116 2.116 0 00-1.382-2.46V.674A.67.67 0 0020 0c-.37 0-.67.302-.67.674v6.973a2.116 2.116 0 00-1.38 2.46l-8.013 4.655a2.084 2.084 0 00-2.777 0L1.01 11.19a.667.667 0 00-.914.246.676.676 0 00.245.92l6.148 3.572a2.116 2.116 0 001.39 2.422v9.302a2.116 2.116 0 00-1.39 2.42L.34 33.642A.676.676 0 00.675 34.9c.114 0 .229-.03.334-.09l6.148-3.572a2.085 2.085 0 002.781 0l4.22 2.452a.669.669 0 00.915-.247.676.676 0 00-.245-.92l-4.22-2.452a2.116 2.116 0 00-1.39-2.42V18.35a2.117 2.117 0 001.39-2.422l8.033-4.667a2.084 2.084 0 002.717 0l1.165.676a.668.668 0 00.915-.247.676.676 0 00-.245-.92zM9.31 29.656a.765.765 0 01-.762.766.765.765 0 01-.762-.766c0-.423.342-.767.762-.767s.762.344.762.767zm-.762-12.543a.765.765 0 01-.762-.766c0-.423.342-.767.762-.767s.761.344.761.767a.765.765 0 01-.761.766zM20 10.418a.765.765 0 01-.762-.767c0-.423.342-.767.762-.767s.762.344.762.767a.765.765 0 01-.762.767z" fill="url(#paint1_linear)"/><path fill-rule="evenodd" clip-rule="evenodd" d="M39.66 33.643l-6.148-3.571a2.116 2.116 0 00-1.39-2.42v-9.301a2.116 2.116 0 001.39-2.422l6.148-3.572a.676.676 0 00.245-.92.667.667 0 00-.915-.247l-6.15 3.572a2.085 2.085 0 00-2.777 0L25.74 12.25a.667.667 0 00-.915.246.676.676 0 00.245.921l4.323 2.512a2.116 2.116 0 001.39 2.422v9.301a2.117 2.117 0 00-1.39 2.42l-8.003 4.65a2.085 2.085 0 00-2.778 0l-1.345-.783a.667.667 0 00-.915.247.676.676 0 00.245.92l1.344.781a2.116 2.116 0 001.39 2.422v7.017c0 .372.3.674.67.674.37 0 .67-.302.67-.674V38.31a2.116 2.116 0 001.39-2.422l8.001-4.648a2.085 2.085 0 002.78 0l6.149 3.571a.664.664 0 00.914-.246.676.676 0 00-.245-.92zM20 37.073a.765.765 0 01-.762-.767c0-.423.342-.767.762-.767s.762.344.762.767a.765.765 0 01-.762.766zm10.69-20.726c0-.423.342-.767.762-.767s.762.344.762.767a.765.765 0 01-.762.766.765.765 0 01-.762-.766zm.762 14.075a.765.765 0 01-.762-.766c0-.423.341-.767.762-.767.42 0 .761.344.761.767a.765.765 0 01-.761.766z" fill="#102D63"/><path fill-rule="evenodd" clip-rule="evenodd" d="M39.66 33.643l-6.148-3.571a2.116 2.116 0 00-1.39-2.42v-9.301a2.116 2.116 0 001.39-2.422l6.148-3.572a.676.676 0 00.245-.92.667.667 0 00-.915-.247l-6.15 3.572a2.085 2.085 0 00-2.777 0L25.74 12.25a.667.667 0 00-.915.246.676.676 0 00.245.921l4.323 2.512a2.116 2.116 0 001.39 2.422v9.301a2.117 2.117 0 00-1.39 2.42l-8.003 4.65a2.085 2.085 0 00-2.778 0l-1.345-.783a.667.667 0 00-.915.247.676.676 0 00.245.92l1.344.781a2.116 2.116 0 001.39 2.422v7.017c0 .372.3.674.67.674.37 0 .67-.302.67-.674V38.31a2.116 2.116 0 001.39-2.422l8.001-4.648a2.085 2.085 0 002.78 0l6.149 3.571a.664.664 0 00.914-.246.676.676 0 00-.245-.92zM20 37.073a.765.765 0 01-.762-.767c0-.423.342-.767.762-.767s.762.344.762.767a.765.765 0 01-.762.766zm10.69-20.726c0-.423.342-.767.762-.767s.762.344.762.767a.765.765 0 01-.762.766.765.765 0 01-.762-.766zm.762 14.075a.765.765 0 01-.762-.766c0-.423.341-.767.762-.767.42 0 .761.344.761.767a.765.765 0 01-.761.766z" fill="url(#paint2_linear)"/><path fill-rule="evenodd" clip-rule="evenodd" d="M27.277 17.597l-6.265-3.64a2.018 2.018 0 00-2.024 0l-6.265 3.64a2.044 2.044 0 00-1.012 1.763v7.28c0 .725.387 1.4 1.011 1.763l6.266 3.64a2.013 2.013 0 002.024 0l6.265-3.64a2.044 2.044 0 001.012-1.763v-7.28c0-.725-.388-1.4-1.012-1.763zm-.327 9.043a.69.69 0 01-.342.596l-6.266 3.64a.682.682 0 01-.684 0l-6.266-3.64a.69.69 0 01-.342-.596v-7.28a.69.69 0 01.342-.596l6.266-3.64a.682.682 0 01.684 0l6.266 3.64a.69.69 0 01.342.596v7.28z" fill="#102D63"/><path fill-rule="evenodd" clip-rule="evenodd" d="M27.277 17.597l-6.265-3.64a2.018 2.018 0 00-2.024 0l-6.265 3.64a2.044 2.044 0 00-1.012 1.763v7.28c0 .725.387 1.4 1.011 1.763l6.266 3.64a2.013 2.013 0 002.024 0l6.265-3.64a2.044 2.044 0 001.012-1.763v-7.28c0-.725-.388-1.4-1.012-1.763zm-.327 9.043a.69.69 0 01-.342.596l-6.266 3.64a.682.682 0 01-.684 0l-6.266-3.64a.69.69 0 01-.342-.596v-7.28a.69.69 0 01.342-.596l6.266-3.64a.682.682 0 01.684 0l6.266 3.64a.69.69 0 01.342.596v7.28z" fill="url(#paint3_linear)"/><defs><linearGradient id="paint0_linear" x1="5.436" y1="23.186" x2="23.984" y2="38.049" gradientUnits="userSpaceOnUse"><stop stop-color="#6C66FE"/><stop offset="1" stop-color="#935BF2"/></linearGradient><linearGradient id="paint1_linear" x1="-11.873" y1="17.799" x2="21.002" y2="39.74" gradientUnits="userSpaceOnUse"><stop stop-color="#6C66FE"/><stop offset="1" stop-color="#935BF2"/></linearGradient><linearGradient id="paint2_linear" x1="4.276" y1="28.899" x2="37.263" y2="51.111" gradientUnits="userSpaceOnUse"><stop stop-color="#6C66FE"/><stop offset="1" stop-color="#935BF2"/></linearGradient><linearGradient id="paint3_linear" x1="3.339" y1="23.186" x2="22.192" y2="39.798" gradientUnits="userSpaceOnUse"><stop stop-color="#6C66FE"/><stop offset="1" stop-color="#935BF2"/></linearGradient></defs></svg>