<svg width="40" height="42" fill="none" xmlns="http://www.w3.org/2000/svg"><path fill-rule="evenodd" clip-rule="evenodd" d="M39.96 27.765v-20.6c0-2.2-1.789-3.99-3.988-3.99h-8.668A10.042 10.042 0 0019.98 0a10.04 10.04 0 00-7.323 3.176H3.988A3.993 3.993 0 000 7.164v22.871c0 2.2 1.79 3.989 3.989 3.989h10.978v4.284H13.67a2.461 2.461 0 00-2.458 2.458.607.607 0 101.215 0c0-.685.557-1.243 1.243-1.243h12.62c.685 0 1.243.558 1.243 1.243a.607.607 0 001.215 0 2.461 2.461 0 00-2.459-2.458h-1.295v-4.284h10.979a3.993 3.993 0 003.988-3.989v-2.27zM19.98 1.212a8.83 8.83 0 018.148 5.434v.001a8.75 8.75 0 01.674 3.386c0 2.957-1.244 6.058-3.697 9.218a.606.606 0 00.958.743c2.622-3.377 3.95-6.729 3.95-9.96 0-1.021-.15-2.018-.449-2.977l-.01-.037h6.282a.34.34 0 01.34.34v17.052H21.842c.78-.674 1.79-1.614 2.827-2.76a.606.606 0 00-.899-.813 30.972 30.972 0 01-3.804 3.548c-1.61-1.16-8.808-6.774-8.808-14.354 0-1.174.227-2.313.674-3.386a8.83 8.83 0 018.147-5.434zM3.988 4.388h7.697a9.93 9.93 0 00-.971 1.793v.001a9.957 9.957 0 00-.768 3.851c0 3.51 1.375 7 4.087 10.373a27.927 27.927 0 003.984 4.006H3.784V7.36a.34.34 0 01.34-.34h4.058a.606.606 0 000-1.212H4.125c-.857 0-1.553.696-1.553 1.552v17.658c0 .335.27.606.606.606h33.605a.606.606 0 00.606-.606V7.36c0-.856-.697-1.552-1.553-1.552h-6.753c-.23-.495-.5-.97-.807-1.42h7.696a2.78 2.78 0 012.776 2.776v20H1.212v-20a2.78 2.78 0 012.776-2.776zm31.984 28.424H23.239a.606.606 0 000 1.212h.542v4.284H16.18v-4.284h4.582a.606.606 0 100-1.212H3.989a2.78 2.78 0 01-2.777-2.777v-1.657h37.536v1.657a2.78 2.78 0 01-2.776 2.777z" fill="#102D63"/><path fill-rule="evenodd" clip-rule="evenodd" d="M39.96 27.765v-20.6c0-2.2-1.789-3.99-3.988-3.99h-8.668A10.042 10.042 0 0019.98 0a10.04 10.04 0 00-7.323 3.176H3.988A3.993 3.993 0 000 7.164v22.871c0 2.2 1.79 3.989 3.989 3.989h10.978v4.284H13.67a2.461 2.461 0 00-2.458 2.458.607.607 0 101.215 0c0-.685.557-1.243 1.243-1.243h12.62c.685 0 1.243.558 1.243 1.243a.607.607 0 001.215 0 2.461 2.461 0 00-2.459-2.458h-1.295v-4.284h10.979a3.993 3.993 0 003.988-3.989v-2.27zM19.98 1.212a8.83 8.83 0 018.148 5.434v.001a8.75 8.75 0 01.674 3.386c0 2.957-1.244 6.058-3.697 9.218a.606.606 0 00.958.743c2.622-3.377 3.95-6.729 3.95-9.96 0-1.021-.15-2.018-.449-2.977l-.01-.037h6.282a.34.34 0 01.34.34v17.052H21.842c.78-.674 1.79-1.614 2.827-2.76a.606.606 0 00-.899-.813 30.972 30.972 0 01-3.804 3.548c-1.61-1.16-8.808-6.774-8.808-14.354 0-1.174.227-2.313.674-3.386a8.83 8.83 0 018.147-5.434zM3.988 4.388h7.697a9.93 9.93 0 00-.971 1.793v.001a9.957 9.957 0 00-.768 3.851c0 3.51 1.375 7 4.087 10.373a27.927 27.927 0 003.984 4.006H3.784V7.36a.34.34 0 01.34-.34h4.058a.606.606 0 000-1.212H4.125c-.857 0-1.553.696-1.553 1.552v17.658c0 .335.27.606.606.606h33.605a.606.606 0 00.606-.606V7.36c0-.856-.697-1.552-1.553-1.552h-6.753c-.23-.495-.5-.97-.807-1.42h7.696a2.78 2.78 0 012.776 2.776v20H1.212v-20a2.78 2.78 0 012.776-2.776zm31.984 28.424H23.239a.606.606 0 000 1.212h.542v4.284H16.18v-4.284h4.582a.606.606 0 100-1.212H3.989a2.78 2.78 0 01-2.777-2.777v-1.657h37.536v1.657a2.78 2.78 0 01-2.776 2.777z" fill="url(#paint0_linear)"/><defs><linearGradient id="paint0_linear" x1="-20.18" y1="21.101" x2="21.981" y2="61.422" gradientUnits="userSpaceOnUse"><stop stop-color="#6C66FE"/><stop offset="1" stop-color="#935BF2"/></linearGradient></defs></svg>