<svg width="30" height="42" fill="none" xmlns="http://www.w3.org/2000/svg"><path fill-rule="evenodd" clip-rule="evenodd" d="M12.294 21.104a.611.611 0 00.1-.86c-4.372-5.525-5.29-9.106-5.29-11.137 0-4.348 3.537-7.884 7.884-7.884s7.884 3.536 7.884 7.884c0 5.374-6.178 12.329-7.884 14.147a42.689 42.689 0 01-.85-.929.611.611 0 10-.914.812c.788.888 1.31 1.41 1.332 1.432a.611.611 0 00.864 0c.355-.354 8.675-8.751 8.675-15.462C24.095 4.085 20.01 0 14.988 0 9.967 0 5.881 4.085 5.881 9.107c0 4.031 3.02 8.695 5.555 11.897a.61.61 0 00.858.1z" fill="#102D63"/><path fill-rule="evenodd" clip-rule="evenodd" d="M12.294 21.104a.611.611 0 00.1-.86c-4.372-5.525-5.29-9.106-5.29-11.137 0-4.348 3.537-7.884 7.884-7.884s7.884 3.536 7.884 7.884c0 5.374-6.178 12.329-7.884 14.147a42.689 42.689 0 01-.85-.929.611.611 0 10-.914.812c.788.888 1.31 1.41 1.332 1.432a.611.611 0 00.864 0c.355-.354 8.675-8.751 8.675-15.462C24.095 4.085 20.01 0 14.988 0 9.967 0 5.881 4.085 5.881 9.107c0 4.031 3.02 8.695 5.555 11.897a.61.61 0 00.858.1z" fill="url(#paint0_linear)"/><path fill-rule="evenodd" clip-rule="evenodd" d="M28.712 26.14h-.95a13.006 13.006 0 00-4.545-7.529.611.611 0 00-.773.948 11.79 11.79 0 014.068 6.58h-.415c-.697 0-1.264.568-1.264 1.265v.696H17.56v-.696c0-.697-.567-1.264-1.265-1.264h-2.614c-.697 0-1.264.567-1.264 1.264v.696H5.143v-.696c0-.697-.568-1.264-1.265-1.264h-.414a11.787 11.787 0 014.068-6.581.612.612 0 00-.773-.948 13.006 13.006 0 00-4.545 7.529h-.95C.567 26.14 0 26.707 0 27.405v2.614c0 .697.567 1.264 1.265 1.264h.95a13.026 13.026 0 0021.272 7.302 13.038 13.038 0 004.274-7.302h.95c.698 0 1.265-.567 1.265-1.264v-2.614c0-.698-.567-1.265-1.264-1.265zm-15.073 1.264c0-.022.02-.042.042-.042h2.614c.023 0 .042.02.042.043v2.614a.042.042 0 01-.042.042h-2.614a.042.042 0 01-.042-.042v-2.614zM1.223 30.02v-2.614c0-.023.019-.043.042-.043h2.614c.023 0 .042.02.042.043v2.614c0 .023-.02.042-.042.042H1.265a.042.042 0 01-.042-.042zm21.466 7.64a11.803 11.803 0 01-15.402 0 11.817 11.817 0 01-3.822-6.375h.414c.697 0 1.265-.568 1.265-1.265v-.696h7.272v.696c0 .697.568 1.265 1.265 1.265h2.614c.697 0 1.265-.568 1.265-1.265v-.696h7.273v.696c0 .697.567 1.265 1.265 1.265h.413a11.817 11.817 0 01-3.822 6.375zm6.065-7.64a.042.042 0 01-.042.042h-2.614a.042.042 0 01-.043-.042v-2.614c0-.023.02-.043.043-.043h2.614c.023 0 .042.02.042.043v2.614z" fill="#102D63"/><path fill-rule="evenodd" clip-rule="evenodd" d="M28.712 26.14h-.95a13.006 13.006 0 00-4.545-7.529.611.611 0 00-.773.948 11.79 11.79 0 014.068 6.58h-.415c-.697 0-1.264.568-1.264 1.265v.696H17.56v-.696c0-.697-.567-1.264-1.265-1.264h-2.614c-.697 0-1.264.567-1.264 1.264v.696H5.143v-.696c0-.697-.568-1.264-1.265-1.264h-.414a11.787 11.787 0 014.068-6.581.612.612 0 00-.773-.948 13.006 13.006 0 00-4.545 7.529h-.95C.567 26.14 0 26.707 0 27.405v2.614c0 .697.567 1.264 1.265 1.264h.95a13.026 13.026 0 0021.272 7.302 13.038 13.038 0 004.274-7.302h.95c.698 0 1.265-.567 1.265-1.264v-2.614c0-.698-.567-1.265-1.264-1.265zm-15.073 1.264c0-.022.02-.042.042-.042h2.614c.023 0 .042.02.042.043v2.614a.042.042 0 01-.042.042h-2.614a.042.042 0 01-.042-.042v-2.614zM1.223 30.02v-2.614c0-.023.019-.043.042-.043h2.614c.023 0 .042.02.042.043v2.614c0 .023-.02.042-.042.042H1.265a.042.042 0 01-.042-.042zm21.466 7.64a11.803 11.803 0 01-15.402 0 11.817 11.817 0 01-3.822-6.375h.414c.697 0 1.265-.568 1.265-1.265v-.696h7.272v.696c0 .697.568 1.265 1.265 1.265h2.614c.697 0 1.265-.568 1.265-1.265v-.696h7.273v.696c0 .697.567 1.265 1.265 1.265h.413a11.817 11.817 0 01-3.822 6.375zm6.065-7.64a.042.042 0 01-.042.042h-2.614a.042.042 0 01-.043-.042v-2.614c0-.023.02-.043.043-.043h2.614c.023 0 .042.02.042.043v2.614z" fill="url(#paint1_linear)"/><path fill-rule="evenodd" clip-rule="evenodd" d="M11.763 6.493v5.881a.611.611 0 101.223 0V6.493a.611.611 0 10-1.223 0z" fill="#102D63"/><path fill-rule="evenodd" clip-rule="evenodd" d="M11.763 6.493v5.881a.611.611 0 101.223 0V6.493a.611.611 0 10-1.223 0z" fill="url(#paint2_linear)"/><path fill-rule="evenodd" clip-rule="evenodd" d="M15.6 12.374v-2.002h1.022a2.248 2.248 0 002.245-2.245 2.248 2.248 0 00-2.245-2.246h-1.634a.612.612 0 00-.611.612v5.881a.611.611 0 101.223 0zm0-5.27h1.022a1.023 1.023 0 010 2.045H15.6V7.104z" fill="#102D63"/><path fill-rule="evenodd" clip-rule="evenodd" d="M15.6 12.374v-2.002h1.022a2.248 2.248 0 002.245-2.245 2.248 2.248 0 00-2.245-2.246h-1.634a.612.612 0 00-.611.612v5.881a.611.611 0 101.223 0zm0-5.27h1.022a1.023 1.023 0 010 2.045H15.6V7.104z" fill="url(#paint3_linear)"/><g opacity=".131" fill-rule="evenodd" clip-rule="evenodd"><path d="M7.61 5.018l1.208-1.54 1.674-1.336 1.882-1.26h5.271l2.072 1.26 1.453.808 1.311 2.068.894 2.574v3.256l-1.492 4.2-3.016 4.733-3.374 4.049L12.374 21l-2.978-3.782-1.214-2.17-.572-2.063-1.064-2.137V8.127l.692-2.246.372-.863z" fill="#102D63"/><path d="M7.61 5.018l1.208-1.54 1.674-1.336 1.882-1.26h5.271l2.072 1.26 1.453.808 1.311 2.068.894 2.574v3.256l-1.492 4.2-3.016 4.733-3.374 4.049L12.374 21l-2.978-3.782-1.214-2.17-.572-2.063-1.064-2.137V8.127l.692-2.246.372-.863z" fill="url(#paint4_linear)"/></g><defs><linearGradient id="paint0_linear" x1="-3.316" y1="12.622" x2="20.715" y2="30.134" gradientUnits="userSpaceOnUse"><stop stop-color="#6C66FE"/><stop offset="1" stop-color="#935BF2"/></linearGradient><linearGradient id="paint1_linear" x1="-15.138" y1="30.339" x2="7.907" y2="59.74" gradientUnits="userSpaceOnUse"><stop stop-color="#6C66FE"/><stop offset="1" stop-color="#935BF2"/></linearGradient><linearGradient id="paint2_linear" x1="11.145" y1="9.504" x2="13.546" y2="9.914" gradientUnits="userSpaceOnUse"><stop stop-color="#6C66FE"/><stop offset="1" stop-color="#935BF2"/></linearGradient><linearGradient id="paint3_linear" x1="12.109" y1="9.504" x2="18.627" y2="13.584" gradientUnits="userSpaceOnUse"><stop stop-color="#6C66FE"/><stop offset="1" stop-color="#935BF2"/></linearGradient><linearGradient id="paint4_linear" x1="-1.953" y1="12.585" x2="20.306" y2="28.749" gradientUnits="userSpaceOnUse"><stop stop-color="#6C66FE"/><stop offset="1" stop-color="#935BF2"/></linearGradient></defs></svg>