<svg width="40" height="40" fill="none" xmlns="http://www.w3.org/2000/svg"><path fill-rule="evenodd" clip-rule="evenodd" d="M34.79 30.655a.586.586 0 00-.228-.142l-2.35-.783-6.874-6.873a.585.585 0 00-.827.827l6.97 6.97a.587.587 0 00.23.142l2.35.783 2.797 2.797-2.481 2.481-2.797-2.797-.784-2.35a.585.585 0 00-.141-.228l-8.211-8.212 3.148-3.148c.783-.046 3.42-.197 4.387-.221 2.715-.07 5.206-1.103 7.014-2.91a9.889 9.889 0 002.757-5.198 9.934 9.934 0 00-.603-5.706.585.585 0 00-.953-.187l-5.731 5.731-4.135-4.135 5.745-5.745a.585.585 0 00-.184-.952 9.936 9.936 0 00-5.705-.635 9.887 9.887 0 00-5.215 2.731l-.026.027-.009.008-.014.015c-1.768 1.795-2.784 4.264-2.862 6.963-.016.547-.077 1.624-.137 2.603a4.988 4.988 0 00-.324-.358L8.964 1.521 8.412.969A3.29 3.29 0 006.069 0a3.29 3.29 0 00-2.344.97L.97 3.726a3.318 3.318 0 000 4.686l11.185 11.185c.402.402.876.744 1.382 1.002L1.2 32.935a4.098 4.098 0 000 5.79 4.067 4.067 0 002.895 1.198 4.067 4.067 0 002.895-1.199l14.627-14.627 8.113 8.114.784 2.35a.586.586 0 00.141.229l3.308 3.308 1.654 1.654a.585.585 0 00.827 0l3.308-3.308a.585.585 0 000-.827l-4.962-4.962zm3.582-23.279a8.73 8.73 0 01-1.804 8.36l-3.278-3.278 5.082-5.082zm-5.77-5.808L27.5 6.67l-3.313-3.312a8.729 8.729 0 018.414-1.789zM1.796 4.553l2.757-2.757a2.129 2.129 0 011.516-.625c.575 0 1.113.222 1.516.625l.138.138-5.79 5.789-.137-.138a2.147 2.147 0 010-3.032zM12.981 18.77L2.76 8.55l5.79-5.79 10.22 10.22c.397.398.72.905.932 1.454l-5.282 5.282a4.29 4.29 0 01-1.44-.946zM6.162 37.897a2.905 2.905 0 01-2.067.857 2.904 2.904 0 01-2.068-.857 2.927 2.927 0 010-4.135l18.76-18.76c.1-.1.16-.232.17-.373.01-.144.236-3.522.27-4.687.063-2.196.818-4.215 2.138-5.754L35.738 16.56c-1.551 1.348-3.584 2.115-5.789 2.17-1.155.03-4.506.228-4.648.237a.584.584 0 00-.379.17l-3.718 3.718L6.162 37.897zm29.869.615l-.827-.827 2.48-2.482.828.828-2.481 2.48z" fill="#102D63"/><path fill-rule="evenodd" clip-rule="evenodd" d="M34.79 30.655a.586.586 0 00-.228-.142l-2.35-.783-6.874-6.873a.585.585 0 00-.827.827l6.97 6.97a.587.587 0 00.23.142l2.35.783 2.797 2.797-2.481 2.481-2.797-2.797-.784-2.35a.585.585 0 00-.141-.228l-8.211-8.212 3.148-3.148c.783-.046 3.42-.197 4.387-.221 2.715-.07 5.206-1.103 7.014-2.91a9.889 9.889 0 002.757-5.198 9.934 9.934 0 00-.603-5.706.585.585 0 00-.953-.187l-5.731 5.731-4.135-4.135 5.745-5.745a.585.585 0 00-.184-.952 9.936 9.936 0 00-5.705-.635 9.887 9.887 0 00-5.215 2.731l-.026.027-.009.008-.014.015c-1.768 1.795-2.784 4.264-2.862 6.963-.016.547-.077 1.624-.137 2.603a4.988 4.988 0 00-.324-.358L8.964 1.521 8.412.969A3.29 3.29 0 006.069 0a3.29 3.29 0 00-2.344.97L.97 3.726a3.318 3.318 0 000 4.686l11.185 11.185c.402.402.876.744 1.382 1.002L1.2 32.935a4.098 4.098 0 000 5.79 4.067 4.067 0 002.895 1.198 4.067 4.067 0 002.895-1.199l14.627-14.627 8.113 8.114.784 2.35a.586.586 0 00.141.229l3.308 3.308 1.654 1.654a.585.585 0 00.827 0l3.308-3.308a.585.585 0 000-.827l-4.962-4.962zm3.582-23.279a8.73 8.73 0 01-1.804 8.36l-3.278-3.278 5.082-5.082zm-5.77-5.808L27.5 6.67l-3.313-3.312a8.729 8.729 0 018.414-1.789zM1.796 4.553l2.757-2.757a2.129 2.129 0 011.516-.625c.575 0 1.113.222 1.516.625l.138.138-5.79 5.789-.137-.138a2.147 2.147 0 010-3.032zM12.981 18.77L2.76 8.55l5.79-5.79 10.22 10.22c.397.398.72.905.932 1.454l-5.282 5.282a4.29 4.29 0 01-1.44-.946zM6.162 37.897a2.905 2.905 0 01-2.067.857 2.904 2.904 0 01-2.068-.857 2.927 2.927 0 010-4.135l18.76-18.76c.1-.1.16-.232.17-.373.01-.144.236-3.522.27-4.687.063-2.196.818-4.215 2.138-5.754L35.738 16.56c-1.551 1.348-3.584 2.115-5.789 2.17-1.155.03-4.506.228-4.648.237a.584.584 0 00-.379.17l-3.718 3.718L6.162 37.897zm29.869.615l-.827-.827 2.48-2.482.828.828-2.481 2.48z" fill="url(#paint0_linear)"/><defs><linearGradient id="paint0_linear" x1="-20.162" y1="20.361" x2="20.56" y2="60.684" gradientUnits="userSpaceOnUse"><stop stop-color="#6C66FE"/><stop offset="1" stop-color="#935BF2"/></linearGradient></defs></svg>