<svg width="80" height="62" fill="none" xmlns="http://www.w3.org/2000/svg"><path fill-rule="evenodd" clip-rule="evenodd" d="M76.323.019H3.677A3.681 3.681 0 000 3.696v45.09a3.681 3.681 0 003.677 3.678h11.758l-4.008 7.014a1.172 1.172 0 001.018 1.753h5.01c.31 0 .608-.123.828-.343l3.415-3.414h36.604l3.415 3.414c.22.22.517.343.828.343h5.01a1.172 1.172 0 001.018-1.753l-4.008-7.014h11.758A3.681 3.681 0 0080 48.787V3.696A3.68 3.68 0 0076.323.019zM65.536 58.887h-2.505l-3.415-3.414a1.171 1.171 0 00-.828-.343H21.212c-.31 0-.609.123-.828.343l-3.415 3.414h-2.505l3.67-6.424h43.731l3.671 6.424zm12.12-13.777h-3.839a1.172 1.172 0 000 2.343h3.84v1.333c0 .736-.599 1.334-1.334 1.334H3.677a1.335 1.335 0 01-1.333-1.333v-1.334h66.464a1.172 1.172 0 000-2.343H2.344V3.696c0-.735.598-1.333 1.333-1.333h72.646c.735 0 1.333.598 1.333 1.333V45.11z" fill="#102D63"/><path fill-rule="evenodd" clip-rule="evenodd" d="M76.323.019H3.677A3.681 3.681 0 000 3.696v45.09a3.681 3.681 0 003.677 3.678h11.758l-4.008 7.014a1.172 1.172 0 001.018 1.753h5.01c.31 0 .608-.123.828-.343l3.415-3.414h36.604l3.415 3.414c.22.22.517.343.828.343h5.01a1.172 1.172 0 001.018-1.753l-4.008-7.014h11.758A3.681 3.681 0 0080 48.787V3.696A3.68 3.68 0 0076.323.019zM65.536 58.887h-2.505l-3.415-3.414a1.171 1.171 0 00-.828-.343H21.212c-.31 0-.609.123-.828.343l-3.415 3.414h-2.505l3.67-6.424h43.731l3.671 6.424zm12.12-13.777h-3.839a1.172 1.172 0 000 2.343h3.84v1.333c0 .736-.599 1.334-1.334 1.334H3.677a1.335 1.335 0 01-1.333-1.333v-1.334h66.464a1.172 1.172 0 000-2.343H2.344V3.696c0-.735.598-1.333 1.333-1.333h72.646c.735 0 1.333.598 1.333 1.333V45.11z" fill="url(#paint0_linear)"/><g opacity=".131" fill-rule="evenodd" clip-rule="evenodd"><path d="M2.344 2.363h75.312v42.746H2.344V2.364z" fill="#102D63"/><path d="M2.344 2.363h75.312v42.746H2.344V2.364z" fill="url(#paint1_linear)"/></g><path fill-rule="evenodd" clip-rule="evenodd" d="M40.026 30.08a3.681 3.681 0 00-3.677 3.676 3.681 3.681 0 003.677 3.677 3.681 3.681 0 003.677-3.677 3.681 3.681 0 00-3.677-3.677zm0 5.01a1.335 1.335 0 01-1.333-1.334c0-.735.598-1.333 1.333-1.333a1.335 1.335 0 010 2.667z" fill="#102D63"/><path fill-rule="evenodd" clip-rule="evenodd" d="M40.026 30.08a3.681 3.681 0 00-3.677 3.676 3.681 3.681 0 003.677 3.677 3.681 3.681 0 003.677-3.677 3.681 3.681 0 00-3.677-3.677zm0 5.01a1.335 1.335 0 01-1.333-1.334c0-.735.598-1.333 1.333-1.333a1.335 1.335 0 010 2.667z" fill="url(#paint2_linear)"/><path fill-rule="evenodd" clip-rule="evenodd" d="M47.054 26.728c-3.875-3.876-10.181-3.875-14.056 0a1.172 1.172 0 101.657 1.657c2.962-2.961 7.78-2.961 10.742 0a1.168 1.168 0 001.657 0 1.17 1.17 0 000-1.657z" fill="#102D63"/><path fill-rule="evenodd" clip-rule="evenodd" d="M47.054 26.728c-3.875-3.876-10.181-3.875-14.056 0a1.172 1.172 0 101.657 1.657c2.962-2.961 7.78-2.961 10.742 0a1.168 1.168 0 001.657 0 1.17 1.17 0 000-1.657z" fill="url(#paint3_linear)"/><path fill-rule="evenodd" clip-rule="evenodd" d="M51.483 22.3a16.096 16.096 0 00-11.457-4.746A16.096 16.096 0 0028.57 22.3a1.172 1.172 0 101.657 1.657 13.768 13.768 0 019.8-4.06c3.7 0 7.181 1.442 9.798 4.06a1.168 1.168 0 001.658 0c.457-.458.457-1.2 0-1.657z" fill="#102D63"/><path fill-rule="evenodd" clip-rule="evenodd" d="M51.483 22.3a16.096 16.096 0 00-11.457-4.746A16.096 16.096 0 0028.57 22.3a1.172 1.172 0 101.657 1.657 13.768 13.768 0 019.8-4.06c3.7 0 7.181 1.442 9.798 4.06a1.168 1.168 0 001.658 0c.457-.458.457-1.2 0-1.657z" fill="url(#paint4_linear)"/><path fill-rule="evenodd" clip-rule="evenodd" d="M55.91 17.871c-8.758-8.759-23.01-8.759-31.769 0a1.172 1.172 0 101.657 1.657c7.845-7.845 20.61-7.845 28.456 0a1.168 1.168 0 001.657 0c.457-.457.457-1.2 0-1.657z" fill="#102D63"/><path fill-rule="evenodd" clip-rule="evenodd" d="M55.91 17.871c-8.758-8.759-23.01-8.759-31.769 0a1.172 1.172 0 101.657 1.657c7.845-7.845 20.61-7.845 28.456 0a1.168 1.168 0 001.657 0c.457-.457.457-1.2 0-1.657z" fill="url(#paint5_linear)"/><defs><linearGradient id="paint0_linear" x1="-40.4" y1="31.237" x2="20.02" y2="109.428" gradientUnits="userSpaceOnUse"><stop stop-color="#6C66FE"/><stop offset="1" stop-color="#935BF2"/></linearGradient><linearGradient id="paint1_linear" x1="-35.689" y1="24.164" x2="1.937" y2="89.804" gradientUnits="userSpaceOnUse"><stop stop-color="#6C66FE"/><stop offset="1" stop-color="#935BF2"/></linearGradient><linearGradient id="paint2_linear" x1="32.636" y1="33.83" x2="40.136" y2="41.257" gradientUnits="userSpaceOnUse"><stop stop-color="#6C66FE"/><stop offset="1" stop-color="#935BF2"/></linearGradient><linearGradient id="paint3_linear" x1="25.209" y1="26.324" x2="28.233" y2="35.319" gradientUnits="userSpaceOnUse"><stop stop-color="#6C66FE"/><stop offset="1" stop-color="#935BF2"/></linearGradient><linearGradient id="paint4_linear" x1="16.308" y1="20.995" x2="19.976" y2="33.698" gradientUnits="userSpaceOnUse"><stop stop-color="#6C66FE"/><stop offset="1" stop-color="#935BF2"/></linearGradient><linearGradient id="paint5_linear" x1="7.407" y1="15.672" x2="11.76" y2="31.995" gradientUnits="userSpaceOnUse"><stop stop-color="#6C66FE"/><stop offset="1" stop-color="#935BF2"/></linearGradient></defs></svg>