<svg width="70" height="70" fill="none" xmlns="http://www.w3.org/2000/svg"><path fill-rule="evenodd" clip-rule="evenodd" d="M60.883 53.646a1.024 1.024 0 00-.4-.248l-4.113-1.37-12.028-12.029a1.024 1.024 0 00-1.448 1.448l12.2 12.199c.112.112.249.197.4.247l4.112 1.37 4.895 4.896-4.342 4.342-4.895-4.895-1.37-4.113a1.022 1.022 0 00-.248-.4l-14.37-14.37 5.51-5.51c1.37-.08 5.985-.344 7.677-.387 4.751-.12 9.11-1.93 12.274-5.093a17.305 17.305 0 004.825-9.095c.636-3.376.272-6.83-1.055-9.986a1.023 1.023 0 00-1.667-.327l-10.03 10.03-7.236-7.237L59.628 3.064a1.024 1.024 0 00-.321-1.665A17.387 17.387 0 0049.322.287a17.302 17.302 0 00-9.126 4.78l-.045.046-.016.014-.024.027c-3.095 3.14-4.873 7.463-5.01 12.186-.027.956-.134 2.84-.24 4.554a8.912 8.912 0 00-.567-.626L15.687 2.661l-.966-.966a5.758 5.758 0 00-4.1-1.693c-1.554 0-3.01.601-4.101 1.693L1.696 6.52a5.806 5.806 0 000 8.201l19.573 19.573a9.637 9.637 0 002.42 1.755L2.1 57.637a7.17 7.17 0 000 10.13 7.117 7.117 0 005.065 2.099 7.117 7.117 0 005.066-2.098L37.829 42.17l14.199 14.2 1.371 4.112c.05.151.135.288.247.4l5.789 5.79 2.895 2.894a1.024 1.024 0 001.448 0l5.789-5.79c.4-.399.4-1.047 0-1.446l-8.684-8.684zm6.268-40.738a15.277 15.277 0 01-3.158 14.63l-5.736-5.736 8.894-8.894zM57.053 2.745l-8.927 8.926-5.797-5.797a15.275 15.275 0 0114.724-3.13zM3.143 7.967l4.824-4.825A3.725 3.725 0 0110.62 2.05c1.006 0 1.949.389 2.654 1.094l.24.24-10.13 10.132-.241-.241a3.757 3.757 0 010-5.307zm19.573 24.88L4.831 14.962 14.962 4.831l17.885 17.885a7.38 7.38 0 011.63 2.544l-9.242 9.242a7.509 7.509 0 01-2.519-1.655zM10.784 66.32a5.083 5.083 0 01-3.618 1.499 5.082 5.082 0 01-3.618-1.499 5.122 5.122 0 010-7.236l32.829-32.83a1.02 1.02 0 00.297-.654c.017-.25.415-6.162.474-8.201.11-3.843 1.43-7.377 3.74-10.07l21.654 21.653c-2.715 2.36-6.273 3.7-10.13 3.798-2.022.051-7.887.399-8.136.413-.25.015-.486.121-.663.298l-6.507 6.507L10.784 66.32zm52.27 1.075l-1.448-1.447 4.342-4.342 1.447 1.447-4.341 4.342z" fill="#102D63"/><path fill-rule="evenodd" clip-rule="evenodd" d="M60.883 53.646a1.024 1.024 0 00-.4-.248l-4.113-1.37-12.028-12.029a1.024 1.024 0 00-1.448 1.448l12.2 12.199c.112.112.249.197.4.247l4.112 1.37 4.895 4.896-4.342 4.342-4.895-4.895-1.37-4.113a1.022 1.022 0 00-.248-.4l-14.37-14.37 5.51-5.51c1.37-.08 5.985-.344 7.677-.387 4.751-.12 9.11-1.93 12.274-5.093a17.305 17.305 0 004.825-9.095c.636-3.376.272-6.83-1.055-9.986a1.023 1.023 0 00-1.667-.327l-10.03 10.03-7.236-7.237L59.628 3.064a1.024 1.024 0 00-.321-1.665A17.387 17.387 0 0049.322.287a17.302 17.302 0 00-9.126 4.78l-.045.046-.016.014-.024.027c-3.095 3.14-4.873 7.463-5.01 12.186-.027.956-.134 2.84-.24 4.554a8.912 8.912 0 00-.567-.626L15.687 2.661l-.966-.966a5.758 5.758 0 00-4.1-1.693c-1.554 0-3.01.601-4.101 1.693L1.696 6.52a5.806 5.806 0 000 8.201l19.573 19.573a9.637 9.637 0 002.42 1.755L2.1 57.637a7.17 7.17 0 000 10.13 7.117 7.117 0 005.065 2.099 7.117 7.117 0 005.066-2.098L37.829 42.17l14.199 14.2 1.371 4.112c.05.151.135.288.247.4l5.789 5.79 2.895 2.894a1.024 1.024 0 001.448 0l5.789-5.79c.4-.399.4-1.047 0-1.446l-8.684-8.684zm6.268-40.738a15.277 15.277 0 01-3.158 14.63l-5.736-5.736 8.894-8.894zM57.053 2.745l-8.927 8.926-5.797-5.797a15.275 15.275 0 0114.724-3.13zM3.143 7.967l4.824-4.825A3.725 3.725 0 0110.62 2.05c1.006 0 1.949.389 2.654 1.094l.24.24-10.13 10.132-.241-.241a3.757 3.757 0 010-5.307zm19.573 24.88L4.831 14.962 14.962 4.831l17.885 17.885a7.38 7.38 0 011.63 2.544l-9.242 9.242a7.509 7.509 0 01-2.519-1.655zM10.784 66.32a5.083 5.083 0 01-3.618 1.499 5.082 5.082 0 01-3.618-1.499 5.122 5.122 0 010-7.236l32.829-32.83a1.02 1.02 0 00.297-.654c.017-.25.415-6.162.474-8.201.11-3.843 1.43-7.377 3.74-10.07l21.654 21.653c-2.715 2.36-6.273 3.7-10.13 3.798-2.022.051-7.887.399-8.136.413-.25.015-.486.121-.663.298l-6.507 6.507L10.784 66.32zm52.27 1.075l-1.448-1.447 4.342-4.342 1.447 1.447-4.341 4.342z" fill="url(#paint0_linear)"/><path fill-rule="evenodd" clip-rule="evenodd" d="M4.995 60.531a3.074 3.074 0 000 4.342c.58.58 1.351.9 2.171.9.82 0 1.592-.32 2.171-.9a3.074 3.074 0 000-4.342 3.074 3.074 0 00-4.342 0zm2.895 2.895c-.193.193-.45.3-.724.3a1.025 1.025 0 11.724-1.747 1.02 1.02 0 010 1.447z" fill="#102D63"/><path fill-rule="evenodd" clip-rule="evenodd" d="M4.995 60.531a3.074 3.074 0 000 4.342c.58.58 1.351.9 2.171.9.82 0 1.592-.32 2.171-.9a3.074 3.074 0 000-4.342 3.074 3.074 0 00-4.342 0zm2.895 2.895c-.193.193-.45.3-.724.3a1.025 1.025 0 11.724-1.747 1.02 1.02 0 010 1.447z" fill="url(#paint1_linear)"/><path fill-rule="evenodd" clip-rule="evenodd" d="M43.09 23.941l2.894 2.895 2.896 2.896a1.02 1.02 0 001.448 0l4.341-4.342c.4-.4.4-1.048 0-1.447l-2.893-2.894-2.894-2.894-2.896-2.896c-.4-.4-1.048-.4-1.448 0L40.197 19.6c-.4.4-.4 1.047 0 1.447l2.893 2.893zm6.514-2.17l-2.895 2.895-1.447-1.447 2.895-2.895 1.447 1.448zm0 5.79l-1.447-1.448 2.894-2.894 1.448 1.447-2.895 2.895zM45.262 17.43l1.447 1.447-2.894 2.895-1.447-1.448 2.894-2.894z" fill="#102D63"/><path fill-rule="evenodd" clip-rule="evenodd" d="M43.09 23.941l2.894 2.895 2.896 2.896a1.02 1.02 0 001.448 0l4.341-4.342c.4-.4.4-1.048 0-1.447l-2.893-2.894-2.894-2.894-2.896-2.896c-.4-.4-1.048-.4-1.448 0L40.197 19.6c-.4.4-.4 1.047 0 1.447l2.893 2.893zm6.514-2.17l-2.895 2.895-1.447-1.447 2.895-2.895 1.447 1.448zm0 5.79l-1.447-1.448 2.894-2.894 1.448 1.447-2.895 2.895zM45.262 17.43l1.447 1.447-2.894 2.895-1.447-1.448 2.894-2.894z" fill="url(#paint2_linear)"/><path fill-rule="evenodd" clip-rule="evenodd" d="M42.183 32.06c.4-.4.4-1.047 0-1.447l-2.895-2.894c-.4-.4-1.047-.4-1.447 0l-22.94 22.94a1.023 1.023 0 101.447 1.448L38.565 29.89l1.447 1.447L12.918 58.43a7.182 7.182 0 00-1.443-1.452L13.453 55a1.023 1.023 0 10-1.447-1.447L9.11 56.449a1.023 1.023 0 00.279 1.645 5.102 5.102 0 012.403 2.421 1.024 1.024 0 001.649.287l28.74-28.741z" fill="#102D63"/><path fill-rule="evenodd" clip-rule="evenodd" d="M42.183 32.06c.4-.4.4-1.047 0-1.447l-2.895-2.894c-.4-.4-1.047-.4-1.447 0l-22.94 22.94a1.023 1.023 0 101.447 1.448L38.565 29.89l1.447 1.447L12.918 58.43a7.182 7.182 0 00-1.443-1.452L13.453 55a1.023 1.023 0 10-1.447-1.447L9.11 56.449a1.023 1.023 0 00.279 1.645 5.102 5.102 0 012.403 2.421 1.024 1.024 0 001.649.287l28.74-28.741z" fill="url(#paint3_linear)"/><g opacity=".131" fill-rule="evenodd" clip-rule="evenodd"><path d="M4.098 14.96L14.962 4.83l19.516 18.39.455 2.17L25.647 35 4.097 14.96z" fill="#102D63"/><path d="M4.098 14.96L14.962 4.83l19.516 18.39.455 2.17L25.647 35 4.097 14.96z" fill="url(#paint4_linear)"/></g><defs><linearGradient id="paint0_linear" x1="-35.283" y1="35.632" x2="35.98" y2="106.197" gradientUnits="userSpaceOnUse"><stop stop-color="#6C66FE"/><stop offset="1" stop-color="#935BF2"/></linearGradient><linearGradient id="paint1_linear" x1=".998" y1="62.764" x2="7.26" y2="68.963" gradientUnits="userSpaceOnUse"><stop stop-color="#6C66FE"/><stop offset="1" stop-color="#935BF2"/></linearGradient><linearGradient id="paint2_linear" x1="32.285" y1="22.646" x2="47.659" y2="37.869" gradientUnits="userSpaceOnUse"><stop stop-color="#6C66FE"/><stop offset="1" stop-color="#935BF2"/></linearGradient><linearGradient id="paint3_linear" x1="-8.193" y1="44.597" x2="26.163" y2="78.605" gradientUnits="userSpaceOnUse"><stop stop-color="#6C66FE"/><stop offset="1" stop-color="#935BF2"/></linearGradient><linearGradient id="paint4_linear" x1="-11.474" y1="20.217" x2="19.297" y2="51.361" gradientUnits="userSpaceOnUse"><stop stop-color="#6C66FE"/><stop offset="1" stop-color="#935BF2"/></linearGradient></defs></svg>