<svg width="90" height="83" fill="none" xmlns="http://www.w3.org/2000/svg"><g filter="url(#filter0_d)" fill-rule="evenodd" clip-rule="evenodd"><path d="M23.872 23.14h-.008a.73.73 0 00-.729.732c0 .404.332.732.737.732a.732.732 0 100-1.465z" fill="#F03C53"/><path d="M23.872 23.14h-.008a.73.73 0 00-.729.732c0 .404.332.732.737.732a.732.732 0 100-1.465z" fill="url(#paint0_linear)"/></g><g filter="url(#filter1_d)" fill-rule="evenodd" clip-rule="evenodd"><path d="M28.569 23.14h-.008a.73.73 0 00-.729.732c0 .404.332.732.736.732a.732.732 0 100-1.465z" fill="#F03C53"/><path d="M28.569 23.14h-.008a.73.73 0 00-.729.732c0 .404.332.732.736.732a.732.732 0 100-1.465z" fill="url(#paint1_linear)"/></g><g filter="url(#filter2_d)" fill-rule="evenodd" clip-rule="evenodd"><path d="M26.22 23.14h-.008a.73.73 0 00-.728.732c0 .404.331.732.736.732a.732.732 0 100-1.465z" fill="#F03C53"/><path d="M26.22 23.14h-.008a.73.73 0 00-.728.732c0 .404.331.732.736.732a.732.732 0 100-1.465z" fill="url(#paint2_linear)"/></g><g filter="url(#filter3_d)" fill-rule="evenodd" clip-rule="evenodd"><path d="M58.308 23.14h-3.131a.732.732 0 100 1.464h3.131a.732.732 0 100-1.465z" fill="#F03C53"/><path d="M58.308 23.14h-3.131a.732.732 0 100 1.464h3.131a.732.732 0 100-1.465z" fill="url(#paint3_linear)"/></g><g filter="url(#filter4_d)" fill-rule="evenodd" clip-rule="evenodd"><path d="M52.045 23.14H31.692a.732.732 0 100 1.464h20.353a.732.732 0 100-1.465z" fill="#F03C53"/><path d="M52.045 23.14H31.692a.732.732 0 100 1.464h20.353a.732.732 0 100-1.465z" fill="url(#paint4_linear)"/></g><g filter="url(#filter5_d)" fill-rule="evenodd" clip-rule="evenodd"><path d="M62.172 36.828v-13.74a3.084 3.084 0 00-3.081-3.08H23.08a3.084 3.084 0 00-3.08 3.08v29.748a3.084 3.084 0 003.08 3.081h22.405c2.343 3.757 6.513 6.263 11.257 6.263C64.052 62.18 70 56.232 70 48.922c0-5.377-3.218-10.016-7.828-12.094zm-40.707-13.74c0-.89.725-1.615 1.616-1.615h36.01c.89 0 1.616.725 1.616 1.616v3.182H21.465v-3.182zm11.06 31.364h-9.444a1.618 1.618 0 01-1.616-1.616V33.998h11.06v20.454zm1.465 0V33.998h18.056a.732.732 0 100-1.465H21.465v-4.798h39.242v4.798h-5.53a.732.732 0 100 1.465h5.53v2.272a13.213 13.213 0 00-3.965-.606c-7.31 0-13.257 5.948-13.257 13.258 0 1.973.434 3.846 1.21 5.53H33.99zm22.752 6.263c-6.502 0-11.792-5.29-11.792-11.793 0-6.502 5.29-11.793 11.792-11.793 6.503 0 11.793 5.29 11.793 11.793 0 6.503-5.29 11.793-11.793 11.793z" fill="#F03C53"/><path d="M62.172 36.828v-13.74a3.084 3.084 0 00-3.081-3.08H23.08a3.084 3.084 0 00-3.08 3.08v29.748a3.084 3.084 0 003.08 3.081h22.405c2.343 3.757 6.513 6.263 11.257 6.263C64.052 62.18 70 56.232 70 48.922c0-5.377-3.218-10.016-7.828-12.094zm-40.707-13.74c0-.89.725-1.615 1.616-1.615h36.01c.89 0 1.616.725 1.616 1.616v3.182H21.465v-3.182zm11.06 31.364h-9.444a1.618 1.618 0 01-1.616-1.616V33.998h11.06v20.454zm1.465 0V33.998h18.056a.732.732 0 100-1.465H21.465v-4.798h39.242v4.798h-5.53a.732.732 0 100 1.465h5.53v2.272a13.213 13.213 0 00-3.965-.606c-7.31 0-13.257 5.948-13.257 13.258 0 1.973.434 3.846 1.21 5.53H33.99zm22.752 6.263c-6.502 0-11.792-5.29-11.792-11.793 0-6.502 5.29-11.793 11.792-11.793 6.503 0 11.793 5.29 11.793 11.793 0 6.503-5.29 11.793-11.793 11.793z" fill="url(#paint5_linear)"/></g><g filter="url(#filter6_d)" fill-rule="evenodd" clip-rule="evenodd"><path d="M63.523 42.142a.732.732 0 00-1.036 0l-4.723 4.722a2.3 2.3 0 00-3.32 2.058 2.3 2.3 0 002.298 2.298A2.3 2.3 0 0058.8 47.9l4.723-4.723a.732.732 0 000-1.035zm-6.78 7.613a.834.834 0 010-1.666.834.834 0 010 1.666z" fill="#F03C53"/><path d="M63.523 42.142a.732.732 0 00-1.036 0l-4.723 4.722a2.3 2.3 0 00-3.32 2.058 2.3 2.3 0 002.298 2.298A2.3 2.3 0 0058.8 47.9l4.723-4.723a.732.732 0 000-1.035zm-6.78 7.613a.834.834 0 010-1.666.834.834 0 010 1.666z" fill="url(#paint6_linear)"/></g><g filter="url(#filter7_d)" fill-rule="evenodd" clip-rule="evenodd"><path d="M26.995 29.402h-3.131a.733.733 0 000 1.465h3.13a.732.732 0 00.001-1.465z" fill="#F03C53"/><path d="M26.995 29.402h-3.131a.733.733 0 000 1.465h3.13a.732.732 0 00.001-1.465z" fill="url(#paint7_linear)"/></g><g filter="url(#filter8_d)" fill-rule="evenodd" clip-rule="evenodd"><path d="M37.955 29.402h-7.829a.732.732 0 000 1.465h7.829a.733.733 0 000-1.465z" fill="#F03C53"/><path d="M37.955 29.402h-7.829a.732.732 0 000 1.465h7.829a.733.733 0 000-1.465z" fill="url(#paint8_linear)"/></g><g filter="url(#filter9_d)" fill-rule="evenodd" clip-rule="evenodd"><path d="M30.126 35.664h-6.262a.733.733 0 000 1.465h6.262a.733.733 0 000-1.465z" fill="#F03C53"/><path d="M30.126 35.664h-6.262a.733.733 0 000 1.465h6.262a.733.733 0 000-1.465z" fill="url(#paint9_linear)"/></g><g filter="url(#filter10_d)" fill-rule="evenodd" clip-rule="evenodd"><path d="M30.126 38.796h-6.262a.732.732 0 000 1.465h6.262a.732.732 0 100-1.465z" fill="#F03C53"/><path d="M30.126 38.796h-6.262a.732.732 0 000 1.465h6.262a.732.732 0 100-1.465z" fill="url(#paint10_linear)"/></g><g filter="url(#filter11_d)" fill-rule="evenodd" clip-rule="evenodd"><path d="M30.126 41.927h-3.914a.732.732 0 100 1.465h3.914a.732.732 0 100-1.465z" fill="#F03C53"/><path d="M30.126 41.927h-3.914a.732.732 0 100 1.465h3.914a.732.732 0 100-1.465z" fill="url(#paint11_linear)"/></g><g filter="url(#filter12_d)" fill-rule="evenodd" clip-rule="evenodd"><path d="M30.126 45.058h-3.914a.732.732 0 100 1.465h3.914a.732.732 0 000-1.465z" fill="#F03C53"/><path d="M30.126 45.058h-3.914a.732.732 0 100 1.465h3.914a.732.732 0 000-1.465z" fill="url(#paint12_linear)"/></g><g filter="url(#filter13_d)" fill-rule="evenodd" clip-rule="evenodd"><path d="M45.783 35.664h-8.611a.733.733 0 000 1.465h8.61a.732.732 0 000-1.465z" fill="#F03C53"/><path d="M45.783 35.664h-8.611a.733.733 0 000 1.465h8.61a.732.732 0 000-1.465z" fill="url(#paint13_linear)"/></g><g filter="url(#filter14_d)" fill-rule="evenodd" clip-rule="evenodd"><path d="M43.434 38.796h-6.262a.732.732 0 100 1.465h6.262a.732.732 0 000-1.465z" fill="#F03C53"/><path d="M43.434 38.796h-6.262a.732.732 0 100 1.465h6.262a.732.732 0 000-1.465z" fill="url(#paint14_linear)"/></g><g filter="url(#filter15_d)" fill-rule="evenodd" clip-rule="evenodd"><path d="M41.869 41.927h-4.697a.732.732 0 100 1.465h4.697a.732.732 0 100-1.465z" fill="#F03C53"/><path d="M41.869 41.927h-4.697a.732.732 0 100 1.465h4.697a.732.732 0 100-1.465z" fill="url(#paint15_linear)"/></g><g filter="url(#filter16_d)" fill-rule="evenodd" clip-rule="evenodd"><path d="M40.303 45.058h-3.131a.732.732 0 100 1.465h3.131a.732.732 0 000-1.465z" fill="#F03C53"/><path d="M40.303 45.058h-3.131a.732.732 0 100 1.465h3.131a.732.732 0 000-1.465z" fill="url(#paint16_linear)"/></g><defs><linearGradient id="paint0_linear" x1="22.393" y1="23.886" x2="23.888" y2="25.37" gradientUnits="userSpaceOnUse"><stop stop-color="#F03C53"/><stop offset="1" stop-color="#FF2778"/></linearGradient><linearGradient id="paint1_linear" x1="27.09" y1="23.886" x2="28.585" y2="25.37" gradientUnits="userSpaceOnUse"><stop stop-color="#F03C53"/><stop offset="1" stop-color="#FF2778"/></linearGradient><linearGradient id="paint2_linear" x1="24.742" y1="23.886" x2="26.236" y2="25.37" gradientUnits="userSpaceOnUse"><stop stop-color="#F03C53"/><stop offset="1" stop-color="#FF2778"/></linearGradient><linearGradient id="paint3_linear" x1="52.123" y1="23.886" x2="52.995" y2="26.594" gradientUnits="userSpaceOnUse"><stop stop-color="#F03C53"/><stop offset="1" stop-color="#FF2778"/></linearGradient><linearGradient id="paint4_linear" x1="19.941" y1="23.886" x2="20.143" y2="26.861" gradientUnits="userSpaceOnUse"><stop stop-color="#F03C53"/><stop offset="1" stop-color="#FF2778"/></linearGradient><linearGradient id="paint5_linear" x1="-5.25" y1="41.515" x2="37.22" y2="91.375" gradientUnits="userSpaceOnUse"><stop stop-color="#F03C53"/><stop offset="1" stop-color="#FF2778"/></linearGradient><linearGradient id="paint6_linear" x1="49.751" y1="46.666" x2="59.23" y2="56.053" gradientUnits="userSpaceOnUse"><stop stop-color="#F03C53"/><stop offset="1" stop-color="#FF2778"/></linearGradient><linearGradient id="paint7_linear" x1="20.81" y1="30.149" x2="21.682" y2="32.857" gradientUnits="userSpaceOnUse"><stop stop-color="#F03C53"/><stop offset="1" stop-color="#FF2778"/></linearGradient><linearGradient id="paint8_linear" x1="24.701" y1="30.149" x2="25.165" y2="33.063" gradientUnits="userSpaceOnUse"><stop stop-color="#F03C53"/><stop offset="1" stop-color="#FF2778"/></linearGradient><linearGradient id="paint9_linear" x1="19.229" y1="36.411" x2="19.781" y2="39.294" gradientUnits="userSpaceOnUse"><stop stop-color="#F03C53"/><stop offset="1" stop-color="#FF2778"/></linearGradient><linearGradient id="paint10_linear" x1="19.229" y1="39.543" x2="19.781" y2="42.426" gradientUnits="userSpaceOnUse"><stop stop-color="#F03C53"/><stop offset="1" stop-color="#FF2778"/></linearGradient><linearGradient id="paint11_linear" x1="22.763" y1="42.674" x2="23.527" y2="45.452" gradientUnits="userSpaceOnUse"><stop stop-color="#F03C53"/><stop offset="1" stop-color="#FF2778"/></linearGradient><linearGradient id="paint12_linear" x1="22.763" y1="45.806" x2="23.527" y2="48.584" gradientUnits="userSpaceOnUse"><stop stop-color="#F03C53"/><stop offset="1" stop-color="#FF2778"/></linearGradient><linearGradient id="paint13_linear" x1="31.351" y1="36.411" x2="31.78" y2="39.337" gradientUnits="userSpaceOnUse"><stop stop-color="#F03C53"/><stop offset="1" stop-color="#FF2778"/></linearGradient><linearGradient id="paint14_linear" x1="32.537" y1="39.543" x2="33.089" y2="42.426" gradientUnits="userSpaceOnUse"><stop stop-color="#F03C53"/><stop offset="1" stop-color="#FF2778"/></linearGradient><linearGradient id="paint15_linear" x1="33.328" y1="42.674" x2="34.006" y2="45.5" gradientUnits="userSpaceOnUse"><stop stop-color="#F03C53"/><stop offset="1" stop-color="#FF2778"/></linearGradient><linearGradient id="paint16_linear" x1="34.118" y1="45.806" x2="34.99" y2="48.513" gradientUnits="userSpaceOnUse"><stop stop-color="#F03C53"/><stop offset="1" stop-color="#FF2778"/></linearGradient><filter id="filter0_d" x="3.135" y="3.139" width="41.469" height="41.465" filterUnits="userSpaceOnUse" color-interpolation-filters="sRGB"><feFlood flood-opacity="0" result="BackgroundImageFix"/><feColorMatrix in="SourceAlpha" values="0 0 0 0 0 0 0 0 0 0 0 0 0 0 0 0 0 0 127 0"/><feOffset/><feGaussianBlur stdDeviation="10"/><feColorMatrix values="0 0 0 0 0.290816 0 0 0 0 0.345804 0 0 0 0 0.59075 0 0 0 1 0"/><feBlend in2="BackgroundImageFix" result="effect1_dropShadow"/><feBlend in="SourceGraphic" in2="effect1_dropShadow" result="shape"/></filter><filter id="filter1_d" x="7.832" y="3.139" width="41.469" height="41.465" filterUnits="userSpaceOnUse" color-interpolation-filters="sRGB"><feFlood flood-opacity="0" result="BackgroundImageFix"/><feColorMatrix in="SourceAlpha" values="0 0 0 0 0 0 0 0 0 0 0 0 0 0 0 0 0 0 127 0"/><feOffset/><feGaussianBlur stdDeviation="10"/><feColorMatrix values="0 0 0 0 0.290816 0 0 0 0 0.345804 0 0 0 0 0.59075 0 0 0 1 0"/><feBlend in2="BackgroundImageFix" result="effect1_dropShadow"/><feBlend in="SourceGraphic" in2="effect1_dropShadow" result="shape"/></filter><filter id="filter2_d" x="5.484" y="3.139" width="41.469" height="41.465" filterUnits="userSpaceOnUse" color-interpolation-filters="sRGB"><feFlood flood-opacity="0" result="BackgroundImageFix"/><feColorMatrix in="SourceAlpha" values="0 0 0 0 0 0 0 0 0 0 0 0 0 0 0 0 0 0 127 0"/><feOffset/><feGaussianBlur stdDeviation="10"/><feColorMatrix values="0 0 0 0 0.290816 0 0 0 0 0.345804 0 0 0 0 0.59075 0 0 0 1 0"/><feBlend in2="BackgroundImageFix" result="effect1_dropShadow"/><feBlend in="SourceGraphic" in2="effect1_dropShadow" result="shape"/></filter><filter id="filter3_d" x="34.444" y="3.139" width="44.596" height="41.465" filterUnits="userSpaceOnUse" color-interpolation-filters="sRGB"><feFlood flood-opacity="0" result="BackgroundImageFix"/><feColorMatrix in="SourceAlpha" values="0 0 0 0 0 0 0 0 0 0 0 0 0 0 0 0 0 0 127 0"/><feOffset/><feGaussianBlur stdDeviation="10"/><feColorMatrix values="0 0 0 0 0.290816 0 0 0 0 0.345804 0 0 0 0 0.59075 0 0 0 1 0"/><feBlend in2="BackgroundImageFix" result="effect1_dropShadow"/><feBlend in="SourceGraphic" in2="effect1_dropShadow" result="shape"/></filter><filter id="filter4_d" x="10.96" y="3.139" width="61.818" height="41.465" filterUnits="userSpaceOnUse" color-interpolation-filters="sRGB"><feFlood flood-opacity="0" result="BackgroundImageFix"/><feColorMatrix in="SourceAlpha" values="0 0 0 0 0 0 0 0 0 0 0 0 0 0 0 0 0 0 127 0"/><feOffset/><feGaussianBlur stdDeviation="10"/><feColorMatrix values="0 0 0 0 0.290816 0 0 0 0 0.345804 0 0 0 0 0.59075 0 0 0 1 0"/><feBlend in2="BackgroundImageFix" result="effect1_dropShadow"/><feBlend in="SourceGraphic" in2="effect1_dropShadow" result="shape"/></filter><filter id="filter5_d" x="0" y=".008" width="90" height="82.172" filterUnits="userSpaceOnUse" color-interpolation-filters="sRGB"><feFlood flood-opacity="0" result="BackgroundImageFix"/><feColorMatrix in="SourceAlpha" values="0 0 0 0 0 0 0 0 0 0 0 0 0 0 0 0 0 0 127 0"/><feOffset/><feGaussianBlur stdDeviation="10"/><feColorMatrix values="0 0 0 0 0.290816 0 0 0 0 0.345804 0 0 0 0 0.59075 0 0 0 1 0"/><feBlend in2="BackgroundImageFix" result="effect1_dropShadow"/><feBlend in="SourceGraphic" in2="effect1_dropShadow" result="shape"/></filter><filter id="filter6_d" x="34.444" y="21.927" width="49.293" height="49.293" filterUnits="userSpaceOnUse" color-interpolation-filters="sRGB"><feFlood flood-opacity="0" result="BackgroundImageFix"/><feColorMatrix in="SourceAlpha" values="0 0 0 0 0 0 0 0 0 0 0 0 0 0 0 0 0 0 127 0"/><feOffset/><feGaussianBlur stdDeviation="10"/><feColorMatrix values="0 0 0 0 0.290816 0 0 0 0 0.345804 0 0 0 0 0.59075 0 0 0 1 0"/><feBlend in2="BackgroundImageFix" result="effect1_dropShadow"/><feBlend in="SourceGraphic" in2="effect1_dropShadow" result="shape"/></filter><filter id="filter7_d" x="3.131" y="9.402" width="44.596" height="41.465" filterUnits="userSpaceOnUse" color-interpolation-filters="sRGB"><feFlood flood-opacity="0" result="BackgroundImageFix"/><feColorMatrix in="SourceAlpha" values="0 0 0 0 0 0 0 0 0 0 0 0 0 0 0 0 0 0 127 0"/><feOffset/><feGaussianBlur stdDeviation="10"/><feColorMatrix values="0 0 0 0 0.290816 0 0 0 0 0.345804 0 0 0 0 0.59075 0 0 0 1 0"/><feBlend in2="BackgroundImageFix" result="effect1_dropShadow"/><feBlend in="SourceGraphic" in2="effect1_dropShadow" result="shape"/></filter><filter id="filter8_d" x="9.394" y="9.402" width="49.293" height="41.465" filterUnits="userSpaceOnUse" color-interpolation-filters="sRGB"><feFlood flood-opacity="0" result="BackgroundImageFix"/><feColorMatrix in="SourceAlpha" values="0 0 0 0 0 0 0 0 0 0 0 0 0 0 0 0 0 0 127 0"/><feOffset/><feGaussianBlur stdDeviation="10"/><feColorMatrix values="0 0 0 0 0.290816 0 0 0 0 0.345804 0 0 0 0 0.59075 0 0 0 1 0"/><feBlend in2="BackgroundImageFix" result="effect1_dropShadow"/><feBlend in="SourceGraphic" in2="effect1_dropShadow" result="shape"/></filter><filter id="filter9_d" x="3.131" y="15.664" width="47.727" height="41.465" filterUnits="userSpaceOnUse" color-interpolation-filters="sRGB"><feFlood flood-opacity="0" result="BackgroundImageFix"/><feColorMatrix in="SourceAlpha" values="0 0 0 0 0 0 0 0 0 0 0 0 0 0 0 0 0 0 127 0"/><feOffset/><feGaussianBlur stdDeviation="10"/><feColorMatrix values="0 0 0 0 0.290816 0 0 0 0 0.345804 0 0 0 0 0.59075 0 0 0 1 0"/><feBlend in2="BackgroundImageFix" result="effect1_dropShadow"/><feBlend in="SourceGraphic" in2="effect1_dropShadow" result="shape"/></filter><filter id="filter10_d" x="3.131" y="18.796" width="47.727" height="41.465" filterUnits="userSpaceOnUse" color-interpolation-filters="sRGB"><feFlood flood-opacity="0" result="BackgroundImageFix"/><feColorMatrix in="SourceAlpha" values="0 0 0 0 0 0 0 0 0 0 0 0 0 0 0 0 0 0 127 0"/><feOffset/><feGaussianBlur stdDeviation="10"/><feColorMatrix values="0 0 0 0 0.290816 0 0 0 0 0.345804 0 0 0 0 0.59075 0 0 0 1 0"/><feBlend in2="BackgroundImageFix" result="effect1_dropShadow"/><feBlend in="SourceGraphic" in2="effect1_dropShadow" result="shape"/></filter><filter id="filter11_d" x="5.48" y="21.927" width="45.379" height="41.465" filterUnits="userSpaceOnUse" color-interpolation-filters="sRGB"><feFlood flood-opacity="0" result="BackgroundImageFix"/><feColorMatrix in="SourceAlpha" values="0 0 0 0 0 0 0 0 0 0 0 0 0 0 0 0 0 0 127 0"/><feOffset/><feGaussianBlur stdDeviation="10"/><feColorMatrix values="0 0 0 0 0.290816 0 0 0 0 0.345804 0 0 0 0 0.59075 0 0 0 1 0"/><feBlend in2="BackgroundImageFix" result="effect1_dropShadow"/><feBlend in="SourceGraphic" in2="effect1_dropShadow" result="shape"/></filter><filter id="filter12_d" x="5.48" y="25.058" width="45.379" height="41.465" filterUnits="userSpaceOnUse" color-interpolation-filters="sRGB"><feFlood flood-opacity="0" result="BackgroundImageFix"/><feColorMatrix in="SourceAlpha" values="0 0 0 0 0 0 0 0 0 0 0 0 0 0 0 0 0 0 127 0"/><feOffset/><feGaussianBlur stdDeviation="10"/><feColorMatrix values="0 0 0 0 0.290816 0 0 0 0 0.345804 0 0 0 0 0.59075 0 0 0 1 0"/><feBlend in2="BackgroundImageFix" result="effect1_dropShadow"/><feBlend in="SourceGraphic" in2="effect1_dropShadow" result="shape"/></filter><filter id="filter13_d" x="16.439" y="15.664" width="50.076" height="41.465" filterUnits="userSpaceOnUse" color-interpolation-filters="sRGB"><feFlood flood-opacity="0" result="BackgroundImageFix"/><feColorMatrix in="SourceAlpha" values="0 0 0 0 0 0 0 0 0 0 0 0 0 0 0 0 0 0 127 0"/><feOffset/><feGaussianBlur stdDeviation="10"/><feColorMatrix values="0 0 0 0 0.290816 0 0 0 0 0.345804 0 0 0 0 0.59075 0 0 0 1 0"/><feBlend in2="BackgroundImageFix" result="effect1_dropShadow"/><feBlend in="SourceGraphic" in2="effect1_dropShadow" result="shape"/></filter><filter id="filter14_d" x="16.439" y="18.796" width="47.727" height="41.465" filterUnits="userSpaceOnUse" color-interpolation-filters="sRGB"><feFlood flood-opacity="0" result="BackgroundImageFix"/><feColorMatrix in="SourceAlpha" values="0 0 0 0 0 0 0 0 0 0 0 0 0 0 0 0 0 0 127 0"/><feOffset/><feGaussianBlur stdDeviation="10"/><feColorMatrix values="0 0 0 0 0.290816 0 0 0 0 0.345804 0 0 0 0 0.59075 0 0 0 1 0"/><feBlend in2="BackgroundImageFix" result="effect1_dropShadow"/><feBlend in="SourceGraphic" in2="effect1_dropShadow" result="shape"/></filter><filter id="filter15_d" x="16.439" y="21.927" width="46.162" height="41.465" filterUnits="userSpaceOnUse" color-interpolation-filters="sRGB"><feFlood flood-opacity="0" result="BackgroundImageFix"/><feColorMatrix in="SourceAlpha" values="0 0 0 0 0 0 0 0 0 0 0 0 0 0 0 0 0 0 127 0"/><feOffset/><feGaussianBlur stdDeviation="10"/><feColorMatrix values="0 0 0 0 0.290816 0 0 0 0 0.345804 0 0 0 0 0.59075 0 0 0 1 0"/><feBlend in2="BackgroundImageFix" result="effect1_dropShadow"/><feBlend in="SourceGraphic" in2="effect1_dropShadow" result="shape"/></filter><filter id="filter16_d" x="16.439" y="25.058" width="44.596" height="41.465" filterUnits="userSpaceOnUse" color-interpolation-filters="sRGB"><feFlood flood-opacity="0" result="BackgroundImageFix"/><feColorMatrix in="SourceAlpha" values="0 0 0 0 0 0 0 0 0 0 0 0 0 0 0 0 0 0 127 0"/><feOffset/><feGaussianBlur stdDeviation="10"/><feColorMatrix values="0 0 0 0 0.290816 0 0 0 0 0.345804 0 0 0 0 0.59075 0 0 0 1 0"/><feBlend in2="BackgroundImageFix" result="effect1_dropShadow"/><feBlend in="SourceGraphic" in2="effect1_dropShadow" result="shape"/></filter></defs></svg>